<svg width="206" height="218" viewBox="0 0 206 218" fill="none" xmlns="http://www.w3.org/2000/svg">
<rect x="171" y="1" width="216" height="170" transform="rotate(90 171 1)" stroke="white" stroke-width="2"/>
<rect x="206" width="218" height="44" transform="rotate(90 206 0)" fill="#EA4C14"/>
<path d="M168.836 188.94C168.836 190.994 169.676 192.02 171.356 192.02C172.15 192.02 172.756 191.787 173.176 191.32C173.643 190.807 173.876 190.014 173.876 188.94V172.14C173.876 171.067 173.643 170.297 173.176 169.83C172.756 169.317 172.15 169.06 171.356 169.06C169.676 169.06 168.836 170.087 168.836 172.14V188.94ZM163.936 172.49C163.936 169.97 164.566 168.034 165.826 166.68C167.086 165.327 168.93 164.65 171.356 164.65C173.783 164.65 175.626 165.327 176.886 166.68C178.146 168.034 178.776 169.97 178.776 172.49V188.59C178.776 191.11 178.146 193.047 176.886 194.4C175.626 195.754 173.783 196.43 171.356 196.43C168.93 196.43 167.086 195.754 165.826 194.4C164.566 193.047 163.936 191.11 163.936 188.59V172.49ZM190.676 165H195.226L175.906 214H171.356L190.676 165ZM193.126 206.86C193.126 208.914 193.966 209.94 195.646 209.94C196.44 209.94 197.046 209.707 197.466 209.24C197.933 208.727 198.166 207.934 198.166 206.86V190.06C198.166 188.987 197.933 188.217 197.466 187.75C197.046 187.237 196.44 186.98 195.646 186.98C193.966 186.98 193.126 188.007 193.126 190.06V206.86ZM188.226 190.41C188.226 187.89 188.856 185.954 190.116 184.6C191.376 183.247 193.22 182.57 195.646 182.57C198.073 182.57 199.916 183.247 201.176 184.6C202.437 185.954 203.067 187.89 203.067 190.41V206.51C203.067 209.03 202.437 210.967 201.176 212.32C199.916 213.674 198.073 214.35 195.646 214.35C193.22 214.35 191.376 213.674 190.116 212.32C188.856 210.967 188.226 209.03 188.226 206.51V190.41Z" fill="white"/>
<path d="M45.3727 169.319H61.4527V178.679H45.3727V195.119H36.0127V178.679H19.9327V169.319H36.0127V153.119H45.3727V169.319Z" fill="#EA4C14"/>
<path d="M96.6709 152.639C96.6709 148.879 96.0309 146.359 94.7509 145.079C93.5508 143.719 91.9109 143.039 89.8309 143.039C87.7509 143.039 86.0708 143.679 84.7908 144.959C83.5908 146.159 82.9908 148.279 82.9908 151.319V160.319H70.5108V152.159C70.5108 145.359 72.1508 140.159 75.4308 136.559C78.7908 132.879 83.7108 131.039 90.1909 131.039C96.6709 131.039 101.551 132.879 104.831 136.559C108.191 140.159 109.871 145.359 109.871 152.159C109.871 156.559 109.231 160.559 107.951 164.159C106.671 167.679 105.031 170.919 103.031 173.879C101.111 176.759 98.9909 179.439 96.6709 181.919C94.4309 184.399 92.3109 186.759 90.3109 188.999C88.3908 191.239 86.7908 193.439 85.5108 195.599C84.2309 197.679 83.5908 199.879 83.5908 202.199C83.5908 202.999 83.6308 203.599 83.7108 203.999H108.671V215.999H70.5108V205.679C70.5108 201.599 71.1508 197.999 72.4308 194.879C73.7108 191.759 75.3108 188.919 77.2308 186.359C79.2308 183.719 81.3508 181.279 83.5908 179.039C85.8308 176.719 87.9109 174.279 89.8309 171.719C91.8309 169.159 93.4709 166.359 94.7509 163.319C96.0309 160.279 96.6709 156.719 96.6709 152.639Z" fill="#EA4C14"/>
<path d="M131.409 196.679C131.409 199.719 132.009 201.879 133.209 203.159C134.489 204.359 136.169 204.959 138.249 204.959C140.329 204.959 141.969 204.359 143.169 203.159C144.449 201.879 145.089 199.719 145.089 196.679V151.319C145.089 148.279 144.449 146.159 143.169 144.959C141.969 143.679 140.329 143.039 138.249 143.039C136.169 143.039 134.489 143.679 133.209 144.959C132.009 146.159 131.409 148.279 131.409 151.319V196.679ZM118.209 152.159C118.209 145.359 119.929 140.159 123.369 136.559C126.809 132.879 131.769 131.039 138.249 131.039C144.729 131.039 149.689 132.879 153.129 136.559C156.569 140.159 158.289 145.359 158.289 152.159V195.839C158.289 202.639 156.569 207.879 153.129 211.559C149.689 215.159 144.729 216.959 138.249 216.959C131.769 216.959 126.809 215.159 123.369 211.559C119.929 207.879 118.209 202.639 118.209 195.839V152.159Z" fill="#EA4C14"/>
</svg>
