<svg width="451" height="41" viewBox="0 0 451 41" fill="none" xmlns="http://www.w3.org/2000/svg">
<path d="M11.6 9.6C11.6 8.03333 11.3333 6.98333 10.8 6.45C10.3 5.88333 9.61667 5.6 8.75 5.6C7.88333 5.6 7.18333 5.86667 6.65 6.4C6.15 6.9 5.9 7.78333 5.9 9.05V11.3H0.7V9.4C0.7 6.56667 1.38333 4.4 2.75 2.9C4.15 1.36667 6.2 0.6 8.9 0.6C11.6 0.6 13.6333 1.36667 15 2.9C16.4 4.4 17.1 6.56667 17.1 9.4V10.3C17.1 14.0333 15.8167 16.4333 13.25 17.5C14.65 18.1 15.6333 19.0333 16.2 20.3C16.8 21.5333 17.1 23.05 17.1 24.85V27.6C17.1 30.4333 16.4 32.6167 15 34.15C13.6333 35.65 11.6 36.4 8.9 36.4C6.2 36.4 4.15 35.65 2.75 34.15C1.38333 32.6167 0.7 30.4333 0.7 27.6V24.7H5.9V27.95C5.9 29.2167 6.15 30.1167 6.65 30.65C7.18333 31.15 7.88333 31.4 8.75 31.4C9.61667 31.4 10.3 31.1333 10.8 30.6C11.3333 30.0667 11.6 29.0167 11.6 27.45V24.7C11.6 23.0667 11.3167 21.9167 10.75 21.25C10.1833 20.5833 9.26667 20.25 8 20.25H6.15V15.25H8.3C9.33333 15.25 10.1333 14.9833 10.7 14.45C11.3 13.9167 11.6 12.95 11.6 11.55V9.6ZM21.3242 0.999998H30.0242C32.7909 0.999998 34.8409 1.73333 36.1742 3.2C37.5409 4.66666 38.2242 6.81666 38.2242 9.65V27.35C38.2242 30.1833 37.5409 32.3333 36.1742 33.8C34.8409 35.2667 32.7909 36 30.0242 36H21.3242V0.999998ZM26.8242 6V31H29.9242C30.7909 31 31.4742 30.75 31.9742 30.25C32.4742 29.75 32.7242 28.8667 32.7242 27.6V9.4C32.7242 8.13333 32.4742 7.25 31.9742 6.75C31.4742 6.25 30.7909 6 29.9242 6H26.8242ZM41.7461 36V30.7H47.0461V35.45L44.6461 41H42.3961L43.8461 36H41.7461ZM68.0871 29.55L72.2871 0.999998H77.3371L71.9371 36H63.7371L58.3371 0.999998H63.8871L68.0871 29.55ZM91.9043 36C91.8376 35.7667 91.771 35.55 91.7043 35.35C91.6376 35.15 91.571 34.9 91.5043 34.6C91.471 34.3 91.4376 33.9167 91.4043 33.45C91.4043 32.9833 91.4043 32.4 91.4043 31.7V26.2C91.4043 24.5667 91.121 23.4167 90.5543 22.75C89.9876 22.0833 89.071 21.75 87.8043 21.75H85.9043V36H80.4043V0.999998H88.7043C91.571 0.999998 93.6376 1.66666 94.9043 3C96.2043 4.33333 96.8543 6.35 96.8543 9.05V11.8C96.8543 15.4 95.6543 17.7667 93.2543 18.9C94.6543 19.4667 95.6043 20.4 96.1043 21.7C96.6376 22.9667 96.9043 24.5167 96.9043 26.35V31.75C96.9043 32.6167 96.9376 33.3833 97.0043 34.05C97.071 34.6833 97.2376 35.3333 97.5043 36H91.9043ZM85.9043 6V16.75H88.0543C89.0876 16.75 89.8876 16.4833 90.4543 15.95C91.0543 15.4167 91.3543 14.45 91.3543 13.05V9.6C91.3543 8.33333 91.121 7.41667 90.6543 6.85C90.221 6.28333 89.521 6 88.5543 6H85.9043ZM114.935 36H109.285V0.999998H114.185V23.15L116.185 15.45L120.685 0.999998H126.735V36H121.785V11.35L119.535 19.95L114.935 36ZM147.687 0.999998C150.553 0.999998 152.62 1.66666 153.887 3C155.187 4.33333 155.837 6.35 155.837 9.05V10.3C155.837 12.1 155.553 13.5833 154.987 14.75C154.42 15.9167 153.52 16.7833 152.287 17.35C153.787 17.9167 154.837 18.85 155.437 20.15C156.07 21.4167 156.387 22.9833 156.387 24.85V27.7C156.387 30.4 155.687 32.4667 154.287 33.9C152.887 35.3 150.803 36 148.037 36H139.387V0.999998H147.687ZM144.887 20.25V31H148.037C148.97 31 149.67 30.75 150.137 30.25C150.637 29.75 150.887 28.85 150.887 27.55V24.5C150.887 22.8667 150.603 21.75 150.037 21.15C149.503 20.55 148.603 20.25 147.337 20.25H144.887ZM144.887 6V15.25H147.037C148.07 15.25 148.87 14.9833 149.437 14.45C150.037 13.9167 150.337 12.95 150.337 11.55V9.6C150.337 8.33333 150.103 7.41667 149.637 6.85C149.203 6.28333 148.503 6 147.537 6H144.887ZM165.849 36H160.199V0.999998H165.099V23.15L167.099 15.45L171.599 0.999998H177.649V36H172.699V11.35L170.449 19.95L165.849 36ZM197.937 40.7V36H186.187V40.7H180.837V31.1H182.987C183.454 30.5 183.77 29.85 183.937 29.15C184.137 28.45 184.27 27.5833 184.337 26.55L185.587 0.999998H200.987V31.1H203.387V40.7H197.937ZM189.737 26.45C189.67 27.7833 189.504 28.7833 189.237 29.45C189.004 30.1167 188.654 30.6667 188.187 31.1H195.387V6H190.737L189.737 26.45ZM212.451 15.75H220.001V20.75H212.451V31H221.951V36H206.951V0.999998H221.951V6H212.451V15.75ZM230.909 27.95C230.909 29.2167 231.159 30.1167 231.659 30.65C232.193 31.15 232.893 31.4 233.759 31.4C234.626 31.4 235.309 31.15 235.809 30.65C236.343 30.1167 236.609 29.2167 236.609 27.95V9.05C236.609 7.78333 236.343 6.9 235.809 6.4C235.309 5.86667 234.626 5.6 233.759 5.6C232.893 5.6 232.193 5.86667 231.659 6.4C231.159 6.9 230.909 7.78333 230.909 9.05V27.95ZM225.409 9.4C225.409 6.56667 226.126 4.4 227.559 2.9C228.993 1.36667 231.059 0.6 233.759 0.6C236.459 0.6 238.526 1.36667 239.959 2.9C241.393 4.4 242.109 6.56667 242.109 9.4V27.6C242.109 30.4333 241.393 32.6167 239.959 34.15C238.526 35.65 236.459 36.4 233.759 36.4C231.059 36.4 228.993 35.65 227.559 34.15C226.126 32.6167 225.409 30.4333 225.409 27.6V9.4ZM266.097 25.85L269.847 0.999998H277.497V36H272.297V10.9L268.497 36H263.297L259.197 11.25V36H254.397V0.999998H262.047L266.097 25.85ZM299.798 36H294.248L293.298 29.65H286.548L285.598 36H280.548L286.148 0.999998H294.198L299.798 36ZM287.248 24.9H292.548L289.898 7.2L287.248 24.9ZM301.259 0.999998H318.259V6H312.509V36H307.009V6H301.259V0.999998ZM326.682 15.75H334.232V20.75H326.682V31H336.182V36H321.182V0.999998H336.182V6H326.682V15.75ZM348.19 0.999998C350.957 0.999998 353.007 1.73333 354.34 3.2C355.707 4.66666 356.39 6.81666 356.39 9.65V14.2C356.39 17.0333 355.707 19.1833 354.34 20.65C353.007 22.1167 350.957 22.85 348.19 22.85H345.59V36H340.09V0.999998H348.19ZM345.59 6V17.85H348.19C349.057 17.85 349.723 17.6167 350.19 17.15C350.657 16.6833 350.89 15.8167 350.89 14.55V9.3C350.89 8.03333 350.657 7.16667 350.19 6.7C349.723 6.23333 349.057 6 348.19 6H345.59ZM365.088 36H359.438V0.999998H364.338V23.15L366.338 15.45L370.838 0.999998H376.888V36H371.938V11.35L369.688 19.95L365.088 36ZM399.075 36H393.525L392.575 29.65H385.825L384.875 36H379.825L385.425 0.999998H393.475L399.075 36ZM386.525 24.9H391.825L389.175 7.2L386.525 24.9ZM400.587 31.05C401.22 31.05 401.737 31.0167 402.137 30.95C402.57 30.8833 402.92 30.7333 403.187 30.5C403.453 30.2333 403.637 29.8667 403.737 29.4C403.87 28.9 403.953 28.25 403.987 27.45L404.887 0.999998H420.437V36H414.837V6H410.037L409.437 27.15C409.337 30.35 408.653 32.6333 407.387 34C406.153 35.3667 404.17 36.05 401.437 36.05H400.587V31.05ZM425.146 36V0.999998H430.646V14.15H433.246C436.013 14.15 438.063 14.8833 439.396 16.35C440.763 17.8167 441.446 19.9667 441.446 22.8V27.35C441.446 30.1833 440.763 32.3333 439.396 33.8C438.063 35.2667 436.013 36 433.246 36H425.146ZM433.246 31C434.113 31 434.78 30.7667 435.246 30.3C435.713 29.8333 435.946 28.9667 435.946 27.7V22.45C435.946 21.1833 435.713 20.3167 435.246 19.85C434.78 19.3833 434.113 19.15 433.246 19.15H430.646V31H433.246ZM444.596 36V0.999998H450.096V36H444.596Z" fill="#EFEFEF"/>
</svg>
