<svg width="403" height="37" viewBox="0 0 403 37" fill="none" xmlns="http://www.w3.org/2000/svg">
<path d="M5.95 24.7V27.95C5.95 29.2167 6.2 30.1 6.7 30.6C7.23333 31.1 7.93333 31.35 8.8 31.35C9.66667 31.35 10.35 31.1 10.85 30.6C11.3833 30.1 11.65 29.2167 11.65 27.95V20.25C11.65 18.9833 11.3833 18.1 10.85 17.6C10.35 17.0667 9.66667 16.8 8.8 16.8C7.93333 16.8 7.23333 17.0667 6.7 17.6C6.2 18.1 5.95 18.9833 5.95 20.25V21.3H0.75L1.75 0.999998H16.25V6H6.7L6.25 14.35C7.28333 12.65 8.88333 11.8 11.05 11.8C13.0833 11.8 14.6 12.4833 15.6 13.85C16.6333 15.2167 17.15 17.2 17.15 19.8V27.6C17.15 30.4333 16.45 32.6167 15.05 34.15C13.6833 35.65 11.65 36.4 8.95 36.4C6.25 36.4 4.2 35.65 2.8 34.15C1.43333 32.6167 0.75 30.4333 0.75 27.6V24.7H5.95ZM29.5879 36V0.999998H35.0879V31H39.8379V0.999998H45.3379V31H50.0879V0.999998H55.5879V36H29.5879ZM77.8684 36H72.3184L71.3684 29.65H64.6184L63.6684 36H58.6184L64.2184 0.999998H72.2684L77.8684 36ZM65.3184 24.9H70.6184L67.9684 7.2L65.3184 24.9ZM80.9797 36V0.999998H95.4797V6H86.4797V36H80.9797ZM104.741 27.95C104.741 29.2167 104.991 30.1167 105.491 30.65C106.025 31.15 106.725 31.4 107.591 31.4C108.458 31.4 109.141 31.15 109.641 30.65C110.175 30.1167 110.441 29.2167 110.441 27.95V9.05C110.441 7.78333 110.175 6.9 109.641 6.4C109.141 5.86667 108.458 5.6 107.591 5.6C106.725 5.6 106.025 5.86667 105.491 6.4C104.991 6.9 104.741 7.78333 104.741 9.05V27.95ZM99.2414 9.4C99.2414 6.56667 99.9581 4.4 101.391 2.9C102.825 1.36667 104.891 0.6 107.591 0.6C110.291 0.6 112.358 1.36667 113.791 2.9C115.225 4.4 115.941 6.56667 115.941 9.4V27.6C115.941 30.4333 115.225 32.6167 113.791 34.15C112.358 35.65 110.291 36.4 107.591 36.4C104.891 36.4 102.825 35.65 101.391 34.15C99.9581 32.6167 99.2414 30.4333 99.2414 27.6V9.4ZM128.316 0.999998C131.182 0.999998 133.249 1.66666 134.516 3C135.816 4.33333 136.466 6.35 136.466 9.05V10.3C136.466 12.1 136.182 13.5833 135.616 14.75C135.049 15.9167 134.149 16.7833 132.916 17.35C134.416 17.9167 135.466 18.85 136.066 20.15C136.699 21.4167 137.016 22.9833 137.016 24.85V27.7C137.016 30.4 136.316 32.4667 134.916 33.9C133.516 35.3 131.432 36 128.666 36H120.016V0.999998H128.316ZM125.516 20.25V31H128.666C129.599 31 130.299 30.75 130.766 30.25C131.266 29.75 131.516 28.85 131.516 27.55V24.5C131.516 22.8667 131.232 21.75 130.666 21.15C130.132 20.55 129.232 20.25 127.966 20.25H125.516ZM125.516 6V15.25H127.666C128.699 15.25 129.499 14.9833 130.066 14.45C130.666 13.9167 130.966 12.95 130.966 11.55V9.6C130.966 8.33333 130.732 7.41667 130.266 6.85C129.832 6.28333 129.132 6 128.166 6H125.516Z" fill="#EA4C14"/>
<path d="M157.192 0.999998C159.958 0.999998 162.008 1.73333 163.342 3.2C164.708 4.66666 165.392 6.81666 165.392 9.65V14.2C165.392 17.0333 164.708 19.1833 163.342 20.65C162.008 22.1167 159.958 22.85 157.192 22.85H154.592V36H149.092V0.999998H157.192ZM154.592 6V17.85H157.192C158.058 17.85 158.725 17.6167 159.192 17.15C159.658 16.6833 159.892 15.8167 159.892 14.55V9.3C159.892 8.03333 159.658 7.16667 159.192 6.7C158.725 6.23333 158.058 6 157.192 6H154.592ZM186.239 36H180.689L179.739 29.65H172.989L172.039 36H166.989L172.589 0.999998H180.639L186.239 36ZM173.689 24.9H178.989L176.339 7.2L173.689 24.9ZM189.351 36V0.999998H204.751V6H194.851V14.95H198.051C200.817 14.95 202.884 15.6833 204.251 17.15C205.651 18.6167 206.351 20.7667 206.351 23.6V27.35C206.351 30.1833 205.651 32.3333 204.251 33.8C202.884 35.2667 200.817 36 198.051 36H189.351ZM198.051 31C198.917 31 199.601 30.7667 200.101 30.3C200.601 29.8333 200.851 28.9667 200.851 27.7V23.25C200.851 21.9833 200.601 21.1167 200.101 20.65C199.601 20.1833 198.917 19.95 198.051 19.95H194.851V31H198.051ZM215.603 27.95C215.603 29.2167 215.853 30.1167 216.353 30.65C216.886 31.15 217.586 31.4 218.453 31.4C219.319 31.4 220.003 31.15 220.503 30.65C221.036 30.1167 221.303 29.2167 221.303 27.95V9.05C221.303 7.78333 221.036 6.9 220.503 6.4C220.003 5.86667 219.319 5.6 218.453 5.6C217.586 5.6 216.886 5.86667 216.353 6.4C215.853 6.9 215.603 7.78333 215.603 9.05V27.95ZM210.103 9.4C210.103 6.56667 210.819 4.4 212.253 2.9C213.686 1.36667 215.753 0.6 218.453 0.6C221.153 0.6 223.219 1.36667 224.653 2.9C226.086 4.4 226.803 6.56667 226.803 9.4V27.6C226.803 30.4333 226.086 32.6167 224.653 34.15C223.219 35.65 221.153 36.4 218.453 36.4C215.753 36.4 213.686 35.65 212.253 34.15C210.819 32.6167 210.103 30.4333 210.103 27.6V9.4ZM229.277 0.999998H246.277V6H240.527V36H235.027V6H229.277V0.999998ZM249.199 36V0.999998H254.699V14.15H257.299C260.066 14.15 262.116 14.8833 263.449 16.35C264.816 17.8167 265.499 19.9667 265.499 22.8V27.35C265.499 30.1833 264.816 32.3333 263.449 33.8C262.116 35.2667 260.066 36 257.299 36H249.199ZM257.299 31C258.166 31 258.833 30.7667 259.299 30.3C259.766 29.8333 259.999 28.9667 259.999 27.7V22.45C259.999 21.1833 259.766 20.3167 259.299 19.85C258.833 19.3833 258.166 19.15 257.299 19.15H254.699V31H257.299ZM268.649 36V0.999998H274.149V36H268.649ZM302.868 22.95V27.6C302.868 30.4333 302.168 32.6167 300.768 34.15C299.401 35.65 297.368 36.4 294.668 36.4C291.968 36.4 289.918 35.65 288.518 34.15C287.151 32.6167 286.468 30.4333 286.468 27.6V9.4C286.468 6.56667 287.151 4.4 288.518 2.9C289.918 1.36667 291.968 0.6 294.668 0.6C297.368 0.6 299.401 1.36667 300.768 2.9C302.168 4.4 302.868 6.56667 302.868 9.4V12.8H297.668V9.05C297.668 7.78333 297.401 6.9 296.868 6.4C296.368 5.86667 295.685 5.6 294.818 5.6C293.951 5.6 293.251 5.86667 292.718 6.4C292.218 6.9 291.968 7.78333 291.968 9.05V27.95C291.968 29.2167 292.218 30.1 292.718 30.6C293.251 31.1 293.951 31.35 294.818 31.35C295.685 31.35 296.368 31.1 296.868 30.6C297.401 30.1 297.668 29.2167 297.668 27.95V22.95H302.868ZM320.469 36H314.969V0.999998H320.469V16H326.719V0.999998H332.319V36H326.719V21H320.469V36ZM354.607 36H349.057L348.107 29.65H341.357L340.407 36H335.357L340.957 0.999998H349.007L354.607 36ZM342.057 24.9H347.357L344.707 7.2L342.057 24.9ZM369.318 25.85L373.068 0.999998H380.718V36H375.518V10.9L371.718 36H366.518L362.418 11.25V36H357.618V0.999998H365.268L369.318 25.85ZM390.869 36H385.219V0.999998H390.119V23.15L392.119 15.45L396.619 0.999998H402.669V36H397.719V11.35L395.469 19.95L390.869 36Z" fill="#EFEFEF"/>
</svg>
