<svg width="281" height="41" viewBox="0 0 281 41" fill="none" xmlns="http://www.w3.org/2000/svg">
<path d="M7.2 22.05L5.5 25.25V36H1.41561e-07V0.999998H5.5V16.25L12.7 0.999998H18.2L10.55 16.6L18.2 36H12.55L7.2 22.05ZM26.2531 27.95C26.2531 29.2167 26.5031 30.1167 27.0031 30.65C27.5365 31.15 28.2365 31.4 29.1031 31.4C29.9698 31.4 30.6531 31.15 31.1531 30.65C31.6865 30.1167 31.9531 29.2167 31.9531 27.95V9.05C31.9531 7.78333 31.6865 6.9 31.1531 6.4C30.6531 5.86667 29.9698 5.6 29.1031 5.6C28.2365 5.6 27.5365 5.86667 27.0031 6.4C26.5031 6.9 26.2531 7.78333 26.2531 9.05V27.95ZM20.7531 9.4C20.7531 6.56667 21.4698 4.4 22.9031 2.9C24.3365 1.36667 26.4031 0.6 29.1031 0.6C31.8031 0.6 33.8698 1.36667 35.3031 2.9C36.7365 4.4 37.4531 6.56667 37.4531 9.4V27.6C37.4531 30.4333 36.7365 32.6167 35.3031 34.15C33.8698 35.65 31.8031 36.4 29.1031 36.4C26.4031 36.4 24.3365 35.65 22.9031 34.15C21.4698 32.6167 20.7531 30.4333 20.7531 27.6V9.4ZM53.1773 25.85L56.9273 0.999998H64.5773V36H59.3773V10.9L55.5773 36H50.3773L46.2773 11.25V36H41.4773V0.999998H49.1273L53.1773 25.85ZM86.8781 36H81.3281L80.3781 29.65H73.6281L72.6781 36H67.6281L73.2281 0.999998H81.2781L86.8781 36ZM74.3281 24.9H79.6281L76.9781 7.2L74.3281 24.9ZM95.4395 36H89.9395V0.999998H95.4395V16H101.689V0.999998H107.289V36H101.689V21H95.4395V36ZM127.677 40.7V36H115.927V40.7H110.577V31.1H112.727C113.194 30.5 113.511 29.85 113.677 29.15C113.877 28.45 114.011 27.5833 114.077 26.55L115.327 0.999998H130.727V31.1H133.127V40.7H127.677ZM119.477 26.45C119.411 27.7833 119.244 28.7833 118.977 29.45C118.744 30.1167 118.394 30.6667 117.927 31.1H125.127V6H120.477L119.477 26.45ZM154.491 36H148.941L147.991 29.65H141.241L140.291 36H135.241L140.841 0.999998H148.891L154.491 36ZM141.941 24.9H147.241L144.591 7.2L141.941 24.9ZM174.116 0.999998C176.983 0.999998 179.05 1.66666 180.316 3C181.616 4.33333 182.266 6.35 182.266 9.05V10.3C182.266 12.1 181.983 13.5833 181.416 14.75C180.85 15.9167 179.95 16.7833 178.716 17.35C180.216 17.9167 181.266 18.85 181.866 20.15C182.5 21.4167 182.816 22.9833 182.816 24.85V27.7C182.816 30.4 182.116 32.4667 180.716 33.9C179.316 35.3 177.233 36 174.466 36H165.816V0.999998H174.116ZM171.316 20.25V31H174.466C175.4 31 176.1 30.75 176.566 30.25C177.066 29.75 177.316 28.85 177.316 27.55V24.5C177.316 22.8667 177.033 21.75 176.466 21.15C175.933 20.55 175.033 20.25 173.766 20.25H171.316ZM171.316 6V15.25H173.466C174.5 15.25 175.3 14.9833 175.866 14.45C176.466 13.9167 176.766 12.95 176.766 11.55V9.6C176.766 8.33333 176.533 7.41667 176.066 6.85C175.633 6.28333 174.933 6 173.966 6H171.316ZM186.629 0.999998H192.129V36H186.629V0.999998ZM208.3 25.85L212.05 0.999998H219.7V36H214.5V10.9L210.7 36H205.5L201.4 11.25V36H196.6V0.999998H204.25L208.3 25.85Z" fill="#EFEFEF"/>
<path d="M232.301 0.999998C235.068 0.999998 237.118 1.73333 238.451 3.2C239.818 4.66666 240.501 6.81666 240.501 9.65V14.2C240.501 17.0333 239.818 19.1833 238.451 20.65C237.118 22.1167 235.068 22.85 232.301 22.85H229.701V36H224.201V0.999998H232.301ZM229.701 6V17.85H232.301C233.168 17.85 233.835 17.6167 234.301 17.15C234.768 16.6833 235.001 15.8167 235.001 14.55V9.3C235.001 8.03333 234.768 7.16667 234.301 6.7C233.835 6.23333 233.168 6 232.301 6H229.701ZM255.293 36C255.226 35.7667 255.16 35.55 255.093 35.35C255.026 35.15 254.96 34.9 254.893 34.6C254.86 34.3 254.826 33.9167 254.793 33.45C254.793 32.9833 254.793 32.4 254.793 31.7V26.2C254.793 24.5667 254.51 23.4167 253.943 22.75C253.376 22.0833 252.46 21.75 251.193 21.75H249.293V36H243.793V0.999998H252.093C254.96 0.999998 257.026 1.66666 258.293 3C259.593 4.33333 260.243 6.35 260.243 9.05V11.8C260.243 15.4 259.043 17.7667 256.643 18.9C258.043 19.4667 258.993 20.4 259.493 21.7C260.026 22.9667 260.293 24.5167 260.293 26.35V31.75C260.293 32.6167 260.326 33.3833 260.393 34.05C260.46 34.6833 260.626 35.3333 260.893 36H255.293ZM249.293 6V16.75H251.443C252.476 16.75 253.276 16.4833 253.843 15.95C254.443 15.4167 254.743 14.45 254.743 13.05V9.6C254.743 8.33333 254.51 7.41667 254.043 6.85C253.61 6.28333 252.91 6 251.943 6H249.293ZM269.46 27.95C269.46 29.2167 269.71 30.1167 270.21 30.65C270.743 31.15 271.443 31.4 272.31 31.4C273.177 31.4 273.86 31.15 274.36 30.65C274.893 30.1167 275.16 29.2167 275.16 27.95V9.05C275.16 7.78333 274.893 6.9 274.36 6.4C273.86 5.86667 273.177 5.6 272.31 5.6C271.443 5.6 270.743 5.86667 270.21 6.4C269.71 6.9 269.46 7.78333 269.46 9.05V27.95ZM263.96 9.4C263.96 6.56667 264.677 4.4 266.11 2.9C267.543 1.36667 269.61 0.6 272.31 0.6C275.01 0.6 277.077 1.36667 278.51 2.9C279.943 4.4 280.66 6.56667 280.66 9.4V27.6C280.66 30.4333 279.943 32.6167 278.51 34.15C277.077 35.65 275.01 36.4 272.31 36.4C269.61 36.4 267.543 35.65 266.11 34.15C264.677 32.6167 263.96 30.4333 263.96 27.6V9.4Z" fill="#E74214"/>
</svg>
