<svg width="447" height="91" viewBox="0 0 447 91" fill="none" xmlns="http://www.w3.org/2000/svg">
<path d="M2.05 36V0.999998H16.55V6H7.55V36H2.05ZM38.5617 36H33.0117L32.0617 29.65H25.3117L24.3617 36H19.3117L24.9117 0.999998H32.9617L38.5617 36ZM26.0117 24.9H31.3117L28.6617 7.2L26.0117 24.9ZM49.723 0.999998C52.4897 0.999998 54.5397 1.73333 55.873 3.2C57.2397 4.66666 57.923 6.81666 57.923 9.65V14.2C57.923 17.0333 57.2397 19.1833 55.873 20.65C54.5397 22.1167 52.4897 22.85 49.723 22.85H47.123V36H41.623V0.999998H49.723ZM47.123 6V17.85H49.723C50.5897 17.85 51.2564 17.6167 51.723 17.15C52.1897 16.6833 52.423 15.8167 52.423 14.55V9.3C52.423 8.03333 52.1897 7.16667 51.723 6.7C51.2564 6.23333 50.5897 6 49.723 6H47.123ZM78.7707 36H73.2207L72.2707 29.65H65.5207L64.5707 36H59.5207L65.1207 0.999998H73.1707L78.7707 36ZM66.2207 24.9H71.5207L68.8707 7.2L66.2207 24.9ZM87.332 36H81.832V0.999998H87.332V16H93.582V0.999998H99.182V36H93.582V21H87.332V36ZM102.07 0.999998H119.07V6H113.32V36H107.82V6H102.07V0.999998ZM127.642 36H121.992V0.999998H126.892V23.15L128.892 15.45L133.392 0.999998H139.442V36H134.492V11.35L132.242 19.95L127.642 36ZM149.48 36H143.83V0.999998H148.73V23.15L150.73 15.45L155.23 0.999998H161.28V36H156.33V11.35L154.08 19.95L149.48 36ZM165.668 36V30.7H170.968V35.45L168.568 41H166.318L167.768 36H165.668Z" fill="#E74214"/>
<path d="M189.209 36H183.709V0.999998H201.059V36H195.459V6H189.209V36ZM213.647 0.999998C216.414 0.999998 218.464 1.73333 219.797 3.2C221.164 4.66666 221.847 6.81666 221.847 9.65V14.2C221.847 17.0333 221.164 19.1833 219.797 20.65C218.464 22.1167 216.414 22.85 213.647 22.85H211.047V36H205.547V0.999998H213.647ZM211.047 6V17.85H213.647C214.514 17.85 215.18 17.6167 215.647 17.15C216.114 16.6833 216.347 15.8167 216.347 14.55V9.3C216.347 8.03333 216.114 7.16667 215.647 6.7C215.18 6.23333 214.514 6 213.647 6H211.047ZM229.945 27.95C229.945 29.2167 230.195 30.1167 230.695 30.65C231.228 31.15 231.928 31.4 232.795 31.4C233.661 31.4 234.345 31.15 234.845 30.65C235.378 30.1167 235.645 29.2167 235.645 27.95V9.05C235.645 7.78333 235.378 6.9 234.845 6.4C234.345 5.86667 233.661 5.6 232.795 5.6C231.928 5.6 231.228 5.86667 230.695 6.4C230.195 6.9 229.945 7.78333 229.945 9.05V27.95ZM224.445 9.4C224.445 6.56667 225.161 4.4 226.595 2.9C228.028 1.36667 230.095 0.6 232.795 0.6C235.495 0.6 237.561 1.36667 238.995 2.9C240.428 4.4 241.145 6.56667 241.145 9.4V27.6C241.145 30.4333 240.428 32.6167 238.995 34.15C237.561 35.65 235.495 36.4 232.795 36.4C230.095 36.4 228.028 35.65 226.595 34.15C225.161 32.6167 224.445 30.4333 224.445 27.6V9.4ZM250.719 36H245.219V0.999998H262.569V36H256.969V6H250.719V36ZM272.707 36H267.057V0.999998H271.957V23.15L273.957 15.45L278.457 0.999998H284.507V36H279.557V11.35L277.307 19.95L272.707 36ZM304.845 22.95V27.6C304.845 30.4333 304.145 32.6167 302.745 34.15C301.378 35.65 299.345 36.4 296.645 36.4C293.945 36.4 291.895 35.65 290.495 34.15C289.128 32.6167 288.445 30.4333 288.445 27.6V9.4C288.445 6.56667 289.128 4.4 290.495 2.9C291.895 1.36667 293.945 0.6 296.645 0.6C299.345 0.6 301.378 1.36667 302.745 2.9C304.145 4.4 304.845 6.56667 304.845 9.4V12.8H299.645V9.05C299.645 7.78333 299.378 6.9 298.845 6.4C298.345 5.86667 297.661 5.6 296.795 5.6C295.928 5.6 295.228 5.86667 294.695 6.4C294.195 6.9 293.945 7.78333 293.945 9.05V27.95C293.945 29.2167 294.195 30.1 294.695 30.6C295.228 31.1 295.928 31.35 296.795 31.35C297.661 31.35 298.345 31.1 298.845 30.6C299.378 30.1 299.645 29.2167 299.645 27.95V22.95H304.845ZM326.482 36H320.932L319.982 29.65H313.232L312.282 36H307.232L312.832 0.999998H320.882L326.482 36ZM313.932 24.9H319.232L316.582 7.2L313.932 24.9ZM335.043 36H329.543V0.999998H335.043V16H341.293V0.999998H346.893V36H341.293V21H335.043V36ZM356.881 36H351.381V0.999998H356.881V16H363.131V0.999998H368.731V36H363.131V21H356.881V36ZM373.219 36V0.999998H378.719V14.15H381.319C384.085 14.15 386.135 14.8833 387.469 16.35C388.835 17.8167 389.519 19.9667 389.519 22.8V27.35C389.519 30.1833 388.835 32.3333 387.469 33.8C386.135 35.2667 384.085 36 381.319 36H373.219ZM381.319 31C382.185 31 382.852 30.7667 383.319 30.3C383.785 29.8333 384.019 28.9667 384.019 27.7V22.45C384.019 21.1833 383.785 20.3167 383.319 19.85C382.852 19.3833 382.185 19.15 381.319 19.15H378.719V31H381.319ZM392.669 36V0.999998H398.169V36H392.669ZM408.174 15.75H415.724V20.75H408.174V31H417.674V36H402.674V0.999998H417.674V6H408.174V15.75ZM438.146 0.999998C441.012 0.999998 443.079 1.66666 444.346 3C445.646 4.33333 446.296 6.35 446.296 9.05V10.3C446.296 12.1 446.012 13.5833 445.446 14.75C444.879 15.9167 443.979 16.7833 442.746 17.35C444.246 17.9167 445.296 18.85 445.896 20.15C446.529 21.4167 446.846 22.9833 446.846 24.85V27.7C446.846 30.4 446.146 32.4667 444.746 33.9C443.346 35.3 441.262 36 438.496 36H429.846V0.999998H438.146ZM435.346 20.25V31H438.496C439.429 31 440.129 30.75 440.596 30.25C441.096 29.75 441.346 28.85 441.346 27.55V24.5C441.346 22.8667 441.062 21.75 440.496 21.15C439.962 20.55 439.062 20.25 437.796 20.25H435.346ZM435.346 6V15.25H437.496C438.529 15.25 439.329 14.9833 439.896 14.45C440.496 13.9167 440.796 12.95 440.796 11.55V9.6C440.796 8.33333 440.562 7.41667 440.096 6.85C439.662 6.28333 438.962 6 437.996 6H435.346ZM17.9 90.7V86H6.15V90.7H0.8V81.1H2.95C3.41667 80.5 3.73333 79.85 3.9 79.15C4.1 78.45 4.23333 77.5833 4.3 76.55L5.55 51H20.95V81.1H23.35V90.7H17.9ZM9.7 76.45C9.63333 77.7833 9.46667 78.7833 9.2 79.45C8.96667 80.1167 8.61667 80.6667 8.15 81.1H15.35V56H10.7L9.7 76.45ZM31.9641 77.95C31.9641 79.2167 32.2141 80.1167 32.7141 80.65C33.2474 81.15 33.9474 81.4 34.8141 81.4C35.6807 81.4 36.3641 81.15 36.8641 80.65C37.3974 80.1167 37.6641 79.2167 37.6641 77.95V59.05C37.6641 57.7833 37.3974 56.9 36.8641 56.4C36.3641 55.8667 35.6807 55.6 34.8141 55.6C33.9474 55.6 33.2474 55.8667 32.7141 56.4C32.2141 56.9 31.9641 57.7833 31.9641 59.05V77.95ZM26.4641 59.4C26.4641 56.5667 27.1807 54.4 28.6141 52.9C30.0474 51.3667 32.1141 50.6 34.8141 50.6C37.5141 50.6 39.5807 51.3667 41.0141 52.9C42.4474 54.4 43.1641 56.5667 43.1641 59.4V77.6C43.1641 80.4333 42.4474 82.6167 41.0141 84.15C39.5807 85.65 37.5141 86.4 34.8141 86.4C32.1141 86.4 30.0474 85.65 28.6141 84.15C27.1807 82.6167 26.4641 80.4333 26.4641 77.6V59.4ZM47.2883 86V51H61.7883V56H52.7883V86H47.2883ZM71.05 77.95C71.05 79.2167 71.3 80.1167 71.8 80.65C72.3333 81.15 73.0333 81.4 73.9 81.4C74.7667 81.4 75.45 81.15 75.95 80.65C76.4833 80.1167 76.75 79.2167 76.75 77.95V59.05C76.75 57.7833 76.4833 56.9 75.95 56.4C75.45 55.8667 74.7667 55.6 73.9 55.6C73.0333 55.6 72.3333 55.8667 71.8 56.4C71.3 56.9 71.05 57.7833 71.05 59.05V77.95ZM65.55 59.4C65.55 56.5667 66.2667 54.4 67.7 52.9C69.1333 51.3667 71.2 50.6 73.9 50.6C76.6 50.6 78.6667 51.3667 80.1 52.9C81.5333 54.4 82.25 56.5667 82.25 59.4V77.6C82.25 80.4333 81.5333 82.6167 80.1 84.15C78.6667 85.65 76.6 86.4 73.9 86.4C71.2 86.4 69.1333 85.65 67.7 84.15C66.2667 82.6167 65.55 80.4333 65.55 77.6V59.4ZM94.6242 51C97.4909 51 99.5576 51.6667 100.824 53C102.124 54.3333 102.774 56.35 102.774 59.05V60.3C102.774 62.1 102.491 63.5833 101.924 64.75C101.358 65.9167 100.458 66.7833 99.2242 67.35C100.724 67.9167 101.774 68.85 102.374 70.15C103.008 71.4167 103.324 72.9833 103.324 74.85V77.7C103.324 80.4 102.624 82.4667 101.224 83.9C99.8242 85.3 97.7409 86 94.9742 86H86.3242V51H94.6242ZM91.8242 70.25V81H94.9742C95.9076 81 96.6076 80.75 97.0742 80.25C97.5742 79.75 97.8242 78.85 97.8242 77.55V74.5C97.8242 72.8667 97.5409 71.75 96.9742 71.15C96.4409 70.55 95.5409 70.25 94.2742 70.25H91.8242ZM91.8242 56V65.25H93.9742C95.0076 65.25 95.8076 64.9833 96.3742 64.45C96.9742 63.9167 97.2742 62.95 97.2742 61.55V59.6C97.2742 58.3333 97.0409 57.4167 96.5742 56.85C96.1409 56.2833 95.4409 56 94.4742 56H91.8242ZM112.187 77.95C112.187 79.2167 112.437 80.1167 112.937 80.65C113.47 81.15 114.17 81.4 115.037 81.4C115.903 81.4 116.587 81.15 117.087 80.65C117.62 80.1167 117.887 79.2167 117.887 77.95V59.05C117.887 57.7833 117.62 56.9 117.087 56.4C116.587 55.8667 115.903 55.6 115.037 55.6C114.17 55.6 113.47 55.8667 112.937 56.4C112.437 56.9 112.187 57.7833 112.187 59.05V77.95ZM106.687 59.4C106.687 56.5667 107.403 54.4 108.837 52.9C110.27 51.3667 112.337 50.6 115.037 50.6C117.737 50.6 119.803 51.3667 121.237 52.9C122.67 54.4 123.387 56.5667 123.387 59.4V77.6C123.387 80.4333 122.67 82.6167 121.237 84.15C119.803 85.65 117.737 86.4 115.037 86.4C112.337 86.4 110.27 85.65 108.837 84.15C107.403 82.6167 106.687 80.4333 106.687 77.6V59.4ZM135.561 51C138.328 51 140.378 51.7333 141.711 53.2C143.078 54.6667 143.761 56.8167 143.761 59.65V64.2C143.761 67.0333 143.078 69.1833 141.711 70.65C140.378 72.1167 138.328 72.85 135.561 72.85H132.961V86H127.461V51H135.561ZM132.961 56V67.85H135.561C136.428 67.85 137.094 67.6167 137.561 67.15C138.028 66.6833 138.261 65.8167 138.261 64.55V59.3C138.261 58.0333 138.028 57.1667 137.561 56.7C137.094 56.2333 136.428 56 135.561 56H132.961ZM152.309 65.75H159.859V70.75H152.309V81H161.809V86H146.809V51H161.809V56H152.309V65.75Z" fill="white"/>
</svg>
