<svg width="49" height="36" viewBox="0 0 49 36" fill="none" xmlns="http://www.w3.org/2000/svg">
<path d="M21.4124 8.57666H27.9307M7.86133 25.3869V34.6497H42.511V8.57666H36.8504" stroke="#F5F5F5" stroke-width="1.5" stroke-linejoin="round"/>
<rect x="1" y="3.77368" width="20.5839" height="21.6131" stroke="#F5F5F5" stroke-width="1.5" stroke-linejoin="round"/>
<path d="M22.3961 22.6423H48V30.8759H11.635V25.3869" stroke="#F5F5F5" stroke-width="1.5" stroke-linejoin="round"/>
<path d="M42.511 22.6423V30.8759M39.9054 22.6423V30.8759M37.2999 22.6423V30.8759M34.6944 22.6423V30.8759M32.0889 22.6423V30.8759M29.4834 22.6423V30.8759M27.064 22.6423V30.8759M24.4585 22.6423V30.8759M21.853 22.6423V30.8759M19.2475 25.6661V30.8759M16.642 25.6661V30.8759M14.0365 25.6661V30.8759M45.2555 22.6423V30.8759" stroke="#F5F5F5" stroke-width="1.5" stroke-linecap="round" stroke-linejoin="round"/>
<path d="M37.3011 5.83212C37.3011 8.66015 35.0816 10.9142 32.3905 10.9142C29.6994 10.9142 27.4799 8.66015 27.4799 5.83212C27.4799 3.00408 29.6994 0.75 32.3905 0.75C35.0816 0.75 37.3011 3.00408 37.3011 5.83212Z" stroke="#F5F5F5" stroke-width="1.5"/>
<path d="M7.86133 6.17529L7.86133 22.6424" stroke="#F5F5F5" stroke-width="1.5" stroke-linecap="round" stroke-linejoin="round"/>
<path d="M3.05838 10.978L19.5255 10.978" stroke="#F5F5F5" stroke-width="1.5" stroke-linecap="round" stroke-linejoin="round"/>
</svg>
