<svg width="314" height="37" viewBox="0 0 314 37" fill="none" xmlns="http://www.w3.org/2000/svg">
<path d="M16.95 22.95V27.6C16.95 30.4333 16.25 32.6167 14.85 34.15C13.4833 35.65 11.45 36.4 8.75 36.4C6.05 36.4 4 35.65 2.6 34.15C1.23333 32.6167 0.55 30.4333 0.55 27.6V9.4C0.55 6.56667 1.23333 4.4 2.6 2.9C4 1.36667 6.05 0.6 8.75 0.6C11.45 0.6 13.4833 1.36667 14.85 2.9C16.25 4.4 16.95 6.56667 16.95 9.4V12.8H11.75V9.05C11.75 7.78333 11.4833 6.9 10.95 6.4C10.45 5.86667 9.76667 5.6 8.9 5.6C8.03333 5.6 7.33333 5.86667 6.8 6.4C6.3 6.9 6.05 7.78333 6.05 9.05V27.95C6.05 29.2167 6.3 30.1 6.8 30.6C7.33333 31.1 8.03333 31.35 8.9 31.35C9.76667 31.35 10.45 31.1 10.95 30.6C11.4833 30.1 11.75 29.2167 11.75 27.95V22.95H16.95ZM19.1871 0.999998H36.1871V6H30.4371V36H24.9371V6H19.1871V0.999998ZM47.2094 0.999998C49.976 0.999998 52.026 1.73333 53.3594 3.2C54.726 4.66666 55.4094 6.81666 55.4094 9.65V14.2C55.4094 17.0333 54.726 19.1833 53.3594 20.65C52.026 22.1167 49.976 22.85 47.2094 22.85H44.6094V36H39.1094V0.999998H47.2094ZM44.6094 6V17.85H47.2094C48.076 17.85 48.7427 17.6167 49.2094 17.15C49.676 16.6833 49.9094 15.8167 49.9094 14.55V9.3C49.9094 8.03333 49.676 7.16667 49.2094 6.7C48.7427 6.23333 48.076 6 47.2094 6H44.6094ZM70.657 27.1C70.3237 28.6667 69.907 30.05 69.407 31.25C68.9404 32.4167 68.2904 33.3833 67.457 34.15C66.657 34.8833 65.607 35.4167 64.307 35.75C63.0404 36.0833 61.457 36.1833 59.557 36.05V31.15C60.957 31.25 62.057 31.1167 62.857 30.75C63.657 30.3833 64.1737 29.5667 64.407 28.3L64.457 28L56.857 0.999998H62.307L65.307 12.95L67.007 21.15L68.307 13L70.807 0.999998H76.557L70.657 27.1ZM86.5672 22.05L84.8672 25.25V36H79.3672V0.999998H84.8672V16.25L92.0672 0.999998H97.5672L89.9172 16.6L97.5672 36H91.9172L86.5672 22.05ZM98.9703 0.999998H115.97V6H110.22V36H104.72V6H98.9703V0.999998ZM131.093 27.1C130.759 28.6667 130.343 30.05 129.843 31.25C129.376 32.4167 128.726 33.3833 127.893 34.15C127.093 34.8833 126.043 35.4167 124.743 35.75C123.476 36.0833 121.893 36.1833 119.993 36.05V31.15C121.393 31.25 122.493 31.1167 123.293 30.75C124.093 30.3833 124.609 29.5667 124.843 28.3L124.893 28L117.293 0.999998H122.743L125.743 12.95L127.443 21.15L128.743 13L131.243 0.999998H136.993L131.093 27.1ZM147.903 0.999998C150.669 0.999998 152.719 1.73333 154.053 3.2C155.419 4.66666 156.103 6.81666 156.103 9.65V14.2C156.103 17.0333 155.419 19.1833 154.053 20.65C152.719 22.1167 150.669 22.85 147.903 22.85H145.303V36H139.803V0.999998H147.903ZM145.303 6V17.85H147.903C148.769 17.85 149.436 17.6167 149.903 17.15C150.369 16.6833 150.603 15.8167 150.603 14.55V9.3C150.603 8.03333 150.369 7.16667 149.903 6.7C149.436 6.23333 148.769 6 147.903 6H145.303ZM176.95 36H171.4L170.45 29.65H163.7L162.75 36H157.7L163.3 0.999998H171.35L176.95 36ZM164.4 24.9H169.7L167.05 7.2L164.4 24.9Z" fill="#EA4C14"/>
<path d="M196.375 0.999998C199.142 0.999998 201.192 1.73333 202.525 3.2C203.892 4.66666 204.575 6.81666 204.575 9.65V14.2C204.575 17.0333 203.892 19.1833 202.525 20.65C201.192 22.1167 199.142 22.85 196.375 22.85H193.775V36H188.275V0.999998H196.375ZM193.775 6V17.85H196.375C197.242 17.85 197.909 17.6167 198.375 17.15C198.842 16.6833 199.075 15.8167 199.075 14.55V9.3C199.075 8.03333 198.842 7.16667 198.375 6.7C197.909 6.23333 197.242 6 196.375 6H193.775ZM225.423 36H219.873L218.923 29.65H212.173L211.223 36H206.173L211.773 0.999998H219.823L225.423 36ZM212.873 24.9H218.173L215.523 7.2L212.873 24.9ZM228.534 36V0.999998H243.934V6H234.034V14.95H237.234C240.001 14.95 242.068 15.6833 243.434 17.15C244.834 18.6167 245.534 20.7667 245.534 23.6V27.35C245.534 30.1833 244.834 32.3333 243.434 33.8C242.068 35.2667 240.001 36 237.234 36H228.534ZM237.234 31C238.101 31 238.784 30.7667 239.284 30.3C239.784 29.8333 240.034 28.9667 240.034 27.7V23.25C240.034 21.9833 239.784 21.1167 239.284 20.65C238.784 20.1833 238.101 19.95 237.234 19.95H234.034V31H237.234ZM254.786 27.95C254.786 29.2167 255.036 30.1167 255.536 30.65C256.07 31.15 256.77 31.4 257.636 31.4C258.503 31.4 259.186 31.15 259.686 30.65C260.22 30.1167 260.486 29.2167 260.486 27.95V9.05C260.486 7.78333 260.22 6.9 259.686 6.4C259.186 5.86667 258.503 5.6 257.636 5.6C256.77 5.6 256.07 5.86667 255.536 6.4C255.036 6.9 254.786 7.78333 254.786 9.05V27.95ZM249.286 9.4C249.286 6.56667 250.003 4.4 251.436 2.9C252.87 1.36667 254.936 0.6 257.636 0.6C260.336 0.6 262.403 1.36667 263.836 2.9C265.27 4.4 265.986 6.56667 265.986 9.4V27.6C265.986 30.4333 265.27 32.6167 263.836 34.15C262.403 35.65 260.336 36.4 257.636 36.4C254.936 36.4 252.87 35.65 251.436 34.15C250.003 32.6167 249.286 30.4333 249.286 27.6V9.4ZM268.461 0.999998H285.461V6H279.711V36H274.211V6H268.461V0.999998ZM288.383 36V0.999998H293.883V14.15H296.483C299.249 14.15 301.299 14.8833 302.633 16.35C303.999 17.8167 304.683 19.9667 304.683 22.8V27.35C304.683 30.1833 303.999 32.3333 302.633 33.8C301.299 35.2667 299.249 36 296.483 36H288.383ZM296.483 31C297.349 31 298.016 30.7667 298.483 30.3C298.949 29.8333 299.183 28.9667 299.183 27.7V22.45C299.183 21.1833 298.949 20.3167 298.483 19.85C298.016 19.3833 297.349 19.15 296.483 19.15H293.883V31H296.483ZM307.833 36V0.999998H313.333V36H307.833Z" fill="#EFEFEF"/>
</svg>
