<svg width="538" height="50" viewBox="0 0 538 50" fill="none" xmlns="http://www.w3.org/2000/svg">
<path d="M59.3 3C62.1667 3 64.2333 3.66666 65.5 5C66.8 6.33333 67.45 8.35 67.45 11.05V12.3C67.45 14.1 67.1667 15.5833 66.6 16.75C66.0333 17.9167 65.1333 18.7833 63.9 19.35C65.4 19.9167 66.45 20.85 67.05 22.15C67.6833 23.4167 68 24.9833 68 26.85V29.7C68 32.4 67.3 34.4667 65.9 35.9C64.5 37.3 62.4167 38 59.65 38H51V3H59.3ZM56.5 22.25V33H59.65C60.5833 33 61.2833 32.75 61.75 32.25C62.25 31.75 62.5 30.85 62.5 29.55V26.5C62.5 24.8667 62.2167 23.75 61.65 23.15C61.1167 22.55 60.2167 22.25 58.95 22.25H56.5ZM56.5 8V17.25H58.65C59.6833 17.25 60.4833 16.9833 61.05 16.45C61.65 15.9167 61.95 14.95 61.95 13.55V11.6C61.95 10.3333 61.7167 9.41667 61.25 8.85C60.8167 8.28333 60.1167 8 59.15 8H56.5ZM89.6125 38H84.0625L83.1125 31.65H76.3625L75.4125 38H70.3625L75.9625 3H84.0125L89.6125 38ZM77.0625 26.9H82.3625L79.7125 9.2L77.0625 26.9ZM108.524 17.15L115.024 3H120.524L113.774 17.2L120.524 38H114.874L109.874 22.5L108.524 25.15V38H103.074V25.15L101.724 22.45L96.7238 38H91.0738L97.8738 17.35L91.0738 3H96.5738L103.074 17.15V3H108.524V17.15ZM128.85 38H123.35V3H128.85V18H135.1V3H140.7V38H135.1V23H128.85V38ZM150.238 29.95C150.238 31.2167 150.488 32.1167 150.988 32.65C151.521 33.15 152.221 33.4 153.088 33.4C153.954 33.4 154.638 33.15 155.138 32.65C155.671 32.1167 155.938 31.2167 155.938 29.95V11.05C155.938 9.78333 155.671 8.9 155.138 8.4C154.638 7.86667 153.954 7.6 153.088 7.6C152.221 7.6 151.521 7.86667 150.988 8.4C150.488 8.9 150.238 9.78333 150.238 11.05V29.95ZM144.738 11.4C144.738 8.56667 145.454 6.4 146.888 4.9C148.321 3.36667 150.388 2.6 153.088 2.6C155.788 2.6 157.854 3.36667 159.288 4.9C160.721 6.4 161.438 8.56667 161.438 11.4V29.6C161.438 32.4333 160.721 34.6167 159.288 36.15C157.854 37.65 155.788 38.4 153.088 38.4C150.388 38.4 148.321 37.65 146.888 36.15C145.454 34.6167 144.738 32.4333 144.738 29.6V11.4Z" fill="#E74214"/>
<path d="M184.375 11.6C184.375 10.0333 184.109 8.98333 183.575 8.45C183.075 7.88333 182.392 7.6 181.525 7.6C180.659 7.6 179.959 7.86667 179.425 8.4C178.892 8.9 178.625 9.78333 178.625 11.05V13.9H173.575V11.3C173.575 8.46667 174.242 6.31667 175.575 4.85C176.942 3.35 178.975 2.6 181.675 2.6C184.375 2.6 186.409 3.36667 187.775 4.9C189.175 6.4 189.875 8.56667 189.875 11.4V12.3C189.875 16.0333 188.592 18.4333 186.025 19.5C187.425 20.1 188.409 21.0333 188.975 22.3C189.575 23.5333 189.875 25.05 189.875 26.85V29.6C189.875 32.4333 189.175 34.6167 187.775 36.15C186.409 37.65 184.375 38.4 181.675 38.4C178.975 38.4 176.925 37.65 175.525 36.15C174.159 34.6167 173.475 32.4333 173.475 29.6V25.75H178.675V29.95C178.675 31.2167 178.925 32.1167 179.425 32.65C179.959 33.15 180.659 33.4 181.525 33.4C182.392 33.4 183.075 33.1333 183.575 32.6C184.109 32.0667 184.375 31.0167 184.375 29.45V26.7C184.375 25.0667 184.092 23.9167 183.525 23.25C182.959 22.5833 182.042 22.25 180.775 22.25H179.425V17.25H181.075C182.109 17.25 182.909 16.9833 183.475 16.45C184.075 15.9167 184.375 14.95 184.375 13.55V11.6ZM199.6 38H194.1V3H199.6V18H205.85V3H211.45V38H205.85V23H199.6V38ZM233.738 38H228.188L227.238 31.65H220.488L219.538 38H214.488L220.088 3H228.138L233.738 38ZM221.188 26.9H226.488L223.838 9.2L221.188 26.9ZM235.199 3H252.199V8H246.449V38H240.949V8H235.199V3ZM255.121 38V3H260.621V16.15H263.221C265.988 16.15 268.038 16.8833 269.371 18.35C270.738 19.8167 271.421 21.9667 271.421 24.8V29.35C271.421 32.1833 270.738 34.3333 269.371 35.8C268.038 37.2667 265.988 38 263.221 38H255.121ZM263.221 33C264.088 33 264.754 32.7667 265.221 32.3C265.688 31.8333 265.921 30.9667 265.921 29.7V24.45C265.921 23.1833 265.688 22.3167 265.221 21.85C264.754 21.3833 264.088 21.15 263.221 21.15H260.621V33H263.221Z" fill="white"/>
<line x1="18.2322" y1="17.7678" x2="2.23223" y2="1.76777" stroke="#E74214" stroke-width="5"/>
<line y1="-2.5" x2="22.6274" y2="-2.5" transform="matrix(-0.707107 0.707107 0.707107 0.707107 20 16)" stroke="#E74214" stroke-width="5"/>
</svg>
