<svg width="213" height="24" viewBox="0 0 213 24" fill="none" xmlns="http://www.w3.org/2000/svg">
<path d="M5.592 0.599998C7.42667 0.599998 8.74933 1.02667 9.56 1.88C10.392 2.73333 10.808 4.024 10.808 5.752V6.552C10.808 7.704 10.6267 8.65333 10.264 9.4C9.90133 10.1467 9.32533 10.7013 8.536 11.064C9.496 11.4267 10.168 12.024 10.552 12.856C10.9573 13.6667 11.16 14.6693 11.16 15.864V17.688C11.16 19.416 10.712 20.7387 9.816 21.656C8.92 22.552 7.58667 23 5.816 23H0.28V0.599998H5.592ZM3.8 12.92V19.8H5.816C6.41333 19.8 6.86133 19.64 7.16 19.32C7.48 19 7.64 18.424 7.64 17.592V15.64C7.64 14.5947 7.45867 13.88 7.096 13.496C6.75467 13.112 6.17867 12.92 5.368 12.92H3.8ZM3.8 3.8V9.72H5.176C5.83733 9.72 6.34933 9.54933 6.712 9.208C7.096 8.86667 7.288 8.248 7.288 7.352V6.104C7.288 5.29333 7.13867 4.70667 6.84 4.344C6.56267 3.98133 6.11467 3.8 5.496 3.8H3.8ZM17.12 10.04H21.952V13.24H17.12V19.8H23.2V23H13.6V0.599998H23.2V3.8H17.12V10.04ZM35.9093 14.648V17.624C35.9093 19.4373 35.4612 20.8347 34.5652 21.816C33.6906 22.776 32.3892 23.256 30.6612 23.256C28.9332 23.256 27.6212 22.776 26.7252 21.816C25.8506 20.8347 25.4132 19.4373 25.4132 17.624V5.976C25.4132 4.16267 25.8506 2.776 26.7252 1.816C27.6212 0.834666 28.9332 0.344 30.6612 0.344C32.3892 0.344 33.6906 0.834666 34.5652 1.816C35.4612 2.776 35.9093 4.16267 35.9093 5.976V8.152H32.5813V5.752C32.5813 4.94133 32.4106 4.376 32.0692 4.056C31.7492 3.71467 31.3119 3.544 30.7572 3.544C30.2026 3.544 29.7546 3.71467 29.4132 4.056C29.0932 4.376 28.9332 4.94133 28.9332 5.752V17.848C28.9332 18.6587 29.0932 19.224 29.4132 19.544C29.7546 19.864 30.2026 20.024 30.7572 20.024C31.3119 20.024 31.7492 19.864 32.0692 19.544C32.4106 19.224 32.5813 18.6587 32.5813 17.848V14.648H35.9093ZM37.341 0.599998H48.221V3.8H44.541V23H41.021V3.8H37.341V0.599998ZM53.7072 23H50.0912V0.599998H53.2272V14.776L54.5072 9.848L57.3872 0.599998H61.2592V23H58.0912V7.224L56.6512 12.728L53.7072 23ZM64.0995 23V0.599998H73.9555V3.8H67.6195V9.528H69.6675C71.4382 9.528 72.7608 9.99733 73.6355 10.936C74.5315 11.8747 74.9795 13.2507 74.9795 15.064V17.464C74.9795 19.2773 74.5315 20.6533 73.6355 21.592C72.7608 22.5307 71.4382 23 69.6675 23H64.0995ZM69.6675 19.8C70.2222 19.8 70.6595 19.6507 70.9795 19.352C71.2995 19.0533 71.4595 18.4987 71.4595 17.688V14.84C71.4595 14.0293 71.2995 13.4747 70.9795 13.176C70.6595 12.8773 70.2222 12.728 69.6675 12.728H67.6195V19.8H69.6675ZM83.8127 13.4H81.1887V23H77.6687V0.599998H81.1887V10.2H83.8127V5.976C83.8127 4.16267 84.2714 2.776 85.1887 1.816C86.1061 0.834666 87.4287 0.344 89.1567 0.344C90.8847 0.344 92.2074 0.834666 93.1247 1.816C94.0421 2.776 94.5007 4.16267 94.5007 5.976V17.624C94.5007 19.4373 94.0421 20.8347 93.1247 21.816C92.2074 22.776 90.8847 23.256 89.1567 23.256C87.4287 23.256 86.1061 22.776 85.1887 21.816C84.2714 20.8347 83.8127 19.4373 83.8127 17.624V13.4ZM87.3327 17.848C87.3327 18.6587 87.4927 19.2347 87.8127 19.576C88.1541 19.896 88.6021 20.056 89.1567 20.056C89.7114 20.056 90.1487 19.896 90.4687 19.576C90.8101 19.2347 90.9807 18.6587 90.9807 17.848V5.752C90.9807 4.94133 90.8101 4.376 90.4687 4.056C90.1487 3.71467 89.7114 3.544 89.1567 3.544C88.6021 3.544 88.1541 3.71467 87.8127 4.056C87.4927 4.376 87.3327 4.94133 87.3327 5.752V17.848ZM96.153 19.832C96.5583 19.832 96.889 19.8107 97.145 19.768C97.4223 19.7253 97.6463 19.6293 97.817 19.48C97.9877 19.3093 98.105 19.0747 98.169 18.776C98.2543 18.456 98.3077 18.04 98.329 17.528L98.905 0.599998H108.857V23H105.273V3.8H102.201L101.817 17.336C101.753 19.384 101.316 20.8453 100.505 21.72C99.7157 22.5947 98.4463 23.032 96.697 23.032H96.153V19.832ZM111.871 23V0.599998H115.391V9.016H117.055C118.826 9.016 120.138 9.48533 120.991 10.424C121.866 11.3627 122.303 12.7387 122.303 14.552V17.464C122.303 19.2773 121.866 20.6533 120.991 21.592C120.138 22.5307 118.826 23 117.055 23H111.871ZM117.055 19.8C117.61 19.8 118.037 19.6507 118.335 19.352C118.634 19.0533 118.783 18.4987 118.783 17.688V14.328C118.783 13.5173 118.634 12.9627 118.335 12.664C118.037 12.3653 117.61 12.216 117.055 12.216H115.391V19.8H117.055ZM140.155 9.656L144.315 0.599998H147.835L143.515 9.688L147.835 23H144.219L141.019 13.08L140.155 14.776V23H136.667V14.776L135.803 13.048L132.603 23H128.987L133.339 9.784L128.987 0.599998H132.507L136.667 9.656V0.599998H140.155V9.656ZM154.252 14.072L153.164 16.12V23H149.644V0.599998H153.164V10.36L157.772 0.599998H161.292L156.396 10.584L161.292 23H157.676L154.252 14.072ZM171.895 3.8V7.192H168.503V4.152L170.039 0.599998H171.479L170.551 3.8H171.895ZM176.567 3.8V7.192H173.175V4.152L174.711 0.599998H176.151L175.223 3.8H176.567ZM184.415 10.52H189.343V17.624C189.343 19.4373 188.895 20.8347 187.999 21.816C187.124 22.776 185.823 23.256 184.095 23.256C182.367 23.256 181.055 22.776 180.159 21.816C179.284 20.8347 178.847 19.4373 178.847 17.624V5.976C178.847 4.16267 179.284 2.776 180.159 1.816C181.055 0.834666 182.367 0.344 184.095 0.344C185.823 0.344 187.124 0.834666 187.999 1.816C188.895 2.776 189.343 4.16267 189.343 5.976V8.152H186.015V5.752C186.015 4.94133 185.844 4.376 185.503 4.056C185.183 3.71467 184.746 3.544 184.191 3.544C183.636 3.544 183.188 3.71467 182.847 4.056C182.527 4.376 182.367 4.94133 182.367 5.752V17.848C182.367 18.6587 182.527 19.224 182.847 19.544C183.188 19.864 183.636 20.024 184.191 20.024C184.746 20.024 185.183 19.864 185.503 19.544C185.844 19.224 186.015 18.6587 186.015 17.848V13.72H184.415V10.52ZM197.204 10.52H202.132V17.624C202.132 19.4373 201.684 20.8347 200.788 21.816C199.913 22.776 198.612 23.256 196.884 23.256C195.156 23.256 193.844 22.776 192.948 21.816C192.073 20.8347 191.636 19.4373 191.636 17.624V5.976C191.636 4.16267 192.073 2.776 192.948 1.816C193.844 0.834666 195.156 0.344 196.884 0.344C198.612 0.344 199.913 0.834666 200.788 1.816C201.684 2.776 202.132 4.16267 202.132 5.976V8.152H198.804V5.752C198.804 4.94133 198.633 4.376 198.292 4.056C197.972 3.71467 197.534 3.544 196.98 3.544C196.425 3.544 195.977 3.71467 195.636 4.056C195.316 4.376 195.156 4.94133 195.156 5.752V17.848C195.156 18.6587 195.316 19.224 195.636 19.544C195.977 19.864 196.425 20.024 196.98 20.024C197.534 20.024 197.972 19.864 198.292 19.544C198.633 19.224 198.804 18.6587 198.804 17.848V13.72H197.204V10.52ZM204.4 3.992V0.599998H207.792V3.64L206.256 7.192H204.816L205.744 3.992H204.4ZM209.072 3.992V0.599998H212.464V3.64L210.928 7.192H209.488L210.416 3.992H209.072Z" fill="white"/>
</svg>
