<svg width="206" height="24" viewBox="0 0 206 24" fill="none" xmlns="http://www.w3.org/2000/svg">
<path d="M11.424 9.656L15.584 0.599998H19.104L14.784 9.688L19.104 23H15.488L12.288 13.08L11.424 14.776V23H7.936V14.776L7.072 13.048L3.872 23H0.256L4.608 9.784L0.256 0.599998H3.776L7.936 9.656V0.599998H11.424V9.656ZM25.5205 14.072L24.4325 16.12V23H20.9125V0.599998H24.4325V10.36L29.0405 0.599998H32.5605L27.6645 10.584L32.5605 23H28.9445L25.5205 14.072ZM43.1632 3.8V7.192H39.7712V4.152L41.3072 0.599998H42.7472L41.8192 3.8H43.1632ZM47.8352 3.8V7.192H44.4432V4.152L45.9792 0.599998H47.4192L46.4912 3.8H47.8352ZM55.6837 10.52H60.6117V17.624C60.6117 19.4373 60.1637 20.8347 59.2677 21.816C58.3931 22.776 57.0917 23.256 55.3637 23.256C53.6357 23.256 52.3237 22.776 51.4277 21.816C50.5531 20.8347 50.1157 19.4373 50.1157 17.624V5.976C50.1157 4.16267 50.5531 2.776 51.4277 1.816C52.3237 0.834666 53.6357 0.344 55.3637 0.344C57.0917 0.344 58.3931 0.834666 59.2677 1.816C60.1637 2.776 60.6117 4.16267 60.6117 5.976V8.152H57.2837V5.752C57.2837 4.94133 57.1131 4.376 56.7717 4.056C56.4517 3.71467 56.0144 3.544 55.4597 3.544C54.9051 3.544 54.4571 3.71467 54.1157 4.056C53.7957 4.376 53.6357 4.94133 53.6357 5.752V17.848C53.6357 18.6587 53.7957 19.224 54.1157 19.544C54.4571 19.864 54.9051 20.024 55.4597 20.024C56.0144 20.024 56.4517 19.864 56.7717 19.544C57.1131 19.224 57.2837 18.6587 57.2837 17.848V13.72H55.6837V10.52ZM70.5525 23C70.5098 22.8507 70.4672 22.712 70.4245 22.584C70.3818 22.456 70.3392 22.296 70.2965 22.104C70.2752 21.912 70.2538 21.6667 70.2325 21.368C70.2325 21.0693 70.2325 20.696 70.2325 20.248V16.728C70.2325 15.6827 70.0512 14.9467 69.6885 14.52C69.3258 14.0933 68.7392 13.88 67.9285 13.88H66.7125V23H63.1925V0.599998H68.5045C70.3392 0.599998 71.6618 1.02667 72.4725 1.88C73.3045 2.73333 73.7205 4.024 73.7205 5.752V7.512C73.7205 9.816 72.9525 11.3307 71.4165 12.056C72.3125 12.4187 72.9205 13.016 73.2405 13.848C73.5818 14.6587 73.7525 15.6507 73.7525 16.824V20.28C73.7525 20.8347 73.7738 21.3253 73.8165 21.752C73.8592 22.1573 73.9658 22.5733 74.1365 23H70.5525ZM66.7125 3.8V10.68H68.0885C68.7498 10.68 69.2618 10.5093 69.6245 10.168C70.0085 9.82667 70.2005 9.208 70.2005 8.312V6.104C70.2005 5.29333 70.0512 4.70667 69.7525 4.344C69.4752 3.98133 69.0272 3.8 68.4085 3.8H66.7125ZM87.7795 23H84.2275L83.6195 18.936H79.2995L78.6915 23H75.4595L79.0435 0.599998H84.1955L87.7795 23ZM79.7475 15.896H83.1395L81.4435 4.568L79.7475 15.896ZM92.8747 6.776V23H89.7067V0.599998H94.1227L97.7387 14.008V0.599998H100.875V23H97.2587L92.8747 6.776ZM103.715 0.599998H109.283C111.054 0.599998 112.366 1.06933 113.219 2.008C114.094 2.94667 114.531 4.32267 114.531 6.136V17.464C114.531 19.2773 114.094 20.6533 113.219 21.592C112.366 22.5307 111.054 23 109.283 23H103.715V0.599998ZM107.235 3.8V19.8H109.219C109.774 19.8 110.211 19.64 110.531 19.32C110.851 19 111.011 18.4347 111.011 17.624V5.976C111.011 5.16533 110.851 4.6 110.531 4.28C110.211 3.96 109.774 3.8 109.219 3.8H107.235ZM117.129 15.864C117.129 14.712 117.311 13.7413 117.673 12.952C118.057 12.1413 118.687 11.544 119.561 11.16C117.94 10.4773 117.129 8.94133 117.129 6.552V6.136C117.129 4.32267 117.556 2.94667 118.409 2.008C119.284 1.06933 120.607 0.599998 122.377 0.599998H126.409V3.8H122.441C121.887 3.8 121.449 3.96 121.129 4.28C120.809 4.6 120.649 5.16533 120.649 5.976V7.352C120.649 8.248 120.831 8.86667 121.193 9.208C121.577 9.54933 122.1 9.72 122.761 9.72H124.297V7.224H127.817V9.72H128.745V12.92H127.817V20.28C127.817 20.8347 127.839 21.3253 127.881 21.752C127.924 22.1573 128.031 22.5733 128.201 23H124.617C124.532 22.7653 124.468 22.5413 124.425 22.328C124.383 22.0933 124.34 21.7307 124.297 21.24C123.679 22.584 122.591 23.256 121.033 23.256C119.732 23.256 118.751 22.8187 118.089 21.944C117.449 21.0693 117.129 19.8 117.129 18.136V15.864ZM120.649 17.848C120.649 18.6587 120.809 19.2347 121.129 19.576C121.471 19.896 121.919 20.056 122.473 20.056C123.007 20.056 123.433 19.9067 123.753 19.608C124.073 19.3093 124.255 18.808 124.297 18.104V12.92H122.953C122.143 12.92 121.556 13.1333 121.193 13.56C120.831 13.9867 120.649 14.7227 120.649 15.768V17.848ZM135.947 10.52H140.875V17.624C140.875 19.4373 140.427 20.8347 139.531 21.816C138.657 22.776 137.355 23.256 135.627 23.256C133.899 23.256 132.587 22.776 131.691 21.816C130.817 20.8347 130.379 19.4373 130.379 17.624V5.976C130.379 4.16267 130.817 2.776 131.691 1.816C132.587 0.834666 133.899 0.344 135.627 0.344C137.355 0.344 138.657 0.834666 139.531 1.816C140.427 2.776 140.875 4.16267 140.875 5.976V8.152H137.547V5.752C137.547 4.94133 137.377 4.376 137.035 4.056C136.715 3.71467 136.278 3.544 135.723 3.544C135.169 3.544 134.721 3.71467 134.379 4.056C134.059 4.376 133.899 4.94133 133.899 5.752V17.848C133.899 18.6587 134.059 19.224 134.379 19.544C134.721 19.864 135.169 20.024 135.723 20.024C136.278 20.024 136.715 19.864 137.035 19.544C137.377 19.224 137.547 18.6587 137.547 17.848V13.72H135.947V10.52ZM150.816 23C150.774 22.8507 150.731 22.712 150.688 22.584C150.646 22.456 150.603 22.296 150.56 22.104C150.539 21.912 150.518 21.6667 150.496 21.368C150.496 21.0693 150.496 20.696 150.496 20.248V16.728C150.496 15.6827 150.315 14.9467 149.952 14.52C149.59 14.0933 149.003 13.88 148.192 13.88H146.976V23H143.456V0.599998H148.768C150.603 0.599998 151.926 1.02667 152.736 1.88C153.568 2.73333 153.984 4.024 153.984 5.752V7.512C153.984 9.816 153.216 11.3307 151.68 12.056C152.576 12.4187 153.184 13.016 153.504 13.848C153.846 14.6587 154.016 15.6507 154.016 16.824V20.28C154.016 20.8347 154.038 21.3253 154.08 21.752C154.123 22.1573 154.23 22.5733 154.4 23H150.816ZM146.976 3.8V10.68H148.352C149.014 10.68 149.526 10.5093 149.888 10.168C150.272 9.82667 150.464 9.208 150.464 8.312V6.104C150.464 5.29333 150.315 4.70667 150.016 4.344C149.739 3.98133 149.291 3.8 148.672 3.8H146.976ZM168.043 23H164.491L163.883 18.936H159.563L158.955 23H155.723L159.307 0.599998H164.459L168.043 23ZM160.011 15.896H163.403L161.707 4.568L160.011 15.896ZM173.139 6.776V23H169.971V0.599998H174.387L178.003 14.008V0.599998H181.139V23H177.523L173.139 6.776ZM183.979 0.599998H189.547C191.317 0.599998 192.629 1.06933 193.483 2.008C194.357 2.94667 194.795 4.32267 194.795 6.136V17.464C194.795 19.2773 194.357 20.6533 193.483 21.592C192.629 22.5307 191.317 23 189.547 23H183.979V0.599998ZM187.499 3.8V19.8H189.483C190.037 19.8 190.475 19.64 190.795 19.32C191.115 19 191.275 18.4347 191.275 17.624V5.976C191.275 5.16533 191.115 4.6 190.795 4.28C190.475 3.96 190.037 3.8 189.483 3.8H187.499ZM197.049 3.992V0.599998H200.441V3.64L198.905 7.192H197.465L198.393 3.992H197.049ZM201.721 3.992V0.599998H205.113V3.64L203.577 7.192H202.137L203.065 3.992H201.721Z" fill="white"/>
</svg>
