<svg width="48" height="34" viewBox="0 0 48 34" fill="none" xmlns="http://www.w3.org/2000/svg">
<path d="M16.5617 33.1183C16.1417 33.1183 15.7787 33.0673 15.4727 32.9653C15.1667 32.8633 14.9117 32.7313 14.7077 32.5693C14.5097 32.4013 14.3597 32.2213 14.2577 32.0293C14.1557 31.8313 14.1017 31.6363 14.0957 31.4443C14.0957 31.3903 14.1137 31.3483 14.1497 31.3183C14.1917 31.2823 14.2397 31.2643 14.2937 31.2643H15.1037C15.1637 31.2643 15.2147 31.2763 15.2567 31.3003C15.2987 31.3243 15.3347 31.3723 15.3647 31.4443C15.4187 31.6063 15.5057 31.7353 15.6257 31.8313C15.7517 31.9273 15.8957 31.9963 16.0577 32.0383C16.2197 32.0743 16.3907 32.0923 16.5707 32.0923C16.9307 32.0923 17.2157 32.0083 17.4257 31.8403C17.6417 31.6663 17.7497 31.4203 17.7497 31.1023C17.7497 30.7843 17.6507 30.5563 17.4527 30.4183C17.2547 30.2743 16.9787 30.2023 16.6247 30.2023H15.6977C15.6317 30.2023 15.5777 30.1843 15.5357 30.1483C15.4937 30.1063 15.4727 30.0523 15.4727 29.9863V29.6083C15.4727 29.5483 15.4847 29.4973 15.5087 29.4553C15.5387 29.4073 15.5687 29.3683 15.5987 29.3383L17.2097 27.7633H14.6357C14.5697 27.7633 14.5157 27.7423 14.4737 27.7003C14.4377 27.6583 14.4197 27.6073 14.4197 27.5473V26.9533C14.4197 26.8873 14.4377 26.8333 14.4737 26.7913C14.5157 26.7493 14.5697 26.7283 14.6357 26.7283H18.4967C18.5627 26.7283 18.6167 26.7493 18.6587 26.7913C18.7007 26.8333 18.7217 26.8873 18.7217 26.9533V27.4933C18.7217 27.5473 18.7097 27.5953 18.6857 27.6373C18.6617 27.6793 18.6347 27.7153 18.6047 27.7453L17.0477 29.3473L17.1557 29.3563C17.5217 29.3863 17.8457 29.4703 18.1277 29.6083C18.4157 29.7403 18.6377 29.9353 18.7937 30.1933C18.9557 30.4513 19.0367 30.7753 19.0367 31.1653C19.0367 31.5733 18.9287 31.9243 18.7127 32.2183C18.5027 32.5063 18.2117 32.7283 17.8397 32.8843C17.4677 33.0403 17.0417 33.1183 16.5617 33.1183ZM22.3926 33.1183C21.8766 33.1183 21.4326 33.0223 21.0606 32.8303C20.6886 32.6323 20.4006 32.3683 20.1966 32.0383C19.9926 31.7023 19.8906 31.3273 19.8906 30.9133C19.8906 30.7273 19.9146 30.5473 19.9626 30.3733C20.0106 30.1993 20.0736 30.0343 20.1516 29.8783C20.2296 29.7223 20.3046 29.5843 20.3766 29.4643C20.4546 29.3383 20.5236 29.2393 20.5836 29.1673L22.2306 26.9083C22.2546 26.8783 22.2906 26.8423 22.3386 26.8003C22.3866 26.7523 22.4526 26.7283 22.5366 26.7283H23.3736C23.4276 26.7283 23.4726 26.7493 23.5086 26.7913C23.5446 26.8273 23.5626 26.8723 23.5626 26.9263C23.5626 26.9503 23.5566 26.9743 23.5446 26.9983C23.5386 27.0163 23.5296 27.0313 23.5176 27.0433L22.2576 28.7893C22.3116 28.7713 22.3746 28.7593 22.4466 28.7533C22.5186 28.7473 22.5846 28.7443 22.6446 28.7443C22.9446 28.7503 23.2296 28.8103 23.4996 28.9243C23.7696 29.0323 24.0066 29.1823 24.2106 29.3743C24.4146 29.5663 24.5736 29.7913 24.6876 30.0493C24.8076 30.3073 24.8676 30.5893 24.8676 30.8953C24.8676 31.2913 24.7686 31.6603 24.5706 32.0023C24.3726 32.3383 24.0876 32.6083 23.7156 32.8123C23.3496 33.0163 22.9086 33.1183 22.3926 33.1183ZM22.3836 32.0833C22.5996 32.0833 22.7976 32.0383 22.9776 31.9483C23.1636 31.8583 23.3136 31.7263 23.4276 31.5523C23.5416 31.3783 23.5986 31.1623 23.5986 30.9043C23.5986 30.6523 23.5416 30.4393 23.4276 30.2653C23.3136 30.0913 23.1636 29.9593 22.9776 29.8693C22.7976 29.7793 22.5996 29.7343 22.3836 29.7343C22.1676 29.7343 21.9666 29.7793 21.7806 29.8693C21.6006 29.9593 21.4536 30.0913 21.3396 30.2653C21.2256 30.4393 21.1686 30.6523 21.1686 30.9043C21.1686 31.1623 21.2256 31.3783 21.3396 31.5523C21.4536 31.7263 21.6006 31.8583 21.7806 31.9483C21.9666 32.0383 22.1676 32.0833 22.3836 32.0833ZM28.2062 33.1183C27.7802 33.1183 27.4172 33.0553 27.1172 32.9293C26.8172 32.8033 26.5712 32.6293 26.3792 32.4073C26.1872 32.1853 26.0432 31.9303 25.9472 31.6423C25.8512 31.3483 25.7942 31.0363 25.7762 30.7063C25.7702 30.5443 25.7642 30.3673 25.7582 30.1753C25.7582 29.9773 25.7582 29.7793 25.7582 29.5813C25.7642 29.3833 25.7702 29.2003 25.7762 29.0323C25.7882 28.7023 25.8452 28.3933 25.9472 28.1053C26.0492 27.8113 26.1962 27.5563 26.3882 27.3403C26.5862 27.1243 26.8352 26.9533 27.1352 26.8273C27.4352 26.7013 27.7922 26.6383 28.2062 26.6383C28.6262 26.6383 28.9862 26.7013 29.2862 26.8273C29.5862 26.9533 29.8322 27.1243 30.0242 27.3403C30.2222 27.5563 30.3692 27.8113 30.4652 28.1053C30.5672 28.3933 30.6242 28.7023 30.6362 29.0323C30.6482 29.2003 30.6542 29.3833 30.6542 29.5813C30.6542 29.7793 30.6542 29.9773 30.6542 30.1753C30.6542 30.3673 30.6482 30.5443 30.6362 30.7063C30.6242 31.0363 30.5702 31.3483 30.4742 31.6423C30.3782 31.9303 30.2342 32.1853 30.0422 32.4073C29.8502 32.6293 29.6012 32.8033 29.2952 32.9293C28.9952 33.0553 28.6322 33.1183 28.2062 33.1183ZM28.2062 32.0833C28.5962 32.0833 28.8812 31.9573 29.0612 31.7053C29.2472 31.4473 29.3432 31.0993 29.3492 30.6613C29.3612 30.4873 29.3672 30.3133 29.3672 30.1393C29.3672 29.9593 29.3672 29.7793 29.3672 29.5993C29.3672 29.4193 29.3612 29.2483 29.3492 29.0863C29.3432 28.6603 29.2472 28.3183 29.0612 28.0603C28.8812 27.7963 28.5962 27.6643 28.2062 27.6643C27.8222 27.6643 27.5372 27.7963 27.3512 28.0603C27.1712 28.3183 27.0752 28.6603 27.0632 29.0863C27.0632 29.2483 27.0602 29.4193 27.0542 29.5993C27.0542 29.7793 27.0542 29.9593 27.0542 30.1393C27.0602 30.3133 27.0632 30.4873 27.0632 30.6613C27.0752 31.0993 27.1742 31.4473 27.3602 31.7053C27.5462 31.9573 27.8282 32.0833 28.2062 32.0833ZM33.0593 29.4373C32.7953 29.4373 32.5523 29.3773 32.3303 29.2573C32.1143 29.1313 31.9403 28.9633 31.8083 28.7533C31.6763 28.5373 31.6103 28.2973 31.6103 28.0333C31.6103 27.7693 31.6763 27.5323 31.8083 27.3223C31.9403 27.1123 32.1143 26.9473 32.3303 26.8273C32.5523 26.7013 32.7953 26.6383 33.0593 26.6383C33.3233 26.6383 33.5633 26.7013 33.7793 26.8273C33.9953 26.9473 34.1693 27.1123 34.3013 27.3223C34.4333 27.5323 34.4993 27.7693 34.4993 28.0333C34.4993 28.2973 34.4333 28.5373 34.3013 28.7533C34.1693 28.9633 33.9953 29.1313 33.7793 29.2573C33.5633 29.3773 33.3233 29.4373 33.0593 29.4373ZM33.0593 28.7173C33.2633 28.7173 33.4283 28.6543 33.5543 28.5283C33.6803 28.4023 33.7433 28.2373 33.7433 28.0333C33.7433 27.8293 33.6803 27.6643 33.5543 27.5383C33.4283 27.4123 33.2633 27.3493 33.0593 27.3493C32.8553 27.3493 32.6903 27.4123 32.5643 27.5383C32.4383 27.6643 32.3753 27.8293 32.3753 28.0333C32.3753 28.2373 32.4383 28.4023 32.5643 28.5283C32.6903 28.6543 32.8553 28.7173 33.0593 28.7173Z" fill="#F5F5F5"/>
<path d="M8.99346 14.0671H9.74346C9.74346 13.7303 9.51895 13.4348 9.19448 13.3445L8.99346 14.0671ZM38.5943 13.3445C38.1953 13.4555 37.9618 13.869 38.0728 14.2681C38.1838 14.6671 38.5973 14.9006 38.9964 14.7896L38.5943 13.3445ZM8.99346 30.607L8.79243 31.3295C9.01828 31.3923 9.26052 31.346 9.44718 31.2041C9.63384 31.0623 9.74346 30.8414 9.74346 30.607H8.99346ZM38.5943 29.8844C38.1953 29.9954 37.9618 30.4089 38.0728 30.808C38.1838 31.207 38.5973 31.4405 38.9964 31.3295L38.5943 29.8844ZM1.75 8.41977C1.75 7.73075 2.17809 6.9489 3.24582 6.1256C4.30318 5.31031 5.8802 4.54367 7.89605 3.88624C11.9195 2.57405 17.525 1.75 23.7506 1.75V0.25C17.4114 0.25 11.6416 1.08693 7.43095 2.46016C5.32975 3.14544 3.57502 3.97763 2.32989 4.93772C1.09513 5.8898 0.25 7.05987 0.25 8.41977H1.75ZM23.7506 1.75C29.9762 1.75 35.5817 2.57405 39.6052 3.88624C41.621 4.54367 43.198 5.31031 44.2554 6.1256C45.3231 6.9489 45.7512 7.73075 45.7512 8.41977H47.2512C47.2512 7.05987 46.4061 5.8898 45.1713 4.93772C43.9262 3.97763 42.1715 3.14544 40.0703 2.46016C35.8596 1.08693 30.0898 0.25 23.7506 0.25V1.75ZM9.19448 13.3445C6.79054 12.6757 4.8804 11.8572 3.58892 10.9642C2.27631 10.0565 1.75 9.18122 1.75 8.41977H0.25C0.25 9.91964 1.27459 11.1875 2.73578 12.1979C4.21811 13.223 6.30469 14.0975 8.79243 14.7896L9.19448 13.3445ZM45.7512 8.41977C45.7512 9.20882 45.2628 10.0838 44.0407 10.9751C42.8264 11.8607 40.9948 12.6767 38.5943 13.3445L38.9964 14.7896C41.4876 14.0965 43.5089 13.2195 44.9246 12.187C46.3326 11.1602 47.2512 9.89204 47.2512 8.41977H45.7512ZM9.19448 29.8844C6.79054 29.2156 4.8804 28.3971 3.58892 27.5041C2.27631 26.5964 1.75 25.7211 1.75 24.9597H0.25C0.25 26.4595 1.27459 27.7274 2.73578 28.7378C4.21811 29.7629 6.30469 30.6374 8.79243 31.3295L9.19448 29.8844ZM45.7512 24.9597C45.7512 25.7487 45.2628 26.6237 44.0407 27.515C42.8264 28.4006 40.9948 29.2166 38.5943 29.8844L38.9964 31.3295C41.4876 30.6364 43.5089 29.7594 44.9246 28.7269C46.3326 27.7001 47.2512 26.4319 47.2512 24.9597H45.7512ZM9.19448 20.0349C13.0891 18.9514 18.1728 18.2899 23.7506 18.2899V16.7899C18.0661 16.7899 12.8433 17.4628 8.79243 18.5898L9.19448 20.0349ZM23.7506 18.2899C29.3284 18.2899 34.4122 18.9514 38.3067 20.0349L38.7088 18.5898C34.6579 17.4628 29.4351 16.7899 23.7506 16.7899V18.2899ZM8.24346 14.0671V19.3124H9.74346V14.0671H8.24346ZM8.24346 19.3124V30.607H9.74346V19.3124H8.24346ZM45.7512 8.41977V24.9597H47.2512V8.41977H45.7512Z" fill="#F5F5F5"/>
<path d="M38.7099 14.2102V30.6072M1 8.47986V25.0753" stroke="#F5F5F5" stroke-width="1.5" stroke-linecap="round" stroke-linejoin="round"/>
<path d="M25.6209 9.25865L22.5823 11.013L22.5823 7.50431L25.6209 9.25865Z" fill="#A5A5A5" stroke="#F5F5F5" stroke-width="1.5" stroke-linejoin="round"/>
<circle cx="23.5949" cy="9.25896" r="4.39226" stroke="#F5F5F5" stroke-width="1.5"/>
</svg>
