<svg width="538" height="100" viewBox="0 0 538 100" fill="none" xmlns="http://www.w3.org/2000/svg">
<path d="M58.2 24.05L56.5 27.25V38H51V3H56.5V18.25L63.7 3H69.2L61.55 18.6L69.2 38H63.55L58.2 24.05ZM90.0031 38H84.4531L83.5031 31.65H76.7531L75.8031 38H70.7531L76.3531 3H84.4031L90.0031 38ZM77.4531 26.9H82.7531L80.1031 9.2L77.4531 26.9ZM100.264 24.05L98.5645 27.25V38H93.0645V3H98.5645V18.25L105.764 3H111.264L103.614 18.6L111.264 38H105.614L100.264 24.05Z" fill="#EFEFEF"/>
<path d="M134.181 27.85L137.931 3H145.581V38H140.381V12.9L136.581 38H131.381L127.281 13.25V38H122.481V3H130.131L134.181 27.85ZM150.082 38V3H155.582V16.15H158.182C160.949 16.15 162.999 16.8833 164.332 18.35C165.699 19.8167 166.382 21.9667 166.382 24.8V29.35C166.382 32.1833 165.699 34.3333 164.332 35.8C162.999 37.2667 160.949 38 158.182 38H150.082ZM158.182 33C159.049 33 159.715 32.7667 160.182 32.3C160.649 31.8333 160.882 30.9667 160.882 29.7V24.45C160.882 23.1833 160.649 22.3167 160.182 21.85C159.715 21.3833 159.049 21.15 158.182 21.15H155.582V33H158.182ZM169.532 38V3H175.032V38H169.532ZM193.301 38H187.801V3H205.151V38H199.551V8H193.301V38ZM214.689 29.95C214.689 31.2167 214.939 32.1167 215.439 32.65C215.972 33.15 216.672 33.4 217.539 33.4C218.405 33.4 219.089 33.15 219.589 32.65C220.122 32.1167 220.389 31.2167 220.389 29.95V11.05C220.389 9.78333 220.122 8.9 219.589 8.4C219.089 7.86667 218.405 7.6 217.539 7.6C216.672 7.6 215.972 7.86667 215.439 8.4C214.939 8.9 214.689 9.78333 214.689 11.05V29.95ZM209.189 11.4C209.189 8.56667 209.905 6.4 211.339 4.9C212.772 3.36667 214.839 2.6 217.539 2.6C220.239 2.6 222.305 3.36667 223.739 4.9C225.172 6.4 225.889 8.56667 225.889 11.4V29.6C225.889 32.4333 225.172 34.6167 223.739 36.15C222.305 37.65 220.239 38.4 217.539 38.4C214.839 38.4 212.772 37.65 211.339 36.15C209.905 34.6167 209.189 32.4333 209.189 29.6V11.4ZM241.613 27.85L245.363 3H253.013V38H247.813V12.9L244.013 38H238.813L234.713 13.25V38H229.913V3H237.563L241.613 27.85ZM262.564 29.95C262.564 31.2167 262.814 32.1167 263.314 32.65C263.847 33.15 264.547 33.4 265.414 33.4C266.28 33.4 266.964 33.15 267.464 32.65C267.997 32.1167 268.264 31.2167 268.264 29.95V11.05C268.264 9.78333 267.997 8.9 267.464 8.4C266.964 7.86667 266.28 7.6 265.414 7.6C264.547 7.6 263.847 7.86667 263.314 8.4C262.814 8.9 262.564 9.78333 262.564 11.05V29.95ZM257.064 11.4C257.064 8.56667 257.78 6.4 259.214 4.9C260.647 3.36667 262.714 2.6 265.414 2.6C268.114 2.6 270.18 3.36667 271.614 4.9C273.047 6.4 273.764 8.56667 273.764 11.4V29.6C273.764 32.4333 273.047 34.6167 271.614 36.15C270.18 37.65 268.114 38.4 265.414 38.4C262.714 38.4 260.647 37.65 259.214 36.15C257.78 34.6167 257.064 32.4333 257.064 29.6V11.4ZM293.688 17.15L300.188 3H305.688L298.938 17.2L305.688 38H300.038L295.038 22.5L293.688 25.15V38H288.238V25.15L286.888 22.45L281.888 38H276.238L283.038 17.35L276.238 3H281.738L288.238 17.15V3H293.688V17.15ZM314.014 17.75H321.564V22.75H314.014V33H323.514V38H308.514V3H323.514V8H314.014V17.75ZM339.072 27.85L342.822 3H350.472V38H345.272V12.9L341.472 38H336.272L332.172 13.25V38H327.372V3H335.022L339.072 27.85ZM371.536 3C374.403 3 376.47 3.66666 377.736 5C379.036 6.33333 379.686 8.35 379.686 11.05V12.3C379.686 14.1 379.403 15.5833 378.836 16.75C378.27 17.9167 377.37 18.7833 376.136 19.35C377.636 19.9167 378.686 20.85 379.286 22.15C379.92 23.4167 380.236 24.9833 380.236 26.85V29.7C380.236 32.4 379.536 34.4667 378.136 35.9C376.736 37.3 374.653 38 371.886 38H363.236V3H371.536ZM368.736 22.25V33H371.886C372.82 33 373.52 32.75 373.986 32.25C374.486 31.75 374.736 30.85 374.736 29.55V26.5C374.736 24.8667 374.453 23.75 373.886 23.15C373.353 22.55 372.453 22.25 371.186 22.25H368.736ZM368.736 8V17.25H370.886C371.92 17.25 372.72 16.9833 373.286 16.45C373.886 15.9167 374.186 14.95 374.186 13.55V11.6C374.186 10.3333 373.953 9.41667 373.486 8.85C373.053 8.28333 372.353 8 371.386 8H368.736ZM401.849 38H396.299L395.349 31.65H388.599L387.649 38H382.599L388.199 3H396.249L401.849 38ZM389.299 26.9H394.599L391.949 9.2L389.299 26.9ZM404.91 38V3H410.41V33H415.16V3H420.66V33H425.41V3H430.91V38H404.91ZM440.891 17.75H448.441V22.75H440.891V33H450.391V38H435.391V3H450.391V8H440.891V17.75ZM465.949 27.85L469.699 3H477.349V38H472.149V12.9L468.349 38H463.149L459.049 13.25V38H454.249V3H461.899L465.949 27.85ZM494.05 29.1C493.716 30.6667 493.3 32.05 492.8 33.25C492.333 34.4167 491.683 35.3833 490.85 36.15C490.05 36.8833 489 37.4167 487.7 37.75C486.433 38.0833 484.85 38.1833 482.95 38.05V33.15C484.35 33.25 485.45 33.1167 486.25 32.75C487.05 32.3833 487.566 31.5667 487.8 30.3L487.85 30L480.25 3H485.7L488.7 14.95L490.4 23.15L491.7 15L494.2 3H499.95L494.05 29.1ZM51.05 88V53H66.45V58H56.55V66.95H59.75C62.5167 66.95 64.5833 67.6833 65.95 69.15C67.35 70.6167 68.05 72.7667 68.05 75.6V79.35C68.05 82.1833 67.35 84.3333 65.95 85.8C64.5833 87.2667 62.5167 88 59.75 88H51.05ZM59.75 83C60.6167 83 61.3 82.7667 61.8 82.3C62.3 81.8333 62.55 80.9667 62.55 79.7V75.25C62.55 73.9833 62.3 73.1167 61.8 72.65C61.3 72.1833 60.6167 71.95 59.75 71.95H56.55V83H59.75ZM77.902 88H72.252V53H77.152V75.15L79.152 67.45L83.652 53H89.702V88H84.752V63.35L82.502 71.95L77.902 88ZM104.69 61.6C104.69 60.0333 104.423 58.9833 103.89 58.45C103.39 57.8833 102.707 57.6 101.84 57.6C100.973 57.6 100.273 57.8667 99.7398 58.4C99.2065 58.9 98.9398 59.7833 98.9398 61.05V63.9H93.8898V61.3C93.8898 58.4667 94.5565 56.3167 95.8898 54.85C97.2565 53.35 99.2898 52.6 101.99 52.6C104.69 52.6 106.723 53.3667 108.09 54.9C109.49 56.4 110.19 58.5667 110.19 61.4V62.3C110.19 66.0333 108.907 68.4333 106.34 69.5C107.74 70.1 108.723 71.0333 109.29 72.3C109.89 73.5333 110.19 75.05 110.19 76.85V79.6C110.19 82.4333 109.49 84.6167 108.09 86.15C106.723 87.65 104.69 88.4 101.99 88.4C99.2898 88.4 97.2398 87.65 95.8398 86.15C94.4732 84.6167 93.7898 82.4333 93.7898 79.6V75.75H98.9898V79.95C98.9898 81.2167 99.2398 82.1167 99.7398 82.65C100.273 83.15 100.973 83.4 101.84 83.4C102.707 83.4 103.39 83.1333 103.89 82.6C104.423 82.0667 104.69 81.0167 104.69 79.45V76.7C104.69 75.0667 104.407 73.9167 103.84 73.25C103.273 72.5833 102.357 72.25 101.09 72.25H99.7398V67.25H101.39C102.423 67.25 103.223 66.9833 103.79 66.45C104.39 65.9167 104.69 64.95 104.69 63.55V61.6ZM119.914 88H114.414V53H119.914V68H126.164V53H131.764V88H126.164V73H119.914V88ZM141.752 67.75H149.302V72.75H141.752V83H151.252V88H136.252V53H151.252V58H141.752V67.75ZM171.11 74.95V79.6C171.11 82.4333 170.41 84.6167 169.01 86.15C167.643 87.65 165.61 88.4 162.91 88.4C160.21 88.4 158.16 87.65 156.76 86.15C155.393 84.6167 154.71 82.4333 154.71 79.6V61.4C154.71 58.5667 155.393 56.4 156.76 54.9C158.16 53.3667 160.21 52.6 162.91 52.6C165.61 52.6 167.643 53.3667 169.01 54.9C170.41 56.4 171.11 58.5667 171.11 61.4V64.8H165.91V61.05C165.91 59.7833 165.643 58.9 165.11 58.4C164.61 57.8667 163.927 57.6 163.06 57.6C162.193 57.6 161.493 57.8667 160.96 58.4C160.46 58.9 160.21 59.7833 160.21 61.05V79.95C160.21 81.2167 160.46 82.1 160.96 82.6C161.493 83.1 162.193 83.35 163.06 83.35C163.927 83.35 164.61 83.1 165.11 82.6C165.643 82.1 165.91 81.2167 165.91 79.95V74.95H171.11ZM187.147 79.1C186.814 80.6667 186.397 82.05 185.897 83.25C185.431 84.4167 184.781 85.3833 183.947 86.15C183.147 86.8833 182.097 87.4167 180.797 87.75C179.531 88.0833 177.947 88.1833 176.047 88.05V83.15C177.447 83.25 178.547 83.1167 179.347 82.75C180.147 82.3833 180.664 81.5667 180.897 80.3L180.947 80L173.347 53H178.797L181.797 64.95L183.497 73.15L184.797 65L187.297 53H193.047L187.147 79.1Z" fill="#EA4C14"/>
<line x1="18.2322" y1="17.7678" x2="2.23223" y2="1.76777" stroke="#E74214" stroke-width="5"/>
<line y1="-2.5" x2="22.6274" y2="-2.5" transform="matrix(-0.707107 0.707107 0.707107 0.707107 20 16)" stroke="#E74214" stroke-width="5"/>
</svg>
