<svg width="55" height="45" viewBox="0 0 55 45" fill="none" xmlns="http://www.w3.org/2000/svg">
<path d="M1 30.1721L4.66391 29.6217L5.40334 32.9203M15.8613 40.7518C7.01869 39.3484 2.83492 36.505 2.83492 32.9203C2.83492 31.7547 3.48412 30.6416 4.66429 29.6218M42.0979 40.7518C50.1673 39.2542 54.2073 36.3088 54.2073 32.9203C54.2073 31.7547 53.5581 30.6416 52.3779 29.6218" stroke="#F5F5F5" stroke-width="1.5" stroke-linecap="round" stroke-linejoin="round"/>
<path d="M21.6913 44.4582C21.2713 44.4582 20.9083 44.4072 20.6023 44.3052C20.2963 44.2032 20.0413 44.0712 19.8373 43.9092C19.6393 43.7412 19.4893 43.5612 19.3873 43.3692C19.2853 43.1712 19.2313 42.9762 19.2253 42.7842C19.2253 42.7302 19.2433 42.6882 19.2793 42.6582C19.3213 42.6222 19.3693 42.6042 19.4233 42.6042H20.2333C20.2933 42.6042 20.3443 42.6162 20.3863 42.6402C20.4283 42.6642 20.4643 42.7122 20.4943 42.7842C20.5483 42.9462 20.6353 43.0752 20.7553 43.1712C20.8813 43.2672 21.0253 43.3362 21.1873 43.3782C21.3493 43.4142 21.5203 43.4322 21.7003 43.4322C22.0603 43.4322 22.3453 43.3482 22.5553 43.1802C22.7713 43.0062 22.8793 42.7602 22.8793 42.4422C22.8793 42.1242 22.7803 41.8962 22.5823 41.7582C22.3843 41.6142 22.1083 41.5422 21.7543 41.5422H20.8273C20.7613 41.5422 20.7073 41.5242 20.6653 41.4882C20.6233 41.4462 20.6023 41.3922 20.6023 41.3262V40.9482C20.6023 40.8882 20.6143 40.8372 20.6383 40.7952C20.6683 40.7472 20.6983 40.7082 20.7283 40.6782L22.3393 39.1032H19.7653C19.6993 39.1032 19.6453 39.0822 19.6033 39.0402C19.5673 38.9982 19.5493 38.9472 19.5493 38.8872V38.2932C19.5493 38.2272 19.5673 38.1732 19.6033 38.1312C19.6453 38.0892 19.6993 38.0682 19.7653 38.0682H23.6263C23.6923 38.0682 23.7463 38.0892 23.7883 38.1312C23.8303 38.1732 23.8513 38.2272 23.8513 38.2932V38.8332C23.8513 38.8872 23.8393 38.9352 23.8153 38.9772C23.7913 39.0192 23.7643 39.0552 23.7343 39.0852L22.1773 40.6872L22.2853 40.6962C22.6513 40.7262 22.9753 40.8102 23.2573 40.9482C23.5453 41.0802 23.7673 41.2752 23.9233 41.5332C24.0853 41.7912 24.1663 42.1152 24.1663 42.5052C24.1663 42.9132 24.0583 43.2642 23.8423 43.5582C23.6323 43.8462 23.3413 44.0682 22.9693 44.2242C22.5973 44.3802 22.1713 44.4582 21.6913 44.4582ZM27.5222 44.4582C27.0062 44.4582 26.5622 44.3622 26.1902 44.1702C25.8182 43.9722 25.5302 43.7082 25.3262 43.3782C25.1222 43.0422 25.0202 42.6672 25.0202 42.2532C25.0202 42.0672 25.0442 41.8872 25.0922 41.7132C25.1402 41.5392 25.2032 41.3742 25.2812 41.2182C25.3592 41.0622 25.4342 40.9242 25.5062 40.8042C25.5842 40.6782 25.6532 40.5792 25.7132 40.5072L27.3602 38.2482C27.3842 38.2182 27.4202 38.1822 27.4682 38.1402C27.5162 38.0922 27.5822 38.0682 27.6662 38.0682H28.5032C28.5572 38.0682 28.6022 38.0892 28.6382 38.1312C28.6742 38.1672 28.6922 38.2122 28.6922 38.2662C28.6922 38.2902 28.6862 38.3142 28.6742 38.3382C28.6682 38.3562 28.6592 38.3712 28.6472 38.3832L27.3872 40.1292C27.4412 40.1112 27.5042 40.0992 27.5762 40.0932C27.6482 40.0872 27.7142 40.0842 27.7742 40.0842C28.0742 40.0902 28.3592 40.1502 28.6292 40.2642C28.8992 40.3722 29.1362 40.5222 29.3402 40.7142C29.5442 40.9062 29.7032 41.1312 29.8172 41.3892C29.9372 41.6472 29.9972 41.9292 29.9972 42.2352C29.9972 42.6312 29.8982 43.0002 29.7002 43.3422C29.5022 43.6782 29.2172 43.9482 28.8452 44.1522C28.4792 44.3562 28.0382 44.4582 27.5222 44.4582ZM27.5132 43.4232C27.7292 43.4232 27.9272 43.3782 28.1072 43.2882C28.2932 43.1982 28.4432 43.0662 28.5572 42.8922C28.6712 42.7182 28.7282 42.5022 28.7282 42.2442C28.7282 41.9922 28.6712 41.7792 28.5572 41.6052C28.4432 41.4312 28.2932 41.2992 28.1072 41.2092C27.9272 41.1192 27.7292 41.0742 27.5132 41.0742C27.2972 41.0742 27.0962 41.1192 26.9102 41.2092C26.7302 41.2992 26.5832 41.4312 26.4692 41.6052C26.3552 41.7792 26.2982 41.9922 26.2982 42.2442C26.2982 42.5022 26.3552 42.7182 26.4692 42.8922C26.5832 43.0662 26.7302 43.1982 26.9102 43.2882C27.0962 43.3782 27.2972 43.4232 27.5132 43.4232ZM33.3358 44.4582C32.9098 44.4582 32.5468 44.3952 32.2468 44.2692C31.9468 44.1432 31.7008 43.9692 31.5088 43.7472C31.3168 43.5252 31.1728 43.2702 31.0768 42.9822C30.9808 42.6882 30.9238 42.3762 30.9058 42.0462C30.8998 41.8842 30.8938 41.7072 30.8878 41.5152C30.8878 41.3172 30.8878 41.1192 30.8878 40.9212C30.8938 40.7232 30.8998 40.5402 30.9058 40.3722C30.9178 40.0422 30.9748 39.7332 31.0768 39.4452C31.1788 39.1512 31.3258 38.8962 31.5178 38.6802C31.7158 38.4642 31.9648 38.2932 32.2648 38.1672C32.5648 38.0412 32.9218 37.9782 33.3358 37.9782C33.7558 37.9782 34.1158 38.0412 34.4158 38.1672C34.7158 38.2932 34.9618 38.4642 35.1538 38.6802C35.3518 38.8962 35.4988 39.1512 35.5948 39.4452C35.6968 39.7332 35.7538 40.0422 35.7658 40.3722C35.7778 40.5402 35.7838 40.7232 35.7838 40.9212C35.7838 41.1192 35.7838 41.3172 35.7838 41.5152C35.7838 41.7072 35.7778 41.8842 35.7658 42.0462C35.7538 42.3762 35.6998 42.6882 35.6038 42.9822C35.5078 43.2702 35.3638 43.5252 35.1718 43.7472C34.9798 43.9692 34.7308 44.1432 34.4248 44.2692C34.1248 44.3952 33.7618 44.4582 33.3358 44.4582ZM33.3358 43.4232C33.7258 43.4232 34.0108 43.2972 34.1908 43.0452C34.3768 42.7872 34.4728 42.4392 34.4788 42.0012C34.4908 41.8272 34.4968 41.6532 34.4968 41.4792C34.4968 41.2992 34.4968 41.1192 34.4968 40.9392C34.4968 40.7592 34.4908 40.5882 34.4788 40.4262C34.4728 40.0002 34.3768 39.6582 34.1908 39.4002C34.0108 39.1362 33.7258 39.0042 33.3358 39.0042C32.9518 39.0042 32.6668 39.1362 32.4808 39.4002C32.3008 39.6582 32.2048 40.0002 32.1928 40.4262C32.1928 40.5882 32.1898 40.7592 32.1838 40.9392C32.1838 41.1192 32.1838 41.2992 32.1838 41.4792C32.1898 41.6532 32.1928 41.8272 32.1928 42.0012C32.2048 42.4392 32.3038 42.7872 32.4898 43.0452C32.6758 43.2972 32.9578 43.4232 33.3358 43.4232ZM38.1889 40.7772C37.9249 40.7772 37.6819 40.7172 37.4599 40.5972C37.2439 40.4712 37.0699 40.3032 36.9379 40.0932C36.8059 39.8772 36.7399 39.6372 36.7399 39.3732C36.7399 39.1092 36.8059 38.8722 36.9379 38.6622C37.0699 38.4522 37.2439 38.2872 37.4599 38.1672C37.6819 38.0412 37.9249 37.9782 38.1889 37.9782C38.4529 37.9782 38.6929 38.0412 38.9089 38.1672C39.1249 38.2872 39.2989 38.4522 39.4309 38.6622C39.5629 38.8722 39.6289 39.1092 39.6289 39.3732C39.6289 39.6372 39.5629 39.8772 39.4309 40.0932C39.2989 40.3032 39.1249 40.4712 38.9089 40.5972C38.6929 40.7172 38.4529 40.7772 38.1889 40.7772ZM38.1889 40.0572C38.3929 40.0572 38.5579 39.9942 38.6839 39.8682C38.8099 39.7422 38.8729 39.5772 38.8729 39.3732C38.8729 39.1692 38.8099 39.0042 38.6839 38.8782C38.5579 38.7522 38.3929 38.6892 38.1889 38.6892C37.9849 38.6892 37.8199 38.7522 37.6939 38.8782C37.5679 39.0042 37.5049 39.1692 37.5049 39.3732C37.5049 39.5772 37.5679 39.7422 37.6939 39.8682C37.8199 39.9942 37.9849 40.0572 38.1889 40.0572Z" fill="#F5F5F5"/>
<path d="M29.2546 5.03674H13.109V30.7229H29.2546V5.03674Z" stroke="#F5F5F5" stroke-width="1.5" stroke-linejoin="round"/>
<path d="M29.6215 23.0165H35.8596" stroke="#F5F5F5" stroke-width="1.5" stroke-linecap="round" stroke-linejoin="round"/>
<path d="M41.3642 26.6862V23.3837M41.3642 16.0448V1H29.255V5.40334" stroke="#F5F5F5" stroke-width="1.5" stroke-linejoin="round"/>
<rect x="15.3104" y="8.70593" width="11.7423" height="3.66945" stroke="#F5F5F5" stroke-width="1.5" stroke-linejoin="round"/>
<rect x="15.3104" y="14.944" width="11.7423" height="3.66945" stroke="#F5F5F5" stroke-width="1.5" stroke-linejoin="round"/>
<rect x="32.6394" y="3.56897" width="5.07805" height="3.51557" stroke="#F5F5F5" stroke-width="1.5" stroke-linejoin="round"/>
<rect x="32.6394" y="9.38092" width="5.07805" height="3.90619" stroke="#F5F5F5" stroke-width="1.5" stroke-linejoin="round"/>
<path d="M37.5104 15.749H32.6394V19.2645H34.5749" stroke="#F5F5F5" stroke-width="1.5" stroke-linecap="round" stroke-linejoin="round"/>
<path d="M13.109 30.7224L45.0332 30.7224" stroke="#F5F5F5" stroke-width="1.5" stroke-linecap="round" stroke-linejoin="round"/>
<path d="M42.8284 19.8507C42.8284 22.1623 41.037 23.9834 38.8909 23.9834C36.7449 23.9834 34.9535 22.1623 34.9535 19.8507C34.9535 17.5391 36.7449 15.718 38.8909 15.718C41.037 15.718 42.8284 17.5391 42.8284 19.8507Z" stroke="#F5F5F5" stroke-width="1.5" stroke-linejoin="round"/>
<path d="M38.9398 18.5811V21.9502M38.9398 27.2369V21.9502M37.0355 19.8995L38.9398 21.9502M38.9398 21.9502L40.9905 19.8995" stroke="#F5F5F5" stroke-width="1.5" stroke-linecap="round" stroke-linejoin="round"/>
<path d="M45.1713 28.1268C46.4818 29.2319 45.7174 30.1659 45.1713 30.4948H38.5163C37.5266 30.4948 35.7111 30.1791 36.3663 28.9161C37.0216 27.6532 38.0727 28.3899 38.5163 28.9161C38.2433 28.357 38.1887 27.1401 40.1545 26.7454C42.1203 26.3507 42.6117 28.0281 42.6117 28.9161C42.9189 28.1926 43.8608 27.0217 45.1713 28.1268Z" stroke="#F5F5F5" stroke-width="1.5" stroke-linecap="round" stroke-linejoin="round"/>
<path d="M13.109 21.9158H15.2859H17.6443M29.2546 21.9158H17.6443M17.6443 21.9158V26.1357V30.3556M25.2182 21.9158V26.1357V30.3556" stroke="#F5F5F5" stroke-width="1.5" stroke-linecap="round" stroke-linejoin="round"/>
</svg>
