<svg width="115" height="80" viewBox="0 0 115 80" fill="none" xmlns="http://www.w3.org/2000/svg">
<path d="M18.2361 14.5049C18.2361 11.1912 20.9223 8.50488 24.2361 8.50488H93.176C96.4897 8.50488 99.176 11.1912 99.176 14.5049V41.1617C99.176 44.4754 96.4897 47.1617 93.176 47.1617H73.5899C71.7014 47.1617 69.923 46.2725 68.7899 44.7617L65.5126 40.3919C62.3126 36.1252 55.9126 36.1252 52.7126 40.3919L49.4352 44.7617C48.3021 46.2725 46.5238 47.1617 44.6352 47.1617H24.2361C20.9223 47.1617 18.2361 44.4754 18.2361 41.1617V14.5049Z" stroke="#F5F5F5" stroke-width="2"/>
<path d="M20.4884 9.09137V9.09137C20.4884 4.62263 24.111 1 28.5798 1H88.8318C93.3006 1 96.9232 4.62263 96.9232 9.09137V9.09137" stroke="#F5F5F5" stroke-width="2"/>
<circle cx="39.5957" cy="27.4271" r="7.53793" stroke="#F5F5F5" stroke-width="2"/>
<circle cx="77.8158" cy="27.4271" r="7.53793" stroke="#F5F5F5" stroke-width="2"/>
<path d="M1 49.3218L8.71978 48.1621L10.2778 55.1121M32.3124 71.613C13.6813 68.656 4.86613 62.6651 4.86613 55.1121C4.86613 52.6564 6.23398 50.3111 8.72059 48.1624M87.5924 71.613C104.594 68.4575 113.107 62.2517 113.107 55.1121C113.107 52.6564 111.739 50.3111 109.252 48.1624" stroke="#EA4C14" stroke-width="2" stroke-linecap="round" stroke-linejoin="round"/>
<path d="M44.323 79.8248C43.483 79.8248 42.7497 79.7248 42.123 79.5248C41.4963 79.3115 40.9697 79.0315 40.543 78.6848C40.1163 78.3381 39.7897 77.9581 39.563 77.5448C39.3497 77.1181 39.2363 76.6915 39.223 76.2648C39.223 76.1448 39.263 76.0515 39.343 75.9848C39.423 75.9048 39.523 75.8648 39.643 75.8648H40.623C40.743 75.8648 40.8497 75.8981 40.943 75.9648C41.0497 76.0181 41.1297 76.1315 41.183 76.3048C41.3163 76.7848 41.543 77.1581 41.863 77.4248C42.1963 77.6915 42.5763 77.8781 43.003 77.9848C43.443 78.0781 43.883 78.1248 44.323 78.1248C45.243 78.1248 45.9897 77.9048 46.563 77.4648C47.1363 77.0248 47.423 76.3781 47.423 75.5248C47.423 74.6581 47.163 74.0381 46.643 73.6648C46.123 73.2915 45.403 73.1048 44.483 73.1048H42.583C42.4497 73.1048 42.3363 73.0648 42.243 72.9848C42.163 72.9048 42.123 72.7915 42.123 72.6448V72.1048C42.123 71.9848 42.143 71.8848 42.183 71.8048C42.2363 71.7115 42.2897 71.6315 42.343 71.5648L46.223 67.3248H40.323C40.1897 67.3248 40.0763 67.2848 39.983 67.2048C39.903 67.1248 39.863 67.0115 39.863 66.8648V66.1048C39.863 65.9581 39.903 65.8448 39.983 65.7648C40.0763 65.6715 40.1897 65.6248 40.323 65.6248H48.303C48.4497 65.6248 48.563 65.6715 48.643 65.7648C48.7363 65.8448 48.783 65.9581 48.783 66.1048V66.8248C48.783 66.9181 48.7563 67.0048 48.703 67.0848C48.663 67.1515 48.6163 67.2181 48.563 67.2848L44.703 71.5848L45.023 71.6048C45.903 71.6315 46.6697 71.7915 47.323 72.0848C47.9897 72.3781 48.503 72.8181 48.863 73.4048C49.2363 73.9781 49.423 74.7048 49.423 75.5848C49.423 76.4781 49.203 77.2381 48.763 77.8648C48.323 78.4915 47.7163 78.9781 46.943 79.3248C46.183 79.6581 45.3097 79.8248 44.323 79.8248Z" fill="#EA4C14"/>
<path d="M56.7347 79.8248C55.628 79.8248 54.688 79.6048 53.9147 79.1648C53.1414 78.7115 52.548 78.1248 52.1347 77.4048C51.7347 76.6715 51.5347 75.8781 51.5347 75.0248C51.5347 74.6248 51.5814 74.2448 51.6747 73.8848C51.7814 73.5115 51.908 73.1648 52.0547 72.8448C52.2147 72.5115 52.368 72.2181 52.5147 71.9648C52.6747 71.6981 52.8147 71.4848 52.9347 71.3248L56.7347 66.0248C56.8014 65.9581 56.8814 65.8781 56.9747 65.7848C57.068 65.6781 57.208 65.6248 57.3947 65.6248H58.4547C58.5747 65.6248 58.668 65.6715 58.7347 65.7648C58.8147 65.8448 58.8547 65.9448 58.8547 66.0648C58.8547 66.1181 58.848 66.1715 58.8347 66.2248C58.8214 66.2648 58.8014 66.2981 58.7747 66.3248L55.8547 70.4048C56.0147 70.3515 56.2014 70.3181 56.4147 70.3048C56.628 70.2781 56.8214 70.2648 56.9947 70.2648C57.728 70.2781 58.3947 70.4115 58.9947 70.6648C59.5947 70.9181 60.108 71.2648 60.5347 71.7048C60.9747 72.1315 61.308 72.6315 61.5347 73.2048C61.7614 73.7648 61.8747 74.3648 61.8747 75.0048C61.8747 75.8448 61.6747 76.6315 61.2747 77.3648C60.8747 78.0981 60.288 78.6915 59.5147 79.1448C58.7547 79.5981 57.828 79.8248 56.7347 79.8248ZM56.7147 78.1248C57.2747 78.1248 57.7947 78.0048 58.2747 77.7648C58.7547 77.5248 59.1414 77.1781 59.4347 76.7248C59.7414 76.2581 59.8947 75.6848 59.8947 75.0048C59.8947 74.3381 59.748 73.7781 59.4547 73.3248C59.1614 72.8581 58.768 72.5115 58.2747 72.2848C57.7947 72.0448 57.2747 71.9248 56.7147 71.9248C56.1547 71.9248 55.6347 72.0448 55.1547 72.2848C54.6747 72.5115 54.2814 72.8581 53.9747 73.3248C53.6814 73.7781 53.5347 74.3381 53.5347 75.0048C53.5347 75.6848 53.6814 76.2581 53.9747 76.7248C54.2814 77.1781 54.6747 77.5248 55.1547 77.7648C55.6347 78.0048 56.1547 78.1248 56.7147 78.1248Z" fill="#EA4C14"/>
<path d="M69.1655 79.8248C68.2455 79.8248 67.4655 79.6848 66.8255 79.4048C66.1988 79.1115 65.6855 78.7115 65.2855 78.2048C64.8855 77.6981 64.5922 77.1181 64.4055 76.4648C64.2322 75.8115 64.1322 75.1181 64.1055 74.3848C64.0922 74.0248 64.0788 73.6448 64.0655 73.2448C64.0655 72.8448 64.0655 72.4381 64.0655 72.0248C64.0788 71.6115 64.0922 71.2181 64.1055 70.8448C64.1188 70.1115 64.2188 69.4181 64.4055 68.7648C64.6055 68.1115 64.9055 67.5381 65.3055 67.0448C65.7055 66.5381 66.2188 66.1448 66.8455 65.8648C67.4855 65.5715 68.2588 65.4248 69.1655 65.4248C70.0855 65.4248 70.8588 65.5715 71.4855 65.8648C72.1255 66.1448 72.6455 66.5381 73.0455 67.0448C73.4455 67.5381 73.7388 68.1115 73.9255 68.7648C74.1255 69.4181 74.2322 70.1115 74.2455 70.8448C74.2588 71.2181 74.2655 71.6115 74.2655 72.0248C74.2788 72.4381 74.2788 72.8448 74.2655 73.2448C74.2655 73.6448 74.2588 74.0248 74.2455 74.3848C74.2322 75.1181 74.1255 75.8115 73.9255 76.4648C73.7388 77.1181 73.4455 77.6981 73.0455 78.2048C72.6588 78.7115 72.1455 79.1115 71.5055 79.4048C70.8788 79.6848 70.0988 79.8248 69.1655 79.8248ZM69.1655 78.1048C70.2055 78.1048 70.9722 77.7648 71.4655 77.0848C71.9722 76.4048 72.2322 75.4715 72.2455 74.2848C72.2722 73.8981 72.2855 73.5248 72.2855 73.1648C72.2855 72.7915 72.2855 72.4248 72.2855 72.0648C72.2855 71.6915 72.2722 71.3248 72.2455 70.9648C72.2322 69.8048 71.9722 68.8781 71.4655 68.1848C70.9722 67.4781 70.2055 67.1248 69.1655 67.1248C68.1388 67.1248 67.3722 67.4781 66.8655 68.1848C66.3722 68.8781 66.1122 69.8048 66.0855 70.9648C66.0855 71.3248 66.0788 71.6915 66.0655 72.0648C66.0655 72.4248 66.0655 72.7915 66.0655 73.1648C66.0788 73.5248 66.0855 73.8981 66.0855 74.2848C66.1122 75.4715 66.3788 76.4048 66.8855 77.0848C67.3922 77.7648 68.1522 78.1048 69.1655 78.1048Z" fill="#EA4C14"/>
<path d="M79.6008 71.1048C79.0675 71.1048 78.5741 70.9848 78.1208 70.7448C77.6808 70.4915 77.3275 70.1515 77.0608 69.7248C76.7941 69.2848 76.6608 68.7981 76.6608 68.2648C76.6608 67.7181 76.7941 67.2315 77.0608 66.8048C77.3275 66.3781 77.6808 66.0448 78.1208 65.8048C78.5741 65.5515 79.0675 65.4248 79.6008 65.4248C80.1475 65.4248 80.6408 65.5515 81.0808 65.8048C81.5208 66.0448 81.8741 66.3781 82.1408 66.8048C82.4075 67.2315 82.5408 67.7181 82.5408 68.2648C82.5408 68.7981 82.4075 69.2848 82.1408 69.7248C81.8741 70.1515 81.5208 70.4915 81.0808 70.7448C80.6408 70.9848 80.1475 71.1048 79.6008 71.1048ZM79.6008 69.7848C80.0541 69.7848 80.4208 69.6448 80.7008 69.3648C80.9808 69.0848 81.1208 68.7181 81.1208 68.2648C81.1208 67.8115 80.9808 67.4448 80.7008 67.1648C80.4208 66.8848 80.0541 66.7448 79.6008 66.7448C79.1475 66.7448 78.7808 66.8848 78.5008 67.1648C78.2208 67.4448 78.0808 67.8115 78.0808 68.2648C78.0808 68.7181 78.2208 69.0848 78.5008 69.3648C78.7808 69.6448 79.1475 69.7848 79.6008 69.7848Z" fill="#EA4C14"/>
</svg>
