<svg width="105" height="74" viewBox="0 0 105 74" fill="none" xmlns="http://www.w3.org/2000/svg">
<path d="M15.8889 55.9983C17.131 55.9983 13.9189 55.2924 11.3392 57.7904C8.75948 60.2885 10.0233 63.6478 11.0982 64.6887C10.0232 64.3913 6.99334 63.4382 5.10942 65.5571C3.37838 67.5039 4.1881 69.7444 5.10942 70.9339" stroke="#F5F5F5" stroke-width="2" stroke-linecap="round" stroke-linejoin="round"/>
<path d="M49.7082 1L72.9026 21.4884V61.692M58.9859 1L82.1803 21.4884V53.1874" stroke="#EA4C14" stroke-width="2" stroke-linecap="round" stroke-linejoin="round"/>
<path d="M23.4212 58.5995H55.8934M32.3124 58.5995V65.5578M47.0022 58.5995V65.5578M23.4212 35.0186H55.8934" stroke="#EA4C14" stroke-width="2" stroke-linecap="round" stroke-linejoin="round"/>
<path d="M16.463 72.1295V21.875L39.6573 1M39.6573 1L63.2383 21.875M39.6573 1H66.7175L92.2313 21.875M63.2383 21.875V72.1295M63.2383 21.875H92.2313M92.2313 21.875V59.3726" stroke="#EA4C14" stroke-width="2" stroke-linecap="round" stroke-linejoin="round"/>
<path d="M55.8934 40.2499V25.8452L39.6573 11.0513L23.4212 25.8452V65.9447H39.6573H55.8934V40.2499Z" stroke="#EA4C14" stroke-width="2" stroke-linecap="round" stroke-linejoin="round"/>
<path d="M1 72.1289H103.442" stroke="#F5F5F5" stroke-width="2" stroke-linecap="round" stroke-linejoin="round"/>
<path d="M68.802 71.5316C67.5603 70.5359 65.5735 67.7081 67.5603 64.3625C69.547 61.0168 73.3549 61.3753 75.0105 61.9727C73.9758 58.9856 73.6446 53.0112 80.5983 53.0112C87.5519 53.0112 88.4625 58.9856 88.0486 61.9727C88.2555 60.3796 90.532 58.3881 93.6363 59.583C96.2143 60.5753 95.7059 63.765 95.4989 64.9599C96.3267 64.5616 100.342 63.765 101.087 67.3496C101.583 69.7393 100.052 70.7351 99.8449 71.5316H68.802Z" stroke="#F5F5F5" stroke-width="2" stroke-linecap="round" stroke-linejoin="round"/>
</svg>
