<svg width="102" height="75" viewBox="0 0 102 75" fill="none" xmlns="http://www.w3.org/2000/svg">
<path d="M16.3271 57.9847C17.5238 57.9847 14.4291 57.3045 11.9436 59.7113C9.45817 62.1182 10.6758 65.3547 11.7114 66.3576C10.6758 66.071 7.75657 65.1528 5.94148 67.1942C4.27368 69.0699 5.69881 72.109 6.58648 73.2552" stroke="#F5F5F5" stroke-width="2" stroke-linecap="round" stroke-linejoin="round"/>
<path d="M17.5232 73.526V13.0877L39.0575 1M39.0575 1L60.5918 10.7853V22.2973M39.0575 1V73.526M52.2174 73.526V26.9021L68.9663 17.6925M68.9663 17.6925L85.7152 25.1753V60.2871M68.9663 17.6925V62.5895" stroke="#EA4C14" stroke-width="2" stroke-linecap="round" stroke-linejoin="round"/>
<path d="M17.5229 60.8625L39.0573 58.5601L52.2171 59.7113M52.2171 63.7405L68.9661 62.5893" stroke="#EA4C14" stroke-width="2" stroke-linecap="round" stroke-linejoin="round"/>
<path d="M65.5908 73.6956C64.3945 72.7362 62.4803 69.2668 64.3945 66.0434C66.3086 62.82 69.9774 63.1654 71.5725 63.741C70.5755 60.863 70.2565 55.1069 76.9561 55.1069C83.6556 55.1069 84.533 60.863 84.1342 63.741C84.3336 62.206 86.5269 60.2874 89.5178 61.4386C92.0015 62.3946 91.5117 65.4678 91.3123 66.619C92.1098 66.2353 95.978 65.4678 96.6959 68.9214C97.1744 71.2238 95.6989 72.9281 95.4995 73.6956H65.5908Z" stroke="#F5F5F5" stroke-width="2" stroke-linecap="round" stroke-linejoin="round"/>
<path d="M1 74H100.071" stroke="white" stroke-width="2" stroke-linecap="round"/>
</svg>
