<svg width="98" height="70" viewBox="0 0 98 70" fill="none" xmlns="http://www.w3.org/2000/svg">
<path d="M29.3333 39.9998C35.3333 39.9998 42.3333 33.9159 42.3333 25.9998C42.3333 18.0838 35.916 11.6665 28 11.6665C20.0839 11.6665 13.6666 18.0838 13.6666 25.9998C13.6666 27.6751 13.954 29.2832 14.4822 30.7776" stroke="#EA4C14" stroke-width="2"/>
<path d="M49 4.11764V68.0138M49 4.11764C49 4.11764 47.1299 1 41.5195 1C27.4935 1 1 1 1 1L1.00061 65.5202C1.00061 65.5202 25.3123 65.5202 41.5195 65.5202C46.8188 65.5202 49 68.0138 49 68.0138M49 4.11764C49 4.11764 50.8701 1 56.7922 1C72.0649 1 97 1 97 1V65.5202C97 65.5202 61.0527 65.5202 56.7922 65.5202C50.8707 65.5202 49 68.0138 49 68.0138" stroke="#F5F5F5" stroke-width="2" stroke-linecap="round" stroke-linejoin="round"/>
<path d="M27.3127 37.1579V37.1579C28.6128 37.1579 29.6667 38.2118 29.6667 39.5119V52.2105H27.3127M27.3127 37.1579V37.1579C25.8269 37.1579 24.6224 38.3624 24.6224 39.8482V42.1184M27.3127 37.1579V34C27.3127 32.3431 25.9695 31 24.3127 31H1M24.6224 42.1184V47.0789H10.3304M24.6224 42.1184H10.3304M10.3304 42.1184V47.0789M10.3304 42.1184H1M10.3304 47.0789H1M27.3127 52.2105V57H25.295L21.9322 52.2105M27.3127 52.2105H21.9322M21.9322 52.2105H1" stroke="#F5F5F5" stroke-width="2" stroke-linejoin="round"/>
<path d="M27.6667 56L49 56" stroke="#F5F5F5" stroke-width="2" stroke-linejoin="round"/>
<path d="M1 56L24.3333 56" stroke="#F5F5F5" stroke-width="2" stroke-linejoin="round"/>
<path d="M78.6666 12.3444L76.3333 9H81L78.6666 12.3444ZM78.6666 12.3444V24.0498M78.6666 24.0498V24.0498C77.545 24.0296 76.625 24.9333 76.625 26.0551V48.2967H78.375L80.7083 48.3333V26.0915C80.7083 24.9639 79.7942 24.0498 78.6666 24.0498V24.0498Z" stroke="#EA4C14" stroke-width="2" stroke-linejoin="round"/>
<path d="M87.3333 12.3684L84.9999 9H89.6666L87.3333 12.3684ZM87.3333 12.3684V32.542M87.3333 32.542V32.542C86.2117 32.5217 85.2916 33.4253 85.2916 34.5471V56.9631H87.0416L89.3749 57V34.5837C89.3749 33.4561 88.4609 32.542 87.3333 32.542V32.542Z" stroke="#EA4C14" stroke-width="2" stroke-linejoin="round"/>
<path d="M57 55H70" stroke="#F5F5F5" stroke-width="2" stroke-linecap="round" stroke-linejoin="round"/>
<path d="M57 51H70" stroke="#F5F5F5" stroke-width="2" stroke-linecap="round" stroke-linejoin="round"/>
<path d="M57 43H70" stroke="#F5F5F5" stroke-width="2" stroke-linecap="round" stroke-linejoin="round"/>
<path d="M57 47H70" stroke="#F5F5F5" stroke-width="2" stroke-linecap="round" stroke-linejoin="round"/>
<path d="M57 39H70" stroke="#F5F5F5" stroke-width="2" stroke-linecap="round" stroke-linejoin="round"/>
</svg>
