<svg width="83" height="77" viewBox="0 0 83 77" fill="none" xmlns="http://www.w3.org/2000/svg">
<path d="M11.721 1V9.99942M11.721 54.9965V9.99942M1 10.9994V65.4959M11.721 9.99942H81.9433V75.9952H11.721" stroke="#F5F5F5" stroke-width="2" stroke-linecap="round" stroke-linejoin="round"/>
<path d="M12.257 75.9952C6.03994 75.9952 1 71.2945 1 65.4959C1 59.6973 6.03994 54.9966 12.257 54.9966" stroke="#F5F5F5" stroke-width="2" stroke-linejoin="round"/>
<path d="M1 11.4993C1 5.70071 6.03994 1 12.257 1" stroke="#F5F5F5" stroke-width="2" stroke-linejoin="round"/>
<path d="M39.5955 19.9985H22.442V42.9971M39.5955 19.9985V32.9977H47.6362M39.5955 19.9985H57.2851M57.2851 19.9985H70.6863V45.4969M57.2851 19.9985V36.4975M22.442 42.9971V65.9956H39.5955M22.442 42.9971H39.5955V49.4966M39.5955 57.9961V65.9956M39.5955 65.9956H57.2851M70.6863 45.4969V65.9956H57.2851M70.6863 45.4969H57.2851V53.4964M57.2851 61.4959V65.9956" stroke="#EA4C14" stroke-width="2" stroke-linecap="round" stroke-linejoin="round"/>
</svg>
