<svg width="108" height="74" viewBox="0 0 108 74" fill="none" xmlns="http://www.w3.org/2000/svg">
<path d="M53.157 43.1699C51.8684 44.7162 47.9769 47.3449 42.7195 45.4893C36.1478 43.1699 27.2566 31.9592 21.8446 32.3458C16.4325 32.7324 12.9534 38.9176 9.47423 33.8921C5.99507 28.8667 7.92794 17.656 8.70108 13.4037C9.15468 10.9089 10.0075 7.2166 9.77624 4.51255M53.157 43.1699C56.2502 33.1189 53.157 28.8667 48.5176 27.707C43.8781 26.5472 37.6935 33.119 33.0546 29.6398C28.4157 26.1607 31.8949 19.2024 35.3741 15.3366C38.8532 11.4709 40.0131 6.44542 36.5339 2.57969C33.0548 -1.28605 26.483 2.96626 21.071 4.51255C16.7414 5.74959 11.7372 5.02798 9.77624 4.51255M53.157 43.1699C49.592 48.2797 44.7119 56.7867 32.1499 57.4731M28.8028 57.4731C15.8538 56.809 4.06178 43.943 1.74234 26.1607C-0.5771 8.37828 2.90258 0.64682 7.15489 1.03339C8.9124 1.19317 9.61332 2.60762 9.77624 4.51255M28.8028 57.4731V65.2046L15.2723 69.8434C15.4011 70.8743 18.5968 72.936 30.3486 72.936C42.1004 72.936 45.2961 70.8743 45.425 69.8434L32.1499 65.2046V57.4731M28.8028 57.4731C29.6026 57.5141 30.3752 57.5261 31.1218 57.5112C31.4701 57.5043 31.8128 57.4915 32.1499 57.4731" stroke="#EA4C14" stroke-width="2" stroke-linecap="round" stroke-linejoin="round"/>
<ellipse cx="80.6031" cy="24.2277" rx="26.287" ry="7.34489" stroke="#F5F5F5" stroke-width="2"/>
<path d="M77.5105 54.8203C72.6472 55.0478 69.0059 55.9759 69.0059 57.0863C69.0059 58.3673 73.852 59.4058 79.83 59.4058C85.8079 59.4058 90.654 58.3673 90.654 57.0863C90.654 55.9467 86.8185 54.999 81.7628 54.8038" stroke="#F5F5F5" stroke-width="2"/>
<path d="M77.8971 31.959V55.9265H81.7628V31.959" stroke="#F5F5F5" stroke-width="2" stroke-linecap="round" stroke-linejoin="round"/>
</svg>
