<svg width="148" height="24" viewBox="0 0 148 24" fill="none" xmlns="http://www.w3.org/2000/svg">
<path d="M11.424 9.656L15.584 0.599998H19.104L14.784 9.688L19.104 23H15.488L12.288 13.08L11.424 14.776V23H7.936V14.776L7.072 13.048L3.872 23H0.256L4.608 9.784L0.256 0.599998H3.776L7.936 9.656V0.599998H11.424V9.656ZM25.5205 14.072L24.4325 16.12V23H20.9125V0.599998H24.4325V10.36L29.0405 0.599998H32.5605L27.6645 10.584L32.5605 23H28.9445L25.5205 14.072ZM43.1632 3.8V7.192H39.7712V4.152L41.3072 0.599998H42.7472L41.8192 3.8H43.1632ZM47.8352 3.8V7.192H44.4432V4.152L45.9792 0.599998H47.4192L46.4912 3.8H47.8352ZM60.9242 14.648V17.624C60.9242 19.4373 60.4762 20.8347 59.5802 21.816C58.7056 22.776 57.4042 23.256 55.6762 23.256C53.9482 23.256 52.6362 22.776 51.7402 21.816C50.8656 20.8347 50.4282 19.4373 50.4282 17.624V5.976C50.4282 4.16267 50.8656 2.776 51.7402 1.816C52.6362 0.834666 53.9482 0.344 55.6762 0.344C57.4042 0.344 58.7056 0.834666 59.5802 1.816C60.4762 2.776 60.9242 4.16267 60.9242 5.976V8.152H57.5962V5.752C57.5962 4.94133 57.4256 4.376 57.0842 4.056C56.7642 3.71467 56.3269 3.544 55.7722 3.544C55.2176 3.544 54.7696 3.71467 54.4282 4.056C54.1082 4.376 53.9482 4.94133 53.9482 5.752V17.848C53.9482 18.6587 54.1082 19.224 54.4282 19.544C54.7696 19.864 55.2176 20.024 55.7722 20.024C56.3269 20.024 56.7642 19.864 57.0842 19.544C57.4256 19.224 57.5962 18.6587 57.5962 17.848V14.648H60.9242ZM66.9 10.04H71.732V13.24H66.9V19.8H72.98V23H63.38V0.599998H72.98V3.8H66.9V10.04ZM79.0012 23H75.4812V0.599998H79.0012V10.2H83.0012V0.599998H86.5852V23H83.0012V13.4H79.0012V23ZM100.849 23H97.2975L96.6895 18.936H92.3695L91.7615 23H88.5295L92.1135 0.599998H97.2655L100.849 23ZM92.8175 15.896H96.2095L94.5135 4.568L92.8175 15.896ZM101.785 0.599998H112.665V3.8H108.985V23H105.465V3.8H101.785V0.599998ZM117.767 17.848C117.767 18.6587 117.927 19.2347 118.247 19.576C118.588 19.896 119.036 20.056 119.591 20.056C120.146 20.056 120.583 19.896 120.903 19.576C121.244 19.2347 121.415 18.6587 121.415 17.848V5.752C121.415 4.94133 121.244 4.376 120.903 4.056C120.583 3.71467 120.146 3.544 119.591 3.544C119.036 3.544 118.588 3.71467 118.247 4.056C117.927 4.376 117.767 4.94133 117.767 5.752V17.848ZM114.247 5.976C114.247 4.16267 114.706 2.776 115.623 1.816C116.54 0.834666 117.863 0.344 119.591 0.344C121.319 0.344 122.642 0.834666 123.559 1.816C124.476 2.776 124.935 4.16267 124.935 5.976V17.624C124.935 19.4373 124.476 20.8347 123.559 21.816C122.642 22.776 121.319 23.256 119.591 23.256C117.863 23.256 116.54 22.776 115.623 21.816C114.706 20.8347 114.247 19.4373 114.247 17.624V5.976ZM132.726 0.599998C134.497 0.599998 135.809 1.06933 136.662 2.008C137.537 2.94667 137.974 4.32267 137.974 6.136V9.048C137.974 10.8613 137.537 12.2373 136.662 13.176C135.809 14.1147 134.497 14.584 132.726 14.584H131.062V23H127.542V0.599998H132.726ZM131.062 3.8V11.384H132.726C133.281 11.384 133.708 11.2347 134.006 10.936C134.305 10.6373 134.454 10.0827 134.454 9.272V5.912C134.454 5.10133 134.305 4.54667 134.006 4.248C133.708 3.94933 133.281 3.8 132.726 3.8H131.062ZM139.925 3.992V0.599998H143.317V3.64L141.781 7.192H140.341L141.269 3.992H139.925ZM144.597 3.992V0.599998H147.989V3.64L146.453 7.192H145.013L145.941 3.992H144.597Z" fill="white"/>
</svg>
