<svg width="517" height="27" viewBox="0 0 517 27" fill="none" xmlns="http://www.w3.org/2000/svg">
<path d="M4.888 14.072L3.8 16.12V23H0.28V0.599998H3.8V10.36L8.408 0.599998H11.928L7.032 10.584L11.928 23H8.312L4.888 14.072ZM17.082 17.848C17.082 18.6587 17.242 19.2347 17.562 19.576C17.9033 19.896 18.3513 20.056 18.906 20.056C19.4607 20.056 19.898 19.896 20.218 19.576C20.5593 19.2347 20.73 18.6587 20.73 17.848V5.752C20.73 4.94133 20.5593 4.376 20.218 4.056C19.898 3.71467 19.4607 3.544 18.906 3.544C18.3513 3.544 17.9033 3.71467 17.562 4.056C17.242 4.376 17.082 4.94133 17.082 5.752V17.848ZM13.562 5.976C13.562 4.16267 14.0207 2.776 14.938 1.816C15.8553 0.834666 17.178 0.344 18.906 0.344C20.634 0.344 21.9567 0.834666 22.874 1.816C23.7913 2.776 24.25 4.16267 24.25 5.976V17.624C24.25 19.4373 23.7913 20.8347 22.874 21.816C21.9567 22.776 20.634 23.256 18.906 23.256C17.178 23.256 15.8553 22.776 14.938 21.816C14.0207 20.8347 13.562 19.4373 13.562 17.624V5.976ZM25.8655 19.832C26.2708 19.832 26.6015 19.8107 26.8575 19.768C27.1348 19.7253 27.3588 19.6293 27.5295 19.48C27.7002 19.3093 27.8175 19.0747 27.8815 18.776C27.9668 18.456 28.0202 18.04 28.0415 17.528L28.6175 0.599998H38.5695V23H34.9855V3.8H31.9135L31.5295 17.336C31.4655 19.384 31.0282 20.8453 30.2175 21.72C29.4282 22.5947 28.1588 23.032 26.4095 23.032H25.8655V19.832ZM40.5917 19.832C40.9971 19.832 41.3277 19.8107 41.5837 19.768C41.8611 19.7253 42.0851 19.6293 42.2557 19.48C42.4264 19.3093 42.5437 19.0747 42.6077 18.776C42.6931 18.456 42.7464 18.04 42.7677 17.528L43.3437 0.599998H53.2957V23H49.7117V3.8H46.6397L46.2557 17.336C46.1917 19.384 45.7544 20.8453 44.9437 21.72C44.1544 22.5947 42.8851 23.032 41.1357 23.032H40.5917V19.832ZM59.83 10.04H64.662V13.24H59.83V19.8H65.91V23H56.31V0.599998H65.91V3.8H59.83V10.04ZM73.0192 14.072L71.9312 16.12V23H68.4112V0.599998H71.9312V10.36L76.5392 0.599998H80.0592L75.1632 10.584L80.0592 23H76.4432L73.0192 14.072ZM81.9812 0.599998H85.5012V19.8H89.5012V0.599998H93.0852V19.864H94.6212V26.008H91.1972V23H81.9812V0.599998ZM100.48 23H96.8637V0.599998H99.9997V14.776L101.28 9.848L104.16 0.599998H108.032V23H104.864V7.224L103.424 12.728L100.48 23ZM110.2 23C110.371 22.5733 110.477 22.1573 110.52 21.752C110.563 21.3253 110.584 20.8347 110.584 20.28V16.824C110.584 15.6507 110.744 14.6587 111.064 13.848C111.405 13.016 112.024 12.4187 112.92 12.056C111.384 11.3307 110.616 9.816 110.616 7.512V5.752C110.616 4.024 111.021 2.73333 111.832 1.88C112.664 1.02667 113.997 0.599998 115.832 0.599998H121.144V23H117.624V13.88H116.408C115.597 13.88 115.011 14.0933 114.648 14.52C114.285 14.9467 114.104 15.6827 114.104 16.728V20.248C114.104 20.696 114.093 21.0693 114.072 21.368C114.072 21.6667 114.051 21.912 114.008 22.104C113.987 22.296 113.955 22.456 113.912 22.584C113.869 22.712 113.827 22.8507 113.784 23H110.2ZM115.928 3.8C115.309 3.8 114.851 3.98133 114.552 4.344C114.275 4.70667 114.136 5.29333 114.136 6.104V8.312C114.136 9.208 114.317 9.82667 114.68 10.168C115.064 10.5093 115.587 10.68 116.248 10.68H117.624V3.8H115.928ZM136.78 16.504L139.18 0.599998H144.076V23H140.748V6.936L138.316 23H134.988L132.364 7.16V23H129.292V0.599998H134.188L136.78 16.504ZM150.476 10.04H155.308V13.24H150.476V19.8H156.556V23H146.956V0.599998H156.556V3.8H150.476V10.04ZM159.089 23V0.599998H168.945V3.8H162.609V9.528H164.657C166.428 9.528 167.751 9.99733 168.625 10.936C169.521 11.8747 169.969 13.2507 169.969 15.064V17.464C169.969 19.2773 169.521 20.6533 168.625 21.592C167.751 22.5307 166.428 23 164.657 23H159.089ZM164.657 19.8C165.212 19.8 165.649 19.6507 165.969 19.352C166.289 19.0533 166.449 18.4987 166.449 17.688V14.84C166.449 14.0293 166.289 13.4747 165.969 13.176C165.649 12.8773 165.212 12.728 164.657 12.728H162.609V19.8H164.657ZM176.179 10.04H181.011V13.24H176.179V19.8H182.259V23H172.659V0.599998H182.259V3.8H176.179V10.04ZM183.768 19.832C184.173 19.832 184.504 19.8107 184.76 19.768C185.037 19.7253 185.261 19.6293 185.432 19.48C185.603 19.3093 185.72 19.0747 185.784 18.776C185.869 18.456 185.923 18.04 185.944 17.528L186.52 0.599998H196.472V23H192.888V3.8H189.816L189.432 17.336C189.368 19.384 188.931 20.8453 188.12 21.72C187.331 22.5947 186.061 23.032 184.312 23.032H183.768V19.832ZM203.102 23H199.486V0.599998H202.622V14.776L203.902 9.848L206.782 0.599998H210.654V23H207.486V7.224L206.046 12.728L203.102 23ZM223.935 0.599998C225.706 0.599998 227.018 1.06933 227.871 2.008C228.746 2.94667 229.183 4.32267 229.183 6.136V9.048C229.183 10.8613 228.746 12.2373 227.871 13.176C227.018 14.1147 225.706 14.584 223.935 14.584H222.271V23H218.751V0.599998H223.935ZM222.271 3.8V11.384H223.935C224.49 11.384 224.917 11.2347 225.215 10.936C225.514 10.6373 225.663 10.0827 225.663 9.272V5.912C225.663 5.10133 225.514 4.54667 225.215 4.248C224.917 3.94933 224.49 3.8 223.935 3.8H222.271ZM234.494 0.599998V17.88C234.494 18.6907 234.654 19.256 234.974 19.576C235.315 19.896 235.763 20.056 236.318 20.056C236.872 20.056 237.31 19.896 237.63 19.576C237.971 19.256 238.142 18.6907 238.142 17.88V0.599998H241.47V17.656C241.47 19.4693 241.022 20.8667 240.126 21.848C239.251 22.808 237.95 23.288 236.222 23.288C234.494 23.288 233.182 22.808 232.286 21.848C231.411 20.8667 230.974 19.4693 230.974 17.656V0.599998H234.494ZM247.34 6.776V23H244.172V0.599998H248.588L252.204 14.008V0.599998H255.34V23H251.724L247.34 6.776ZM257.156 0.599998H268.036V3.8H264.356V23H260.836V3.8H257.156V0.599998ZM273.138 17.848C273.138 18.6587 273.298 19.2347 273.618 19.576C273.96 19.896 274.408 20.056 274.962 20.056C275.517 20.056 275.954 19.896 276.274 19.576C276.616 19.2347 276.786 18.6587 276.786 17.848V5.752C276.786 4.94133 276.616 4.376 276.274 4.056C275.954 3.71467 275.517 3.544 274.962 3.544C274.408 3.544 273.96 3.71467 273.618 4.056C273.298 4.376 273.138 4.94133 273.138 5.752V17.848ZM269.618 5.976C269.618 4.16267 270.077 2.776 270.994 1.816C271.912 0.834666 273.234 0.344 274.962 0.344C276.69 0.344 278.013 0.834666 278.93 1.816C279.848 2.776 280.306 4.16267 280.306 5.976V17.624C280.306 19.4373 279.848 20.8347 278.93 21.816C278.013 22.776 276.69 23.256 274.962 23.256C273.234 23.256 271.912 22.776 270.994 21.816C270.077 20.8347 269.618 19.4373 269.618 17.624V5.976ZM293.482 10.52H298.41V17.624C298.41 19.4373 297.962 20.8347 297.066 21.816C296.192 22.776 294.89 23.256 293.162 23.256C291.434 23.256 290.122 22.776 289.226 21.816C288.352 20.8347 287.914 19.4373 287.914 17.624V5.976C287.914 4.16267 288.352 2.776 289.226 1.816C290.122 0.834666 291.434 0.344 293.162 0.344C294.89 0.344 296.192 0.834666 297.066 1.816C297.962 2.776 298.41 4.16267 298.41 5.976V8.152H295.082V5.752C295.082 4.94133 294.912 4.376 294.57 4.056C294.25 3.71467 293.813 3.544 293.258 3.544C292.704 3.544 292.256 3.71467 291.914 4.056C291.594 4.376 291.434 4.94133 291.434 5.752V17.848C291.434 18.6587 291.594 19.224 291.914 19.544C292.256 19.864 292.704 20.024 293.258 20.024C293.813 20.024 294.25 19.864 294.57 19.544C294.912 19.224 295.082 18.6587 295.082 17.848V13.72H293.482V10.52ZM308.351 23C308.309 22.8507 308.266 22.712 308.223 22.584C308.181 22.456 308.138 22.296 308.095 22.104C308.074 21.912 308.053 21.6667 308.031 21.368C308.031 21.0693 308.031 20.696 308.031 20.248V16.728C308.031 15.6827 307.85 14.9467 307.487 14.52C307.125 14.0933 306.538 13.88 305.727 13.88H304.511V23H300.991V0.599998H306.303C308.138 0.599998 309.461 1.02667 310.271 1.88C311.103 2.73333 311.519 4.024 311.519 5.752V7.512C311.519 9.816 310.751 11.3307 309.215 12.056C310.111 12.4187 310.719 13.016 311.039 13.848C311.381 14.6587 311.551 15.6507 311.551 16.824V20.28C311.551 20.8347 311.573 21.3253 311.615 21.752C311.658 22.1573 311.765 22.5733 311.935 23H308.351ZM304.511 3.8V10.68H305.887C306.549 10.68 307.061 10.5093 307.423 10.168C307.807 9.82667 307.999 9.208 307.999 8.312V6.104C307.999 5.29333 307.85 4.70667 307.551 4.344C307.274 3.98133 306.826 3.8 306.207 3.8H304.511ZM317.418 17.848C317.418 18.6587 317.578 19.2347 317.898 19.576C318.24 19.896 318.688 20.056 319.242 20.056C319.797 20.056 320.234 19.896 320.554 19.576C320.896 19.2347 321.066 18.6587 321.066 17.848V5.752C321.066 4.94133 320.896 4.376 320.554 4.056C320.234 3.71467 319.797 3.544 319.242 3.544C318.688 3.544 318.24 3.71467 317.898 4.056C317.578 4.376 317.418 4.94133 317.418 5.752V17.848ZM313.898 5.976C313.898 4.16267 314.357 2.776 315.274 1.816C316.192 0.834666 317.514 0.344 319.242 0.344C320.97 0.344 322.293 0.834666 323.21 1.816C324.128 2.776 324.586 4.16267 324.586 5.976V17.624C324.586 19.4373 324.128 20.8347 323.21 21.816C322.293 22.776 320.97 23.256 319.242 23.256C317.514 23.256 316.192 22.776 315.274 21.816C314.357 20.8347 313.898 19.4373 313.898 17.624V5.976ZM330.554 0.599998V17.88C330.554 18.6907 330.714 19.256 331.034 19.576C331.375 19.896 331.823 20.056 332.378 20.056C332.932 20.056 333.37 19.896 333.69 19.576C334.031 19.256 334.202 18.6907 334.202 17.88V0.599998H337.53V17.656C337.53 19.4693 337.082 20.8667 336.186 21.848C335.311 22.808 334.01 23.288 332.282 23.288C330.554 23.288 329.242 22.808 328.346 21.848C327.471 20.8667 327.034 19.4693 327.034 17.656V0.599998H330.554ZM345.448 0.599998C347.218 0.599998 348.53 1.06933 349.384 2.008C350.258 2.94667 350.696 4.32267 350.696 6.136V9.048C350.696 10.8613 350.258 12.2373 349.384 13.176C348.53 14.1147 347.218 14.584 345.448 14.584H343.784V23H340.264V0.599998H345.448ZM343.784 3.8V11.384H345.448C346.002 11.384 346.429 11.2347 346.728 10.936C347.026 10.6373 347.176 10.0827 347.176 9.272V5.912C347.176 5.10133 347.026 4.54667 346.728 4.248C346.429 3.94933 346.002 3.8 345.448 3.8H343.784ZM369.835 0.599998L366.155 11.48L370.091 23H366.379L363.499 14.136L360.587 23H357.291L361.227 11.48L357.547 0.599998H361.195L363.851 8.856L366.571 0.599998H369.835ZM382.058 14.072L380.97 16.12V23H377.45V0.599998H380.97V10.36L385.578 0.599998H389.098L384.202 10.584L389.098 23H385.482L382.058 14.072ZM402.412 23H398.86L398.252 18.936H393.932L393.324 23H390.092L393.676 0.599998H398.828L402.412 23ZM394.38 15.896H397.772L396.076 4.568L394.38 15.896ZM411.731 23C411.689 22.8507 411.646 22.712 411.603 22.584C411.561 22.456 411.518 22.296 411.475 22.104C411.454 21.912 411.433 21.6667 411.411 21.368C411.411 21.0693 411.411 20.696 411.411 20.248V16.728C411.411 15.6827 411.23 14.9467 410.867 14.52C410.505 14.0933 409.918 13.88 409.107 13.88H407.891V23H404.371V0.599998H409.683C411.518 0.599998 412.841 1.02667 413.651 1.88C414.483 2.73333 414.899 4.024 414.899 5.752V7.512C414.899 9.816 414.131 11.3307 412.595 12.056C413.491 12.4187 414.099 13.016 414.419 13.848C414.761 14.6587 414.931 15.6507 414.931 16.824V20.28C414.931 20.8347 414.953 21.3253 414.995 21.752C415.038 22.1573 415.145 22.5733 415.315 23H411.731ZM407.891 3.8V10.68H409.267C409.929 10.68 410.441 10.5093 410.803 10.168C411.187 9.82667 411.379 9.208 411.379 8.312V6.104C411.379 5.29333 411.23 4.70667 410.931 4.344C410.654 3.98133 410.206 3.8 409.587 3.8H407.891ZM417.566 0.599998H421.086V23H417.566V0.599998ZM431.436 16.504L433.836 0.599998H438.732V23H435.404V6.936L432.972 23H429.644L427.02 7.16V23H423.948V0.599998H428.844L431.436 16.504ZM454.261 23C454.219 22.8507 454.176 22.712 454.133 22.584C454.091 22.456 454.048 22.296 454.005 22.104C453.984 21.912 453.963 21.6667 453.941 21.368C453.941 21.0693 453.941 20.696 453.941 20.248V16.728C453.941 15.6827 453.76 14.9467 453.397 14.52C453.035 14.0933 452.448 13.88 451.637 13.88H450.421V23H446.901V0.599998H452.213C454.048 0.599998 455.371 1.02667 456.181 1.88C457.013 2.73333 457.429 4.024 457.429 5.752V7.512C457.429 9.816 456.661 11.3307 455.125 12.056C456.021 12.4187 456.629 13.016 456.949 13.848C457.291 14.6587 457.461 15.6507 457.461 16.824V20.28C457.461 20.8347 457.483 21.3253 457.525 21.752C457.568 22.1573 457.675 22.5733 457.845 23H454.261ZM450.421 3.8V10.68H451.797C452.459 10.68 452.971 10.5093 453.333 10.168C453.717 9.82667 453.909 9.208 453.909 8.312V6.104C453.909 5.29333 453.76 4.70667 453.461 4.344C453.184 3.98133 452.736 3.8 452.117 3.8H450.421ZM471.488 23H467.936L467.328 18.936H463.008L462.4 23H459.168L462.752 0.599998H467.904L471.488 23ZM463.456 15.896H466.848L465.152 4.568L463.456 15.896ZM473 5.976C473 4.16267 473.426 2.776 474.28 1.816C475.154 0.834666 476.456 0.344 478.184 0.344C479.912 0.344 481.202 0.834666 482.056 1.816C482.93 2.776 483.368 4.16267 483.368 5.976V6.68H480.04V5.752C480.04 4.94133 479.88 4.376 479.56 4.056C479.261 3.71467 478.834 3.544 478.28 3.544C477.725 3.544 477.288 3.71467 476.968 4.056C476.669 4.376 476.52 4.94133 476.52 5.752C476.52 6.52 476.69 7.20267 477.032 7.8C477.373 8.376 477.8 8.93067 478.312 9.464C478.824 9.976 479.368 10.4987 479.944 11.032C480.541 11.544 481.096 12.1093 481.608 12.728C482.12 13.3467 482.546 14.0507 482.888 14.84C483.229 15.6293 483.4 16.5573 483.4 17.624C483.4 19.4373 482.952 20.8347 482.056 21.816C481.181 22.776 479.88 23.256 478.152 23.256C476.424 23.256 475.112 22.776 474.216 21.816C473.341 20.8347 472.904 19.4373 472.904 17.624V16.248H476.232V17.848C476.232 18.6587 476.392 19.224 476.712 19.544C477.053 19.864 477.501 20.024 478.056 20.024C478.61 20.024 479.048 19.864 479.368 19.544C479.709 19.224 479.88 18.6587 479.88 17.848C479.88 17.08 479.709 16.408 479.368 15.832C479.026 15.2347 478.6 14.68 478.088 14.168C477.576 13.6347 477.021 13.112 476.424 12.6C475.848 12.0667 475.304 11.4907 474.792 10.872C474.28 10.2533 473.853 9.54933 473.512 8.76C473.17 7.97067 473 7.04267 473 5.976ZM489.256 23H485.736V0.599998H489.256V10.2H493.256V0.599998H496.84V23H493.256V13.4H489.256V23ZM499.712 0.599998H503.232V23H499.712V0.599998ZM506.126 0.599998H511.694C513.465 0.599998 514.777 1.06933 515.63 2.008C516.505 2.94667 516.942 4.32267 516.942 6.136V17.464C516.942 19.2773 516.505 20.6533 515.63 21.592C514.777 22.5307 513.465 23 511.694 23H506.126V0.599998ZM509.646 3.8V19.8H511.63C512.185 19.8 512.622 19.64 512.942 19.32C513.262 19 513.422 18.4347 513.422 17.624V5.976C513.422 5.16533 513.262 4.6 512.942 4.28C512.622 3.96 512.185 3.8 511.63 3.8H509.646Z" fill="white"/>
</svg>
