<svg width="190" height="37" viewBox="0 0 190 37" fill="none" xmlns="http://www.w3.org/2000/svg">
<g clip-path="url(#clip0_1_180)">
<path fill-rule="evenodd" clip-rule="evenodd" d="M0 7.63813V0H38.3709V30.5525H11.5135V22.9144H30.6786V19.1043H11.5135V11.4662H30.6786V7.63813H0ZM7.66966 11.4617H0V30.5525H7.66966V11.4617Z" fill="#E74214"/>
<path fill-rule="evenodd" clip-rule="evenodd" d="M51.7617 30.3458V0H57.708V6.65416H78.5243V30.3458H51.7617ZM72.5781 24.424V12.5805H57.6899V24.424H72.5781Z" fill="#EFEFEF"/>
<path fill-rule="evenodd" clip-rule="evenodd" d="M81.4961 5.17146V0H87.4423V5.17146H81.4961ZM81.4961 30.3324V6.65416H87.4423V30.3458L81.4961 30.3324Z" fill="#EFEFEF"/>
<path fill-rule="evenodd" clip-rule="evenodd" d="M90.416 30.346V6.6543H117.183V30.346H111.232V12.5761H106.775V30.346H100.824V12.5761H96.3668V30.346H90.416Z" fill="#EFEFEF"/>
<path fill-rule="evenodd" clip-rule="evenodd" d="M120.156 37.0001V6.6543H146.919V30.346H126.102V37.0001H120.156ZM140.968 24.4197V12.5806H126.102V24.4242L140.968 24.4197Z" fill="#EFEFEF"/>
<path fill-rule="evenodd" clip-rule="evenodd" d="M155.839 12.5761V30.346H149.893V6.6543H160.292V12.5761H155.839Z" fill="#EFEFEF"/>
<path fill-rule="evenodd" clip-rule="evenodd" d="M163.238 30.346V6.6543H190.001V30.346H163.238ZM184.073 24.4242V12.5806H169.185V24.4242H184.073Z" fill="#EFEFEF"/>
</g>
<defs>
<clipPath id="clip0_1_180">
<rect width="190" height="37" fill="white"/>
</clipPath>
</defs>
</svg>
