<svg width="189" height="29" viewBox="0 0 189 29" fill="none" xmlns="http://www.w3.org/2000/svg">
<path d="M11.424 14.656L15.584 5.6H19.104L14.784 14.688L19.104 28H15.488L12.288 18.08L11.424 19.776V28H7.936V19.776L7.072 18.048L3.872 28H0.256L4.608 14.784L0.256 5.6H3.776L7.936 14.656V5.6H11.424V14.656ZM25.5205 19.072L24.4325 21.12V28H20.9125V5.6H24.4325V15.36L29.0405 5.6H32.5605L27.6645 15.584L32.5605 28H28.9445L25.5205 19.072ZM39.7712 8.992V5.6H43.1632V8.64L41.6272 12.192H40.1872L41.1152 8.992H39.7712ZM44.4432 8.992V5.6H47.8352V8.64L46.2992 12.192H44.8592L45.7872 8.992H44.4432ZM58.1722 21.504L60.5722 5.6H65.4683V28H62.1402V11.936L59.7082 28H56.3802L53.7562 12.16V28H50.6842V5.6H55.5802L58.1722 21.504ZM68.3487 28V5.6H71.8687V14.016H73.5327C75.3034 14.016 76.6154 14.4853 77.4687 15.424C78.3434 16.3627 78.7807 17.7387 78.7807 19.552V22.464C78.7807 24.2773 78.3434 25.6533 77.4687 26.592C76.6154 27.5307 75.3034 28 73.5327 28H68.3487ZM73.5327 24.8C74.0874 24.8 74.5141 24.6507 74.8127 24.352C75.1114 24.0533 75.2607 23.4987 75.2607 22.688V19.328C75.2607 18.5173 75.1114 17.9627 74.8127 17.664C74.5141 17.3653 74.0874 17.216 73.5327 17.216H71.8687V24.8H73.5327ZM80.7967 28V5.6H84.3167V28H80.7967ZM97.408 19.648V22.624C97.408 24.4373 96.96 25.8347 96.064 26.816C95.1893 27.776 93.888 28.256 92.16 28.256C90.432 28.256 89.12 27.776 88.224 26.816C87.3493 25.8347 86.912 24.4373 86.912 22.624V10.976C86.912 9.16267 87.3493 7.776 88.224 6.816C89.12 5.83467 90.432 5.344 92.16 5.344C93.888 5.344 95.1893 5.83467 96.064 6.816C96.96 7.776 97.408 9.16267 97.408 10.976V13.152H94.08V10.752C94.08 9.94133 93.9093 9.376 93.568 9.056C93.248 8.71467 92.8107 8.544 92.256 8.544C91.7013 8.544 91.2533 8.71467 90.912 9.056C90.592 9.376 90.432 9.94133 90.432 10.752V22.848C90.432 23.6587 90.592 24.224 90.912 24.544C91.2533 24.864 91.7013 25.024 92.256 25.024C92.8107 25.024 93.248 24.864 93.568 24.544C93.9093 24.224 94.08 23.6587 94.08 22.848V19.648H97.408ZM103.096 22.848C103.096 23.6587 103.256 24.2347 103.576 24.576C103.917 24.896 104.365 25.056 104.92 25.056C105.474 25.056 105.912 24.896 106.232 24.576C106.573 24.2347 106.744 23.6587 106.744 22.848V10.752C106.744 9.94133 106.573 9.376 106.232 9.056C105.912 8.71467 105.474 8.544 104.92 8.544C104.365 8.544 103.917 8.71467 103.576 9.056C103.256 9.376 103.096 9.94133 103.096 10.752V22.848ZM99.5757 10.976C99.5757 9.16267 100.034 7.776 100.952 6.816C101.869 5.83467 103.192 5.344 104.92 5.344C106.648 5.344 107.97 5.83467 108.888 6.816C109.805 7.776 110.264 9.16267 110.264 10.976V22.624C110.264 24.4373 109.805 25.8347 108.888 26.816C107.97 27.776 106.648 28.256 104.92 28.256C103.192 28.256 101.869 27.776 100.952 26.816C100.034 25.8347 99.5757 24.4373 99.5757 22.624V10.976ZM118.183 5.6C120.018 5.6 121.341 6.02667 122.151 6.88C122.983 7.73333 123.399 9.024 123.399 10.752V11.552C123.399 12.704 123.218 13.6533 122.855 14.4C122.493 15.1467 121.917 15.7013 121.127 16.064C122.087 16.4267 122.759 17.024 123.143 17.856C123.549 18.6667 123.751 19.6693 123.751 20.864V22.688C123.751 24.416 123.303 25.7387 122.407 26.656C121.511 27.552 120.178 28 118.407 28H112.871V5.6H118.183ZM116.391 17.92V24.8H118.407C119.005 24.8 119.453 24.64 119.751 24.32C120.071 24 120.231 23.424 120.231 22.592V20.64C120.231 19.5947 120.05 18.88 119.687 18.496C119.346 18.112 118.77 17.92 117.959 17.92H116.391ZM116.391 8.8V14.72H117.767C118.429 14.72 118.941 14.5493 119.303 14.208C119.687 13.8667 119.879 13.248 119.879 12.352V11.104C119.879 10.2933 119.73 9.70667 119.431 9.344C119.154 8.98133 118.706 8.8 118.087 8.8H116.391ZM136.399 19.648V22.624C136.399 24.4373 135.951 25.8347 135.055 26.816C134.181 27.776 132.879 28.256 131.151 28.256C129.423 28.256 128.111 27.776 127.215 26.816C126.341 25.8347 125.903 24.4373 125.903 22.624V10.976C125.903 9.16267 126.341 7.776 127.215 6.816C128.111 5.83467 129.423 5.344 131.151 5.344C132.879 5.344 134.181 5.83467 135.055 6.816C135.951 7.776 136.399 9.16267 136.399 10.976V13.152H133.071V10.752C133.071 9.94133 132.901 9.376 132.559 9.056C132.239 8.71467 131.802 8.544 131.247 8.544C130.693 8.544 130.245 8.71467 129.903 9.056C129.583 9.376 129.423 9.94133 129.423 10.752V22.848C129.423 23.6587 129.583 24.224 129.903 24.544C130.245 24.864 130.693 25.024 131.247 25.024C131.802 25.024 132.239 24.864 132.559 24.544C132.901 24.224 133.071 23.6587 133.071 22.848V19.648H136.399ZM143.463 19.072L142.375 21.12V28H138.855V5.6H142.375V15.36L146.983 5.6H150.503L145.607 15.584L150.503 28H146.887L143.463 19.072ZM156.041 28H152.425V5.6H155.561V19.776L156.841 14.848L159.721 5.6H163.593V28H160.425V12.224L158.985 17.728L156.041 28ZM170.017 28H166.401V5.6H169.537V19.776L170.817 14.848L173.697 5.6H177.569V28H174.401V12.224L172.961 17.728L170.017 28ZM175.777 0.607998C175.777 1.696 175.468 2.56 174.849 3.2C174.231 3.84 173.292 4.16 172.033 4.16C170.796 4.16 169.879 3.84 169.281 3.2C168.705 2.56 168.396 1.696 168.353 0.607998H170.529C170.572 1.20533 170.711 1.6 170.945 1.792C171.201 1.984 171.564 2.08 172.033 2.08C172.524 2.08 172.897 1.984 173.153 1.792C173.431 1.6 173.591 1.20533 173.633 0.607998H175.777ZM180.44 8.992V5.6H183.832V8.64L182.296 12.192H180.856L181.784 8.992H180.44ZM185.112 8.992V5.6H188.504V8.64L186.968 12.192H185.528L186.456 8.992H185.112Z" fill="white"/>
</svg>
