<svg width="90" height="24" viewBox="0 0 90 24" fill="none" xmlns="http://www.w3.org/2000/svg">
<path d="M2 10.5C1.17157 10.5 0.5 11.1716 0.5 12C0.5 12.8284 1.17157 13.5 2 13.5L2 10.5ZM89.0607 13.0607C89.6464 12.4749 89.6464 11.5251 89.0607 10.9393L79.5147 1.39341C78.9289 0.807618 77.9792 0.807618 77.3934 1.3934C76.8076 1.97919 76.8076 2.92894 77.3934 3.51473L85.8787 12L77.3934 20.4853C76.8076 21.0711 76.8076 22.0208 77.3934 22.6066C77.9792 23.1924 78.9289 23.1924 79.5147 22.6066L89.0607 13.0607ZM2 13.5C2.0656 13.5 2.13114 13.5 2.19662 13.5C2.2621 13.5 2.32753 13.5 2.3929 13.5C2.45827 13.5 2.52359 13.5 2.58885 13.5C2.65411 13.5 2.71931 13.5 2.78446 13.5C2.84961 13.5 2.91471 13.5 2.97974 13.5C3.04478 13.5 3.10977 13.5 3.17469 13.5C3.23962 13.5 3.3045 13.5 3.36931 13.5C3.43413 13.5 3.4989 13.5 3.56361 13.5C3.62832 13.5 3.69297 13.5 3.75757 13.5C3.82217 13.5 3.88672 13.5 3.95121 13.5C4.0157 13.5 4.08014 13.5 4.14452 13.5C4.20891 13.5 4.27324 13.5 4.33752 13.5C4.40179 13.5 4.46602 13.5 4.53018 13.5C4.59435 13.5 4.65847 13.5 4.72253 13.5C4.7866 13.5 4.85061 13.5 4.91456 13.5C4.97852 13.5 5.04242 13.5 5.10627 13.5C5.17013 13.5 5.23392 13.5 5.29767 13.5C5.36142 13.5 5.42511 13.5 5.48875 13.5C5.55239 13.5 5.61598 13.5 5.67951 13.5C5.74305 13.5 5.80654 13.5 5.86997 13.5C5.9334 13.5 5.99678 13.5 6.06011 13.5C6.12344 13.5 6.18671 13.5 6.24994 13.5C6.31317 13.5 6.37634 13.5 6.43946 13.5C6.50259 13.5 6.56566 13.5 6.62868 13.5C6.6917 13.5 6.75467 13.5 6.81759 13.5C6.88051 13.5 6.94338 13.5 7.00619 13.5C7.06901 13.5 7.13178 13.5 7.19449 13.5C7.25721 13.5 7.31988 13.5 7.38249 13.5C7.44511 13.5 7.50768 13.5 7.57019 13.5C7.63271 13.5 7.69517 13.5 7.75759 13.5C7.82001 13.5 7.88237 13.5 7.94469 13.5C8.00701 13.5 8.06928 13.5 8.1315 13.5C8.19371 13.5 8.25588 13.5 8.318 13.5C8.38012 13.5 8.4422 13.5 8.50422 13.5C8.56624 13.5 8.62821 13.5 8.69014 13.5C8.75207 13.5 8.81394 13.5 8.87577 13.5C8.9376 13.5 8.99938 13.5 9.06111 13.5C9.12284 13.5 9.18452 13.5 9.24616 13.5C9.3078 13.5 9.36938 13.5 9.43092 13.5C9.49246 13.5 9.55396 13.5 9.6154 13.5C9.67684 13.5 9.73824 13.5 9.79959 13.5C9.86094 13.5 9.92224 13.5 9.9835 13.5C10.0448 13.5 10.106 13.5 10.1671 13.5C10.2283 13.5 10.2894 13.5 10.3505 13.5C10.4115 13.5 10.4726 13.5 10.5335 13.5C10.5945 13.5 10.6554 13.5 10.7163 13.5C10.7772 13.5 10.838 13.5 10.8988 13.5C10.9596 13.5 11.0204 13.5 11.0811 13.5C11.1418 13.5 11.2024 13.5 11.263 13.5C11.3236 13.5 11.3842 13.5 11.4447 13.5C11.5052 13.5 11.5657 13.5 11.6261 13.5C11.6866 13.5 11.7469 13.5 11.8073 13.5C11.8676 13.5 11.9279 13.5 11.9881 13.5C12.0484 13.5 12.1086 13.5 12.1688 13.5C12.2289 13.5 12.289 13.5 12.3491 13.5C12.4092 13.5 12.4692 13.5 12.5292 13.5C12.5892 13.5 12.6491 13.5 12.709 13.5C12.7689 13.5 12.8287 13.5 12.8885 13.5C12.9483 13.5 13.0081 13.5 13.0678 13.5C13.1275 13.5 13.1872 13.5 13.2469 13.5C13.3065 13.5 13.3661 13.5 13.4256 13.5C13.4852 13.5 13.5447 13.5 13.6041 13.5C13.6636 13.5 13.723 13.5 13.7824 13.5C13.8418 13.5 13.9011 13.5 13.9604 13.5C14.0197 13.5 14.0789 13.5 14.1381 13.5C14.1973 13.5 14.2565 13.5 14.3156 13.5C14.3748 13.5 14.4338 13.5 14.4929 13.5C14.5519 13.5 14.6109 13.5 14.6699 13.5C14.7288 13.5 14.7878 13.5 14.8466 13.5C14.9055 13.5 14.9643 13.5 15.0231 13.5C15.0819 13.5 15.1407 13.5 15.1994 13.5C15.2581 13.5 15.3168 13.5 15.3754 13.5C15.434 13.5 15.4926 13.5 15.5512 13.5C15.6097 13.5 15.6682 13.5 15.7267 13.5C15.7852 13.5 15.8436 13.5 15.902 13.5C15.9604 13.5 16.0187 13.5 16.077 13.5C16.1353 13.5 16.1936 13.5 16.2519 13.5C16.3101 13.5 16.3683 13.5 16.4264 13.5C16.4846 13.5 16.5427 13.5 16.6008 13.5C16.6588 13.5 16.7169 13.5 16.7749 13.5C16.8329 13.5 16.8908 13.5 16.9488 13.5C17.0067 13.5 17.0646 13.5 17.1224 13.5C17.1802 13.5 17.238 13.5 17.2958 13.5C17.3536 13.5 17.4113 13.5 17.469 13.5C17.5267 13.5 17.5843 13.5 17.642 13.5C17.6996 13.5 17.7572 13.5 17.8147 13.5C17.8722 13.5 17.9297 13.5 17.9872 13.5C18.0447 13.5 18.1021 13.5 18.1595 13.5C18.2169 13.5 18.2742 13.5 18.3316 13.5C18.3889 13.5 18.4462 13.5 18.5034 13.5C18.5606 13.5 18.6179 13.5 18.675 13.5C18.7322 13.5 18.7893 13.5 18.8464 13.5C18.9035 13.5 18.9606 13.5 19.0176 13.5C19.0747 13.5 19.1316 13.5 19.1886 13.5C19.2456 13.5 19.3025 13.5 19.3594 13.5C19.4163 13.5 19.4731 13.5 19.5299 13.5C19.5867 13.5 19.6435 13.5 19.7003 13.5C19.757 13.5 19.8137 13.5 19.8704 13.5C19.9271 13.5 19.9837 13.5 20.0403 13.5C20.0969 13.5 20.1535 13.5 20.21 13.5C20.2666 13.5 20.3231 13.5 20.3795 13.5C20.436 13.5 20.4924 13.5 20.5488 13.5C20.6052 13.5 20.6616 13.5 20.7179 13.5C20.7743 13.5 20.8306 13.5 20.8868 13.5C20.9431 13.5 20.9993 13.5 21.0555 13.5C21.1117 13.5 21.1679 13.5 21.224 13.5C21.2802 13.5 21.3363 13.5 21.3923 13.5C21.4484 13.5 21.5044 13.5 21.5604 13.5C21.6165 13.5 21.6724 13.5 21.7284 13.5C21.7843 13.5 21.8402 13.5 21.8961 13.5C21.9519 13.5 22.0078 13.5 22.0636 13.5C22.1194 13.5 22.1752 13.5 22.2309 13.5C22.2867 13.5 22.3424 13.5 22.3981 13.5C22.4538 13.5 22.5094 13.5 22.565 13.5C22.6206 13.5 22.6762 13.5 22.7318 13.5C22.7873 13.5 22.8429 13.5 22.8984 13.5C22.9539 13.5 23.0093 13.5 23.0648 13.5C23.1202 13.5 23.1756 13.5 23.231 13.5C23.2864 13.5 23.3417 13.5 23.397 13.5C23.4523 13.5 23.5076 13.5 23.5629 13.5C23.6181 13.5 23.6733 13.5 23.7285 13.5C23.7837 13.5 23.8389 13.5 23.894 13.5C23.9492 13.5 24.0043 13.5 24.0593 13.5C24.1144 13.5 24.1695 13.5 24.2245 13.5C24.2795 13.5 24.3345 13.5 24.3894 13.5C24.4444 13.5 24.4993 13.5 24.5542 13.5C24.6091 13.5 24.664 13.5 24.7189 13.5C24.7737 13.5 24.8285 13.5 24.8833 13.5C24.9381 13.5 24.9929 13.5 25.0476 13.5C25.1023 13.5 25.157 13.5 25.2117 13.5C25.2664 13.5 25.321 13.5 25.3757 13.5C25.4303 13.5 25.4849 13.5 25.5394 13.5C25.594 13.5 25.6485 13.5 25.7031 13.5C25.7576 13.5 25.8121 13.5 25.8665 13.5C25.921 13.5 25.9754 13.5 26.0298 13.5C26.0842 13.5 26.1386 13.5 26.1929 13.5C26.2473 13.5 26.3016 13.5 26.3559 13.5C26.4102 13.5 26.4645 13.5 26.5187 13.5C26.573 13.5 26.6272 13.5 26.6814 13.5C26.7356 13.5 26.7898 13.5 26.8439 13.5C26.8981 13.5 26.9522 13.5 27.0063 13.5C27.0604 13.5 27.1144 13.5 27.1685 13.5C27.2225 13.5 27.2766 13.5 27.3305 13.5C27.3845 13.5 27.4385 13.5 27.4925 13.5C27.5464 13.5 27.6003 13.5 27.6542 13.5C27.7081 13.5 27.762 13.5 27.8158 13.5C27.8697 13.5 27.9235 13.5 27.9773 13.5C28.0311 13.5 28.0849 13.5 28.1386 13.5C28.1924 13.5 28.2461 13.5 28.2998 13.5C28.3535 13.5 28.4072 13.5 28.4608 13.5C28.5145 13.5 28.5681 13.5 28.6217 13.5C28.6754 13.5 28.7289 13.5 28.7825 13.5C28.8361 13.5 28.8896 13.5 28.9431 13.5C28.9967 13.5 29.0501 13.5 29.1036 13.5C29.1571 13.5 29.2105 13.5 29.264 13.5C29.3174 13.5 29.3708 13.5 29.4242 13.5C29.4776 13.5 29.5309 13.5 29.5843 13.5C29.6376 13.5 29.691 13.5 29.7442 13.5C29.7975 13.5 29.8508 13.5 29.9041 13.5C29.9573 13.5 30.0106 13.5 30.0638 13.5C30.117 13.5 30.1702 13.5 30.2234 13.5C30.2765 13.5 30.3297 13.5 30.3828 13.5C30.4359 13.5 30.489 13.5 30.5421 13.5C30.5952 13.5 30.6483 13.5 30.7013 13.5C30.7544 13.5 30.8074 13.5 30.8604 13.5C30.9134 13.5 30.9664 13.5 31.0194 13.5C31.0723 13.5 31.1253 13.5 31.1782 13.5C31.2311 13.5 31.2841 13.5 31.3369 13.5C31.3898 13.5 31.4427 13.5 31.4956 13.5C31.5484 13.5 31.6012 13.5 31.654 13.5C31.7069 13.5 31.7597 13.5 31.8124 13.5C31.8652 13.5 31.918 13.5 31.9707 13.5C32.0234 13.5 32.0762 13.5 32.1289 13.5C32.1816 13.5 32.2342 13.5 32.2869 13.5C32.3396 13.5 32.3922 13.5 32.4448 13.5C32.4975 13.5 32.5501 13.5 32.6027 13.5C32.6553 13.5 32.7079 13.5 32.7604 13.5C32.813 13.5 32.8655 13.5 32.918 13.5C32.9706 13.5 33.0231 13.5 33.0756 13.5C33.128 13.5 33.1805 13.5 33.233 13.5C33.2854 13.5 33.3379 13.5 33.3903 13.5C33.4427 13.5 33.4951 13.5 33.5475 13.5C33.5999 13.5 33.6523 13.5 33.7046 13.5C33.757 13.5 33.8093 13.5 33.8617 13.5C33.914 13.5 33.9663 13.5 34.0186 13.5C34.0709 13.5 34.1232 13.5 34.1754 13.5C34.2277 13.5 34.2799 13.5 34.3322 13.5C34.3844 13.5 34.4366 13.5 34.4888 13.5C34.541 13.5 34.5932 13.5 34.6454 13.5C34.6976 13.5 34.7497 13.5 34.8019 13.5C34.854 13.5 34.9061 13.5 34.9583 13.5C35.0104 13.5 35.0625 13.5 35.1146 13.5C35.1667 13.5 35.2187 13.5 35.2708 13.5C35.3228 13.5 35.3749 13.5 35.4269 13.5C35.479 13.5 35.531 13.5 35.583 13.5C35.635 13.5 35.687 13.5 35.7389 13.5C35.7909 13.5 35.8429 13.5 35.8948 13.5C35.9468 13.5 35.9987 13.5 36.0507 13.5C36.1026 13.5 36.1545 13.5 36.2064 13.5C36.2583 13.5 36.3102 13.5 36.3621 13.5C36.4139 13.5 36.4658 13.5 36.5177 13.5C36.5695 13.5 36.6213 13.5 36.6732 13.5C36.725 13.5 36.7768 13.5 36.8286 13.5C36.8804 13.5 36.9322 13.5 36.984 13.5C37.0358 13.5 37.0876 13.5 37.1393 13.5C37.1911 13.5 37.2428 13.5 37.2946 13.5C37.3463 13.5 37.398 13.5 37.4497 13.5C37.5014 13.5 37.5531 13.5 37.6048 13.5C37.6565 13.5 37.7082 13.5 37.7599 13.5C37.8116 13.5 37.8632 13.5 37.9149 13.5C37.9665 13.5 38.0182 13.5 38.0698 13.5C38.1214 13.5 38.173 13.5 38.2247 13.5C38.2763 13.5 38.3279 13.5 38.3795 13.5C38.4311 13.5 38.4826 13.5 38.5342 13.5C38.5858 13.5 38.6374 13.5 38.6889 13.5C38.7405 13.5 38.792 13.5 38.8436 13.5C38.8951 13.5 38.9466 13.5 38.9981 13.5C39.0497 13.5 39.1012 13.5 39.1527 13.5C39.2042 13.5 39.2557 13.5 39.3072 13.5C39.3587 13.5 39.4101 13.5 39.4616 13.5C39.5131 13.5 39.5645 13.5 39.616 13.5C39.6675 13.5 39.7189 13.5 39.7703 13.5C39.8218 13.5 39.8732 13.5 39.9246 13.5C39.9761 13.5 40.0275 13.5 40.0789 13.5C40.1303 13.5 40.1817 13.5 40.2331 13.5C40.2845 13.5 40.3359 13.5 40.3873 13.5C40.4387 13.5 40.49 13.5 40.5414 13.5C40.5928 13.5 40.6442 13.5 40.6955 13.5C40.7469 13.5 40.7982 13.5 40.8496 13.5C40.9009 13.5 40.9523 13.5 41.0036 13.5C41.0549 13.5 41.1063 13.5 41.1576 13.5C41.2089 13.5 41.2602 13.5 41.3115 13.5C41.3629 13.5 41.4142 13.5 41.4655 13.5C41.5168 13.5 41.5681 13.5 41.6194 13.5C41.6706 13.5 41.7219 13.5 41.7732 13.5C41.8245 13.5 41.8758 13.5 41.9271 13.5C41.9783 13.5 42.0296 13.5 42.0809 13.5C42.1321 13.5 42.1834 13.5 42.2346 13.5C42.2859 13.5 42.3372 13.5 42.3884 13.5C42.4397 13.5 42.4909 13.5 42.5422 13.5C42.5934 13.5 42.6446 13.5 42.6959 13.5C42.7471 13.5 42.7983 13.5 42.8496 13.5C42.9008 13.5 42.952 13.5 43.0032 13.5C43.0545 13.5 43.1057 13.5 43.1569 13.5C43.2081 13.5 43.2593 13.5 43.3106 13.5C43.3618 13.5 43.413 13.5 43.4642 13.5C43.5154 13.5 43.5666 13.5 43.6178 13.5C43.669 13.5 43.7202 13.5 43.7714 13.5C43.8226 13.5 43.8738 13.5 43.925 13.5C43.9762 13.5 44.0274 13.5 44.0786 13.5C44.1298 13.5 44.181 13.5 44.2322 13.5C44.2834 13.5 44.3346 13.5 44.3857 13.5C44.4369 13.5 44.4881 13.5 44.5393 13.5C44.5905 13.5 44.6417 13.5 44.6929 13.5C44.7441 13.5 44.7953 13.5 44.8464 13.5C44.8976 13.5 44.9488 13.5 45 13.5C45.0512 13.5 45.1024 13.5 45.1536 13.5C45.2047 13.5 45.2559 13.5 45.3071 13.5C45.3583 13.5 45.4095 13.5 45.4607 13.5C45.5119 13.5 45.5631 13.5 45.6143 13.5C45.6654 13.5 45.7166 13.5 45.7678 13.5C45.819 13.5 45.8702 13.5 45.9214 13.5C45.9726 13.5 46.0238 13.5 46.075 13.5C46.1262 13.5 46.1774 13.5 46.2286 13.5C46.2798 13.5 46.331 13.5 46.3822 13.5C46.4334 13.5 46.4846 13.5 46.5358 13.5C46.587 13.5 46.6382 13.5 46.6894 13.5C46.7407 13.5 46.7919 13.5 46.8431 13.5C46.8943 13.5 46.9455 13.5 46.9968 13.5C47.048 13.5 47.0992 13.5 47.1504 13.5C47.2017 13.5 47.2529 13.5 47.3041 13.5C47.3554 13.5 47.4066 13.5 47.4578 13.5C47.5091 13.5 47.5603 13.5 47.6116 13.5C47.6628 13.5 47.7141 13.5 47.7654 13.5C47.8166 13.5 47.8679 13.5 47.9191 13.5C47.9704 13.5 48.0217 13.5 48.0729 13.5C48.1242 13.5 48.1755 13.5 48.2268 13.5C48.2781 13.5 48.3294 13.5 48.3806 13.5C48.4319 13.5 48.4832 13.5 48.5345 13.5C48.5858 13.5 48.6371 13.5 48.6885 13.5C48.7398 13.5 48.7911 13.5 48.8424 13.5C48.8937 13.5 48.9451 13.5 48.9964 13.5C49.0477 13.5 49.0991 13.5 49.1504 13.5C49.2018 13.5 49.2531 13.5 49.3045 13.5C49.3558 13.5 49.4072 13.5 49.4586 13.5C49.51 13.5 49.5613 13.5 49.6127 13.5C49.6641 13.5 49.7155 13.5 49.7669 13.5C49.8183 13.5 49.8697 13.5 49.9211 13.5C49.9725 13.5 50.0239 13.5 50.0754 13.5C50.1268 13.5 50.1782 13.5 50.2297 13.5C50.2811 13.5 50.3325 13.5 50.384 13.5C50.4355 13.5 50.4869 13.5 50.5384 13.5C50.5899 13.5 50.6413 13.5 50.6928 13.5C50.7443 13.5 50.7958 13.5 50.8473 13.5C50.8988 13.5 50.9503 13.5 51.0019 13.5C51.0534 13.5 51.1049 13.5 51.1564 13.5C51.208 13.5 51.2595 13.5 51.3111 13.5C51.3626 13.5 51.4142 13.5 51.4658 13.5C51.5174 13.5 51.5689 13.5 51.6205 13.5C51.6721 13.5 51.7237 13.5 51.7753 13.5C51.8269 13.5 51.8786 13.5 51.9302 13.5C51.9818 13.5 52.0335 13.5 52.0851 13.5C52.1368 13.5 52.1884 13.5 52.2401 13.5C52.2918 13.5 52.3435 13.5 52.3952 13.5C52.4469 13.5 52.4986 13.5 52.5503 13.5C52.602 13.5 52.6537 13.5 52.7054 13.5C52.7572 13.5 52.8089 13.5 52.8607 13.5C52.9124 13.5 52.9642 13.5 53.016 13.5C53.0678 13.5 53.1196 13.5 53.1714 13.5C53.2232 13.5 53.275 13.5 53.3268 13.5C53.3787 13.5 53.4305 13.5 53.4823 13.5C53.5342 13.5 53.5861 13.5 53.6379 13.5C53.6898 13.5 53.7417 13.5 53.7936 13.5C53.8455 13.5 53.8974 13.5 53.9493 13.5C54.0013 13.5 54.0532 13.5 54.1052 13.5C54.1571 13.5 54.2091 13.5 54.2611 13.5C54.313 13.5 54.365 13.5 54.417 13.5C54.469 13.5 54.521 13.5 54.5731 13.5C54.6251 13.5 54.6772 13.5 54.7292 13.5C54.7813 13.5 54.8333 13.5 54.8854 13.5C54.9375 13.5 54.9896 13.5 55.0417 13.5C55.0939 13.5 55.146 13.5 55.1981 13.5C55.2503 13.5 55.3024 13.5 55.3546 13.5C55.4068 13.5 55.459 13.5 55.5112 13.5C55.5634 13.5 55.6156 13.5 55.6678 13.5C55.7201 13.5 55.7723 13.5 55.8246 13.5C55.8768 13.5 55.9291 13.5 55.9814 13.5C56.0337 13.5 56.086 13.5 56.1383 13.5C56.1907 13.5 56.243 13.5 56.2954 13.5C56.3477 13.5 56.4001 13.5 56.4525 13.5C56.5049 13.5 56.5573 13.5 56.6097 13.5C56.6621 13.5 56.7146 13.5 56.767 13.5C56.8195 13.5 56.872 13.5 56.9244 13.5C56.9769 13.5 57.0294 13.5 57.082 13.5C57.1345 13.5 57.187 13.5 57.2396 13.5C57.2921 13.5 57.3447 13.5 57.3973 13.5C57.4499 13.5 57.5025 13.5 57.5552 13.5C57.6078 13.5 57.6604 13.5 57.7131 13.5C57.7658 13.5 57.8184 13.5 57.8711 13.5C57.9238 13.5 57.9766 13.5 58.0293 13.5C58.082 13.5 58.1348 13.5 58.1876 13.5C58.2403 13.5 58.2931 13.5 58.346 13.5C58.3988 13.5 58.4516 13.5 58.5044 13.5C58.5573 13.5 58.6102 13.5 58.6631 13.5C58.7159 13.5 58.7689 13.5 58.8218 13.5C58.8747 13.5 58.9277 13.5 58.9806 13.5C59.0336 13.5 59.0866 13.5 59.1396 13.5C59.1926 13.5 59.2456 13.5 59.2987 13.5C59.3517 13.5 59.4048 13.5 59.4579 13.5C59.511 13.5 59.5641 13.5 59.6172 13.5C59.6703 13.5 59.7235 13.5 59.7766 13.5C59.8298 13.5 59.883 13.5 59.9362 13.5C59.9894 13.5 60.0427 13.5 60.0959 13.5C60.1492 13.5 60.2025 13.5 60.2558 13.5C60.3091 13.5 60.3624 13.5 60.4157 13.5C60.4691 13.5 60.5224 13.5 60.5758 13.5C60.6292 13.5 60.6826 13.5 60.736 13.5C60.7895 13.5 60.8429 13.5 60.8964 13.5C60.9499 13.5 61.0033 13.5 61.0569 13.5C61.1104 13.5 61.1639 13.5 61.2175 13.5C61.2711 13.5 61.3246 13.5 61.3783 13.5C61.4319 13.5 61.4855 13.5 61.5392 13.5C61.5928 13.5 61.6465 13.5 61.7002 13.5C61.7539 13.5 61.8076 13.5 61.8614 13.5C61.9151 13.5 61.9689 13.5 62.0227 13.5C62.0765 13.5 62.1303 13.5 62.1842 13.5C62.238 13.5 62.2919 13.5 62.3458 13.5C62.3997 13.5 62.4536 13.5 62.5075 13.5C62.5615 13.5 62.6155 13.5 62.6695 13.5C62.7234 13.5 62.7775 13.5 62.8315 13.5C62.8856 13.5 62.9396 13.5 62.9937 13.5C63.0478 13.5 63.1019 13.5 63.1561 13.5C63.2102 13.5 63.2644 13.5 63.3186 13.5C63.3728 13.5 63.427 13.5 63.4813 13.5C63.5355 13.5 63.5898 13.5 63.6441 13.5C63.6984 13.5 63.7527 13.5 63.8071 13.5C63.8614 13.5 63.9158 13.5 63.9702 13.5C64.0246 13.5 64.079 13.5 64.1335 13.5C64.1879 13.5 64.2424 13.5 64.2969 13.5C64.3515 13.5 64.406 13.5 64.4606 13.5C64.5151 13.5 64.5697 13.5 64.6243 13.5C64.679 13.5 64.7336 13.5 64.7883 13.5C64.843 13.5 64.8977 13.5 64.9524 13.5C65.0071 13.5 65.0619 13.5 65.1167 13.5C65.1715 13.5 65.2263 13.5 65.2811 13.5C65.336 13.5 65.3909 13.5 65.4458 13.5C65.5007 13.5 65.5556 13.5 65.6106 13.5C65.6655 13.5 65.7205 13.5 65.7755 13.5C65.8305 13.5 65.8856 13.5 65.9407 13.5C65.9957 13.5 66.0508 13.5 66.106 13.5C66.1611 13.5 66.2163 13.5 66.2715 13.5C66.3267 13.5 66.3819 13.5 66.4371 13.5C66.4924 13.5 66.5477 13.5 66.603 13.5C66.6583 13.5 66.7136 13.5 66.769 13.5C66.8244 13.5 66.8798 13.5 66.9352 13.5C66.9907 13.5 67.0461 13.5 67.1016 13.5C67.1571 13.5 67.2127 13.5 67.2682 13.5C67.3238 13.5 67.3794 13.5 67.435 13.5C67.4906 13.5 67.5462 13.5 67.6019 13.5C67.6576 13.5 67.7133 13.5 67.7691 13.5C67.8248 13.5 67.8806 13.5 67.9364 13.5C67.9922 13.5 68.048 13.5 68.1039 13.5C68.1598 13.5 68.2157 13.5 68.2716 13.5C68.3276 13.5 68.3836 13.5 68.4396 13.5C68.4956 13.5 68.5516 13.5 68.6077 13.5C68.6637 13.5 68.7198 13.5 68.776 13.5C68.8321 13.5 68.8883 13.5 68.9445 13.5C69.0007 13.5 69.0569 13.5 69.1132 13.5C69.1694 13.5 69.2257 13.5 69.2821 13.5C69.3384 13.5 69.3948 13.5 69.4512 13.5C69.5076 13.5 69.564 13.5 69.6205 13.5C69.6769 13.5 69.7334 13.5 69.79 13.5C69.8465 13.5 69.9031 13.5 69.9597 13.5C70.0163 13.5 70.0729 13.5 70.1296 13.5C70.1863 13.5 70.243 13.5 70.2997 13.5C70.3565 13.5 70.4133 13.5 70.4701 13.5C70.5269 13.5 70.5837 13.5 70.6406 13.5C70.6975 13.5 70.7544 13.5 70.8114 13.5C70.8683 13.5 70.9253 13.5 70.9824 13.5C71.0394 13.5 71.0965 13.5 71.1536 13.5C71.2107 13.5 71.2678 13.5 71.325 13.5C71.3821 13.5 71.4394 13.5 71.4966 13.5C71.5538 13.5 71.6111 13.5 71.6684 13.5C71.7258 13.5 71.7831 13.5 71.8405 13.5C71.8979 13.5 71.9553 13.5 72.0128 13.5C72.0703 13.5 72.1278 13.5 72.1853 13.5C72.2428 13.5 72.3004 13.5 72.358 13.5C72.4157 13.5 72.4733 13.5 72.531 13.5C72.5887 13.5 72.6464 13.5 72.7042 13.5C72.762 13.5 72.8198 13.5 72.8776 13.5C72.9354 13.5 72.9933 13.5 73.0512 13.5C73.1092 13.5 73.1671 13.5 73.2251 13.5C73.2831 13.5 73.3412 13.5 73.3992 13.5C73.4573 13.5 73.5154 13.5 73.5736 13.5C73.6317 13.5 73.6899 13.5 73.7481 13.5C73.8064 13.5 73.8646 13.5 73.923 13.5C73.9813 13.5 74.0396 13.5 74.098 13.5C74.1564 13.5 74.2148 13.5 74.2733 13.5C74.3318 13.5 74.3903 13.5 74.4488 13.5C74.5074 13.5 74.566 13.5 74.6246 13.5C74.6832 13.5 74.7419 13.5 74.8006 13.5C74.8593 13.5 74.9181 13.5 74.9769 13.5C75.0357 13.5 75.0945 13.5 75.1534 13.5C75.2122 13.5 75.2712 13.5 75.3301 13.5C75.3891 13.5 75.4481 13.5 75.5071 13.5C75.5662 13.5 75.6252 13.5 75.6844 13.5C75.7435 13.5 75.8027 13.5 75.8619 13.5C75.9211 13.5 75.9803 13.5 76.0396 13.5C76.0989 13.5 76.1582 13.5 76.2176 13.5C76.277 13.5 76.3364 13.5 76.3959 13.5C76.4553 13.5 76.5148 13.5 76.5744 13.5C76.6339 13.5 76.6935 13.5 76.7532 13.5C76.8128 13.5 76.8725 13.5 76.9322 13.5C76.9919 13.5 77.0517 13.5 77.1115 13.5C77.1713 13.5 77.2311 13.5 77.291 13.5C77.3509 13.5 77.4108 13.5 77.4708 13.5C77.5308 13.5 77.5908 13.5 77.6509 13.5C77.711 13.5 77.7711 13.5 77.8312 13.5C77.8914 13.5 77.9516 13.5 78.0118 13.5C78.0721 13.5 78.1324 13.5 78.1927 13.5C78.2531 13.5 78.3134 13.5 78.3739 13.5C78.4343 13.5 78.4948 13.5 78.5553 13.5C78.6158 13.5 78.6764 13.5 78.737 13.5C78.7976 13.5 78.8582 13.5 78.9189 13.5C78.9796 13.5 79.0404 13.5 79.1012 13.5C79.162 13.5 79.2228 13.5 79.2837 13.5C79.3446 13.5 79.4055 13.5 79.4665 13.5C79.5274 13.5 79.5885 13.5 79.6495 13.5C79.7106 13.5 79.7717 13.5 79.8329 13.5C79.894 13.5 79.9552 13.5 80.0165 13.5C80.0778 13.5 80.1391 13.5 80.2004 13.5C80.2618 13.5 80.3232 13.5 80.3846 13.5C80.446 13.5 80.5075 13.5 80.5691 13.5C80.6306 13.5 80.6922 13.5 80.7538 13.5C80.8155 13.5 80.8772 13.5 80.9389 13.5C81.0006 13.5 81.0624 13.5 81.1242 13.5C81.1861 13.5 81.2479 13.5 81.3099 13.5C81.3718 13.5 81.4338 13.5 81.4958 13.5C81.5578 13.5 81.6199 13.5 81.682 13.5C81.7441 13.5 81.8063 13.5 81.8685 13.5C81.9307 13.5 81.993 13.5 82.0553 13.5C82.1176 13.5 82.18 13.5 82.2424 13.5C82.3048 13.5 82.3673 13.5 82.4298 13.5C82.4923 13.5 82.5549 13.5 82.6175 13.5C82.6801 13.5 82.7428 13.5 82.8055 13.5C82.8682 13.5 82.931 13.5 82.9938 13.5C83.0566 13.5 83.1195 13.5 83.1824 13.5C83.2453 13.5 83.3083 13.5 83.3713 13.5C83.4343 13.5 83.4974 13.5 83.5605 13.5C83.6237 13.5 83.6868 13.5 83.7501 13.5C83.8133 13.5 83.8766 13.5 83.9399 13.5C84.0032 13.5 84.0666 13.5 84.13 13.5C84.1935 13.5 84.257 13.5 84.3205 13.5C84.384 13.5 84.4476 13.5 84.5113 13.5C84.5749 13.5 84.6386 13.5 84.7023 13.5C84.7661 13.5 84.8299 13.5 84.8937 13.5C84.9576 13.5 85.0215 13.5 85.0854 13.5C85.1494 13.5 85.2134 13.5 85.2775 13.5C85.3415 13.5 85.4056 13.5 85.4698 13.5C85.534 13.5 85.5982 13.5 85.6625 13.5C85.7268 13.5 85.7911 13.5 85.8555 13.5C85.9199 13.5 85.9843 13.5 86.0488 13.5C86.1133 13.5 86.1778 13.5 86.2424 13.5C86.307 13.5 86.3717 13.5 86.4364 13.5C86.5011 13.5 86.5659 13.5 86.6307 13.5C86.6955 13.5 86.7604 13.5 86.8253 13.5C86.8902 13.5 86.9552 13.5 87.0203 13.5C87.0853 13.5 87.1504 13.5 87.2155 13.5C87.2807 13.5 87.3459 13.5 87.4111 13.5C87.4764 13.5 87.5417 13.5 87.6071 13.5C87.6725 13.5 87.7379 13.5 87.8034 13.5C87.8689 13.5 87.9344 13.5 88 13.5L88 10.5C87.9344 10.5 87.8689 10.5 87.8034 10.5C87.7379 10.5 87.6725 10.5 87.6071 10.5C87.5417 10.5 87.4764 10.5 87.4111 10.5C87.3459 10.5 87.2807 10.5 87.2155 10.5C87.1504 10.5 87.0853 10.5 87.0203 10.5C86.9552 10.5 86.8902 10.5 86.8253 10.5C86.7604 10.5 86.6955 10.5 86.6307 10.5C86.5659 10.5 86.5011 10.5 86.4364 10.5C86.3717 10.5 86.307 10.5 86.2424 10.5C86.1778 10.5 86.1133 10.5 86.0488 10.5C85.9843 10.5 85.9199 10.5 85.8555 10.5C85.7911 10.5 85.7268 10.5 85.6625 10.5C85.5982 10.5 85.534 10.5 85.4698 10.5C85.4056 10.5 85.3415 10.5 85.2775 10.5C85.2134 10.5 85.1494 10.5 85.0854 10.5C85.0215 10.5 84.9576 10.5 84.8937 10.5C84.8299 10.5 84.7661 10.5 84.7023 10.5C84.6386 10.5 84.5749 10.5 84.5113 10.5C84.4476 10.5 84.384 10.5 84.3205 10.5C84.257 10.5 84.1935 10.5 84.13 10.5C84.0666 10.5 84.0032 10.5 83.9399 10.5C83.8766 10.5 83.8133 10.5 83.7501 10.5C83.6868 10.5 83.6237 10.5 83.5605 10.5C83.4974 10.5 83.4343 10.5 83.3713 10.5C83.3083 10.5 83.2453 10.5 83.1824 10.5C83.1195 10.5 83.0566 10.5 82.9938 10.5C82.931 10.5 82.8682 10.5 82.8055 10.5C82.7428 10.5 82.6801 10.5 82.6175 10.5C82.5549 10.5 82.4923 10.5 82.4298 10.5C82.3673 10.5 82.3048 10.5 82.2424 10.5C82.18 10.5 82.1176 10.5 82.0553 10.5C81.993 10.5 81.9307 10.5 81.8685 10.5C81.8063 10.5 81.7441 10.5 81.682 10.5C81.6199 10.5 81.5578 10.5 81.4958 10.5C81.4338 10.5 81.3718 10.5 81.3099 10.5C81.2479 10.5 81.1861 10.5 81.1242 10.5C81.0624 10.5 81.0006 10.5 80.9389 10.5C80.8772 10.5 80.8155 10.5 80.7538 10.5C80.6922 10.5 80.6306 10.5 80.5691 10.5C80.5075 10.5 80.446 10.5 80.3846 10.5C80.3232 10.5 80.2618 10.5 80.2004 10.5C80.1391 10.5 80.0778 10.5 80.0165 10.5C79.9552 10.5 79.894 10.5 79.8329 10.5C79.7717 10.5 79.7106 10.5 79.6495 10.5C79.5885 10.5 79.5274 10.5 79.4665 10.5C79.4055 10.5 79.3446 10.5 79.2837 10.5C79.2228 10.5 79.162 10.5 79.1012 10.5C79.0404 10.5 78.9796 10.5 78.9189 10.5C78.8582 10.5 78.7976 10.5 78.737 10.5C78.6764 10.5 78.6158 10.5 78.5553 10.5C78.4948 10.5 78.4343 10.5 78.3739 10.5C78.3134 10.5 78.2531 10.5 78.1927 10.5C78.1324 10.5 78.0721 10.5 78.0118 10.5C77.9516 10.5 77.8914 10.5 77.8312 10.5C77.7711 10.5 77.711 10.5 77.6509 10.5C77.5908 10.5 77.5308 10.5 77.4708 10.5C77.4108 10.5 77.3509 10.5 77.291 10.5C77.2311 10.5 77.1713 10.5 77.1115 10.5C77.0517 10.5 76.9919 10.5 76.9322 10.5C76.8725 10.5 76.8128 10.5 76.7532 10.5C76.6935 10.5 76.6339 10.5 76.5744 10.5C76.5148 10.5 76.4553 10.5 76.3959 10.5C76.3364 10.5 76.277 10.5 76.2176 10.5C76.1582 10.5 76.0989 10.5 76.0396 10.5C75.9803 10.5 75.9211 10.5 75.8619 10.5C75.8027 10.5 75.7435 10.5 75.6844 10.5C75.6252 10.5 75.5662 10.5 75.5071 10.5C75.4481 10.5 75.3891 10.5 75.3301 10.5C75.2712 10.5 75.2122 10.5 75.1534 10.5C75.0945 10.5 75.0357 10.5 74.9769 10.5C74.9181 10.5 74.8593 10.5 74.8006 10.5C74.7419 10.5 74.6832 10.5 74.6246 10.5C74.566 10.5 74.5074 10.5 74.4488 10.5C74.3903 10.5 74.3318 10.5 74.2733 10.5C74.2148 10.5 74.1564 10.5 74.098 10.5C74.0396 10.5 73.9813 10.5 73.923 10.5C73.8646 10.5 73.8064 10.5 73.7481 10.5C73.6899 10.5 73.6317 10.5 73.5736 10.5C73.5154 10.5 73.4573 10.5 73.3992 10.5C73.3412 10.5 73.2831 10.5 73.2251 10.5C73.1671 10.5 73.1092 10.5 73.0512 10.5C72.9933 10.5 72.9354 10.5 72.8776 10.5C72.8198 10.5 72.762 10.5 72.7042 10.5C72.6464 10.5 72.5887 10.5 72.531 10.5C72.4733 10.5 72.4157 10.5 72.358 10.5C72.3004 10.5 72.2428 10.5 72.1853 10.5C72.1278 10.5 72.0703 10.5 72.0128 10.5C71.9553 10.5 71.8979 10.5 71.8405 10.5C71.7831 10.5 71.7258 10.5 71.6684 10.5C71.6111 10.5 71.5538 10.5 71.4966 10.5C71.4394 10.5 71.3821 10.5 71.325 10.5C71.2678 10.5 71.2107 10.5 71.1536 10.5C71.0965 10.5 71.0394 10.5 70.9824 10.5C70.9253 10.5 70.8683 10.5 70.8114 10.5C70.7544 10.5 70.6975 10.5 70.6406 10.5C70.5837 10.5 70.5269 10.5 70.4701 10.5C70.4133 10.5 70.3565 10.5 70.2997 10.5C70.243 10.5 70.1863 10.5 70.1296 10.5C70.0729 10.5 70.0163 10.5 69.9597 10.5C69.9031 10.5 69.8465 10.5 69.79 10.5C69.7334 10.5 69.6769 10.5 69.6205 10.5C69.564 10.5 69.5076 10.5 69.4512 10.5C69.3948 10.5 69.3384 10.5 69.2821 10.5C69.2257 10.5 69.1694 10.5 69.1132 10.5C69.0569 10.5 69.0007 10.5 68.9445 10.5C68.8883 10.5 68.8321 10.5 68.776 10.5C68.7198 10.5 68.6637 10.5 68.6077 10.5C68.5516 10.5 68.4956 10.5 68.4396 10.5C68.3836 10.5 68.3276 10.5 68.2716 10.5C68.2157 10.5 68.1598 10.5 68.1039 10.5C68.0481 10.5 67.9922 10.5 67.9364 10.5C67.8806 10.5 67.8248 10.5 67.7691 10.5C67.7133 10.5 67.6576 10.5 67.6019 10.5C67.5462 10.5 67.4906 10.5 67.435 10.5C67.3794 10.5 67.3238 10.5 67.2682 10.5C67.2127 10.5 67.1571 10.5 67.1016 10.5C67.0461 10.5 66.9907 10.5 66.9352 10.5C66.8798 10.5 66.8244 10.5 66.769 10.5C66.7136 10.5 66.6583 10.5 66.603 10.5C66.5477 10.5 66.4924 10.5 66.4371 10.5C66.3819 10.5 66.3267 10.5 66.2715 10.5C66.2163 10.5 66.1611 10.5 66.106 10.5C66.0508 10.5 65.9957 10.5 65.9407 10.5C65.8856 10.5 65.8305 10.5 65.7755 10.5C65.7205 10.5 65.6655 10.5 65.6106 10.5C65.5556 10.5 65.5007 10.5 65.4458 10.5C65.3909 10.5 65.336 10.5 65.2811 10.5C65.2263 10.5 65.1715 10.5 65.1167 10.5C65.0619 10.5 65.0071 10.5 64.9524 10.5C64.8977 10.5 64.843 10.5 64.7883 10.5C64.7336 10.5 64.679 10.5 64.6243 10.5C64.5697 10.5 64.5151 10.5 64.4606 10.5C64.406 10.5 64.3515 10.5 64.2969 10.5C64.2424 10.5 64.1879 10.5 64.1335 10.5C64.079 10.5 64.0246 10.5 63.9702 10.5C63.9158 10.5 63.8614 10.5 63.8071 10.5C63.7527 10.5 63.6984 10.5 63.6441 10.5C63.5898 10.5 63.5355 10.5 63.4813 10.5C63.427 10.5 63.3728 10.5 63.3186 10.5C63.2644 10.5 63.2102 10.5 63.1561 10.5C63.1019 10.5 63.0478 10.5 62.9937 10.5C62.9396 10.5 62.8856 10.5 62.8315 10.5C62.7775 10.5 62.7234 10.5 62.6695 10.5C62.6155 10.5 62.5615 10.5 62.5075 10.5C62.4536 10.5 62.3997 10.5 62.3458 10.5C62.2919 10.5 62.238 10.5 62.1842 10.5C62.1303 10.5 62.0765 10.5 62.0227 10.5C61.9689 10.5 61.9151 10.5 61.8614 10.5C61.8076 10.5 61.7539 10.5 61.7002 10.5C61.6465 10.5 61.5928 10.5 61.5392 10.5C61.4855 10.5 61.4319 10.5 61.3783 10.5C61.3246 10.5 61.2711 10.5 61.2175 10.5C61.1639 10.5 61.1104 10.5 61.0569 10.5C61.0033 10.5 60.9499 10.5 60.8964 10.5C60.8429 10.5 60.7895 10.5 60.736 10.5C60.6826 10.5 60.6292 10.5 60.5758 10.5C60.5224 10.5 60.4691 10.5 60.4157 10.5C60.3624 10.5 60.3091 10.5 60.2558 10.5C60.2025 10.5 60.1492 10.5 60.0959 10.5C60.0427 10.5 59.9894 10.5 59.9362 10.5C59.883 10.5 59.8298 10.5 59.7766 10.5C59.7235 10.5 59.6703 10.5 59.6172 10.5C59.5641 10.5 59.511 10.5 59.4579 10.5C59.4048 10.5 59.3517 10.5 59.2987 10.5C59.2456 10.5 59.1926 10.5 59.1396 10.5C59.0866 10.5 59.0336 10.5 58.9806 10.5C58.9277 10.5 58.8747 10.5 58.8218 10.5C58.7689 10.5 58.7159 10.5 58.6631 10.5C58.6102 10.5 58.5573 10.5 58.5044 10.5C58.4516 10.5 58.3988 10.5 58.346 10.5C58.2931 10.5 58.2403 10.5 58.1876 10.5C58.1348 10.5 58.082 10.5 58.0293 10.5C57.9766 10.5 57.9238 10.5 57.8711 10.5C57.8184 10.5 57.7658 10.5 57.7131 10.5C57.6604 10.5 57.6078 10.5 57.5552 10.5C57.5025 10.5 57.4499 10.5 57.3973 10.5C57.3447 10.5 57.2921 10.5 57.2396 10.5C57.187 10.5 57.1345 10.5 57.082 10.5C57.0294 10.5 56.9769 10.5 56.9244 10.5C56.872 10.5 56.8195 10.5 56.767 10.5C56.7146 10.5 56.6621 10.5 56.6097 10.5C56.5573 10.5 56.5049 10.5 56.4525 10.5C56.4001 10.5 56.3477 10.5 56.2954 10.5C56.243 10.5 56.1907 10.5 56.1383 10.5C56.086 10.5 56.0337 10.5 55.9814 10.5C55.9291 10.5 55.8768 10.5 55.8246 10.5C55.7723 10.5 55.7201 10.5 55.6678 10.5C55.6156 10.5 55.5634 10.5 55.5112 10.5C55.459 10.5 55.4068 10.5 55.3546 10.5C55.3024 10.5 55.2503 10.5 55.1981 10.5C55.146 10.5 55.0939 10.5 55.0417 10.5C54.9896 10.5 54.9375 10.5 54.8854 10.5C54.8333 10.5 54.7813 10.5 54.7292 10.5C54.6772 10.5 54.6251 10.5 54.5731 10.5C54.521 10.5 54.469 10.5 54.417 10.5C54.365 10.5 54.313 10.5 54.2611 10.5C54.2091 10.5 54.1571 10.5 54.1052 10.5C54.0532 10.5 54.0013 10.5 53.9493 10.5C53.8974 10.5 53.8455 10.5 53.7936 10.5C53.7417 10.5 53.6898 10.5 53.6379 10.5C53.5861 10.5 53.5342 10.5 53.4823 10.5C53.4305 10.5 53.3787 10.5 53.3268 10.5C53.275 10.5 53.2232 10.5 53.1714 10.5C53.1196 10.5 53.0678 10.5 53.016 10.5C52.9642 10.5 52.9124 10.5 52.8607 10.5C52.8089 10.5 52.7572 10.5 52.7054 10.5C52.6537 10.5 52.602 10.5 52.5503 10.5C52.4986 10.5 52.4469 10.5 52.3952 10.5C52.3435 10.5 52.2918 10.5 52.2401 10.5C52.1884 10.5 52.1368 10.5 52.0851 10.5C52.0335 10.5 51.9818 10.5 51.9302 10.5C51.8786 10.5 51.827 10.5 51.7753 10.5C51.7237 10.5 51.6721 10.5 51.6205 10.5C51.5689 10.5 51.5174 10.5 51.4658 10.5C51.4142 10.5 51.3626 10.5 51.3111 10.5C51.2595 10.5 51.208 10.5 51.1564 10.5C51.1049 10.5 51.0534 10.5 51.0019 10.5C50.9503 10.5 50.8988 10.5 50.8473 10.5C50.7958 10.5 50.7443 10.5 50.6928 10.5C50.6413 10.5 50.5899 10.5 50.5384 10.5C50.4869 10.5 50.4355 10.5 50.384 10.5C50.3325 10.5 50.2811 10.5 50.2297 10.5C50.1782 10.5 50.1268 10.5 50.0754 10.5C50.0239 10.5 49.9725 10.5 49.9211 10.5C49.8697 10.5 49.8183 10.5 49.7669 10.5C49.7155 10.5 49.6641 10.5 49.6127 10.5C49.5613 10.5 49.51 10.5 49.4586 10.5C49.4072 10.5 49.3558 10.5 49.3045 10.5C49.2531 10.5 49.2018 10.5 49.1504 10.5C49.0991 10.5 49.0477 10.5 48.9964 10.5C48.9451 10.5 48.8937 10.5 48.8424 10.5C48.7911 10.5 48.7398 10.5 48.6885 10.5C48.6371 10.5 48.5858 10.5 48.5345 10.5C48.4832 10.5 48.4319 10.5 48.3806 10.5C48.3294 10.5 48.2781 10.5 48.2268 10.5C48.1755 10.5 48.1242 10.5 48.0729 10.5C48.0217 10.5 47.9704 10.5 47.9191 10.5C47.8679 10.5 47.8166 10.5 47.7654 10.5C47.7141 10.5 47.6628 10.5 47.6116 10.5C47.5603 10.5 47.5091 10.5 47.4578 10.5C47.4066 10.5 47.3554 10.5 47.3041 10.5C47.2529 10.5 47.2017 10.5 47.1504 10.5C47.0992 10.5 47.048 10.5 46.9968 10.5C46.9455 10.5 46.8943 10.5 46.8431 10.5C46.7919 10.5 46.7407 10.5 46.6894 10.5C46.6382 10.5 46.587 10.5 46.5358 10.5C46.4846 10.5 46.4334 10.5 46.3822 10.5C46.331 10.5 46.2798 10.5 46.2286 10.5C46.1774 10.5 46.1262 10.5 46.075 10.5C46.0238 10.5 45.9726 10.5 45.9214 10.5C45.8702 10.5 45.819 10.5 45.7678 10.5C45.7166 10.5 45.6654 10.5 45.6143 10.5C45.5631 10.5 45.5119 10.5 45.4607 10.5C45.4095 10.5 45.3583 10.5 45.3071 10.5C45.2559 10.5 45.2047 10.5 45.1536 10.5C45.1024 10.5 45.0512 10.5 45 10.5C44.9488 10.5 44.8976 10.5 44.8464 10.5C44.7953 10.5 44.7441 10.5 44.6929 10.5C44.6417 10.5 44.5905 10.5 44.5393 10.5C44.4881 10.5 44.4369 10.5 44.3857 10.5C44.3346 10.5 44.2834 10.5 44.2322 10.5C44.181 10.5 44.1298 10.5 44.0786 10.5C44.0274 10.5 43.9762 10.5 43.925 10.5C43.8738 10.5 43.8226 10.5 43.7714 10.5C43.7202 10.5 43.669 10.5 43.6178 10.5C43.5666 10.5 43.5154 10.5 43.4642 10.5C43.413 10.5 43.3618 10.5 43.3106 10.5C43.2593 10.5 43.2081 10.5 43.1569 10.5C43.1057 10.5 43.0545 10.5 43.0032 10.5C42.952 10.5 42.9008 10.5 42.8496 10.5C42.7983 10.5 42.7471 10.5 42.6959 10.5C42.6446 10.5 42.5934 10.5 42.5422 10.5C42.4909 10.5 42.4397 10.5 42.3884 10.5C42.3372 10.5 42.2859 10.5 42.2346 10.5C42.1834 10.5 42.1321 10.5 42.0809 10.5C42.0296 10.5 41.9783 10.5 41.9271 10.5C41.8758 10.5 41.8245 10.5 41.7732 10.5C41.7219 10.5 41.6706 10.5 41.6194 10.5C41.5681 10.5 41.5168 10.5 41.4655 10.5C41.4142 10.5 41.3629 10.5 41.3115 10.5C41.2602 10.5 41.2089 10.5 41.1576 10.5C41.1063 10.5 41.0549 10.5 41.0036 10.5C40.9523 10.5 40.9009 10.5 40.8496 10.5C40.7982 10.5 40.7469 10.5 40.6955 10.5C40.6442 10.5 40.5928 10.5 40.5414 10.5C40.49 10.5 40.4387 10.5 40.3873 10.5C40.3359 10.5 40.2845 10.5 40.2331 10.5C40.1817 10.5 40.1303 10.5 40.0789 10.5C40.0275 10.5 39.9761 10.5 39.9246 10.5C39.8732 10.5 39.8218 10.5 39.7703 10.5C39.7189 10.5 39.6675 10.5 39.616 10.5C39.5645 10.5 39.5131 10.5 39.4616 10.5C39.4101 10.5 39.3587 10.5 39.3072 10.5C39.2557 10.5 39.2042 10.5 39.1527 10.5C39.1012 10.5 39.0497 10.5 38.9981 10.5C38.9466 10.5 38.8951 10.5 38.8436 10.5C38.792 10.5 38.7405 10.5 38.6889 10.5C38.6374 10.5 38.5858 10.5 38.5342 10.5C38.4826 10.5 38.4311 10.5 38.3795 10.5C38.3279 10.5 38.2763 10.5 38.2247 10.5C38.1731 10.5 38.1214 10.5 38.0698 10.5C38.0182 10.5 37.9665 10.5 37.9149 10.5C37.8632 10.5 37.8116 10.5 37.7599 10.5C37.7082 10.5 37.6565 10.5 37.6048 10.5C37.5531 10.5 37.5014 10.5 37.4497 10.5C37.398 10.5 37.3463 10.5 37.2946 10.5C37.2428 10.5 37.1911 10.5 37.1393 10.5C37.0876 10.5 37.0358 10.5 36.984 10.5C36.9322 10.5 36.8804 10.5 36.8286 10.5C36.7768 10.5 36.725 10.5 36.6732 10.5C36.6213 10.5 36.5695 10.5 36.5177 10.5C36.4658 10.5 36.4139 10.5 36.3621 10.5C36.3102 10.5 36.2583 10.5 36.2064 10.5C36.1545 10.5 36.1026 10.5 36.0507 10.5C35.9987 10.5 35.9468 10.5 35.8948 10.5C35.8429 10.5 35.7909 10.5 35.7389 10.5C35.687 10.5 35.635 10.5 35.583 10.5C35.531 10.5 35.479 10.5 35.4269 10.5C35.3749 10.5 35.3228 10.5 35.2708 10.5C35.2187 10.5 35.1667 10.5 35.1146 10.5C35.0625 10.5 35.0104 10.5 34.9583 10.5C34.9061 10.5 34.854 10.5 34.8019 10.5C34.7497 10.5 34.6976 10.5 34.6454 10.5C34.5932 10.5 34.541 10.5 34.4888 10.5C34.4366 10.5 34.3844 10.5 34.3322 10.5C34.2799 10.5 34.2277 10.5 34.1754 10.5C34.1232 10.5 34.0709 10.5 34.0186 10.5C33.9663 10.5 33.914 10.5 33.8617 10.5C33.8093 10.5 33.757 10.5 33.7046 10.5C33.6523 10.5 33.5999 10.5 33.5475 10.5C33.4951 10.5 33.4427 10.5 33.3903 10.5C33.3379 10.5 33.2854 10.5 33.233 10.5C33.1805 10.5 33.128 10.5 33.0756 10.5C33.0231 10.5 32.9706 10.5 32.918 10.5C32.8655 10.5 32.813 10.5 32.7604 10.5C32.7079 10.5 32.6553 10.5 32.6027 10.5C32.5501 10.5 32.4975 10.5 32.4448 10.5C32.3922 10.5 32.3396 10.5 32.2869 10.5C32.2342 10.5 32.1816 10.5 32.1289 10.5C32.0762 10.5 32.0234 10.5 31.9707 10.5C31.918 10.5 31.8652 10.5 31.8124 10.5C31.7597 10.5 31.7069 10.5 31.654 10.5C31.6012 10.5 31.5484 10.5 31.4956 10.5C31.4427 10.5 31.3898 10.5 31.3369 10.5C31.2841 10.5 31.2311 10.5 31.1782 10.5C31.1253 10.5 31.0723 10.5 31.0194 10.5C30.9664 10.5 30.9134 10.5 30.8604 10.5C30.8074 10.5 30.7544 10.5 30.7013 10.5C30.6483 10.5 30.5952 10.5 30.5421 10.5C30.489 10.5 30.4359 10.5 30.3828 10.5C30.3297 10.5 30.2765 10.5 30.2234 10.5C30.1702 10.5 30.117 10.5 30.0638 10.5C30.0106 10.5 29.9573 10.5 29.9041 10.5C29.8508 10.5 29.7975 10.5 29.7442 10.5C29.691 10.5 29.6376 10.5 29.5843 10.5C29.5309 10.5 29.4776 10.5 29.4242 10.5C29.3708 10.5 29.3174 10.5 29.264 10.5C29.2105 10.5 29.1571 10.5 29.1036 10.5C29.0501 10.5 28.9967 10.5 28.9431 10.5C28.8896 10.5 28.8361 10.5 28.7825 10.5C28.7289 10.5 28.6754 10.5 28.6217 10.5C28.5681 10.5 28.5145 10.5 28.4608 10.5C28.4072 10.5 28.3535 10.5 28.2998 10.5C28.2461 10.5 28.1924 10.5 28.1386 10.5C28.0849 10.5 28.0311 10.5 27.9773 10.5C27.9235 10.5 27.8697 10.5 27.8158 10.5C27.762 10.5 27.7081 10.5 27.6542 10.5C27.6003 10.5 27.5464 10.5 27.4925 10.5C27.4385 10.5 27.3845 10.5 27.3305 10.5C27.2766 10.5 27.2225 10.5 27.1685 10.5C27.1144 10.5 27.0604 10.5 27.0063 10.5C26.9522 10.5 26.8981 10.5 26.8439 10.5C26.7898 10.5 26.7356 10.5 26.6814 10.5C26.6272 10.5 26.573 10.5 26.5187 10.5C26.4645 10.5 26.4102 10.5 26.3559 10.5C26.3016 10.5 26.2473 10.5 26.1929 10.5C26.1386 10.5 26.0842 10.5 26.0298 10.5C25.9754 10.5 25.921 10.5 25.8665 10.5C25.8121 10.5 25.7576 10.5 25.7031 10.5C25.6485 10.5 25.594 10.5 25.5394 10.5C25.4849 10.5 25.4303 10.5 25.3757 10.5C25.321 10.5 25.2664 10.5 25.2117 10.5C25.157 10.5 25.1023 10.5 25.0476 10.5C24.9929 10.5 24.9381 10.5 24.8833 10.5C24.8285 10.5 24.7737 10.5 24.7189 10.5C24.664 10.5 24.6091 10.5 24.5542 10.5C24.4993 10.5 24.4444 10.5 24.3894 10.5C24.3345 10.5 24.2795 10.5 24.2245 10.5C24.1695 10.5 24.1144 10.5 24.0593 10.5C24.0043 10.5 23.9492 10.5 23.894 10.5C23.8389 10.5 23.7837 10.5 23.7285 10.5C23.6733 10.5 23.6181 10.5 23.5629 10.5C23.5076 10.5 23.4523 10.5 23.397 10.5C23.3417 10.5 23.2864 10.5 23.231 10.5C23.1756 10.5 23.1202 10.5 23.0648 10.5C23.0093 10.5 22.9539 10.5 22.8984 10.5C22.8429 10.5 22.7873 10.5 22.7318 10.5C22.6762 10.5 22.6206 10.5 22.565 10.5C22.5094 10.5 22.4538 10.5 22.3981 10.5C22.3424 10.5 22.2867 10.5 22.2309 10.5C22.1752 10.5 22.1194 10.5 22.0636 10.5C22.0078 10.5 21.9519 10.5 21.8961 10.5C21.8402 10.5 21.7843 10.5 21.7284 10.5C21.6724 10.5 21.6165 10.5 21.5604 10.5C21.5044 10.5 21.4484 10.5 21.3923 10.5C21.3363 10.5 21.2802 10.5 21.224 10.5C21.1679 10.5 21.1117 10.5 21.0555 10.5C20.9993 10.5 20.9431 10.5 20.8868 10.5C20.8306 10.5 20.7743 10.5 20.7179 10.5C20.6616 10.5 20.6052 10.5 20.5488 10.5C20.4924 10.5 20.436 10.5 20.3795 10.5C20.3231 10.5 20.2666 10.5 20.21 10.5C20.1535 10.5 20.0969 10.5 20.0403 10.5C19.9837 10.5 19.9271 10.5 19.8704 10.5C19.8137 10.5 19.757 10.5 19.7003 10.5C19.6435 10.5 19.5867 10.5 19.5299 10.5C19.4731 10.5 19.4163 10.5 19.3594 10.5C19.3025 10.5 19.2456 10.5 19.1886 10.5C19.1316 10.5 19.0747 10.5 19.0176 10.5C18.9606 10.5 18.9035 10.5 18.8464 10.5C18.7893 10.5 18.7322 10.5 18.675 10.5C18.6179 10.5 18.5606 10.5 18.5034 10.5C18.4462 10.5 18.3889 10.5 18.3316 10.5C18.2742 10.5 18.2169 10.5 18.1595 10.5C18.1021 10.5 18.0447 10.5 17.9872 10.5C17.9297 10.5 17.8722 10.5 17.8147 10.5C17.7572 10.5 17.6996 10.5 17.642 10.5C17.5843 10.5 17.5267 10.5 17.469 10.5C17.4113 10.5 17.3536 10.5 17.2958 10.5C17.238 10.5 17.1802 10.5 17.1224 10.5C17.0646 10.5 17.0067 10.5 16.9488 10.5C16.8908 10.5 16.8329 10.5 16.7749 10.5C16.7169 10.5 16.6588 10.5 16.6008 10.5C16.5427 10.5 16.4846 10.5 16.4264 10.5C16.3683 10.5 16.3101 10.5 16.2519 10.5C16.1936 10.5 16.1353 10.5 16.077 10.5C16.0187 10.5 15.9604 10.5 15.902 10.5C15.8436 10.5 15.7852 10.5 15.7267 10.5C15.6682 10.5 15.6097 10.5 15.5512 10.5C15.4926 10.5 15.434 10.5 15.3754 10.5C15.3168 10.5 15.2581 10.5 15.1994 10.5C15.1407 10.5 15.0819 10.5 15.0231 10.5C14.9643 10.5 14.9055 10.5 14.8466 10.5C14.7878 10.5 14.7288 10.5 14.6699 10.5C14.6109 10.5 14.5519 10.5 14.4929 10.5C14.4338 10.5 14.3748 10.5 14.3156 10.5C14.2565 10.5 14.1973 10.5 14.1381 10.5C14.0789 10.5 14.0197 10.5 13.9604 10.5C13.9011 10.5 13.8418 10.5 13.7824 10.5C13.723 10.5 13.6636 10.5 13.6041 10.5C13.5447 10.5 13.4852 10.5 13.4256 10.5C13.3661 10.5 13.3065 10.5 13.2469 10.5C13.1872 10.5 13.1275 10.5 13.0678 10.5C13.0081 10.5 12.9483 10.5 12.8885 10.5C12.8287 10.5 12.7689 10.5 12.709 10.5C12.6491 10.5 12.5892 10.5 12.5292 10.5C12.4692 10.5 12.4092 10.5 12.3491 10.5C12.289 10.5 12.2289 10.5 12.1688 10.5C12.1086 10.5 12.0484 10.5 11.9881 10.5C11.9279 10.5 11.8676 10.5 11.8073 10.5C11.7469 10.5 11.6866 10.5 11.6261 10.5C11.5657 10.5 11.5052 10.5 11.4447 10.5C11.3842 10.5 11.3236 10.5 11.263 10.5C11.2024 10.5 11.1418 10.5 11.0811 10.5C11.0204 10.5 10.9596 10.5 10.8988 10.5C10.838 10.5 10.7772 10.5 10.7163 10.5C10.6554 10.5 10.5945 10.5 10.5335 10.5C10.4726 10.5 10.4115 10.5 10.3505 10.5C10.2894 10.5 10.2283 10.5 10.1671 10.5C10.106 10.5 10.0448 10.5 9.9835 10.5C9.92225 10.5 9.86094 10.5 9.79959 10.5C9.73824 10.5 9.67685 10.5 9.6154 10.5C9.55396 10.5 9.49246 10.5 9.43092 10.5C9.36938 10.5 9.3078 10.5 9.24616 10.5C9.18452 10.5 9.12284 10.5 9.06111 10.5C8.99938 10.5 8.9376 10.5 8.87577 10.5C8.81394 10.5 8.75207 10.5 8.69014 10.5C8.62821 10.5 8.56624 10.5 8.50422 10.5C8.4422 10.5 8.38012 10.5 8.318 10.5C8.25588 10.5 8.19371 10.5 8.1315 10.5C8.06928 10.5 8.00701 10.5 7.94469 10.5C7.88237 10.5 7.82001 10.5 7.75759 10.5C7.69517 10.5 7.63271 10.5 7.57019 10.5C7.50768 10.5 7.44511 10.5 7.38249 10.5C7.31988 10.5 7.25721 10.5 7.19449 10.5C7.13178 10.5 7.06901 10.5 7.00619 10.5C6.94338 10.5 6.88051 10.5 6.81759 10.5C6.75467 10.5 6.6917 10.5 6.62868 10.5C6.56566 10.5 6.50259 10.5 6.43946 10.5C6.37634 10.5 6.31317 10.5 6.24994 10.5C6.18672 10.5 6.12344 10.5 6.06011 10.5C5.99678 10.5 5.9334 10.5 5.86997 10.5C5.80654 10.5 5.74305 10.5 5.67951 10.5C5.61598 10.5 5.55239 10.5 5.48875 10.5C5.42511 10.5 5.36142 10.5 5.29767 10.5C5.23392 10.5 5.17013 10.5 5.10627 10.5C5.04242 10.5 4.97852 10.5 4.91456 10.5C4.85061 10.5 4.7866 10.5 4.72253 10.5C4.65847 10.5 4.59435 10.5 4.53019 10.5C4.46602 10.5 4.40179 10.5 4.33752 10.5C4.27324 10.5 4.20891 10.5 4.14452 10.5C4.08014 10.5 4.0157 10.5 3.95121 10.5C3.88672 10.5 3.82217 10.5 3.75757 10.5C3.69297 10.5 3.62832 10.5 3.56361 10.5C3.4989 10.5 3.43413 10.5 3.36931 10.5C3.3045 10.5 3.23962 10.5 3.17469 10.5C3.10977 10.5 3.04478 10.5 2.97974 10.5C2.91471 10.5 2.84961 10.5 2.78446 10.5C2.71931 10.5 2.65411 10.5 2.58885 10.5C2.52359 10.5 2.45827 10.5 2.3929 10.5C2.32753 10.5 2.2621 10.5 2.19662 10.5C2.13114 10.5 2.0656 10.5 2 10.5L2 13.5Z" fill="#EA4C14"/>
</svg>
