<svg width="55" height="39" viewBox="0 0 55 39" fill="none" xmlns="http://www.w3.org/2000/svg">
<path d="M9.45575 11.0872C9.45575 7.63544 12.254 4.83722 15.7057 4.83722H41.0701C44.5219 4.83722 47.3201 7.63544 47.3201 11.0872V16.3835C47.3201 19.8353 44.5219 22.6335 41.0701 22.6335H36.1591C34.9043 22.6335 33.7228 22.0427 32.97 21.0389C30.7754 18.1129 26.3864 18.1129 24.1918 21.0389C23.439 22.0427 22.2575 22.6335 21.0027 22.6335H15.7057C12.254 22.6335 9.45575 19.8353 9.45575 16.3835V11.0872Z" stroke="#F5F5F5" stroke-width="1.5"/>
<path d="M10.2501 4.84039V4.84039C10.2501 2.71947 11.9695 1.00012 14.0904 1.00012H42.6868C44.8077 1.00012 46.5271 2.71947 46.5271 4.84039V4.84039" stroke="#F5F5F5" stroke-width="1.5"/>
<circle cx="19.3178" cy="13.5426" r="3.30221" stroke="#F5F5F5" stroke-width="1.5"/>
<circle cx="37.4581" cy="13.5426" r="3.30221" stroke="#F5F5F5" stroke-width="1.5"/>
<path d="M1 23.9345L4.66391 23.3841L5.40334 26.6827M15.8613 34.5142C7.01869 33.1108 2.83492 30.2674 2.83492 26.6827C2.83492 25.5171 3.48412 24.404 4.66429 23.3842M42.0979 34.5142C50.1673 33.0166 54.2073 30.0712 54.2073 26.6827C54.2073 25.5171 53.5581 24.404 52.3779 23.3842" stroke="#F5F5F5" stroke-width="1.5" stroke-linecap="round" stroke-linejoin="round"/>
<path d="M21.6913 38.2204C21.2713 38.2204 20.9083 38.1694 20.6023 38.0674C20.2963 37.9654 20.0413 37.8334 19.8373 37.6714C19.6393 37.5034 19.4893 37.3234 19.3873 37.1314C19.2853 36.9334 19.2313 36.7384 19.2253 36.5464C19.2253 36.4924 19.2433 36.4504 19.2793 36.4204C19.3213 36.3844 19.3693 36.3664 19.4233 36.3664H20.2333C20.2933 36.3664 20.3443 36.3784 20.3863 36.4024C20.4283 36.4264 20.4643 36.4744 20.4943 36.5464C20.5483 36.7084 20.6353 36.8374 20.7553 36.9334C20.8813 37.0294 21.0253 37.0984 21.1873 37.1404C21.3493 37.1764 21.5203 37.1944 21.7003 37.1944C22.0603 37.1944 22.3453 37.1104 22.5553 36.9424C22.7713 36.7684 22.8793 36.5224 22.8793 36.2044C22.8793 35.8864 22.7803 35.6584 22.5823 35.5204C22.3843 35.3764 22.1083 35.3044 21.7543 35.3044H20.8273C20.7613 35.3044 20.7073 35.2864 20.6653 35.2504C20.6233 35.2084 20.6023 35.1544 20.6023 35.0884V34.7104C20.6023 34.6504 20.6143 34.5994 20.6383 34.5574C20.6683 34.5094 20.6983 34.4704 20.7283 34.4404L22.3393 32.8654H19.7653C19.6993 32.8654 19.6453 32.8444 19.6033 32.8024C19.5673 32.7604 19.5493 32.7094 19.5493 32.6494V32.0554C19.5493 31.9894 19.5673 31.9354 19.6033 31.8934C19.6453 31.8514 19.6993 31.8304 19.7653 31.8304H23.6263C23.6923 31.8304 23.7463 31.8514 23.7883 31.8934C23.8303 31.9354 23.8513 31.9894 23.8513 32.0554V32.5954C23.8513 32.6494 23.8393 32.6974 23.8153 32.7394C23.7913 32.7814 23.7643 32.8174 23.7343 32.8474L22.1773 34.4494L22.2853 34.4584C22.6513 34.4884 22.9753 34.5724 23.2573 34.7104C23.5453 34.8424 23.7673 35.0374 23.9233 35.2954C24.0853 35.5534 24.1663 35.8774 24.1663 36.2674C24.1663 36.6754 24.0583 37.0264 23.8423 37.3204C23.6323 37.6084 23.3413 37.8304 22.9693 37.9864C22.5973 38.1424 22.1713 38.2204 21.6913 38.2204ZM27.5222 38.2204C27.0062 38.2204 26.5622 38.1244 26.1902 37.9324C25.8182 37.7344 25.5302 37.4704 25.3262 37.1404C25.1222 36.8044 25.0202 36.4294 25.0202 36.0154C25.0202 35.8294 25.0442 35.6494 25.0922 35.4754C25.1402 35.3014 25.2032 35.1364 25.2812 34.9804C25.3592 34.8244 25.4342 34.6864 25.5062 34.5664C25.5842 34.4404 25.6532 34.3414 25.7132 34.2694L27.3602 32.0104C27.3842 31.9804 27.4202 31.9444 27.4682 31.9024C27.5162 31.8544 27.5822 31.8304 27.6662 31.8304H28.5032C28.5572 31.8304 28.6022 31.8514 28.6382 31.8934C28.6742 31.9294 28.6922 31.9744 28.6922 32.0284C28.6922 32.0524 28.6862 32.0764 28.6742 32.1004C28.6682 32.1184 28.6592 32.1334 28.6472 32.1454L27.3872 33.8914C27.4412 33.8734 27.5042 33.8614 27.5762 33.8554C27.6482 33.8494 27.7142 33.8464 27.7742 33.8464C28.0742 33.8524 28.3592 33.9124 28.6292 34.0264C28.8992 34.1344 29.1362 34.2844 29.3402 34.4764C29.5442 34.6684 29.7032 34.8934 29.8172 35.1514C29.9372 35.4094 29.9972 35.6914 29.9972 35.9974C29.9972 36.3934 29.8982 36.7624 29.7002 37.1044C29.5022 37.4404 29.2172 37.7104 28.8452 37.9144C28.4792 38.1184 28.0382 38.2204 27.5222 38.2204ZM27.5132 37.1854C27.7292 37.1854 27.9272 37.1404 28.1072 37.0504C28.2932 36.9604 28.4432 36.8284 28.5572 36.6544C28.6712 36.4804 28.7282 36.2644 28.7282 36.0064C28.7282 35.7544 28.6712 35.5414 28.5572 35.3674C28.4432 35.1934 28.2932 35.0614 28.1072 34.9714C27.9272 34.8814 27.7292 34.8364 27.5132 34.8364C27.2972 34.8364 27.0962 34.8814 26.9102 34.9714C26.7302 35.0614 26.5832 35.1934 26.4692 35.3674C26.3552 35.5414 26.2982 35.7544 26.2982 36.0064C26.2982 36.2644 26.3552 36.4804 26.4692 36.6544C26.5832 36.8284 26.7302 36.9604 26.9102 37.0504C27.0962 37.1404 27.2972 37.1854 27.5132 37.1854ZM33.3358 38.2204C32.9098 38.2204 32.5468 38.1574 32.2468 38.0314C31.9468 37.9054 31.7008 37.7314 31.5088 37.5094C31.3168 37.2874 31.1728 37.0324 31.0768 36.7444C30.9808 36.4504 30.9238 36.1384 30.9058 35.8084C30.8998 35.6464 30.8938 35.4694 30.8878 35.2774C30.8878 35.0794 30.8878 34.8814 30.8878 34.6834C30.8938 34.4854 30.8998 34.3024 30.9058 34.1344C30.9178 33.8044 30.9748 33.4954 31.0768 33.2074C31.1788 32.9134 31.3258 32.6584 31.5178 32.4424C31.7158 32.2264 31.9648 32.0554 32.2648 31.9294C32.5648 31.8034 32.9218 31.7404 33.3358 31.7404C33.7558 31.7404 34.1158 31.8034 34.4158 31.9294C34.7158 32.0554 34.9618 32.2264 35.1538 32.4424C35.3518 32.6584 35.4988 32.9134 35.5948 33.2074C35.6968 33.4954 35.7538 33.8044 35.7658 34.1344C35.7778 34.3024 35.7838 34.4854 35.7838 34.6834C35.7838 34.8814 35.7838 35.0794 35.7838 35.2774C35.7838 35.4694 35.7778 35.6464 35.7658 35.8084C35.7538 36.1384 35.6998 36.4504 35.6038 36.7444C35.5078 37.0324 35.3638 37.2874 35.1718 37.5094C34.9798 37.7314 34.7308 37.9054 34.4248 38.0314C34.1248 38.1574 33.7618 38.2204 33.3358 38.2204ZM33.3358 37.1854C33.7258 37.1854 34.0108 37.0594 34.1908 36.8074C34.3768 36.5494 34.4728 36.2014 34.4788 35.7634C34.4908 35.5894 34.4968 35.4154 34.4968 35.2414C34.4968 35.0614 34.4968 34.8814 34.4968 34.7014C34.4968 34.5214 34.4908 34.3504 34.4788 34.1884C34.4728 33.7624 34.3768 33.4204 34.1908 33.1624C34.0108 32.8984 33.7258 32.7664 33.3358 32.7664C32.9518 32.7664 32.6668 32.8984 32.4808 33.1624C32.3008 33.4204 32.2048 33.7624 32.1928 34.1884C32.1928 34.3504 32.1898 34.5214 32.1838 34.7014C32.1838 34.8814 32.1838 35.0614 32.1838 35.2414C32.1898 35.4154 32.1928 35.5894 32.1928 35.7634C32.2048 36.2014 32.3038 36.5494 32.4898 36.8074C32.6758 37.0594 32.9578 37.1854 33.3358 37.1854ZM38.1889 34.5394C37.9249 34.5394 37.6819 34.4794 37.4599 34.3594C37.2439 34.2334 37.0699 34.0654 36.9379 33.8554C36.8059 33.6394 36.7399 33.3994 36.7399 33.1354C36.7399 32.8714 36.8059 32.6344 36.9379 32.4244C37.0699 32.2144 37.2439 32.0494 37.4599 31.9294C37.6819 31.8034 37.9249 31.7404 38.1889 31.7404C38.4529 31.7404 38.6929 31.8034 38.9089 31.9294C39.1249 32.0494 39.2989 32.2144 39.4309 32.4244C39.5629 32.6344 39.6289 32.8714 39.6289 33.1354C39.6289 33.3994 39.5629 33.6394 39.4309 33.8554C39.2989 34.0654 39.1249 34.2334 38.9089 34.3594C38.6929 34.4794 38.4529 34.5394 38.1889 34.5394ZM38.1889 33.8194C38.3929 33.8194 38.5579 33.7564 38.6839 33.6304C38.8099 33.5044 38.8729 33.3394 38.8729 33.1354C38.8729 32.9314 38.8099 32.7664 38.6839 32.6404C38.5579 32.5144 38.3929 32.4514 38.1889 32.4514C37.9849 32.4514 37.8199 32.5144 37.6939 32.6404C37.5679 32.7664 37.5049 32.9314 37.5049 33.1354C37.5049 33.3394 37.5679 33.5044 37.6939 33.6304C37.8199 33.7564 37.9849 33.8194 38.1889 33.8194Z" fill="#F5F5F5"/>
</svg>
