<svg width="296" height="256" viewBox="0 0 296 256" fill="none" xmlns="http://www.w3.org/2000/svg">
<g opacity="0.8">
<path d="M50.9168 28.5931C50.9168 27.2124 52.0361 26.0931 53.4168 26.0931H251.008C252.389 26.0931 253.508 27.2124 253.508 28.5931V118.314C253.508 119.695 252.389 120.814 251.008 120.814H184.754C183.968 120.814 183.227 120.444 182.754 119.814L162.45 92.7414C157.85 86.6081 148.65 86.6081 144.05 92.7414L123.745 119.814C123.273 120.444 122.532 120.814 121.745 120.814H53.4168C52.0361 120.814 50.9168 119.695 50.9168 118.314V28.5931Z" stroke="#F5F5F5" stroke-width="9"/>
<path d="M54.7226 25.6422V15C54.7226 9.47716 59.1997 5 64.7226 5H239.719C245.241 5 249.719 9.47715 249.719 15V25.6422" stroke="#F5F5F5" stroke-width="9"/>
<circle cx="103.463" cy="72.4186" r="17.2815" stroke="#F5F5F5" stroke-width="9"/>
<circle cx="200.963" cy="72.4186" r="17.2815" stroke="#F5F5F5" stroke-width="9"/>
<path d="M5 128.276L24.6942 125.318L28.6689 143.048M84.8824 185.144C37.3517 177.6 14.8631 162.317 14.8631 143.048C14.8631 136.783 18.3526 130.8 24.6963 125.318M225.909 185.144C269.284 177.094 291 161.262 291 143.048C291 136.783 287.51 130.8 281.167 125.318" stroke="#F5F5F5" stroke-width="9" stroke-linecap="round" stroke-linejoin="round"/>
<path d="M122.831 204.116C120.497 204.116 118.481 203.833 116.781 203.266C115.081 202.7 113.664 201.966 112.531 201.066C111.431 200.133 110.597 199.133 110.031 198.066C109.464 196.966 109.164 195.883 109.131 194.816C109.131 194.516 109.231 194.283 109.431 194.116C109.664 193.916 109.931 193.816 110.231 193.816H114.731C115.064 193.816 115.347 193.883 115.581 194.016C115.814 194.15 116.014 194.416 116.181 194.816C116.481 195.716 116.964 196.433 117.631 196.966C118.331 197.5 119.131 197.883 120.031 198.116C120.931 198.316 121.881 198.416 122.881 198.416C124.881 198.416 126.464 197.95 127.631 197.016C128.831 196.05 129.431 194.683 129.431 192.916C129.431 191.15 128.881 189.883 127.781 189.116C126.681 188.316 125.147 187.916 123.181 187.916H118.031C117.664 187.916 117.364 187.816 117.131 187.616C116.897 187.383 116.781 187.083 116.781 186.716V184.616C116.781 184.283 116.847 184 116.981 183.766C117.147 183.5 117.314 183.283 117.481 183.116L126.431 174.366H112.131C111.764 174.366 111.464 174.25 111.231 174.016C111.031 173.783 110.931 173.5 110.931 173.166V169.866C110.931 169.5 111.031 169.2 111.231 168.966C111.464 168.733 111.764 168.616 112.131 168.616H133.581C133.947 168.616 134.247 168.733 134.481 168.966C134.714 169.2 134.831 169.5 134.831 169.866V172.866C134.831 173.166 134.764 173.433 134.631 173.666C134.497 173.9 134.347 174.1 134.181 174.266L125.531 183.166L126.131 183.216C128.164 183.383 129.964 183.85 131.531 184.616C133.131 185.35 134.364 186.433 135.231 187.866C136.131 189.3 136.581 191.1 136.581 193.266C136.581 195.533 135.981 197.483 134.781 199.116C133.614 200.716 131.997 201.95 129.931 202.816C127.864 203.683 125.497 204.116 122.831 204.116ZM155.225 204.116C152.358 204.116 149.891 203.583 147.825 202.516C145.758 201.416 144.158 199.95 143.025 198.116C141.891 196.25 141.325 194.166 141.325 191.866C141.325 190.833 141.458 189.833 141.725 188.866C141.991 187.9 142.341 186.983 142.775 186.116C143.208 185.25 143.625 184.483 144.025 183.816C144.458 183.116 144.841 182.566 145.175 182.166L154.325 169.616C154.458 169.45 154.658 169.25 154.925 169.016C155.191 168.75 155.558 168.616 156.025 168.616H160.675C160.975 168.616 161.225 168.733 161.425 168.966C161.625 169.166 161.725 169.416 161.725 169.716C161.725 169.85 161.691 169.983 161.625 170.116C161.591 170.216 161.541 170.3 161.475 170.366L154.475 180.066C154.775 179.966 155.125 179.9 155.525 179.866C155.925 179.833 156.291 179.816 156.625 179.816C158.291 179.85 159.875 180.183 161.375 180.816C162.875 181.416 164.191 182.25 165.325 183.316C166.458 184.383 167.341 185.633 167.975 187.066C168.641 188.5 168.975 190.066 168.975 191.766C168.975 193.966 168.425 196.016 167.325 197.916C166.225 199.783 164.641 201.283 162.575 202.416C160.541 203.55 158.091 204.116 155.225 204.116ZM155.175 198.366C156.375 198.366 157.475 198.116 158.475 197.616C159.508 197.116 160.341 196.383 160.975 195.416C161.608 194.45 161.925 193.25 161.925 191.816C161.925 190.416 161.608 189.233 160.975 188.266C160.341 187.3 159.508 186.566 158.475 186.066C157.475 185.566 156.375 185.316 155.175 185.316C153.975 185.316 152.858 185.566 151.825 186.066C150.825 186.566 150.008 187.3 149.375 188.266C148.741 189.233 148.425 190.416 148.425 191.816C148.425 193.25 148.741 194.45 149.375 195.416C150.008 196.383 150.825 197.116 151.825 197.616C152.858 198.116 153.975 198.366 155.175 198.366ZM187.522 204.116C185.156 204.116 183.139 203.766 181.472 203.066C179.806 202.366 178.439 201.4 177.372 200.166C176.306 198.933 175.506 197.516 174.972 195.916C174.439 194.283 174.122 192.55 174.022 190.716C173.989 189.816 173.956 188.833 173.922 187.766C173.922 186.666 173.922 185.566 173.922 184.466C173.956 183.366 173.989 182.35 174.022 181.416C174.089 179.583 174.406 177.866 174.972 176.266C175.539 174.633 176.356 173.216 177.422 172.016C178.522 170.816 179.906 169.866 181.572 169.166C183.239 168.466 185.222 168.116 187.522 168.116C189.856 168.116 191.856 168.466 193.522 169.166C195.189 169.866 196.556 170.816 197.622 172.016C198.722 173.216 199.539 174.633 200.072 176.266C200.639 177.866 200.956 179.583 201.022 181.416C201.089 182.35 201.122 183.366 201.122 184.466C201.122 185.566 201.122 186.666 201.122 187.766C201.122 188.833 201.089 189.816 201.022 190.716C200.956 192.55 200.656 194.283 200.122 195.916C199.589 197.516 198.789 198.933 197.722 200.166C196.656 201.4 195.272 202.366 193.572 203.066C191.906 203.766 189.889 204.116 187.522 204.116ZM187.522 198.366C189.689 198.366 191.272 197.666 192.272 196.266C193.306 194.833 193.839 192.9 193.872 190.466C193.939 189.5 193.972 188.533 193.972 187.566C193.972 186.566 193.972 185.566 193.972 184.566C193.972 183.566 193.939 182.616 193.872 181.716C193.839 179.35 193.306 177.45 192.272 176.016C191.272 174.55 189.689 173.816 187.522 173.816C185.389 173.816 183.806 174.55 182.772 176.016C181.772 177.45 181.239 179.35 181.172 181.716C181.172 182.616 181.156 183.566 181.122 184.566C181.122 185.566 181.122 186.566 181.122 187.566C181.156 188.533 181.172 189.5 181.172 190.466C181.239 192.9 181.789 194.833 182.822 196.266C183.856 197.666 185.422 198.366 187.522 198.366ZM214.484 183.666C213.017 183.666 211.667 183.333 210.434 182.666C209.234 181.966 208.267 181.033 207.534 179.866C206.8 178.666 206.434 177.333 206.434 175.866C206.434 174.4 206.8 173.083 207.534 171.916C208.267 170.75 209.234 169.833 210.434 169.166C211.667 168.466 213.017 168.116 214.484 168.116C215.95 168.116 217.284 168.466 218.484 169.166C219.684 169.833 220.65 170.75 221.384 171.916C222.117 173.083 222.484 174.4 222.484 175.866C222.484 177.333 222.117 178.666 221.384 179.866C220.65 181.033 219.684 181.966 218.484 182.666C217.284 183.333 215.95 183.666 214.484 183.666ZM214.484 179.666C215.617 179.666 216.534 179.316 217.234 178.616C217.934 177.916 218.284 177 218.284 175.866C218.284 174.733 217.934 173.816 217.234 173.116C216.534 172.416 215.617 172.066 214.484 172.066C213.35 172.066 212.434 172.416 211.734 173.116C211.034 173.816 210.684 174.733 210.684 175.866C210.684 177 211.034 177.916 211.734 178.616C212.434 179.316 213.35 179.666 214.484 179.666Z" fill="#F5F5F5"/>
</g>
</svg>
