<svg width="269" height="35" viewBox="0 0 269 35" fill="none" xmlns="http://www.w3.org/2000/svg">
<path d="M5.5 35H1.41561e-07V-2.38419e-06H5.5V15H11.75V-2.38419e-06H17.35V35H11.75V20H5.5V35ZM39.6379 35H34.0879L33.1379 28.65H26.3879L25.4379 35H20.3879L25.9879 -2.38419e-06H34.0379L39.6379 35ZM27.0879 23.9H32.3879L29.7379 6.2L27.0879 23.9ZM42.6992 35V-2.38419e-06H48.1992V30H52.9492V-2.38419e-06H58.4492V30H63.1992V-2.38419e-06H68.6992V35H42.6992ZM78.8297 35H73.1797V-2.38419e-06H78.0797V22.15L80.0797 14.45L84.5797 -2.38419e-06H90.6297V35H85.6797V10.35L83.4297 18.95L78.8297 35ZM108.781 35H103.281V-2.38419e-06H120.631V35H115.031V5H108.781V35ZM142.919 35H137.369L136.419 28.65H129.669L128.719 35H123.669L129.269 -2.38419e-06H137.319L142.919 35ZM130.369 23.9H135.669L133.019 6.2L130.369 23.9ZM154.08 -2.38419e-06C156.847 -2.38419e-06 158.897 0.733331 160.23 2.2C161.597 3.66666 162.28 5.81666 162.28 8.65V13.2C162.28 16.0333 161.597 18.1833 160.23 19.65C158.897 21.1167 156.847 21.85 154.08 21.85H151.48V35H145.98V-2.38419e-06H154.08ZM151.48 5V16.85H154.08C154.947 16.85 155.614 16.6167 156.08 16.15C156.547 15.6833 156.78 14.8167 156.78 13.55V8.3C156.78 7.03333 156.547 6.16667 156.08 5.7C155.614 5.23333 154.947 5 154.08 5H151.48ZM163.728 -2.38419e-06H180.728V5H174.978V35H169.478V5H163.728V-2.38419e-06ZM189.15 35H183.65V-2.38419e-06H189.15V15H195.4V-2.38419e-06H201V35H195.4V20H189.15V35ZM210.988 14.75H218.538V19.75H210.988V30H220.488V35H205.488V-2.38419e-06H220.488V5H210.988V14.75ZM232.496 -2.38419e-06C235.263 -2.38419e-06 237.313 0.733331 238.646 2.2C240.013 3.66666 240.696 5.81666 240.696 8.65V13.2C240.696 16.0333 240.013 18.1833 238.646 19.65C237.313 21.1167 235.263 21.85 232.496 21.85H229.896V35H224.396V-2.38419e-06H232.496ZM229.896 5V16.85H232.496C233.363 16.85 234.03 16.6167 234.496 16.15C234.963 15.6833 235.196 14.8167 235.196 13.55V8.3C235.196 7.03333 234.963 6.16667 234.496 5.7C234.03 5.23333 233.363 5 232.496 5H229.896ZM243.744 35V-2.38419e-06H249.244V13.15H251.844C254.611 13.15 256.661 13.8833 257.994 15.35C259.361 16.8167 260.044 18.9667 260.044 21.8V26.35C260.044 29.1833 259.361 31.3333 257.994 32.8C256.661 34.2667 254.611 35 251.844 35H243.744ZM251.844 30C252.711 30 253.377 29.7667 253.844 29.3C254.311 28.8333 254.544 27.9667 254.544 26.7V21.45C254.544 20.1833 254.311 19.3167 253.844 18.85C253.377 18.3833 252.711 18.15 251.844 18.15H249.244V30H251.844ZM263.194 35V-2.38419e-06H268.694V35H263.194Z" fill="#EFEFEF"/>
</svg>
