<svg width="262" height="90" viewBox="0 0 262 90" fill="none" xmlns="http://www.w3.org/2000/svg">
<path d="M19.8 35H14.25L13.3 28.65H6.55L5.6 35H0.55L6.15 -2.38419e-06H14.2L19.8 35ZM7.25 23.9H12.55L9.9 6.2L7.25 23.9ZM30.9613 -2.38419e-06C33.728 -2.38419e-06 35.778 0.733331 37.1113 2.2C38.478 3.66666 39.1613 5.81666 39.1613 8.65V13.2C39.1613 16.0333 38.478 18.1833 37.1113 19.65C35.778 21.1167 33.728 21.85 30.9613 21.85H28.3613V35H22.8613V-2.38419e-06H30.9613ZM28.3613 5V16.85H30.9613C31.828 16.85 32.4947 16.6167 32.9613 16.15C33.428 15.6833 33.6613 14.8167 33.6613 13.55V8.3C33.6613 7.03333 33.428 6.16667 32.9613 5.7C32.4947 5.23333 31.828 5 30.9613 5H28.3613ZM60.559 -2.38419e-06L54.809 17L60.959 35H55.159L50.659 21.15L46.109 35H40.959L47.109 17L41.359 -2.38419e-06H47.059L51.209 12.9L55.459 -2.38419e-06H60.559ZM69.8434 35H64.1934V-2.38419e-06H69.0934V22.15L71.0934 14.45L75.5934 -2.38419e-06H81.6434V35H76.6934V10.35L74.4434 18.95L69.8434 35ZM84.4313 -2.38419e-06H101.431V5H95.6813V35H90.1813V5H84.4313V-2.38419e-06ZM109.854 14.75H117.404V19.75H109.854V30H119.354V35H104.354V-2.38419e-06H119.354V5H109.854V14.75ZM130.462 21.05L128.762 24.25V35H123.262V-2.38419e-06H128.762V15.25L135.962 -2.38419e-06H141.462L133.812 15.6L141.462 35H135.812L130.462 21.05ZM142.865 -2.38419e-06H159.865V5H154.115V35H148.615V5H142.865V-2.38419e-06ZM174.987 26.1C174.654 27.6667 174.237 29.05 173.737 30.25C173.27 31.4167 172.62 32.3833 171.787 33.15C170.987 33.8833 169.937 34.4167 168.637 34.75C167.37 35.0833 165.787 35.1833 163.887 35.05V30.15C165.287 30.25 166.387 30.1167 167.187 29.75C167.987 29.3833 168.504 28.5667 168.737 27.3L168.787 27L161.187 -2.38419e-06H166.637L169.637 11.95L171.337 20.15L172.637 12L175.137 -2.38419e-06H180.887L174.987 26.1ZM191.797 -2.38419e-06C194.564 -2.38419e-06 196.614 0.733331 197.947 2.2C199.314 3.66666 199.997 5.81666 199.997 8.65V13.2C199.997 16.0333 199.314 18.1833 197.947 19.65C196.614 21.1167 194.564 21.85 191.797 21.85H189.197V35H183.697V-2.38419e-06H191.797ZM189.197 5V16.85H191.797C192.664 16.85 193.331 16.6167 193.797 16.15C194.264 15.6833 194.497 14.8167 194.497 13.55V8.3C194.497 7.03333 194.264 6.16667 193.797 5.7C193.331 5.23333 192.664 5 191.797 5H189.197ZM208.545 35H203.045V-2.38419e-06H208.545V15H214.795V-2.38419e-06H220.395V35H214.795V20H208.545V35ZM242.683 35H237.133L236.183 28.65H229.433L228.483 35H223.433L229.033 -2.38419e-06H237.083L242.683 35ZM230.133 23.9H235.433L232.783 6.2L230.133 23.9ZM244.744 35C245.011 34.3333 245.177 33.6833 245.244 33.05C245.311 32.3833 245.344 31.6167 245.344 30.75V25.35C245.344 23.5167 245.594 21.9667 246.094 20.7C246.627 19.4 247.594 18.4667 248.994 17.9C246.594 16.7667 245.394 14.4 245.394 10.8V8.05C245.394 5.35 246.027 3.33333 247.294 2C248.594 0.666665 250.677 -2.38419e-06 253.544 -2.38419e-06H261.844V35H256.344V20.75H254.444C253.177 20.75 252.261 21.0833 251.694 21.75C251.127 22.4167 250.844 23.5667 250.844 25.2V30.7C250.844 31.4 250.827 31.9833 250.794 32.45C250.794 32.9167 250.761 33.3 250.694 33.6C250.661 33.9 250.611 34.15 250.544 34.35C250.477 34.55 250.411 34.7667 250.344 35H244.744ZM253.694 5C252.727 5 252.011 5.28333 251.544 5.85C251.111 6.41667 250.894 7.33333 250.894 8.6V12.05C250.894 13.45 251.177 14.4167 251.744 14.95C252.344 15.4833 253.161 15.75 254.194 15.75H256.344V5H253.694ZM10.3 50C13.1667 50 15.2333 50.6667 16.5 52C17.8 53.3333 18.45 55.35 18.45 58.05V59.3C18.45 61.1 18.1667 62.5833 17.6 63.75C17.0333 64.9167 16.1333 65.7833 14.9 66.35C16.4 66.9167 17.45 67.85 18.05 69.15C18.6833 70.4167 19 71.9833 19 73.85V76.7C19 79.4 18.3 81.4667 16.9 82.9C15.5 84.3 13.4167 85 10.65 85H2V50H10.3ZM7.5 69.25V80H10.65C11.5833 80 12.2833 79.75 12.75 79.25C13.25 78.75 13.5 77.85 13.5 76.55V73.5C13.5 71.8667 13.2167 70.75 12.65 70.15C12.1167 69.55 11.2167 69.25 9.95 69.25H7.5ZM7.5 55V64.25H9.65C10.6833 64.25 11.4833 63.9833 12.05 63.45C12.65 62.9167 12.95 61.95 12.95 60.55V58.6C12.95 57.3333 12.7167 56.4167 12.25 55.85C11.8167 55.2833 11.1167 55 10.15 55H7.5ZM28.4625 85H22.8125V50H27.7125V72.15L29.7125 64.45L34.2125 50H40.2625V85H35.3125V60.35L33.0625 68.95L28.4625 85ZM55.2504 58.6C55.2504 57.0333 54.9837 55.9833 54.4504 55.45C53.9504 54.8833 53.2671 54.6 52.4004 54.6C51.5337 54.6 50.8337 54.8667 50.3004 55.4C49.7671 55.9 49.5004 56.7833 49.5004 58.05V60.9H44.4504V58.3C44.4504 55.4667 45.1171 53.3167 46.4504 51.85C47.8171 50.35 49.8504 49.6 52.5504 49.6C55.2504 49.6 57.2837 50.3667 58.6504 51.9C60.0504 53.4 60.7504 55.5667 60.7504 58.4V59.3C60.7504 63.0333 59.4671 65.4333 56.9004 66.5C58.3004 67.1 59.2837 68.0333 59.8504 69.3C60.4504 70.5333 60.7504 72.05 60.7504 73.85V76.6C60.7504 79.4333 60.0504 81.6167 58.6504 83.15C57.2837 84.65 55.2504 85.4 52.5504 85.4C49.8504 85.4 47.8004 84.65 46.4004 83.15C45.0337 81.6167 44.3504 79.4333 44.3504 76.6V72.75H49.5504V76.95C49.5504 78.2167 49.8004 79.1167 50.3004 79.65C50.8337 80.15 51.5337 80.4 52.4004 80.4C53.2671 80.4 53.9504 80.1333 54.4504 79.6C54.9837 79.0667 55.2504 78.0167 55.2504 76.45V73.7C55.2504 72.0667 54.9671 70.9167 54.4004 70.25C53.8337 69.5833 52.9171 69.25 51.6504 69.25H50.3004V64.25H51.9504C52.9837 64.25 53.7837 63.9833 54.3504 63.45C54.9504 62.9167 55.2504 61.95 55.2504 60.55V58.6ZM77.1746 76.1C76.8413 77.6667 76.4246 79.05 75.9246 80.25C75.4579 81.4167 74.8079 82.3833 73.9746 83.15C73.1746 83.8833 72.1246 84.4167 70.8246 84.75C69.5579 85.0833 67.9746 85.1833 66.0746 85.05V80.15C67.4746 80.25 68.5746 80.1167 69.3746 79.75C70.1746 79.3833 70.6913 78.5667 70.9246 77.3L70.9746 77L63.3746 50H68.8246L71.8246 61.95L73.5246 70.15L74.8246 62L77.3246 50H83.0746L77.1746 76.1ZM103.685 85H98.1348L97.1848 78.65H90.4348L89.4848 85H84.4348L90.0348 50H98.0848L103.685 85ZM91.1348 73.9H96.4348L93.7848 56.2L91.1348 73.9ZM105.196 80.05C105.829 80.05 106.346 80.0167 106.746 79.95C107.179 79.8833 107.529 79.7333 107.796 79.5C108.063 79.2333 108.246 78.8667 108.346 78.4C108.479 77.9 108.563 77.25 108.596 76.45L109.496 50H125.046V85H119.446V55H114.646L114.046 76.15C113.946 79.35 113.263 81.6333 111.996 83C110.763 84.3667 108.779 85.05 106.046 85.05H105.196V80.05ZM135.406 85H129.756V50H134.656V72.15L136.656 64.45L141.156 50H147.206V85H142.256V60.35L140.006 68.95L135.406 85ZM162.194 58.6C162.194 57.0333 161.927 55.9833 161.394 55.45C160.894 54.8833 160.21 54.6 159.344 54.6C158.477 54.6 157.777 54.8667 157.244 55.4C156.71 55.9 156.444 56.7833 156.444 58.05V60.9H151.394V58.3C151.394 55.4667 152.06 53.3167 153.394 51.85C154.76 50.35 156.794 49.6 159.494 49.6C162.194 49.6 164.227 50.3667 165.594 51.9C166.994 53.4 167.694 55.5667 167.694 58.4V59.3C167.694 63.0333 166.41 65.4333 163.844 66.5C165.244 67.1 166.227 68.0333 166.794 69.3C167.394 70.5333 167.694 72.05 167.694 73.85V76.6C167.694 79.4333 166.994 81.6167 165.594 83.15C164.227 84.65 162.194 85.4 159.494 85.4C156.794 85.4 154.744 84.65 153.344 83.15C151.977 81.6167 151.294 79.4333 151.294 76.6V72.75H156.494V76.95C156.494 78.2167 156.744 79.1167 157.244 79.65C157.777 80.15 158.477 80.4 159.344 80.4C160.21 80.4 160.894 80.1333 161.394 79.6C161.927 79.0667 162.194 78.0167 162.194 76.45V73.7C162.194 72.0667 161.91 70.9167 161.344 70.25C160.777 69.5833 159.86 69.25 158.594 69.25H157.244V64.25H158.894C159.927 64.25 160.727 63.9833 161.294 63.45C161.894 62.9167 162.194 61.95 162.194 60.55V58.6ZM189.718 85H184.168L183.218 78.65H176.468L175.518 85H170.468L176.068 50H184.118L189.718 85ZM177.168 73.9H182.468L179.818 56.2L177.168 73.9ZM192.779 50H198.279V80H204.529V50H210.129V80.1H212.529V89.7H207.179V85H192.779V50ZM221.683 85H216.033V50H220.933V72.15L222.933 64.45L227.433 50H233.483V85H228.533V60.35L226.283 68.95L221.683 85ZM236.871 85C237.138 84.3333 237.304 83.6833 237.371 83.05C237.438 82.3833 237.471 81.6167 237.471 80.75V75.35C237.471 73.5167 237.721 71.9667 238.221 70.7C238.754 69.4 239.721 68.4667 241.121 67.9C238.721 66.7667 237.521 64.4 237.521 60.8V58.05C237.521 55.35 238.154 53.3333 239.421 52C240.721 50.6667 242.804 50 245.671 50H253.971V85H248.471V70.75H246.571C245.304 70.75 244.388 71.0833 243.821 71.75C243.254 72.4167 242.971 73.5667 242.971 75.2V80.7C242.971 81.4 242.954 81.9833 242.921 82.45C242.921 82.9167 242.888 83.3 242.821 83.6C242.788 83.9 242.738 84.15 242.671 84.35C242.604 84.55 242.538 84.7667 242.471 85H236.871ZM245.821 55C244.854 55 244.138 55.2833 243.671 55.85C243.238 56.4167 243.021 57.3333 243.021 58.6V62.05C243.021 63.45 243.304 64.4167 243.871 64.95C244.471 65.4833 245.288 65.75 246.321 65.75H248.471V55H245.821Z" fill="#EFEFEF"/>
</svg>
