<svg width="426" height="87" viewBox="0 0 426 87" fill="none" xmlns="http://www.w3.org/2000/svg">
<path d="M0.00195312 36V0.990234H8.30273C11.1185 0.990234 13.1774 1.64941 14.4795 2.96777C15.7979 4.28613 16.457 6.3125 16.457 9.04688V10.292C16.457 13.8727 15.2689 16.2246 12.8926 17.3477C15.627 18.4056 16.9941 20.904 16.9941 24.8428V27.6992C16.9941 30.401 16.2861 32.46 14.8701 33.876C13.4541 35.292 11.3789 36 8.64453 36H0.00195312ZM5.49512 30.9951H8.64453C9.60482 30.9951 10.321 30.7347 10.793 30.2139C11.265 29.693 11.501 28.806 11.501 27.5527V24.501C11.501 22.9059 11.2243 21.7992 10.6709 21.1807C10.1338 20.5622 9.23047 20.2529 7.96094 20.2529H5.49512V30.9951ZM5.49512 15.248H7.64355C8.73405 15.248 9.55599 14.9714 10.1094 14.418C10.6628 13.8483 10.9395 12.8962 10.9395 11.5615V9.6084C10.9395 8.35514 10.7197 7.44368 10.2803 6.87402C9.84082 6.28809 9.13281 5.99512 8.15625 5.99512H5.49512V15.248ZM20.8145 36V0.990234H25.7217V23.1582L27.7236 15.4434L32.2158 0.990234H38.2705V36H33.3145V11.3418L31.0684 19.96L26.4541 36H20.8145ZM42.3594 27.6016V23.7441H47.5596V27.9434C47.5596 30.2546 48.5036 31.4102 50.3916 31.4102C51.3356 31.4102 52.0436 31.1172 52.5156 30.5312C53.0039 29.9453 53.248 28.9199 53.248 27.4551V24.6963C53.248 23.1012 52.9632 21.9619 52.3936 21.2783C51.8402 20.5947 50.9287 20.2529 49.6592 20.2529H48.292V15.248H49.9521C51.0426 15.248 51.8646 14.9714 52.418 14.418C52.9714 13.8483 53.248 12.8962 53.248 11.5615V9.6084C53.248 8.111 53.0039 7.06934 52.5156 6.4834C52.0436 5.89746 51.3356 5.60449 50.3916 5.60449C48.471 5.60449 47.5107 6.75195 47.5107 9.04688V11.9033H42.457V9.29102C42.457 6.47526 43.1406 4.32682 44.5078 2.8457C45.875 1.34831 47.8932 0.599609 50.5625 0.599609C53.2318 0.599609 55.2581 1.36458 56.6416 2.89453C58.0413 4.4082 58.7412 6.57292 58.7412 9.38867V10.292C58.7412 14.0355 57.4635 16.4362 54.9082 17.4941C57.4635 18.6009 58.7412 21.0505 58.7412 24.8428V27.6016C58.7412 30.4173 58.0413 32.5902 56.6416 34.1201C55.2581 35.6338 53.2318 36.3906 50.5625 36.3906C47.8932 36.3906 45.8587 35.6338 44.459 34.1201C43.0592 32.5902 42.3594 30.4173 42.3594 27.6016ZM61.3652 0.990234H66.834L69.8125 12.9531L71.5215 21.1562L72.8154 13.002L75.3301 0.990234H81.0674L75.1836 27.0889C74.9069 28.4235 74.5977 29.5628 74.2559 30.5068C73.9141 31.4346 73.4665 32.2972 72.9131 33.0947C72.3597 33.876 71.6924 34.4863 70.9111 34.9258C70.1299 35.3652 69.1696 35.6908 68.0303 35.9023C66.9072 36.0977 65.5889 36.1465 64.0752 36.0488V31.1416C65.5726 31.2393 66.7038 31.0928 67.4688 30.7021C68.2337 30.3115 68.722 29.514 68.9336 28.3096L68.9824 27.9922L61.3652 0.990234ZM82.4463 36L88.0371 0.990234H96.0938L101.685 36H96.1426L95.1904 29.6523H88.4277L87.4756 36H82.4463ZM89.1357 24.8916H94.4336L91.7969 7.19141L89.1357 24.8916ZM103.186 36.0488V31.0439C103.869 31.0439 104.398 31.0114 104.772 30.9463C105.147 30.8812 105.48 30.7266 105.773 30.4824C106.066 30.222 106.27 29.8558 106.384 29.3838C106.498 28.9118 106.571 28.2689 106.604 27.4551L107.507 0.990234H123.034V36H117.443V5.99512H112.658L112.048 27.1621C111.95 30.3522 111.275 32.6309 110.021 33.998C108.785 35.3652 106.791 36.0488 104.04 36.0488H103.186ZM127.758 36V0.990234H132.665V23.1582L134.667 15.4434L139.159 0.990234H145.214V36H140.258V11.3418L138.012 19.96L133.397 36H127.758ZM149.303 27.6016V23.7441H154.503V27.9434C154.503 30.2546 155.447 31.4102 157.335 31.4102C158.279 31.4102 158.987 31.1172 159.459 30.5312C159.947 29.9453 160.191 28.9199 160.191 27.4551V24.6963C160.191 23.1012 159.907 21.9619 159.337 21.2783C158.784 20.5947 157.872 20.2529 156.603 20.2529H155.235V15.248H156.896C157.986 15.248 158.808 14.9714 159.361 14.418C159.915 13.8483 160.191 12.8962 160.191 11.5615V9.6084C160.191 8.111 159.947 7.06934 159.459 6.4834C158.987 5.89746 158.279 5.60449 157.335 5.60449C155.414 5.60449 154.454 6.75195 154.454 9.04688V11.9033H149.4V9.29102C149.4 6.47526 150.084 4.32682 151.451 2.8457C152.818 1.34831 154.837 0.599609 157.506 0.599609C160.175 0.599609 162.201 1.36458 163.585 2.89453C164.985 4.4082 165.685 6.57292 165.685 9.38867V10.292C165.685 14.0355 164.407 16.4362 161.852 17.4941C164.407 18.6009 165.685 21.0505 165.685 24.8428V27.6016C165.685 30.4173 164.985 32.5902 163.585 34.1201C162.201 35.6338 160.175 36.3906 157.506 36.3906C154.837 36.3906 152.802 35.6338 151.402 34.1201C150.003 32.5902 149.303 30.4173 149.303 27.6016ZM168.479 36L174.07 0.990234H182.127L187.718 36H182.176L181.224 29.6523H174.461L173.509 36H168.479ZM175.169 24.8916H180.467L177.83 7.19141L175.169 24.8916ZM190.781 36V0.990234H196.274V30.9951H202.524V0.990234H208.14V31.0928H210.532V40.7119H205.186V36H190.781ZM214.035 36V0.990234H218.942V23.1582L220.944 15.4434L225.437 0.990234H231.491V36H226.535V11.3418L224.289 19.96L219.675 36H214.035ZM234.872 36C235.279 35.056 235.482 33.64 235.482 31.752V26.3564C235.482 24.4196 235.759 22.8327 236.312 21.5957C236.866 20.3587 237.802 19.4635 239.12 18.9102C236.728 17.7871 235.531 15.4189 235.531 11.8057V9.04688C235.531 6.3125 236.182 4.28613 237.484 2.96777C238.786 1.64941 240.845 0.990234 243.661 0.990234H251.962V36H246.469V21.7422H244.564C243.311 21.7422 242.4 22.084 241.83 22.7676C241.26 23.4512 240.976 24.5986 240.976 26.21V31.7031C240.976 32.5983 240.943 33.3389 240.878 33.9248C240.829 34.4945 240.78 34.8851 240.731 35.0967C240.683 35.292 240.593 35.5931 240.463 36H234.872ZM241.024 13.0508C241.024 14.4017 241.301 15.362 241.854 15.9316C242.408 16.485 243.23 16.7617 244.32 16.7617H246.469V5.99512H243.832C242.855 5.99512 242.139 6.28809 241.684 6.87402C241.244 7.44368 241.024 8.35514 241.024 9.6084V13.0508ZM0.00195312 86V50.9902H5.49512V66.249L12.6973 50.9902H18.1904L10.5488 66.5908L18.1904 86H12.5508L7.2041 72.0596L5.49512 75.2578V86H0.00195312ZM20.7412 77.6016V59.3887C20.7412 56.5892 21.4655 54.4245 22.9141 52.8945C24.3626 51.3646 26.4297 50.5996 29.1152 50.5996C31.8008 50.5996 33.8597 51.3646 35.292 52.8945C36.7406 54.4245 37.4648 56.5892 37.4648 59.3887V77.6016C37.4648 80.401 36.7406 82.5658 35.292 84.0957C33.8597 85.6257 31.8008 86.3906 29.1152 86.3906C26.4297 86.3906 24.3626 85.6257 22.9141 84.0957C21.4655 82.5658 20.7412 80.401 20.7412 77.6016ZM26.2588 77.9434C26.2588 80.2546 27.2109 81.4102 29.1152 81.4102C31.0033 81.4102 31.9473 80.2546 31.9473 77.9434V59.0469C31.9473 56.752 31.0033 55.6045 29.1152 55.6045C27.2109 55.6045 26.2588 56.752 26.2588 59.0469V77.9434ZM41.4805 86V50.9902H49.1221L53.1748 75.8438L56.9346 50.9902H64.5762V86H59.376V60.9023L55.5674 86H50.3672L46.2656 61.2441V86H41.4805ZM69.0801 86V50.9902H86.4385V86H80.8232V55.9951H74.5732V86H69.0801ZM89.3555 86.0488V81.0439C90.0391 81.0439 90.568 81.0114 90.9424 80.9463C91.3167 80.8812 91.6504 80.7266 91.9434 80.4824C92.2363 80.222 92.4398 79.8558 92.5537 79.3838C92.6676 78.9118 92.7409 78.2689 92.7734 77.4551L93.6768 50.9902H109.204V86H103.613V55.9951H98.8281L98.2178 77.1621C98.1201 80.3522 97.4447 82.6309 96.1914 83.998C94.9544 85.3652 92.9606 86.0488 90.21 86.0488H89.3555ZM113.928 86V50.9902H128.918V55.9951H119.421V65.7607H126.965V70.7412H119.421V80.9951H128.918V86H113.928ZM132.836 86V50.9902H138.329V66.249L145.531 50.9902H151.024L143.383 66.5908L151.024 86H145.385L140.038 72.0596L138.329 75.2578V86H132.836ZM153.575 77.6016V59.3887C153.575 56.5729 154.275 54.4082 155.675 52.8945C157.075 51.3646 159.109 50.5996 161.778 50.5996C164.448 50.5996 166.482 51.3646 167.882 52.8945C169.282 54.4082 169.981 56.5729 169.981 59.3887V62.8066H164.781V59.0469C164.781 56.752 163.837 55.6045 161.949 55.6045C160.045 55.6045 159.093 56.752 159.093 59.0469V77.9434C159.093 80.222 160.045 81.3613 161.949 81.3613C163.837 81.3613 164.781 80.222 164.781 77.9434V72.9385H169.981V77.6016C169.981 80.4173 169.282 82.5902 167.882 84.1201C166.482 85.6338 164.448 86.3906 161.778 86.3906C159.109 86.3906 157.075 85.6338 155.675 84.1201C154.275 82.5902 153.575 80.4173 153.575 77.6016ZM173.826 86V50.9902H179.319V66.0049H185.569V50.9902H191.185V86H185.569V71.0098H179.319V86H173.826ZM195.2 77.6016V59.3887C195.2 56.5892 195.924 54.4245 197.373 52.8945C198.822 51.3646 200.889 50.5996 203.574 50.5996C206.26 50.5996 208.319 51.3646 209.751 52.8945C211.2 54.4245 211.924 56.5892 211.924 59.3887V77.6016C211.924 80.401 211.2 82.5658 209.751 84.0957C208.319 85.6257 206.26 86.3906 203.574 86.3906C200.889 86.3906 198.822 85.6257 197.373 84.0957C195.924 82.5658 195.2 80.401 195.2 77.6016ZM200.718 77.9434C200.718 80.2546 201.67 81.4102 203.574 81.4102C205.462 81.4102 206.406 80.2546 206.406 77.9434V59.0469C206.406 56.752 205.462 55.6045 203.574 55.6045C201.67 55.6045 200.718 56.752 200.718 59.0469V77.9434ZM215.988 86H221.628L226.242 69.96L228.488 61.3418V86H233.444V50.9902H227.39L222.897 65.4434L220.896 73.1582V50.9902H215.988V86ZM219.04 43.2021H222.434C222.499 44.0811 222.71 44.6833 223.068 45.0088C223.443 45.3343 224.012 45.4971 224.777 45.4971C225.575 45.4971 226.177 45.3343 226.584 45.0088C226.991 44.6833 227.227 44.0811 227.292 43.2021H230.637C230.637 44.9437 230.14 46.3027 229.147 47.2793C228.155 48.2559 226.698 48.7441 224.777 48.7441C222.906 48.7441 221.49 48.264 220.529 47.3037C219.585 46.3271 219.089 44.96 219.04 43.2021ZM245.895 77.6016V73.7441H251.095V77.9434C251.095 80.2546 252.039 81.4102 253.927 81.4102C254.871 81.4102 255.579 81.1172 256.051 80.5312C256.539 79.9453 256.783 78.9199 256.783 77.4551V74.6963C256.783 73.1012 256.498 71.9619 255.929 71.2783C255.375 70.5947 254.464 70.2529 253.194 70.2529H251.827V65.248H253.487C254.578 65.248 255.4 64.9714 255.953 64.418C256.507 63.8483 256.783 62.8962 256.783 61.5615V59.6084C256.783 58.111 256.539 57.0693 256.051 56.4834C255.579 55.8975 254.871 55.6045 253.927 55.6045C252.006 55.6045 251.046 56.752 251.046 59.0469V61.9033H245.992V59.291C245.992 56.4753 246.676 54.3268 248.043 52.8457C249.41 51.3483 251.428 50.5996 254.098 50.5996C256.767 50.5996 258.793 51.3646 260.177 52.8945C261.576 54.4082 262.276 56.5729 262.276 59.3887V60.292C262.276 64.0355 260.999 66.4362 258.443 67.4941C260.999 68.6009 262.276 71.0505 262.276 74.8428V77.6016C262.276 80.4173 261.576 82.5902 260.177 84.1201C258.793 85.6338 256.767 86.3906 254.098 86.3906C251.428 86.3906 249.394 85.6338 247.994 84.1201C246.594 82.5902 245.895 80.4173 245.895 77.6016ZM265.071 86L270.662 50.9902H278.719L284.31 86H278.768L277.815 79.6523H271.053L270.101 86H265.071ZM271.761 74.8916H277.059L274.422 57.1914L271.761 74.8916ZM286.909 77.6016V59.3887C286.909 56.5729 287.609 54.4082 289.009 52.8945C290.409 51.3646 292.443 50.5996 295.112 50.5996C297.782 50.5996 299.816 51.3646 301.216 52.8945C302.616 54.4082 303.315 56.5729 303.315 59.3887V62.8066H298.115V59.0469C298.115 56.752 297.171 55.6045 295.283 55.6045C293.379 55.6045 292.427 56.752 292.427 59.0469V77.9434C292.427 80.222 293.379 81.3613 295.283 81.3613C297.171 81.3613 298.115 80.222 298.115 77.9434V72.9385H303.315V77.6016C303.315 80.4173 302.616 82.5902 301.216 84.1201C299.816 85.6338 297.782 86.3906 295.112 86.3906C292.443 86.3906 290.409 85.6338 289.009 84.1201C287.609 82.5902 286.909 80.4173 286.909 77.6016ZM305.549 55.9951V50.9902H322.565V55.9951H316.804V86H311.311V55.9951H305.549ZM325.482 86V50.9902H333.588C336.306 50.9902 338.349 51.7308 339.716 53.2119C341.099 54.693 341.791 56.8415 341.791 59.6572V64.1982C341.791 67.014 341.099 69.1624 339.716 70.6436C338.349 72.1084 336.306 72.8408 333.588 72.8408H330.976V86H325.482ZM330.976 67.8604H333.588C334.499 67.8604 335.175 67.6081 335.614 67.1035C336.054 66.599 336.273 65.7445 336.273 64.54V59.291C336.273 58.0866 336.054 57.2402 335.614 56.752C335.175 56.2474 334.499 55.9951 333.588 55.9951H330.976V67.8604ZM344.366 77.6016V59.3887C344.366 56.5892 345.09 54.4245 346.539 52.8945C347.988 51.3646 350.055 50.5996 352.74 50.5996C355.426 50.5996 357.485 51.3646 358.917 52.8945C360.366 54.4245 361.09 56.5892 361.09 59.3887V77.6016C361.09 80.401 360.366 82.5658 358.917 84.0957C357.485 85.6257 355.426 86.3906 352.74 86.3906C350.055 86.3906 347.988 85.6257 346.539 84.0957C345.09 82.5658 344.366 80.401 344.366 77.6016ZM349.884 77.9434C349.884 80.2546 350.836 81.4102 352.74 81.4102C354.628 81.4102 355.572 80.2546 355.572 77.9434V59.0469C355.572 56.752 354.628 55.6045 352.74 55.6045C350.836 55.6045 349.884 56.752 349.884 59.0469V77.9434ZM365.154 86H370.794L375.408 69.96L377.654 61.3418V86H382.61V50.9902H376.556L372.063 65.4434L370.062 73.1582V50.9902H365.154V86ZM368.206 43.2021H371.6C371.665 44.0811 371.876 44.6833 372.234 45.0088C372.609 45.3343 373.178 45.4971 373.943 45.4971C374.741 45.4971 375.343 45.3343 375.75 45.0088C376.157 44.6833 376.393 44.0811 376.458 43.2021H379.803C379.803 44.9437 379.306 46.3027 378.313 47.2793C377.321 48.2559 375.864 48.7441 373.943 48.7441C372.072 48.7441 370.656 48.264 369.695 47.3037C368.751 46.3271 368.255 44.96 368.206 43.2021ZM387.09 86V50.9902H392.583V66.249L399.785 50.9902H405.278L397.637 66.5908L405.278 86H399.639L394.292 72.0596L392.583 75.2578V86H387.09ZM408.293 86V50.9902H413.2V73.1582L415.202 65.4434L419.694 50.9902H425.749V86H420.793V61.3418L418.547 69.96L413.933 86H408.293Z" fill="#EFEFEF"/>
</svg>
