<svg width="524" height="91" viewBox="0 0 524 91" fill="none" xmlns="http://www.w3.org/2000/svg">
<path d="M17.9 40.7V36H6.15V40.7H0.8V31.1H2.95C3.41667 30.5 3.73333 29.85 3.9 29.15C4.1 28.45 4.23333 27.5833 4.3 26.55L5.55 0.999998H20.95V31.1H23.35V40.7H17.9ZM9.7 26.45C9.63333 27.7833 9.46667 28.7833 9.2 29.45C8.96667 30.1167 8.61667 30.6667 8.15 31.1H15.35V6H10.7L9.7 26.45ZM31.9641 27.95C31.9641 29.2167 32.2141 30.1167 32.7141 30.65C33.2474 31.15 33.9474 31.4 34.8141 31.4C35.6807 31.4 36.3641 31.15 36.8641 30.65C37.3974 30.1167 37.6641 29.2167 37.6641 27.95V9.05C37.6641 7.78333 37.3974 6.9 36.8641 6.4C36.3641 5.86667 35.6807 5.6 34.8141 5.6C33.9474 5.6 33.2474 5.86667 32.7141 6.4C32.2141 6.9 31.9641 7.78333 31.9641 9.05V27.95ZM26.4641 9.4C26.4641 6.56667 27.1807 4.4 28.6141 2.9C30.0474 1.36667 32.1141 0.6 34.8141 0.6C37.5141 0.6 39.5807 1.36667 41.0141 2.9C42.4474 4.4 43.1641 6.56667 43.1641 9.4V27.6C43.1641 30.4333 42.4474 32.6167 41.0141 34.15C39.5807 35.65 37.5141 36.4 34.8141 36.4C32.1141 36.4 30.0474 35.65 28.6141 34.15C27.1807 32.6167 26.4641 30.4333 26.4641 27.6V9.4ZM52.7383 36H47.2383V0.999998H64.5883V36H58.9883V6H52.7383V36ZM74.1262 27.95C74.1262 29.2167 74.3762 30.1167 74.8762 30.65C75.4095 31.15 76.1095 31.4 76.9762 31.4C77.8428 31.4 78.5262 31.15 79.0262 30.65C79.5595 30.1167 79.8262 29.2167 79.8262 27.95V9.05C79.8262 7.78333 79.5595 6.9 79.0262 6.4C78.5262 5.86667 77.8428 5.6 76.9762 5.6C76.1095 5.6 75.4095 5.86667 74.8762 6.4C74.3762 6.9 74.1262 7.78333 74.1262 9.05V27.95ZM68.6262 9.4C68.6262 6.56667 69.3428 4.4 70.7762 2.9C72.2095 1.36667 74.2762 0.6 76.9762 0.6C79.6762 0.6 81.7428 1.36667 83.1762 2.9C84.6095 4.4 85.3262 6.56667 85.3262 9.4V27.6C85.3262 30.4333 84.6095 32.6167 83.1762 34.15C81.7428 35.65 79.6762 36.4 76.9762 36.4C74.2762 36.4 72.2095 35.65 70.7762 34.15C69.3428 32.6167 68.6262 30.4333 68.6262 27.6V9.4ZM87.8504 31.05C88.4837 31.05 89.0004 31.0167 89.4004 30.95C89.8337 30.8833 90.1837 30.7333 90.4504 30.5C90.7171 30.2333 90.9004 29.8667 91.0004 29.4C91.1337 28.9 91.2171 28.25 91.2504 27.45L92.1504 0.999998H107.7V36H102.1V6H97.3004L96.7004 27.15C96.6004 30.35 95.9171 32.6333 94.6504 34C93.4171 35.3667 91.4337 36.05 88.7004 36.05H87.8504V31.05ZM117.91 36H112.41V0.999998H117.91V16H124.16V0.999998H129.76V36H124.16V21H117.91V36ZM139.898 36H134.248V0.999998H139.148V23.15L141.148 15.45L145.648 0.999998H151.698V36H146.748V11.35L144.498 19.95L139.898 36ZM154.486 0.999998H171.486V6H165.736V36H160.236V6H154.486V0.999998ZM179.908 15.75H187.458V20.75H179.908V31H189.408V36H174.408V0.999998H189.408V6H179.908V15.75ZM191.766 31.05C192.4 31.05 192.916 31.0167 193.316 30.95C193.75 30.8833 194.1 30.7333 194.366 30.5C194.633 30.2333 194.816 29.8667 194.916 29.4C195.05 28.9 195.133 28.25 195.166 27.45L196.066 0.999998H211.616V36H206.016V6H201.216L200.616 27.15C200.516 30.35 199.833 32.6333 198.566 34C197.333 35.3667 195.35 36.05 192.616 36.05H191.766V31.05ZM216.326 36V0.999998H221.826V14.15H224.426C227.193 14.15 229.243 14.8833 230.576 16.35C231.943 17.8167 232.626 19.9667 232.626 22.8V27.35C232.626 30.1833 231.943 32.3333 230.576 33.8C229.243 35.2667 227.193 36 224.426 36H216.326ZM224.426 31C225.293 31 225.96 30.7667 226.426 30.3C226.893 29.8333 227.126 28.9667 227.126 27.7V22.45C227.126 21.1833 226.893 20.3167 226.426 19.85C225.96 19.3833 225.293 19.15 224.426 19.15H221.826V31H224.426ZM241.906 36H236.406V0.999998H241.906V16H248.156V0.999998H253.756V36H248.156V21H241.906V36ZM258.244 36V0.999998H263.744V14.15H266.344C269.111 14.15 271.161 14.8833 272.494 16.35C273.861 17.8167 274.544 19.9667 274.544 22.8V27.35C274.544 30.1833 273.861 32.3333 272.494 33.8C271.161 35.2667 269.111 36 266.344 36H258.244ZM266.344 31C267.211 31 267.877 30.7667 268.344 30.3C268.811 29.8333 269.044 28.9667 269.044 27.7V22.45C269.044 21.1833 268.811 20.3167 268.344 19.85C267.877 19.3833 267.211 19.15 266.344 19.15H263.744V31H266.344ZM277.694 36V0.999998H283.194V36H277.694ZM293.199 15.75H300.749V20.75H293.199V31H302.699V36H287.699V0.999998H302.699V6H293.199V15.75ZM7.5 86H2V51H19.35V86H13.75V56H7.5V86ZM31.9379 51C34.7046 51 36.7546 51.7333 38.0879 53.2C39.4546 54.6667 40.1379 56.8167 40.1379 59.65V64.2C40.1379 67.0333 39.4546 69.1833 38.0879 70.65C36.7546 72.1167 34.7046 72.85 31.9379 72.85H29.3379V86H23.8379V51H31.9379ZM29.3379 56V67.85H31.9379C32.8046 67.85 33.4712 67.6167 33.9379 67.15C34.4046 66.6833 34.6379 65.8167 34.6379 64.55V59.3C34.6379 58.0333 34.4046 57.1667 33.9379 56.7C33.4712 56.2333 32.8046 56 31.9379 56H29.3379ZM48.6855 65.75H56.2355V70.75H48.6855V81H58.1855V86H43.1855V51H58.1855V56H48.6855V65.75ZM72.6938 59.6C72.6938 58.0333 72.4271 56.9833 71.8938 56.45C71.3938 55.8833 70.7104 55.6 69.8438 55.6C68.9771 55.6 68.2771 55.8667 67.7438 56.4C67.2104 56.9 66.9438 57.7833 66.9438 59.05V61.9H61.8938V59.3C61.8938 56.4667 62.5604 54.3167 63.8938 52.85C65.2604 51.35 67.2938 50.6 69.9938 50.6C72.6938 50.6 74.7271 51.3667 76.0938 52.9C77.4938 54.4 78.1938 56.5667 78.1938 59.4V60.3C78.1938 64.0333 76.9104 66.4333 74.3438 67.5C75.7438 68.1 76.7271 69.0333 77.2938 70.3C77.8938 71.5333 78.1938 73.05 78.1938 74.85V77.6C78.1938 80.4333 77.4938 82.6167 76.0938 84.15C74.7271 85.65 72.6938 86.4 69.9938 86.4C67.2938 86.4 65.2438 85.65 63.8438 84.15C62.4771 82.6167 61.7938 80.4333 61.7938 77.6V73.75H66.9938V77.95C66.9938 79.2167 67.2438 80.1167 67.7438 80.65C68.2771 81.15 68.9771 81.4 69.8438 81.4C70.7104 81.4 71.3938 81.1333 71.8938 80.6C72.4271 80.0667 72.6938 79.0167 72.6938 77.45V74.7C72.6938 73.0667 72.4104 71.9167 71.8438 71.25C71.2771 70.5833 70.3604 70.25 69.0938 70.25H67.7438V65.25H69.3938C70.4271 65.25 71.2271 64.9833 71.7938 64.45C72.3938 63.9167 72.6938 62.95 72.6938 61.55V59.6ZM87.918 65.75H95.468V70.75H87.918V81H97.418V86H82.418V51H97.418V56H87.918V65.75ZM106.826 86H101.326V51H106.826V66H113.076V51H118.676V86H113.076V71H106.826V86ZM121.564 51H138.564V56H132.814V86H127.314V56H121.564V51ZM159.286 86H153.736L152.786 79.65H146.036L145.086 86H140.036L145.636 51H153.686L159.286 86ZM146.736 74.9H152.036L149.386 57.2L146.736 74.9ZM162.348 51H167.848V81H174.098V51H179.698V81.1H182.098V90.7H176.748V86H162.348V51ZM191.252 86H185.602V51H190.502V73.15L192.502 65.45L197.002 51H203.052V86H198.102V61.35L195.852 69.95L191.252 86ZM212.489 77.95C212.489 79.2167 212.739 80.1167 213.239 80.65C213.773 81.15 214.473 81.4 215.339 81.4C216.206 81.4 216.889 81.15 217.389 80.65C217.923 80.1167 218.189 79.2167 218.189 77.95V59.05C218.189 57.7833 217.923 56.9 217.389 56.4C216.889 55.8667 216.206 55.6 215.339 55.6C214.473 55.6 213.773 55.8667 213.239 56.4C212.739 56.9 212.489 57.7833 212.489 59.05V77.95ZM206.989 59.4C206.989 56.5667 207.706 54.4 209.139 52.9C210.573 51.3667 212.639 50.6 215.339 50.6C218.039 50.6 220.106 51.3667 221.539 52.9C222.973 54.4 223.689 56.5667 223.689 59.4V77.6C223.689 80.4333 222.973 82.6167 221.539 84.15C220.106 85.65 218.039 86.4 215.339 86.4C212.639 86.4 210.573 85.65 209.139 84.15C207.706 82.6167 206.989 80.4333 206.989 77.6V59.4ZM233.264 86H227.764V51H233.264V66H239.514V51H245.114V86H239.514V71H233.264V86ZM255.102 86H249.602V51H255.102V66H261.352V51H266.952V86H261.352V71H255.102V86ZM271.439 86V51H276.939V64.15H279.539C282.306 64.15 284.356 64.8833 285.689 66.35C287.056 67.8167 287.739 69.9667 287.739 72.8V77.35C287.739 80.1833 287.056 82.3333 285.689 83.8C284.356 85.2667 282.306 86 279.539 86H271.439ZM279.539 81C280.406 81 281.073 80.7667 281.539 80.3C282.006 79.8333 282.239 78.9667 282.239 77.7V72.45C282.239 71.1833 282.006 70.3167 281.539 69.85C281.073 69.3833 280.406 69.15 279.539 69.15H276.939V81H279.539ZM290.889 86V51H296.389V86H290.889ZM306.395 65.75H313.945V70.75H306.395V81H315.895V86H300.895V51H315.895V56H306.395V65.75ZM339.716 75.85L343.466 51H351.116V86H345.916V60.9L342.116 86H336.916L332.816 61.25V86H328.016V51H335.666L339.716 75.85ZM373.417 86H367.867L366.917 79.65H360.167L359.217 86H354.167L359.767 51H367.817L373.417 86ZM360.867 74.9H366.167L363.517 57.2L360.867 74.9ZM374.879 51H391.879V56H386.129V86H380.629V56H374.879V51ZM400.301 65.75H407.851V70.75H400.301V81H409.801V86H394.801V51H409.801V56H400.301V65.75ZM421.809 51C424.576 51 426.626 51.7333 427.959 53.2C429.326 54.6667 430.009 56.8167 430.009 59.65V64.2C430.009 67.0333 429.326 69.1833 427.959 70.65C426.626 72.1167 424.576 72.85 421.809 72.85H419.209V86H413.709V51H421.809ZM419.209 56V67.85H421.809C422.676 67.85 423.342 67.6167 423.809 67.15C424.276 66.6833 424.509 65.8167 424.509 64.55V59.3C424.509 58.0333 424.276 57.1667 423.809 56.7C423.342 56.2333 422.676 56 421.809 56H419.209ZM438.707 86H433.057V51H437.957V73.15L439.957 65.45L444.457 51H450.507V86H445.557V61.35L443.307 69.95L438.707 86ZM472.695 86H467.145L466.195 79.65H459.445L458.495 86H453.445L459.045 51H467.095L472.695 86ZM460.145 74.9H465.445L462.795 57.2L460.145 74.9ZM474.206 81.05C474.839 81.05 475.356 81.0167 475.756 80.95C476.189 80.8833 476.539 80.7333 476.806 80.5C477.073 80.2333 477.256 79.8667 477.356 79.4C477.489 78.9 477.573 78.25 477.606 77.45L478.506 51H494.056V86H488.456V56H483.656L483.056 77.15C482.956 80.35 482.273 82.6333 481.006 84C479.773 85.3667 477.789 86.05 475.056 86.05H474.206V81.05ZM498.766 86V51H504.266V64.15H506.866C509.632 64.15 511.682 64.8833 513.016 66.35C514.382 67.8167 515.066 69.9667 515.066 72.8V77.35C515.066 80.1833 514.382 82.3333 513.016 83.8C511.682 85.2667 509.632 86 506.866 86H498.766ZM506.866 81C507.732 81 508.399 80.7667 508.866 80.3C509.332 79.8333 509.566 78.9667 509.566 77.7V72.45C509.566 71.1833 509.332 70.3167 508.866 69.85C508.399 69.3833 507.732 69.15 506.866 69.15H504.266V81H506.866ZM518.216 86V51H523.716V86H518.216Z" fill="#EFEFEF"/>
</svg>
