<svg width="252" height="90" viewBox="0 0 252 90" fill="none" xmlns="http://www.w3.org/2000/svg">
<path d="M5.65 35H1.41561e-07V-2.38419e-06H4.9V22.15L6.9 14.45L11.4 -2.38419e-06H17.45V35H12.5V10.35L10.25 18.95L5.65 35ZM27.3379 35H21.8379V-2.38419e-06H27.3379V15H33.5879V-2.38419e-06H39.1879V35H33.5879V20H27.3379V35ZM42.0758 -2.38419e-06H59.0758V5H53.3258V35H47.8258V5H42.0758V-2.38419e-06ZM67.498 14.75H75.048V19.75H67.498V30H76.998V35H61.998V-2.38419e-06H76.998V5H67.498V14.75ZM89.0063 -2.38419e-06C91.7729 -2.38419e-06 93.8229 0.733331 95.1563 2.2C96.5229 3.66666 97.2063 5.81666 97.2063 8.65V13.2C97.2063 16.0333 96.5229 18.1833 95.1563 19.65C93.8229 21.1167 91.7729 21.85 89.0063 21.85H86.4063V35H80.9063V-2.38419e-06H89.0063ZM86.4063 5V16.85H89.0063C89.8729 16.85 90.5396 16.6167 91.0063 16.15C91.4729 15.6833 91.7063 14.8167 91.7063 13.55V8.3C91.7063 7.03333 91.4729 6.16667 91.0063 5.7C90.5396 5.23333 89.8729 5 89.0063 5H86.4063ZM100.254 35V-2.38419e-06H105.754V13.15H108.354C111.121 13.15 113.171 13.8833 114.504 15.35C115.871 16.8167 116.554 18.9667 116.554 21.8V26.35C116.554 29.1833 115.871 31.3333 114.504 32.8C113.171 34.2667 111.121 35 108.354 35H100.254ZM108.354 30C109.221 30 109.887 29.7667 110.354 29.3C110.821 28.8333 111.054 27.9667 111.054 26.7V21.45C111.054 20.1833 110.821 19.3167 110.354 18.85C109.887 18.3833 109.221 18.15 108.354 18.15H105.754V30H108.354ZM125.834 14.75H133.384V19.75H125.834V30H135.334V35H120.334V-2.38419e-06H135.334V5H125.834V14.75ZM147.342 -2.38419e-06C150.109 -2.38419e-06 152.159 0.733331 153.492 2.2C154.859 3.66666 155.542 5.81666 155.542 8.65V13.2C155.542 16.0333 154.859 18.1833 153.492 19.65C152.159 21.1167 150.109 21.85 147.342 21.85H144.742V35H139.242V-2.38419e-06H147.342ZM144.742 5V16.85H147.342C148.209 16.85 148.876 16.6167 149.342 16.15C149.809 15.6833 150.042 14.8167 150.042 13.55V8.3C150.042 7.03333 149.809 6.16667 149.342 5.7C148.876 5.23333 148.209 5 147.342 5H144.742ZM164.09 35H158.59V-2.38419e-06H164.09V15H170.34V-2.38419e-06H175.94V35H170.34V20H164.09V35ZM198.228 35H192.678L191.728 28.65H184.978L184.028 35H178.978L184.578 -2.38419e-06H192.628L198.228 35ZM185.678 23.9H190.978L188.328 6.2L185.678 23.9ZM200.289 35C200.556 34.3333 200.722 33.6833 200.789 33.05C200.856 32.3833 200.889 31.6167 200.889 30.75V25.35C200.889 23.5167 201.139 21.9667 201.639 20.7C202.172 19.4 203.139 18.4667 204.539 17.9C202.139 16.7667 200.939 14.4 200.939 10.8V8.05C200.939 5.35 201.572 3.33333 202.839 2C204.139 0.666665 206.222 -2.38419e-06 209.089 -2.38419e-06H217.389V35H211.889V20.75H209.989C208.722 20.75 207.806 21.0833 207.239 21.75C206.672 22.4167 206.389 23.5667 206.389 25.2V30.7C206.389 31.4 206.372 31.9833 206.339 32.45C206.339 32.9167 206.306 33.3 206.239 33.6C206.206 33.9 206.156 34.15 206.089 34.35C206.022 34.55 205.956 34.7667 205.889 35H200.289ZM209.239 5C208.272 5 207.556 5.28333 207.089 5.85C206.656 6.41667 206.439 7.33333 206.439 8.6V12.05C206.439 13.45 206.722 14.4167 207.289 14.95C207.889 15.4833 208.706 15.75 209.739 15.75H211.889V5H209.239ZM8.3 50C11.1667 50 13.2333 50.6667 14.5 52C15.8 53.3333 16.45 55.35 16.45 58.05V59.3C16.45 61.1 16.1667 62.5833 15.6 63.75C15.0333 64.9167 14.1333 65.7833 12.9 66.35C14.4 66.9167 15.45 67.85 16.05 69.15C16.6833 70.4167 17 71.9833 17 73.85V76.7C17 79.4 16.3 81.4667 14.9 82.9C13.5 84.3 11.4167 85 8.65 85H1.41561e-07V50H8.3ZM5.5 69.25V80H8.65C9.58333 80 10.2833 79.75 10.75 79.25C11.25 78.75 11.5 77.85 11.5 76.55V73.5C11.5 71.8667 11.2167 70.75 10.65 70.15C10.1167 69.55 9.21667 69.25 7.95 69.25H5.5ZM5.5 55V64.25H7.65C8.68333 64.25 9.48333 63.9833 10.05 63.45C10.65 62.9167 10.95 61.95 10.95 60.55V58.6C10.95 57.3333 10.7167 56.4167 10.25 55.85C9.81667 55.2833 9.11667 55 8.15 55H5.5ZM26.4625 85H20.8125V50H25.7125V72.15L27.7125 64.45L32.2125 50H38.2625V85H33.3125V60.35L31.0625 68.95L26.4625 85ZM53.2504 58.6C53.2504 57.0333 52.9837 55.9833 52.4504 55.45C51.9504 54.8833 51.2671 54.6 50.4004 54.6C49.5337 54.6 48.8337 54.8667 48.3004 55.4C47.7671 55.9 47.5004 56.7833 47.5004 58.05V60.9H42.4504V58.3C42.4504 55.4667 43.1171 53.3167 44.4504 51.85C45.8171 50.35 47.8504 49.6 50.5504 49.6C53.2504 49.6 55.2837 50.3667 56.6504 51.9C58.0504 53.4 58.7504 55.5667 58.7504 58.4V59.3C58.7504 63.0333 57.4671 65.4333 54.9004 66.5C56.3004 67.1 57.2837 68.0333 57.8504 69.3C58.4504 70.5333 58.7504 72.05 58.7504 73.85V76.6C58.7504 79.4333 58.0504 81.6167 56.6504 83.15C55.2837 84.65 53.2504 85.4 50.5504 85.4C47.8504 85.4 45.8004 84.65 44.4004 83.15C43.0337 81.6167 42.3504 79.4333 42.3504 76.6V72.75H47.5504V76.95C47.5504 78.2167 47.8004 79.1167 48.3004 79.65C48.8337 80.15 49.5337 80.4 50.4004 80.4C51.2671 80.4 51.9504 80.1333 52.4504 79.6C52.9837 79.0667 53.2504 78.0167 53.2504 76.45V73.7C53.2504 72.0667 52.9671 70.9167 52.4004 70.25C51.8337 69.5833 50.9171 69.25 49.6504 69.25H48.3004V64.25H49.9504C50.9837 64.25 51.7837 63.9833 52.3504 63.45C52.9504 62.9167 53.2504 61.95 53.2504 60.55V58.6ZM75.1746 76.1C74.8413 77.6667 74.4246 79.05 73.9246 80.25C73.4579 81.4167 72.8079 82.3833 71.9746 83.15C71.1746 83.8833 70.1246 84.4167 68.8246 84.75C67.5579 85.0833 65.9746 85.1833 64.0746 85.05V80.15C65.4746 80.25 66.5746 80.1167 67.3746 79.75C68.1746 79.3833 68.6913 78.5667 68.9246 77.3L68.9746 77L61.3746 50H66.8246L69.8246 61.95L71.5246 70.15L72.8246 62L75.3246 50H81.0746L75.1746 76.1ZM101.685 85H96.1348L95.1848 78.65H88.4348L87.4848 85H82.4348L88.0348 50H96.0848L101.685 85ZM89.1348 73.9H94.4348L91.7848 56.2L89.1348 73.9ZM103.196 80.05C103.829 80.05 104.346 80.0167 104.746 79.95C105.179 79.8833 105.529 79.7333 105.796 79.5C106.063 79.2333 106.246 78.8667 106.346 78.4C106.479 77.9 106.563 77.25 106.596 76.45L107.496 50H123.046V85H117.446V55H112.646L112.046 76.15C111.946 79.35 111.263 81.6333 109.996 83C108.763 84.3667 106.779 85.05 104.046 85.05H103.196V80.05ZM133.406 85H127.756V50H132.656V72.15L134.656 64.45L139.156 50H145.206V85H140.256V60.35L138.006 68.95L133.406 85ZM160.194 58.6C160.194 57.0333 159.927 55.9833 159.394 55.45C158.894 54.8833 158.21 54.6 157.344 54.6C156.477 54.6 155.777 54.8667 155.244 55.4C154.71 55.9 154.444 56.7833 154.444 58.05V60.9H149.394V58.3C149.394 55.4667 150.06 53.3167 151.394 51.85C152.76 50.35 154.794 49.6 157.494 49.6C160.194 49.6 162.227 50.3667 163.594 51.9C164.994 53.4 165.694 55.5667 165.694 58.4V59.3C165.694 63.0333 164.41 65.4333 161.844 66.5C163.244 67.1 164.227 68.0333 164.794 69.3C165.394 70.5333 165.694 72.05 165.694 73.85V76.6C165.694 79.4333 164.994 81.6167 163.594 83.15C162.227 84.65 160.194 85.4 157.494 85.4C154.794 85.4 152.744 84.65 151.344 83.15C149.977 81.6167 149.294 79.4333 149.294 76.6V72.75H154.494V76.95C154.494 78.2167 154.744 79.1167 155.244 79.65C155.777 80.15 156.477 80.4 157.344 80.4C158.21 80.4 158.894 80.1333 159.394 79.6C159.927 79.0667 160.194 78.0167 160.194 76.45V73.7C160.194 72.0667 159.91 70.9167 159.344 70.25C158.777 69.5833 157.86 69.25 156.594 69.25H155.244V64.25H156.894C157.927 64.25 158.727 63.9833 159.294 63.45C159.894 62.9167 160.194 61.95 160.194 60.55V58.6ZM187.718 85H182.168L181.218 78.65H174.468L173.518 85H168.468L174.068 50H182.118L187.718 85ZM175.168 73.9H180.468L177.818 56.2L175.168 73.9ZM190.779 50H196.279V80H202.529V50H208.129V80.1H210.529V89.7H205.179V85H190.779V50ZM219.683 85H214.033V50H218.933V72.15L220.933 64.45L225.433 50H231.483V85H226.533V60.35L224.283 68.95L219.683 85ZM234.871 85C235.138 84.3333 235.304 83.6833 235.371 83.05C235.438 82.3833 235.471 81.6167 235.471 80.75V75.35C235.471 73.5167 235.721 71.9667 236.221 70.7C236.754 69.4 237.721 68.4667 239.121 67.9C236.721 66.7667 235.521 64.4 235.521 60.8V58.05C235.521 55.35 236.154 53.3333 237.421 52C238.721 50.6667 240.804 50 243.671 50H251.971V85H246.471V70.75H244.571C243.304 70.75 242.388 71.0833 241.821 71.75C241.254 72.4167 240.971 73.5667 240.971 75.2V80.7C240.971 81.4 240.954 81.9833 240.921 82.45C240.921 82.9167 240.888 83.3 240.821 83.6C240.788 83.9 240.738 84.15 240.671 84.35C240.604 84.55 240.538 84.7667 240.471 85H234.871ZM243.821 55C242.854 55 242.138 55.2833 241.671 55.85C241.238 56.4167 241.021 57.3333 241.021 58.6V62.05C241.021 63.45 241.304 64.4167 241.871 64.95C242.471 65.4833 243.288 65.75 244.321 65.75H246.471V55H243.821Z" fill="#EFEFEF"/>
</svg>
