<svg width="661" height="37" viewBox="0 0 661 37" fill="none" xmlns="http://www.w3.org/2000/svg">
<path d="M7.2 22.05L5.5 25.25V36H1.41561e-07V0.999998H5.5V16.25L12.7 0.999998H18.2L10.55 16.6L18.2 36H12.55L7.2 22.05ZM39.0031 36H33.4531L32.5031 29.65H25.7531L24.8031 36H19.7531L25.3531 0.999998H33.4031L39.0031 36ZM26.4531 24.9H31.7531L29.1031 7.2L26.4531 24.9ZM49.2645 22.05L47.5645 25.25V36H42.0645V0.999998H47.5645V16.25L54.7645 0.999998H60.2645L52.6145 16.6L60.2645 36H54.6145L49.2645 22.05ZM68.9176 36H63.2676V0.999998H68.1676V23.15L70.1676 15.45L74.6676 0.999998H80.7176V36H75.7676V11.35L73.5176 19.95L68.9176 36ZM90.6055 15.75H98.1555V20.75H90.6055V31H100.105V36H85.1055V0.999998H100.105V6H90.6055V15.75ZM117.777 36H112.277V0.999998H129.627V36H124.027V6H117.777V36ZM142.215 0.999998C144.982 0.999998 147.032 1.73333 148.365 3.2C149.732 4.66666 150.415 6.81666 150.415 9.65V14.2C150.415 17.0333 149.732 19.1833 148.365 20.65C147.032 22.1167 144.982 22.85 142.215 22.85H139.615V36H134.115V0.999998H142.215ZM139.615 6V17.85H142.215C143.082 17.85 143.749 17.6167 144.215 17.15C144.682 16.6833 144.915 15.8167 144.915 14.55V9.3C144.915 8.03333 144.682 7.16667 144.215 6.7C143.749 6.23333 143.082 6 142.215 6H139.615ZM158.513 27.95C158.513 29.2167 158.763 30.1167 159.263 30.65C159.796 31.15 160.496 31.4 161.363 31.4C162.23 31.4 162.913 31.15 163.413 30.65C163.946 30.1167 164.213 29.2167 164.213 27.95V9.05C164.213 7.78333 163.946 6.9 163.413 6.4C162.913 5.86667 162.23 5.6 161.363 5.6C160.496 5.6 159.796 5.86667 159.263 6.4C158.763 6.9 158.513 7.78333 158.513 9.05V27.95ZM153.013 9.4C153.013 6.56667 153.73 4.4 155.163 2.9C156.596 1.36667 158.663 0.6 161.363 0.6C164.063 0.6 166.13 1.36667 167.563 2.9C168.996 4.4 169.713 6.56667 169.713 9.4V27.6C169.713 30.4333 168.996 32.6167 167.563 34.15C166.13 35.65 164.063 36.4 161.363 36.4C158.663 36.4 156.596 35.65 155.163 34.15C153.73 32.6167 153.013 30.4333 153.013 27.6V9.4ZM179.287 15.75H186.837V20.75H179.287V31H188.787V36H173.787V0.999998H188.787V6H179.287V15.75ZM199.895 22.05L198.195 25.25V36H192.695V0.999998H198.195V16.25L205.395 0.999998H210.895L203.245 16.6L210.895 36H205.245L199.895 22.05ZM212.298 0.999998H229.298V6H223.548V36H218.048V6H212.298V0.999998ZM232.221 36V0.999998H237.721V14.15H240.321C243.087 14.15 245.137 14.8833 246.471 16.35C247.837 17.8167 248.521 19.9667 248.521 22.8V27.35C248.521 30.1833 247.837 32.3333 246.471 33.8C245.137 35.2667 243.087 36 240.321 36H232.221ZM240.321 31C241.187 31 241.854 30.7667 242.321 30.3C242.787 29.8333 243.021 28.9667 243.021 27.7V22.45C243.021 21.1833 242.787 20.3167 242.321 19.85C241.854 19.3833 241.187 19.15 240.321 19.15H237.721V31H240.321ZM251.671 36V0.999998H257.171V36H251.671ZM281.589 25.85L285.339 0.999998H292.989V36H287.789V10.9L283.989 36H278.789L274.689 11.25V36H269.889V0.999998H277.539L281.589 25.85ZM297.49 36V0.999998H302.99V14.15H305.59C308.357 14.15 310.407 14.8833 311.74 16.35C313.107 17.8167 313.79 19.9667 313.79 22.8V27.35C313.79 30.1833 313.107 32.3333 311.74 33.8C310.407 35.2667 308.357 36 305.59 36H297.49ZM305.59 31C306.457 31 307.124 30.7667 307.59 30.3C308.057 29.8333 308.29 28.9667 308.29 27.7V22.45C308.29 21.1833 308.057 20.3167 307.59 19.85C307.124 19.3833 306.457 19.15 305.59 19.15H302.99V31H305.59ZM316.94 36V0.999998H322.44V36H316.94ZM347.409 27.1C347.076 28.6667 346.659 30.05 346.159 31.25C345.692 32.4167 345.042 33.3833 344.209 34.15C343.409 34.8833 342.359 35.4167 341.059 35.75C339.792 36.0833 338.209 36.1833 336.309 36.05V31.15C337.709 31.25 338.809 31.1167 339.609 30.75C340.409 30.3833 340.926 29.5667 341.159 28.3L341.209 28L333.609 0.999998H339.059L342.059 12.95L343.759 21.15L345.059 13L347.559 0.999998H353.309L347.409 27.1ZM371.969 15.15L378.469 0.999998H383.969L377.219 15.2L383.969 36H378.319L373.319 20.5L371.969 23.15V36H366.519V23.15L365.169 20.45L360.169 36H354.519L361.319 15.35L354.519 0.999998H360.019L366.519 15.15V0.999998H371.969V15.15ZM392.295 15.75H399.845V20.75H392.295V31H401.795V36H386.795V0.999998H401.795V6H392.295V15.75ZM422.067 0.999998C424.833 0.999998 426.883 1.73333 428.217 3.2C429.583 4.66666 430.267 6.81666 430.267 9.65V14.2C430.267 17.0333 429.583 19.1833 428.217 20.65C426.883 22.1167 424.833 22.85 422.067 22.85H419.467V36H413.967V0.999998H422.067ZM419.467 6V17.85H422.067C422.933 17.85 423.6 17.6167 424.067 17.15C424.533 16.6833 424.767 15.8167 424.767 14.55V9.3C424.767 8.03333 424.533 7.16667 424.067 6.7C423.6 6.23333 422.933 6 422.067 6H419.467ZM438.814 15.75H446.364V20.75H438.814V31H448.314V36H433.314V0.999998H448.314V6H438.814V15.75ZM470.023 36H464.473L463.523 29.65H456.773L455.823 36H450.773L456.373 0.999998H464.423L470.023 36ZM457.473 24.9H462.773L460.123 7.2L457.473 24.9ZM471.534 31.05C472.167 31.05 472.684 31.0167 473.084 30.95C473.517 30.8833 473.867 30.7333 474.134 30.5C474.401 30.2333 474.584 29.8667 474.684 29.4C474.817 28.9 474.901 28.25 474.934 27.45L475.834 0.999998H491.384V36H485.784V6H480.984L480.384 27.15C480.284 30.35 479.601 32.6333 478.334 34C477.101 35.3667 475.117 36.05 472.384 36.05H471.534V31.05ZM501.744 36H496.094V0.999998H500.994V23.15L502.994 15.45L507.494 0.999998H513.544V36H508.594V11.35L506.344 19.95L501.744 36ZM528.532 9.6C528.532 8.03333 528.265 6.98333 527.732 6.45C527.232 5.88333 526.548 5.6 525.682 5.6C524.815 5.6 524.115 5.86667 523.582 6.4C523.048 6.9 522.782 7.78333 522.782 9.05V11.9H517.732V9.3C517.732 6.46667 518.398 4.31667 519.732 2.85C521.098 1.35 523.132 0.6 525.832 0.6C528.532 0.6 530.565 1.36667 531.932 2.9C533.332 4.4 534.032 6.56667 534.032 9.4V10.3C534.032 14.0333 532.748 16.4333 530.182 17.5C531.582 18.1 532.565 19.0333 533.132 20.3C533.732 21.5333 534.032 23.05 534.032 24.85V27.6C534.032 30.4333 533.332 32.6167 531.932 34.15C530.565 35.65 528.532 36.4 525.832 36.4C523.132 36.4 521.082 35.65 519.682 34.15C518.315 32.6167 517.632 30.4333 517.632 27.6V23.75H522.832V27.95C522.832 29.2167 523.082 30.1167 523.582 30.65C524.115 31.15 524.815 31.4 525.682 31.4C526.548 31.4 527.232 31.1333 527.732 30.6C528.265 30.0667 528.532 29.0167 528.532 27.45V24.7C528.532 23.0667 528.248 21.9167 527.682 21.25C527.115 20.5833 526.198 20.25 524.932 20.25H523.582V15.25H525.232C526.265 15.25 527.065 14.9833 527.632 14.45C528.232 13.9167 528.532 12.95 528.532 11.55V9.6ZM543.306 27.95C543.306 29.2167 543.556 30.1167 544.056 30.65C544.589 31.15 545.289 31.4 546.156 31.4C547.023 31.4 547.706 31.15 548.206 30.65C548.739 30.1167 549.006 29.2167 549.006 27.95V9.05C549.006 7.78333 548.739 6.9 548.206 6.4C547.706 5.86667 547.023 5.6 546.156 5.6C545.289 5.6 544.589 5.86667 544.056 6.4C543.556 6.9 543.306 7.78333 543.306 9.05V27.95ZM537.806 9.4C537.806 6.56667 538.523 4.4 539.956 2.9C541.389 1.36667 543.456 0.6 546.156 0.6C548.856 0.6 550.923 1.36667 552.356 2.9C553.789 4.4 554.506 6.56667 554.506 9.4V27.6C554.506 30.4333 553.789 32.6167 552.356 34.15C550.923 35.65 548.856 36.4 546.156 36.4C543.456 36.4 541.389 35.65 539.956 34.15C538.523 32.6167 537.806 30.4333 537.806 27.6V9.4ZM566.88 0.999998C569.747 0.999998 571.813 1.66666 573.08 3C574.38 4.33333 575.03 6.35 575.03 9.05V10.3C575.03 12.1 574.747 13.5833 574.18 14.75C573.613 15.9167 572.713 16.7833 571.48 17.35C572.98 17.9167 574.03 18.85 574.63 20.15C575.263 21.4167 575.58 22.9833 575.58 24.85V27.7C575.58 30.4 574.88 32.4667 573.48 33.9C572.08 35.3 569.997 36 567.23 36H558.58V0.999998H566.88ZM564.08 20.25V31H567.23C568.163 31 568.863 30.75 569.33 30.25C569.83 29.75 570.08 28.85 570.08 27.55V24.5C570.08 22.8667 569.797 21.75 569.23 21.15C568.697 20.55 567.797 20.25 566.53 20.25H564.08ZM564.08 6V15.25H566.23C567.263 15.25 568.063 14.9833 568.63 14.45C569.23 13.9167 569.53 12.95 569.53 11.55V9.6C569.53 8.33333 569.297 7.41667 568.83 6.85C568.397 6.28333 567.697 6 566.73 6H564.08ZM597.193 36H591.643L590.693 29.65H583.943L582.993 36H577.943L583.543 0.999998H591.593L597.193 36ZM584.643 24.9H589.943L587.293 7.2L584.643 24.9ZM598.704 31.05C599.337 31.05 599.854 31.0167 600.254 30.95C600.687 30.8833 601.037 30.7333 601.304 30.5C601.571 30.2333 601.754 29.8667 601.854 29.4C601.987 28.9 602.071 28.25 602.104 27.45L603.004 0.999998H618.554V36H612.954V6H608.154L607.554 27.15C607.454 30.35 606.771 32.6333 605.504 34C604.271 35.3667 602.287 36.05 599.554 36.05H598.704V31.05ZM628.914 36H623.264V0.999998H628.164V23.15L630.164 15.45L634.664 0.999998H640.714V36H635.764V11.35L633.514 19.95L628.914 36ZM649.102 28.25C648.902 27.65 648.802 26.9333 648.802 26.1C648.802 24.8333 648.952 23.7333 649.252 22.8C649.552 21.8667 649.918 21.0167 650.352 20.25C650.785 19.45 651.268 18.7 651.802 18C652.335 17.2667 652.818 16.4833 653.252 15.65C653.685 14.8167 654.052 13.8833 654.352 12.85C654.652 11.7833 654.802 10.5167 654.802 9.05C654.802 7.78333 654.552 6.9 654.052 6.4C653.585 5.86667 652.918 5.6 652.052 5.6C651.185 5.6 650.502 5.86667 650.002 6.4C649.535 6.9 649.302 7.78333 649.302 9.05V12.85H644.102V9.4C644.102 6.56667 644.768 4.4 646.102 2.9C647.468 1.36667 649.502 0.6 652.202 0.6C654.902 0.6 656.918 1.36667 658.252 2.9C659.618 4.4 660.302 6.56667 660.302 9.4C660.302 10.9333 660.135 12.2667 659.802 13.4C659.502 14.5 659.102 15.5 658.602 16.4C658.135 17.3 657.618 18.1333 657.052 18.9C656.485 19.6333 655.952 20.3667 655.452 21.1C654.985 21.8333 654.585 22.6167 654.252 23.45C653.952 24.2833 653.802 25.2333 653.802 26.3C653.802 27.0333 653.868 27.6833 654.002 28.25H649.102ZM654.152 30.7V36H648.852V30.7H654.152Z" fill="#EFEFEF"/>
</svg>
