<svg width="349" height="87" viewBox="0 0 349 87" fill="none" xmlns="http://www.w3.org/2000/svg">
<path d="M7.2 22.05L5.5 25.25V36H1.41561e-07V0.999998H5.5V16.25L12.7 0.999998H18.2L10.55 16.6L18.2 36H12.55L7.2 22.05ZM26.2531 27.95C26.2531 29.2167 26.5031 30.1167 27.0031 30.65C27.5365 31.15 28.2365 31.4 29.1031 31.4C29.9698 31.4 30.6531 31.15 31.1531 30.65C31.6865 30.1167 31.9531 29.2167 31.9531 27.95V9.05C31.9531 7.78333 31.6865 6.9 31.1531 6.4C30.6531 5.86667 29.9698 5.6 29.1031 5.6C28.2365 5.6 27.5365 5.86667 27.0031 6.4C26.5031 6.9 26.2531 7.78333 26.2531 9.05V27.95ZM20.7531 9.4C20.7531 6.56667 21.4698 4.4 22.9031 2.9C24.3365 1.36667 26.4031 0.6 29.1031 0.6C31.8031 0.6 33.8698 1.36667 35.3031 2.9C36.7365 4.4 37.4531 6.56667 37.4531 9.4V27.6C37.4531 30.4333 36.7365 32.6167 35.3031 34.15C33.8698 35.65 31.8031 36.4 29.1031 36.4C26.4031 36.4 24.3365 35.65 22.9031 34.15C21.4698 32.6167 20.7531 30.4333 20.7531 27.6V9.4ZM53.1773 25.85L56.9273 0.999998H64.5773V36H59.3773V10.9L55.5773 36H50.3773L46.2773 11.25V36H41.4773V0.999998H49.1273L53.1773 25.85ZM81.2781 27.1C80.9448 28.6667 80.5281 30.05 80.0281 31.25C79.5615 32.4167 78.9115 33.3833 78.0781 34.15C77.2781 34.8833 76.2281 35.4167 74.9281 35.75C73.6615 36.0833 72.0781 36.1833 70.1781 36.05V31.15C71.5781 31.25 72.6781 31.1167 73.4781 30.75C74.2781 30.3833 74.7948 29.5667 75.0281 28.3L75.0781 28L67.4781 0.999998H72.9281L75.9281 12.95L77.6281 21.15L78.9281 13L81.4281 0.999998H87.1781L81.2781 27.1Z" fill="#EFEFEF"/>
<path d="M103.752 36H98.252V0.999998H103.752V16H110.002V0.999998H115.602V36H110.002V21H103.752V36ZM137.89 36H132.34L131.39 29.65H124.64L123.69 36H118.64L124.24 0.999998H132.29L137.89 36ZM125.34 24.9H130.64L127.99 7.2L125.34 24.9ZM140.951 36V0.999998H146.451V31H151.201V0.999998H156.701V31H161.451V0.999998H166.951V36H140.951ZM177.082 36H171.432V0.999998H176.332V23.15L178.332 15.45L182.832 0.999998H188.882V36H183.932V11.35L181.682 19.95L177.082 36ZM209.633 0.999998C212.4 0.999998 214.45 1.73333 215.783 3.2C217.15 4.66666 217.833 6.81666 217.833 9.65V14.2C217.833 17.0333 217.15 19.1833 215.783 20.65C214.45 22.1167 212.4 22.85 209.633 22.85H207.033V36H201.533V0.999998H209.633ZM207.033 6V17.85H209.633C210.5 17.85 211.167 17.6167 211.633 17.15C212.1 16.6833 212.333 15.8167 212.333 14.55V9.3C212.333 8.03333 212.1 7.16667 211.633 6.7C211.167 6.23333 210.5 6 209.633 6H207.033ZM226.381 15.75H233.931V20.75H226.381V31H235.881V36H220.881V0.999998H235.881V6H226.381V15.75ZM239.789 36V0.999998H245.289V31H250.039V0.999998H255.539V31H260.289V0.999998H265.789V36H239.789ZM275.77 15.75H283.32V20.75H275.77V31H285.27V36H270.27V0.999998H285.27V6H275.77V15.75ZM294.678 36H289.178V0.999998H294.678V16H300.928V0.999998H306.528V36H300.928V21H294.678V36ZM316.666 36H311.016V0.999998H315.916V23.15L317.916 15.45L322.416 0.999998H328.466V36H323.516V11.35L321.266 19.95L316.666 36ZM331.854 36C332.12 35.3333 332.287 34.6833 332.354 34.05C332.42 33.3833 332.454 32.6167 332.454 31.75V26.35C332.454 24.5167 332.704 22.9667 333.204 21.7C333.737 20.4 334.704 19.4667 336.104 18.9C333.704 17.7667 332.504 15.4 332.504 11.8V9.05C332.504 6.35 333.137 4.33333 334.404 3C335.704 1.66666 337.787 0.999998 340.654 0.999998H348.954V36H343.454V21.75H341.554C340.287 21.75 339.37 22.0833 338.804 22.75C338.237 23.4167 337.954 24.5667 337.954 26.2V31.7C337.954 32.4 337.937 32.9833 337.904 33.45C337.904 33.9167 337.87 34.3 337.804 34.6C337.77 34.9 337.72 35.15 337.654 35.35C337.587 35.55 337.52 35.7667 337.454 36H331.854ZM340.804 6C339.837 6 339.12 6.28333 338.654 6.85C338.22 7.41667 338.004 8.33333 338.004 9.6V13.05C338.004 14.45 338.287 15.4167 338.854 15.95C339.454 16.4833 340.27 16.75 341.304 16.75H343.454V6H340.804ZM5.5 86H1.41561e-07V51H17.35V86H11.75V56H5.5V86ZM26.8879 77.95C26.8879 79.2167 27.1379 80.1167 27.6379 80.65C28.1712 81.15 28.8712 81.4 29.7379 81.4C30.6046 81.4 31.2879 81.15 31.7879 80.65C32.3212 80.1167 32.5879 79.2167 32.5879 77.95V59.05C32.5879 57.7833 32.3212 56.9 31.7879 56.4C31.2879 55.8667 30.6046 55.6 29.7379 55.6C28.8712 55.6 28.1712 55.8667 27.6379 56.4C27.1379 56.9 26.8879 57.7833 26.8879 59.05V77.95ZM21.3879 59.4C21.3879 56.5667 22.1046 54.4 23.5379 52.9C24.9712 51.3667 27.0379 50.6 29.7379 50.6C32.4379 50.6 34.5046 51.3667 35.9379 52.9C37.3712 54.4 38.0879 56.5667 38.0879 59.4V77.6C38.0879 80.4333 37.3712 82.6167 35.9379 84.15C34.5046 85.65 32.4379 86.4 29.7379 86.4C27.0379 86.4 24.9712 85.65 23.5379 84.15C22.1046 82.6167 21.3879 80.4333 21.3879 77.6V59.4ZM53.8121 75.85L57.5621 51H65.2121V86H60.0121V60.9L56.2121 86H51.0121L46.9121 61.25V86H42.1121V51H49.7621L53.8121 75.85ZM74.7629 77.95C74.7629 79.2167 75.0129 80.1167 75.5129 80.65C76.0462 81.15 76.7462 81.4 77.6129 81.4C78.4796 81.4 79.1629 81.15 79.6629 80.65C80.1962 80.1167 80.4629 79.2167 80.4629 77.95V59.05C80.4629 57.7833 80.1962 56.9 79.6629 56.4C79.1629 55.8667 78.4796 55.6 77.6129 55.6C76.7462 55.6 76.0462 55.8667 75.5129 56.4C75.0129 56.9 74.7629 57.7833 74.7629 59.05V77.95ZM69.2629 59.4C69.2629 56.5667 69.9796 54.4 71.4129 52.9C72.8462 51.3667 74.9129 50.6 77.6129 50.6C80.3129 50.6 82.3796 51.3667 83.8129 52.9C85.2462 54.4 85.9629 56.5667 85.9629 59.4V77.6C85.9629 80.4333 85.2462 82.6167 83.8129 84.15C82.3796 85.65 80.3129 86.4 77.6129 86.4C74.9129 86.4 72.8462 85.65 71.4129 84.15C69.9796 82.6167 69.2629 80.4333 69.2629 77.6V59.4ZM90.0871 86V51H104.587V56H95.5871V86H90.0871ZM120.999 77.1C120.665 78.6667 120.249 80.05 119.749 81.25C119.282 82.4167 118.632 83.3833 117.799 84.15C116.999 84.8833 115.949 85.4167 114.649 85.75C113.382 86.0833 111.799 86.1833 109.899 86.05V81.15C111.299 81.25 112.399 81.1167 113.199 80.75C113.999 80.3833 114.515 79.5667 114.749 78.3L114.799 78L107.199 51H112.649L115.649 62.95L117.349 71.15L118.649 63L121.149 51H126.899L120.999 77.1ZM128.109 51H145.109V56H139.359V86H133.859V56H128.109V51Z" fill="#EA4C14"/>
</svg>
