<svg width="335" height="94" viewBox="0 0 335 94" fill="none" xmlns="http://www.w3.org/2000/svg">
<path d="M5.5 43H1.41561e-07V8H17.35V43H11.75V13H5.5V43ZM26.8879 34.95C26.8879 36.2167 27.1379 37.1167 27.6379 37.65C28.1712 38.15 28.8712 38.4 29.7379 38.4C30.6046 38.4 31.2879 38.15 31.7879 37.65C32.3212 37.1167 32.5879 36.2167 32.5879 34.95V16.05C32.5879 14.7833 32.3212 13.9 31.7879 13.4C31.2879 12.8667 30.6046 12.6 29.7379 12.6C28.8712 12.6 28.1712 12.8667 27.6379 13.4C27.1379 13.9 26.8879 14.7833 26.8879 16.05V34.95ZM21.3879 16.4C21.3879 13.5667 22.1046 11.4 23.5379 9.9C24.9712 8.36667 27.0379 7.6 29.7379 7.6C32.4379 7.6 34.5046 8.36667 35.9379 9.9C37.3712 11.4 38.0879 13.5667 38.0879 16.4V34.6C38.0879 37.4333 37.3712 39.6167 35.9379 41.15C34.5046 42.65 32.4379 43.4 29.7379 43.4C27.0379 43.4 24.9712 42.65 23.5379 41.15C22.1046 39.6167 21.3879 37.4333 21.3879 34.6V16.4ZM58.0621 47.7V43H46.3121V47.7H40.9621V38.1H43.1121C43.5788 37.5 43.8954 36.85 44.0621 36.15C44.2621 35.45 44.3954 34.5833 44.4621 33.55L45.7121 8H61.1121V38.1H63.5121V47.7H58.0621ZM49.8621 33.45C49.7954 34.7833 49.6288 35.7833 49.3621 36.45C49.1288 37.1167 48.7788 37.6667 48.3121 38.1H55.5121V13H50.8621L49.8621 33.45ZM75.1762 8C77.9428 8 79.9928 8.73333 81.3262 10.2C82.6928 11.6667 83.3762 13.8167 83.3762 16.65V21.2C83.3762 24.0333 82.6928 26.1833 81.3262 27.65C79.9928 29.1167 77.9428 29.85 75.1762 29.85H72.5762V43H67.0762V8H75.1762ZM72.5762 13V24.85H75.1762C76.0428 24.85 76.7095 24.6167 77.1762 24.15C77.6428 23.6833 77.8762 22.8167 77.8762 21.55V16.3C77.8762 15.0333 77.6428 14.1667 77.1762 13.7C76.7095 13.2333 76.0428 13 75.1762 13H72.5762ZM91.4738 34.95C91.4738 36.2167 91.7238 37.1167 92.2238 37.65C92.7572 38.15 93.4572 38.4 94.3238 38.4C95.1905 38.4 95.8738 38.15 96.3738 37.65C96.9072 37.1167 97.1738 36.2167 97.1738 34.95V16.05C97.1738 14.7833 96.9072 13.9 96.3738 13.4C95.8738 12.8667 95.1905 12.6 94.3238 12.6C93.4572 12.6 92.7572 12.8667 92.2238 13.4C91.7238 13.9 91.4738 14.7833 91.4738 16.05V34.95ZM85.9738 16.4C85.9738 13.5667 86.6905 11.4 88.1238 9.9C89.5572 8.36667 91.6238 7.6 94.3238 7.6C97.0238 7.6 99.0905 8.36667 100.524 9.9C101.957 11.4 102.674 13.5667 102.674 16.4V34.6C102.674 37.4333 101.957 39.6167 100.524 41.15C99.0905 42.65 97.0238 43.4 94.3238 43.4C91.6238 43.4 89.5572 42.65 88.1238 41.15C86.6905 39.6167 85.9738 37.4333 85.9738 34.6V16.4ZM106.798 43V8H122.198V13H112.298V21.95H115.498C118.265 21.95 120.331 22.6833 121.698 24.15C123.098 25.6167 123.798 27.7667 123.798 30.6V34.35C123.798 37.1833 123.098 39.3333 121.698 40.8C120.331 42.2667 118.265 43 115.498 43H106.798ZM115.498 38C116.365 38 117.048 37.7667 117.548 37.3C118.048 36.8333 118.298 35.9667 118.298 34.7V30.25C118.298 28.9833 118.048 28.1167 117.548 27.65C117.048 27.1833 116.365 26.95 115.498 26.95H112.298V38H115.498ZM133.5 43H128V8H133.5V23H139.75V8H145.35V43H139.75V28H133.5V43ZM155.338 22.75H162.888V27.75H155.338V38H164.838V43H149.838V8H164.838V13H155.338V22.75ZM174.246 22.75H181.796V27.75H174.246V38H183.746V43H168.746V8H183.746V13H174.246V22.75Z" fill="white"/>
<path d="M200.968 34.95C200.968 36.2167 201.218 37.1167 201.718 37.65C202.251 38.15 202.951 38.4 203.818 38.4C204.685 38.4 205.368 38.15 205.868 37.65C206.401 37.1167 206.668 36.2167 206.668 34.95V16.05C206.668 14.7833 206.401 13.9 205.868 13.4C205.368 12.8667 204.685 12.6 203.818 12.6C202.951 12.6 202.251 12.8667 201.718 13.4C201.218 13.9 200.968 14.7833 200.968 16.05V34.95ZM195.468 16.4C195.468 13.5667 196.185 11.4 197.618 9.9C199.051 8.36667 201.118 7.6 203.818 7.6C206.518 7.6 208.585 8.36667 210.018 9.9C211.451 11.4 212.168 13.5667 212.168 16.4V34.6C212.168 37.4333 211.451 39.6167 210.018 41.15C208.585 42.65 206.518 43.4 203.818 43.4C201.118 43.4 199.051 42.65 197.618 41.15C196.185 39.6167 195.468 37.4333 195.468 34.6V16.4ZM230.006 43H224.506V8H230.006V23H236.256V8H241.856V43H236.256V28H230.006V43ZM264.144 43H258.594L257.644 36.65H250.894L249.944 43H244.894L250.494 8H258.544L264.144 43ZM251.594 31.9H256.894L254.244 14.2L251.594 31.9ZM267.205 43V8H272.705V38H277.455V8H282.955V38H287.705V8H293.205V43H267.205ZM303.186 22.75H310.736V27.75H303.186V38H312.686V43H297.686V8H312.686V13H303.186V22.75ZM322.244 43H316.594V8H321.494V30.15L323.494 22.45L327.994 8H334.044V43H329.094V18.35L326.844 26.95L322.244 43ZM331.244 0.199997C331.244 1.9 330.76 3.25 329.794 4.25C328.827 5.25 327.36 5.75 325.394 5.75C323.46 5.75 322.027 5.25 321.094 4.25C320.194 3.25 319.71 1.9 319.644 0.199997H323.044C323.11 1.13333 323.327 1.75 323.694 2.05C324.094 2.35 324.66 2.5 325.394 2.5C326.16 2.5 326.744 2.35 327.144 2.05C327.577 1.75 327.827 1.13333 327.894 0.199997H331.244ZM8.1 58C10.8667 58 12.9167 58.7333 14.25 60.2C15.6167 61.6667 16.3 63.8167 16.3 66.65V71.2C16.3 74.0333 15.6167 76.1833 14.25 77.65C12.9167 79.1167 10.8667 79.85 8.1 79.85H5.5V93H1.41561e-07V58H8.1ZM5.5 63V74.85H8.1C8.96667 74.85 9.63333 74.6167 10.1 74.15C10.5667 73.6833 10.8 72.8167 10.8 71.55V66.3C10.8 65.0333 10.5667 64.1667 10.1 63.7C9.63333 63.2333 8.96667 63 8.1 63H5.5ZM37.1477 93H31.5977L30.6477 86.65H23.8977L22.9477 93H17.8977L23.4977 58H31.5477L37.1477 93ZM24.5977 81.9H29.8977L27.2477 64.2L24.5977 81.9ZM40.259 93V58H55.659V63H45.759V71.95H48.959C51.7257 71.95 53.7923 72.6833 55.159 74.15C56.559 75.6167 57.259 77.7667 57.259 80.6V84.35C57.259 87.1833 56.559 89.3333 55.159 90.8C53.7923 92.2667 51.7257 93 48.959 93H40.259ZM48.959 88C49.8257 88 50.509 87.7667 51.009 87.3C51.509 86.8333 51.759 85.9667 51.759 84.7V80.25C51.759 78.9833 51.509 78.1167 51.009 77.65C50.509 77.1833 49.8257 76.95 48.959 76.95H45.759V88H48.959ZM66.5109 84.95C66.5109 86.2167 66.7609 87.1167 67.2609 87.65C67.7943 88.15 68.4943 88.4 69.3609 88.4C70.2276 88.4 70.9109 88.15 71.4109 87.65C71.9443 87.1167 72.2109 86.2167 72.2109 84.95V66.05C72.2109 64.7833 71.9443 63.9 71.4109 63.4C70.9109 62.8667 70.2276 62.6 69.3609 62.6C68.4943 62.6 67.7943 62.8667 67.2609 63.4C66.7609 63.9 66.5109 64.7833 66.5109 66.05V84.95ZM61.0109 66.4C61.0109 63.5667 61.7276 61.4 63.1609 59.9C64.5943 58.3667 66.6609 57.6 69.3609 57.6C72.0609 57.6 74.1276 58.3667 75.5609 59.9C76.9943 61.4 77.7109 63.5667 77.7109 66.4V84.6C77.7109 87.4333 76.9943 89.6167 75.5609 91.15C74.1276 92.65 72.0609 93.4 69.3609 93.4C66.6609 93.4 64.5943 92.65 63.1609 91.15C61.7276 89.6167 61.0109 87.4333 61.0109 84.6V66.4ZM80.1852 58H97.1852V63H91.4352V93H85.9352V63H80.1852V58ZM105.607 72.75H113.157V77.75H105.607V88H115.107V93H100.107V58H115.107V63H105.607V72.75Z" fill="#EA4C14"/>
</svg>
