<svg width="1237" height="49" viewBox="0 0 1237 49" fill="none" xmlns="http://www.w3.org/2000/svg">
<path d="M7.41052 43H0.810523V0.999997H21.6305V43H14.9105V7H7.41052V43ZM33.076 33.34C33.076 34.86 33.376 35.94 33.976 36.58C34.616 37.18 35.456 37.48 36.496 37.48C37.536 37.48 38.356 37.18 38.956 36.58C39.596 35.94 39.916 34.86 39.916 33.34V10.66C39.916 9.14 39.596 8.08 38.956 7.48C38.356 6.84 37.536 6.52 36.496 6.52C35.456 6.52 34.616 6.84 33.976 7.48C33.376 8.08 33.076 9.14 33.076 10.66V33.34ZM26.476 11.08C26.476 7.68 27.336 5.08 29.056 3.28C30.776 1.44 33.256 0.52 36.496 0.52C39.736 0.52 42.216 1.44 43.936 3.28C45.656 5.08 46.516 7.68 46.516 11.08V32.92C46.516 36.32 45.656 38.94 43.936 40.78C42.216 42.58 39.736 43.48 36.496 43.48C33.256 43.48 30.776 42.58 29.056 40.78C27.336 38.94 26.476 36.32 26.476 32.92V11.08ZM49.5451 37.06C50.3051 37.06 50.9251 37.02 51.4051 36.94C51.9251 36.86 52.3451 36.68 52.6651 36.4C52.9851 36.08 53.2051 35.64 53.3251 35.08C53.4851 34.48 53.5851 33.7 53.6251 32.74L54.7051 0.999997H73.3651V43H66.6451V7H60.8851L60.1651 32.38C60.0451 36.22 59.2251 38.96 57.7051 40.6C56.2251 42.24 53.8451 43.06 50.5651 43.06H49.5451V37.06ZM93.6568 32.32C93.2568 34.2 92.7568 35.86 92.1568 37.3C91.5968 38.7 90.8168 39.86 89.8168 40.78C88.8568 41.66 87.5968 42.3 86.0368 42.7C84.5168 43.1 82.6168 43.22 80.3368 43.06V37.18C82.0168 37.3 83.3368 37.14 84.2968 36.7C85.2568 36.26 85.8768 35.28 86.1568 33.76L86.2168 33.4L77.0968 0.999997H83.6368L87.2368 15.34L89.2768 25.18L90.8368 15.4L93.8368 0.999997H100.737L93.6568 32.32ZM124.149 0.999997V43H117.549V26.08C116.829 26.88 115.929 27.48 114.849 27.88C113.809 28.24 112.829 28.42 111.909 28.42C109.189 28.42 107.129 27.54 105.729 25.78C104.369 23.98 103.689 21.64 103.689 18.76V0.999997H110.289V18.22C110.289 19.62 110.669 20.66 111.429 21.34C112.189 22.02 113.089 22.36 114.129 22.36C115.169 22.36 115.989 22 116.589 21.28C117.229 20.52 117.549 19.44 117.549 18.04V0.999997H124.149ZM136.391 43H129.611V0.999997H135.491V27.58L137.891 18.34L143.291 0.999997H150.551V43H144.611V13.42L141.911 23.74L136.391 43ZM153.897 0.999997H174.297V7H167.397V43H160.797V7H153.897V0.999997ZM184.403 18.7H193.463V24.7H184.403V37H195.803V43H177.803V0.999997H195.803V7H184.403V18.7ZM220.13 0.999997C223.45 0.999997 225.91 1.88 227.51 3.64C229.15 5.4 229.97 7.98 229.97 11.38V16.84C229.97 20.24 229.15 22.82 227.51 24.58C225.91 26.34 223.45 27.22 220.13 27.22H217.01V43H210.41V0.999997H220.13ZM217.01 7V21.22H220.13C221.17 21.22 221.97 20.94 222.53 20.38C223.09 19.82 223.37 18.78 223.37 17.26V10.96C223.37 9.44 223.09 8.4 222.53 7.84C221.97 7.28 221.17 7 220.13 7H217.01ZM254.987 43H248.327L247.187 35.38H239.087L237.947 43H231.887L238.607 0.999997H248.267L254.987 43ZM239.927 29.68H246.287L243.107 8.44L239.927 29.68ZM277.801 27.34V32.92C277.801 36.32 276.961 38.94 275.281 40.78C273.641 42.58 271.201 43.48 267.961 43.48C264.721 43.48 262.261 42.58 260.581 40.78C258.941 38.94 258.121 36.32 258.121 32.92V11.08C258.121 7.68 258.941 5.08 260.581 3.28C262.261 1.44 264.721 0.52 267.961 0.52C271.201 0.52 273.641 1.44 275.281 3.28C276.961 5.08 277.801 7.68 277.801 11.08V15.16H271.561V10.66C271.561 9.14 271.241 8.08 270.601 7.48C270.001 6.84 269.181 6.52 268.141 6.52C267.101 6.52 266.261 6.84 265.621 7.48C265.021 8.08 264.721 9.14 264.721 10.66V33.34C264.721 34.86 265.021 35.92 265.621 36.52C266.261 37.12 267.101 37.42 268.141 37.42C269.181 37.42 270.001 37.12 270.601 36.52C271.241 35.92 271.561 34.86 271.561 33.34V27.34H277.801ZM302.445 0.999997V43H295.845V26.08C295.125 26.88 294.225 27.48 293.145 27.88C292.105 28.24 291.125 28.42 290.205 28.42C287.485 28.42 285.425 27.54 284.025 25.78C282.665 23.98 281.985 21.64 281.985 18.76V0.999997H288.585V18.22C288.585 19.62 288.965 20.66 289.725 21.34C290.485 22.02 291.385 22.36 292.425 22.36C293.465 22.36 294.285 22 294.885 21.28C295.525 20.52 295.845 19.44 295.845 18.04V0.999997H302.445ZM314.507 18.7H323.567V24.7H314.507V37H325.907V43H307.907V0.999997H325.907V7H314.507V18.7ZM328.677 0.999997H349.077V7H342.177V43H335.577V7H328.677V0.999997ZM381.64 27.34V32.92C381.64 36.32 380.8 38.94 379.12 40.78C377.48 42.58 375.04 43.48 371.8 43.48C368.56 43.48 366.1 42.58 364.42 40.78C362.78 38.94 361.96 36.32 361.96 32.92V11.08C361.96 7.68 362.78 5.08 364.42 3.28C366.1 1.44 368.56 0.52 371.8 0.52C375.04 0.52 377.48 1.44 379.12 3.28C380.8 5.08 381.64 7.68 381.64 11.08V15.16H375.4V10.66C375.4 9.14 375.08 8.08 374.44 7.48C373.84 6.84 373.02 6.52 371.98 6.52C370.94 6.52 370.1 6.84 369.46 7.48C368.86 8.08 368.56 9.14 368.56 10.66V33.34C368.56 34.86 368.86 35.92 369.46 36.52C370.1 37.12 370.94 37.42 371.98 37.42C373.02 37.42 373.84 37.12 374.44 36.52C375.08 35.92 375.4 34.86 375.4 33.34V27.34H381.64ZM384.325 0.999997H404.725V7H397.825V43H391.225V7H384.325V0.999997ZM414.292 33.34C414.292 34.86 414.592 35.94 415.192 36.58C415.832 37.18 416.672 37.48 417.712 37.48C418.752 37.48 419.572 37.18 420.172 36.58C420.812 35.94 421.132 34.86 421.132 33.34V10.66C421.132 9.14 420.812 8.08 420.172 7.48C419.572 6.84 418.752 6.52 417.712 6.52C416.672 6.52 415.832 6.84 415.192 7.48C414.592 8.08 414.292 9.14 414.292 10.66V33.34ZM407.692 11.08C407.692 7.68 408.552 5.08 410.272 3.28C411.992 1.44 414.472 0.52 417.712 0.52C420.952 0.52 423.432 1.44 425.152 3.28C426.872 5.08 427.732 7.68 427.732 11.08V32.92C427.732 36.32 426.872 38.94 425.152 40.78C423.432 42.58 420.952 43.48 417.712 43.48C414.472 43.48 411.992 42.58 410.272 40.78C408.552 38.94 407.692 36.32 407.692 32.92V11.08ZM439.401 43H432.621V0.999997H438.501V27.58L440.901 18.34L446.301 0.999997H453.561V43H447.621V13.42L444.921 23.74L439.401 43ZM472.806 30.82L477.306 0.999997H486.486V43H480.246V12.88L475.686 43H469.446L464.526 13.3V43H458.766V0.999997H467.946L472.806 30.82ZM497.947 33.34C497.947 34.86 498.247 35.94 498.847 36.58C499.487 37.18 500.327 37.48 501.367 37.48C502.407 37.48 503.227 37.18 503.827 36.58C504.467 35.94 504.787 34.86 504.787 33.34V10.66C504.787 9.14 504.467 8.08 503.827 7.48C503.227 6.84 502.407 6.52 501.367 6.52C500.327 6.52 499.487 6.84 498.847 7.48C498.247 8.08 497.947 9.14 497.947 10.66V33.34ZM491.347 11.08C491.347 7.68 492.207 5.08 493.927 3.28C495.647 1.44 498.127 0.52 501.367 0.52C504.607 0.52 507.087 1.44 508.807 3.28C510.527 5.08 511.387 7.68 511.387 11.08V32.92C511.387 36.32 510.527 38.94 508.807 40.78C507.087 42.58 504.607 43.48 501.367 43.48C498.127 43.48 495.647 42.58 493.927 40.78C492.207 38.94 491.347 36.32 491.347 32.92V11.08ZM535.416 27.34V32.92C535.416 36.32 534.576 38.94 532.896 40.78C531.256 42.58 528.816 43.48 525.576 43.48C522.336 43.48 519.876 42.58 518.196 40.78C516.556 38.94 515.736 36.32 515.736 32.92V11.08C515.736 7.68 516.556 5.08 518.196 3.28C519.876 1.44 522.336 0.52 525.576 0.52C528.816 0.52 531.256 1.44 532.896 3.28C534.576 5.08 535.416 7.68 535.416 11.08V15.16H529.176V10.66C529.176 9.14 528.856 8.08 528.216 7.48C527.616 6.84 526.796 6.52 525.756 6.52C524.716 6.52 523.876 6.84 523.236 7.48C522.636 8.08 522.336 9.14 522.336 10.66V33.34C522.336 34.86 522.636 35.92 523.236 36.52C523.876 37.12 524.716 37.42 525.756 37.42C526.796 37.42 527.616 37.12 528.216 36.52C528.856 35.92 529.176 34.86 529.176 33.34V27.34H535.416ZM538.101 0.999997H558.501V7H551.601V43H545.001V7H538.101V0.999997ZM568.787 43H562.007V0.999997H567.887V27.58L570.287 18.34L575.687 0.999997H582.947V43H577.007V13.42L574.307 23.74L568.787 43ZM608.089 0.999997C611.529 0.999997 614.009 1.8 615.529 3.4C617.089 5 617.869 7.42 617.869 10.66V12.16C617.869 14.32 617.529 16.1 616.849 17.5C616.169 18.9 615.089 19.94 613.609 20.62C615.409 21.3 616.669 22.42 617.389 23.98C618.149 25.5 618.529 27.38 618.529 29.62V33.04C618.529 36.28 617.689 38.76 616.009 40.48C614.329 42.16 611.829 43 608.509 43H598.129V0.999997H608.089ZM604.729 24.1V37H608.509C609.629 37 610.469 36.7 611.029 36.1C611.629 35.5 611.929 34.42 611.929 32.86V29.2C611.929 27.24 611.589 25.9 610.909 25.18C610.269 24.46 609.189 24.1 607.669 24.1H604.729ZM604.729 7V18.1H607.309C608.549 18.1 609.509 17.78 610.189 17.14C610.909 16.5 611.269 15.34 611.269 13.66V11.32C611.269 9.8 610.989 8.7 610.429 8.02C609.909 7.34 609.069 7 607.909 7H604.729ZM644.464 43H637.804L636.664 35.38H628.564L627.424 43H621.364L628.084 0.999997H637.744L644.464 43ZM629.404 29.68H635.764L632.584 8.44L629.404 29.68ZM648.138 43V0.999997H654.738V37H660.438V0.999997H667.038V37H672.738V0.999997H679.338V43H648.138ZM691.314 18.7H700.374V24.7H691.314V37H702.714V43H684.714V0.999997H702.714V7H691.314V18.7ZM707.464 43V0.999997H724.864V7H714.064V43H707.464ZM735.978 33.34C735.978 34.86 736.278 35.94 736.878 36.58C737.518 37.18 738.358 37.48 739.398 37.48C740.438 37.48 741.258 37.18 741.858 36.58C742.498 35.94 742.818 34.86 742.818 33.34V10.66C742.818 9.14 742.498 8.08 741.858 7.48C741.258 6.84 740.438 6.52 739.398 6.52C738.358 6.52 737.518 6.84 736.878 7.48C736.278 8.08 735.978 9.14 735.978 10.66V33.34ZM729.378 11.08C729.378 7.68 730.238 5.08 731.958 3.28C733.678 1.44 736.158 0.52 739.398 0.52C742.638 0.52 745.118 1.44 746.838 3.28C748.558 5.08 749.418 7.68 749.418 11.08V32.92C749.418 36.32 748.558 38.94 746.838 40.78C745.118 42.58 742.638 43.48 739.398 43.48C736.158 43.48 733.678 42.58 731.958 40.78C730.238 38.94 729.378 36.32 729.378 32.92V11.08ZM770.824 43H764.224V0.999997H785.044V43H778.324V7H770.824V43ZM800.149 0.999997C803.469 0.999997 805.929 1.88 807.529 3.64C809.169 5.4 809.989 7.98 809.989 11.38V16.84C809.989 20.24 809.169 22.82 807.529 24.58C805.929 26.34 803.469 27.22 800.149 27.22H797.029V43H790.429V0.999997H800.149ZM797.029 7V21.22H800.149C801.189 21.22 801.989 20.94 802.549 20.38C803.109 19.82 803.389 18.78 803.389 17.26V10.96C803.389 9.44 803.109 8.4 802.549 7.84C801.989 7.28 801.189 7 800.149 7H797.029ZM819.706 33.34C819.706 34.86 820.006 35.94 820.606 36.58C821.246 37.18 822.086 37.48 823.126 37.48C824.166 37.48 824.986 37.18 825.586 36.58C826.226 35.94 826.546 34.86 826.546 33.34V10.66C826.546 9.14 826.226 8.08 825.586 7.48C824.986 6.84 824.166 6.52 823.126 6.52C822.086 6.52 821.246 6.84 820.606 7.48C820.006 8.08 819.706 9.14 819.706 10.66V33.34ZM813.106 11.08C813.106 7.68 813.966 5.08 815.686 3.28C817.406 1.44 819.886 0.52 823.126 0.52C826.366 0.52 828.846 1.44 830.566 3.28C832.286 5.08 833.146 7.68 833.146 11.08V32.92C833.146 36.32 832.286 38.94 830.566 40.78C828.846 42.58 826.366 43.48 823.126 43.48C819.886 43.48 817.406 42.58 815.686 40.78C813.966 38.94 813.106 36.32 813.106 32.92V11.08ZM844.635 18.7H853.695V24.7H844.635V37H856.035V43H838.035V0.999997H856.035V7H844.635V18.7ZM869.365 26.26L867.325 30.1V43H860.725V0.999997H867.325V19.3L875.965 0.999997H882.565L873.385 19.72L882.565 43H875.785L869.365 26.26ZM884.249 0.999997H904.649V7H897.749V43H891.149V7H884.249V0.999997ZM929.516 43H922.856L921.716 35.38H913.616L912.476 43H906.416L913.136 0.999997H922.796L929.516 43ZM914.456 29.68H920.816L917.636 8.44L914.456 29.68ZM953.066 0.999997C956.506 0.999997 958.986 1.8 960.506 3.4C962.066 5 962.846 7.42 962.846 10.66V12.16C962.846 14.32 962.506 16.1 961.826 17.5C961.146 18.9 960.066 19.94 958.586 20.62C960.386 21.3 961.646 22.42 962.366 23.98C963.126 25.5 963.506 27.38 963.506 29.62V33.04C963.506 36.28 962.666 38.76 960.986 40.48C959.306 42.16 956.806 43 953.486 43H943.106V0.999997H953.066ZM949.706 24.1V37H953.486C954.606 37 955.446 36.7 956.006 36.1C956.606 35.5 956.906 34.42 956.906 32.86V29.2C956.906 27.24 956.566 25.9 955.886 25.18C955.246 24.46 954.166 24.1 952.646 24.1H949.706ZM949.706 7V18.1H952.286C953.526 18.1 954.486 17.78 955.166 17.14C955.886 16.5 956.246 15.34 956.246 13.66V11.32C956.246 9.8 955.966 8.7 955.406 8.02C954.886 7.34 954.046 7 952.886 7H949.706ZM997.077 48.64V43H982.977V48.64H976.557V37.12H979.137C979.697 36.4 980.077 35.62 980.277 34.78C980.517 33.94 980.677 32.9 980.757 31.66L982.257 0.999997H1000.74V37.12H1003.62V48.64H997.077ZM987.237 31.54C987.157 33.14 986.957 34.34 986.637 35.14C986.357 35.94 985.937 36.6 985.377 37.12H994.017V7H988.437L987.237 31.54ZM1014.49 18.7H1023.55V24.7H1014.49V37H1025.89V43H1007.89V0.999997H1025.89V7H1014.49V18.7ZM1037.18 43H1030.58V0.999997H1037.18V19H1044.68V0.999997H1051.4V43H1044.68V25H1037.18V43ZM1056.79 43V0.999997H1063.39V16.78H1066.51C1069.83 16.78 1072.29 17.66 1073.89 19.42C1075.53 21.18 1076.35 23.76 1076.35 27.16V32.62C1076.35 36.02 1075.53 38.6 1073.89 40.36C1072.29 42.12 1069.83 43 1066.51 43H1056.79ZM1066.51 37C1067.55 37 1068.35 36.72 1068.91 36.16C1069.47 35.6 1069.75 34.56 1069.75 33.04V26.74C1069.75 25.22 1069.47 24.18 1068.91 23.62C1068.35 23.06 1067.55 22.78 1066.51 22.78H1063.39V37H1066.51ZM1103.52 11.32C1103.52 9.44 1103.2 8.18 1102.56 7.54C1101.96 6.86 1101.14 6.52 1100.1 6.52C1099.06 6.52 1098.22 6.84 1097.58 7.48C1096.94 8.08 1096.62 9.14 1096.62 10.66V14.08H1090.56V10.96C1090.56 7.56 1091.36 4.98 1092.96 3.22C1094.6 1.42 1097.04 0.52 1100.28 0.52C1103.52 0.52 1105.96 1.44 1107.6 3.28C1109.28 5.08 1110.12 7.68 1110.12 11.08V12.16C1110.12 16.64 1108.58 19.52 1105.5 20.8C1107.18 21.52 1108.36 22.64 1109.04 24.16C1109.76 25.64 1110.12 27.46 1110.12 29.62V32.92C1110.12 36.32 1109.28 38.94 1107.6 40.78C1105.96 42.58 1103.52 43.48 1100.28 43.48C1097.04 43.48 1094.58 42.58 1092.9 40.78C1091.26 38.94 1090.44 36.32 1090.44 32.92V28.3H1096.68V33.34C1096.68 34.86 1096.98 35.94 1097.58 36.58C1098.22 37.18 1099.06 37.48 1100.1 37.48C1101.14 37.48 1101.96 37.16 1102.56 36.52C1103.2 35.88 1103.52 34.62 1103.52 32.74V29.44C1103.52 27.48 1103.18 26.1 1102.5 25.3C1101.82 24.5 1100.72 24.1 1099.2 24.1H1097.58V18.1H1099.56C1100.8 18.1 1101.76 17.78 1102.44 17.14C1103.16 16.5 1103.52 15.34 1103.52 13.66V11.32ZM1136.55 43H1129.89L1128.75 35.38H1120.65L1119.51 43H1113.45L1120.17 0.999997H1129.83L1136.55 43ZM1121.49 29.68H1127.85L1124.67 8.44L1121.49 29.68ZM1139.02 43C1139.34 42.2 1139.54 41.42 1139.62 40.66C1139.7 39.86 1139.74 38.94 1139.74 37.9V31.42C1139.74 29.22 1140.04 27.36 1140.64 25.84C1141.28 24.28 1142.44 23.16 1144.12 22.48C1141.24 21.12 1139.8 18.28 1139.8 13.96V10.66C1139.8 7.42 1140.56 5 1142.08 3.4C1143.64 1.8 1146.14 0.999997 1149.58 0.999997H1159.54V43H1152.94V25.9H1150.66C1149.14 25.9 1148.04 26.3 1147.36 27.1C1146.68 27.9 1146.34 29.28 1146.34 31.24V37.84C1146.34 38.68 1146.32 39.38 1146.28 39.94C1146.28 40.5 1146.24 40.96 1146.16 41.32C1146.12 41.68 1146.06 41.98 1145.98 42.22C1145.9 42.46 1145.82 42.72 1145.74 43H1139.02ZM1149.76 7C1148.6 7 1147.74 7.34 1147.18 8.02C1146.66 8.7 1146.4 9.8 1146.4 11.32V15.46C1146.4 17.14 1146.74 18.3 1147.42 18.94C1148.14 19.58 1149.12 19.9 1150.36 19.9H1152.94V7H1149.76ZM1174.93 0.999997C1178.37 0.999997 1180.85 1.8 1182.37 3.4C1183.93 5 1184.71 7.42 1184.71 10.66V12.16C1184.71 14.32 1184.37 16.1 1183.69 17.5C1183.01 18.9 1181.93 19.94 1180.45 20.62C1182.25 21.3 1183.51 22.42 1184.23 23.98C1184.99 25.5 1185.37 27.38 1185.37 29.62V33.04C1185.37 36.28 1184.53 38.76 1182.85 40.48C1181.17 42.16 1178.67 43 1175.35 43H1164.97V0.999997H1174.93ZM1171.57 24.1V37H1175.35C1176.47 37 1177.31 36.7 1177.87 36.1C1178.47 35.5 1178.77 34.42 1178.77 32.86V29.2C1178.77 27.24 1178.43 25.9 1177.75 25.18C1177.11 24.46 1176.03 24.1 1174.51 24.1H1171.57ZM1171.57 7V18.1H1174.15C1175.39 18.1 1176.35 17.78 1177.03 17.14C1177.75 16.5 1178.11 15.34 1178.11 13.66V11.32C1178.11 9.8 1177.83 8.7 1177.27 8.02C1176.75 7.34 1175.91 7 1174.75 7H1171.57ZM1198.58 26.26L1196.54 30.1V43H1189.94V0.999997H1196.54V19.3L1205.18 0.999997H1211.78L1202.6 19.72L1211.78 43H1205L1198.58 26.26ZM1222.16 43H1215.38V0.999997H1221.26V27.58L1223.66 18.34L1229.06 0.999997H1236.32V43H1230.38V13.42L1227.68 23.74L1222.16 43Z" fill="#EFEFEF"/>
</svg>
