<svg width="442" height="90" viewBox="0 0 442 90" fill="none" xmlns="http://www.w3.org/2000/svg">
<path d="M8.1 -2.38419e-06C10.8667 -2.38419e-06 12.9167 0.733331 14.25 2.2C15.6167 3.66666 16.3 5.81666 16.3 8.65V13.2C16.3 16.0333 15.6167 18.1833 14.25 19.65C12.9167 21.1167 10.8667 21.85 8.1 21.85H5.5V35H1.41561e-07V-2.38419e-06H8.1ZM5.5 5V16.85H8.1C8.96667 16.85 9.63333 16.6167 10.1 16.15C10.5667 15.6833 10.8 14.8167 10.8 13.55V8.3C10.8 7.03333 10.5667 6.16667 10.1 5.7C9.63333 5.23333 8.96667 5 8.1 5H5.5ZM24.8477 14.75H32.3977V19.75H24.8477V30H34.3477V35H19.3477V-2.38419e-06H34.3477V5H24.8477V14.75ZM45.4559 21.05L43.7559 24.25V35H38.2559V-2.38419e-06H43.7559V15.25L50.9559 -2.38419e-06H56.4559L48.8059 15.6L56.4559 35H50.8059L45.4559 21.05ZM57.909 30.05C58.5423 30.05 59.059 30.0167 59.459 29.95C59.8923 29.8833 60.2423 29.7333 60.509 29.5C60.7757 29.2333 60.959 28.8667 61.059 28.4C61.1923 27.9 61.2757 27.25 61.309 26.45L62.209 -2.38419e-06H77.759V35H72.159V5H67.359L66.759 26.15C66.659 29.35 65.9757 31.6333 64.709 33C63.4757 34.3667 61.4923 35.05 58.759 35.05H57.909V30.05ZM100.269 35H94.7188L93.7688 28.65H87.0188L86.0688 35H81.0188L86.6188 -2.38419e-06H94.6688L100.269 35ZM87.7188 23.9H93.0188L90.3688 6.2L87.7188 23.9ZM114.98 24.85L118.73 -2.38419e-06H126.38V35H121.18V9.9L117.38 35H112.18L108.08 10.25V35H103.28V-2.38419e-06H110.93L114.98 24.85ZM136.381 35H130.881V-2.38419e-06H136.381V15H142.631V-2.38419e-06H148.231V35H142.631V20H136.381V35ZM170.519 35H164.969L164.019 28.65H157.269L156.319 35H151.269L156.869 -2.38419e-06H164.919L170.519 35ZM157.969 23.9H163.269L160.619 6.2L157.969 23.9ZM172.58 35C172.847 34.3333 173.013 33.6833 173.08 33.05C173.147 32.3833 173.18 31.6167 173.18 30.75V25.35C173.18 23.5167 173.43 21.9667 173.93 20.7C174.463 19.4 175.43 18.4667 176.83 17.9C174.43 16.7667 173.23 14.4 173.23 10.8V8.05C173.23 5.35 173.863 3.33333 175.13 2C176.43 0.666665 178.513 -2.38419e-06 181.38 -2.38419e-06H189.68V35H184.18V20.75H182.28C181.013 20.75 180.097 21.0833 179.53 21.75C178.963 22.4167 178.68 23.5667 178.68 25.2V30.7C178.68 31.4 178.663 31.9833 178.63 32.45C178.63 32.9167 178.597 33.3 178.53 33.6C178.497 33.9 178.447 34.15 178.38 34.35C178.313 34.55 178.247 34.7667 178.18 35H172.58ZM181.53 5C180.563 5 179.847 5.28333 179.38 5.85C178.947 6.41667 178.73 7.33333 178.73 8.6V12.05C178.73 13.45 179.013 14.4167 179.58 14.95C180.18 15.4833 180.997 15.75 182.03 15.75H184.18V5H181.53ZM208.111 35H202.461V-2.38419e-06H207.361V22.15L209.361 14.45L213.861 -2.38419e-06H219.911V35H214.961V10.35L212.711 18.95L208.111 35ZM238.063 35H232.563V-2.38419e-06H249.913V35H244.313V5H238.063V35ZM262.5 -2.38419e-06C265.267 -2.38419e-06 267.317 0.733331 268.65 2.2C270.017 3.66666 270.7 5.81666 270.7 8.65V13.2C270.7 16.0333 270.017 18.1833 268.65 19.65C267.317 21.1167 265.267 21.85 262.5 21.85H259.9V35H254.4V-2.38419e-06H262.5ZM259.9 5V16.85H262.5C263.367 16.85 264.034 16.6167 264.5 16.15C264.967 15.6833 265.2 14.8167 265.2 13.55V8.3C265.2 7.03333 264.967 6.16667 264.5 5.7C264.034 5.23333 263.367 5 262.5 5H259.9ZM279.248 14.75H286.798V19.75H279.248V30H288.748V35H273.748V-2.38419e-06H288.748V5H279.248V14.75ZM308.556 39.7V35H296.806V39.7H291.456V30.1H293.606C294.073 29.5 294.39 28.85 294.556 28.15C294.756 27.45 294.89 26.5833 294.956 25.55L296.206 -2.38419e-06H311.606V30.1H314.006V39.7H308.556ZM300.356 25.45C300.29 26.7833 300.123 27.7833 299.856 28.45C299.623 29.1167 299.273 29.6667 298.806 30.1H306.006V5H301.356L300.356 25.45ZM329.22 24.85L332.97 -2.38419e-06H340.62V35H335.42V9.9L331.62 35H326.42L322.32 10.25V35H317.52V-2.38419e-06H325.17L329.22 24.85ZM350.621 14.75H358.171V19.75H350.621V30H360.121V35H345.121V-2.38419e-06H360.121V5H350.621V14.75ZM362.429 -2.38419e-06H379.429V5H373.679V35H368.179V5H362.429V-2.38419e-06ZM387.852 35H382.352V-2.38419e-06H387.852V15H394.102V-2.38419e-06H399.702V35H394.102V20H387.852V35ZM421.989 35H416.439L415.489 28.65H408.739L407.789 35H402.739L408.339 -2.38419e-06H416.389L421.989 35ZM409.439 23.9H414.739L412.089 6.2L409.439 23.9ZM424.051 35C424.317 34.3333 424.484 33.6833 424.551 33.05C424.617 32.3833 424.651 31.6167 424.651 30.75V25.35C424.651 23.5167 424.901 21.9667 425.401 20.7C425.934 19.4 426.901 18.4667 428.301 17.9C425.901 16.7667 424.701 14.4 424.701 10.8V8.05C424.701 5.35 425.334 3.33333 426.601 2C427.901 0.666665 429.984 -2.38419e-06 432.851 -2.38419e-06H441.151V35H435.651V20.75H433.751C432.484 20.75 431.567 21.0833 431.001 21.75C430.434 22.4167 430.151 23.5667 430.151 25.2V30.7C430.151 31.4 430.134 31.9833 430.101 32.45C430.101 32.9167 430.067 33.3 430.001 33.6C429.967 33.9 429.917 34.15 429.851 34.35C429.784 34.55 429.717 34.7667 429.651 35H424.051ZM433.001 5C432.034 5 431.317 5.28333 430.851 5.85C430.417 6.41667 430.201 7.33333 430.201 8.6V12.05C430.201 13.45 430.484 14.4167 431.051 14.95C431.651 15.4833 432.467 15.75 433.501 15.75H435.651V5H433.001ZM8.3 50C11.1667 50 13.2333 50.6667 14.5 52C15.8 53.3333 16.45 55.35 16.45 58.05V59.3C16.45 61.1 16.1667 62.5833 15.6 63.75C15.0333 64.9167 14.1333 65.7833 12.9 66.35C14.4 66.9167 15.45 67.85 16.05 69.15C16.6833 70.4167 17 71.9833 17 73.85V76.7C17 79.4 16.3 81.4667 14.9 82.9C13.5 84.3 11.4167 85 8.65 85H1.41561e-07V50H8.3ZM5.5 69.25V80H8.65C9.58333 80 10.2833 79.75 10.75 79.25C11.25 78.75 11.5 77.85 11.5 76.55V73.5C11.5 71.8667 11.2167 70.75 10.65 70.15C10.1167 69.55 9.21667 69.25 7.95 69.25H5.5ZM5.5 55V64.25H7.65C8.68333 64.25 9.48333 63.9833 10.05 63.45C10.65 62.9167 10.95 61.95 10.95 60.55V58.6C10.95 57.3333 10.7167 56.4167 10.25 55.85C9.81667 55.2833 9.11667 55 8.15 55H5.5ZM26.4625 85H20.8125V50H25.7125V72.15L27.7125 64.45L32.2125 50H38.2625V85H33.3125V60.35L31.0625 68.95L26.4625 85ZM53.2504 58.6C53.2504 57.0333 52.9837 55.9833 52.4504 55.45C51.9504 54.8833 51.2671 54.6 50.4004 54.6C49.5337 54.6 48.8337 54.8667 48.3004 55.4C47.7671 55.9 47.5004 56.7833 47.5004 58.05V60.9H42.4504V58.3C42.4504 55.4667 43.1171 53.3167 44.4504 51.85C45.8171 50.35 47.8504 49.6 50.5504 49.6C53.2504 49.6 55.2837 50.3667 56.6504 51.9C58.0504 53.4 58.7504 55.5667 58.7504 58.4V59.3C58.7504 63.0333 57.4671 65.4333 54.9004 66.5C56.3004 67.1 57.2837 68.0333 57.8504 69.3C58.4504 70.5333 58.7504 72.05 58.7504 73.85V76.6C58.7504 79.4333 58.0504 81.6167 56.6504 83.15C55.2837 84.65 53.2504 85.4 50.5504 85.4C47.8504 85.4 45.8004 84.65 44.4004 83.15C43.0337 81.6167 42.3504 79.4333 42.3504 76.6V72.75H47.5504V76.95C47.5504 78.2167 47.8004 79.1167 48.3004 79.65C48.8337 80.15 49.5337 80.4 50.4004 80.4C51.2671 80.4 51.9504 80.1333 52.4504 79.6C52.9837 79.0667 53.2504 78.0167 53.2504 76.45V73.7C53.2504 72.0667 52.9671 70.9167 52.4004 70.25C51.8337 69.5833 50.9171 69.25 49.6504 69.25H48.3004V64.25H49.9504C50.9837 64.25 51.7837 63.9833 52.3504 63.45C52.9504 62.9167 53.2504 61.95 53.2504 60.55V58.6ZM75.1746 76.1C74.8413 77.6667 74.4246 79.05 73.9246 80.25C73.4579 81.4167 72.8079 82.3833 71.9746 83.15C71.1746 83.8833 70.1246 84.4167 68.8246 84.75C67.5579 85.0833 65.9746 85.1833 64.0746 85.05V80.15C65.4746 80.25 66.5746 80.1167 67.3746 79.75C68.1746 79.3833 68.6913 78.5667 68.9246 77.3L68.9746 77L61.3746 50H66.8246L69.8246 61.95L71.5246 70.15L72.8246 62L75.3246 50H81.0746L75.1746 76.1ZM101.685 85H96.1348L95.1848 78.65H88.4348L87.4848 85H82.4348L88.0348 50H96.0848L101.685 85ZM89.1348 73.9H94.4348L91.7848 56.2L89.1348 73.9ZM103.196 80.05C103.829 80.05 104.346 80.0167 104.746 79.95C105.179 79.8833 105.529 79.7333 105.796 79.5C106.063 79.2333 106.246 78.8667 106.346 78.4C106.479 77.9 106.563 77.25 106.596 76.45L107.496 50H123.046V85H117.446V55H112.646L112.046 76.15C111.946 79.35 111.263 81.6333 109.996 83C108.763 84.3667 106.779 85.05 104.046 85.05H103.196V80.05ZM133.406 85H127.756V50H132.656V72.15L134.656 64.45L139.156 50H145.206V85H140.256V60.35L138.006 68.95L133.406 85ZM160.194 58.6C160.194 57.0333 159.927 55.9833 159.394 55.45C158.894 54.8833 158.21 54.6 157.344 54.6C156.477 54.6 155.777 54.8667 155.244 55.4C154.71 55.9 154.444 56.7833 154.444 58.05V60.9H149.394V58.3C149.394 55.4667 150.06 53.3167 151.394 51.85C152.76 50.35 154.794 49.6 157.494 49.6C160.194 49.6 162.227 50.3667 163.594 51.9C164.994 53.4 165.694 55.5667 165.694 58.4V59.3C165.694 63.0333 164.41 65.4333 161.844 66.5C163.244 67.1 164.227 68.0333 164.794 69.3C165.394 70.5333 165.694 72.05 165.694 73.85V76.6C165.694 79.4333 164.994 81.6167 163.594 83.15C162.227 84.65 160.194 85.4 157.494 85.4C154.794 85.4 152.744 84.65 151.344 83.15C149.977 81.6167 149.294 79.4333 149.294 76.6V72.75H154.494V76.95C154.494 78.2167 154.744 79.1167 155.244 79.65C155.777 80.15 156.477 80.4 157.344 80.4C158.21 80.4 158.894 80.1333 159.394 79.6C159.927 79.0667 160.194 78.0167 160.194 76.45V73.7C160.194 72.0667 159.91 70.9167 159.344 70.25C158.777 69.5833 157.86 69.25 156.594 69.25H155.244V64.25H156.894C157.927 64.25 158.727 63.9833 159.294 63.45C159.894 62.9167 160.194 61.95 160.194 60.55V58.6ZM187.718 85H182.168L181.218 78.65H174.468L173.518 85H168.468L174.068 50H182.118L187.718 85ZM175.168 73.9H180.468L177.818 56.2L175.168 73.9ZM190.779 50H196.279V80H202.529V50H208.129V80.1H210.529V89.7H205.179V85H190.779V50ZM219.683 85H214.033V50H218.933V72.15L220.933 64.45L225.433 50H231.483V85H226.533V60.35L224.283 68.95L219.683 85ZM234.871 85C235.138 84.3333 235.304 83.6833 235.371 83.05C235.438 82.3833 235.471 81.6167 235.471 80.75V75.35C235.471 73.5167 235.721 71.9667 236.221 70.7C236.754 69.4 237.721 68.4667 239.121 67.9C236.721 66.7667 235.521 64.4 235.521 60.8V58.05C235.521 55.35 236.154 53.3333 237.421 52C238.721 50.6667 240.804 50 243.671 50H251.971V85H246.471V70.75H244.571C243.304 70.75 242.388 71.0833 241.821 71.75C241.254 72.4167 240.971 73.5667 240.971 75.2V80.7C240.971 81.4 240.954 81.9833 240.921 82.45C240.921 82.9167 240.888 83.3 240.821 83.6C240.788 83.9 240.738 84.15 240.671 84.35C240.604 84.55 240.538 84.7667 240.471 85H234.871ZM243.821 55C242.854 55 242.138 55.2833 241.671 55.85C241.238 56.4167 241.021 57.3333 241.021 58.6V62.05C241.021 63.45 241.304 64.4167 241.871 64.95C242.471 65.4833 243.288 65.75 244.321 65.75H246.471V55H243.821Z" fill="#EFEFEF"/>
</svg>
