<svg width="360" height="41" viewBox="0 0 360 41" fill="none" xmlns="http://www.w3.org/2000/svg">
<path d="M16.95 22.95V27.6C16.95 30.4333 16.25 32.6167 14.85 34.15C13.4833 35.65 11.45 36.4 8.75 36.4C6.05 36.4 4 35.65 2.6 34.15C1.23333 32.6167 0.55 30.4333 0.55 27.6V9.4C0.55 6.56667 1.23333 4.4 2.6 2.9C4 1.36667 6.05 0.6 8.75 0.6C11.45 0.6 13.4833 1.36667 14.85 2.9C16.25 4.4 16.95 6.56667 16.95 9.4V12.8H11.75V9.05C11.75 7.78333 11.4833 6.9 10.95 6.4C10.45 5.86667 9.76667 5.6 8.9 5.6C8.03333 5.6 7.33333 5.86667 6.8 6.4C6.3 6.9 6.05 7.78333 6.05 9.05V27.95C6.05 29.2167 6.3 30.1 6.8 30.6C7.33333 31.1 8.03333 31.35 8.9 31.35C9.76667 31.35 10.45 31.1 10.95 30.6C11.4833 30.1 11.75 29.2167 11.75 27.95V22.95H16.95ZM19.2371 31.05C19.8704 31.05 20.3871 31.0167 20.7871 30.95C21.2204 30.8833 21.5704 30.7333 21.8371 30.5C22.1038 30.2333 22.2871 29.8667 22.3871 29.4C22.5204 28.9 22.6038 28.25 22.6371 27.45L23.5371 0.999998H39.0871V36H33.4871V6H28.6871L28.0871 27.15C27.9871 30.35 27.3038 32.6333 26.0371 34C24.8038 35.3667 22.8204 36.05 20.0871 36.05H19.2371V31.05ZM48.8469 27.95C48.8469 29.2167 49.0969 30.1167 49.5969 30.65C50.1302 31.15 50.8302 31.4 51.6969 31.4C52.5635 31.4 53.2469 31.15 53.7469 30.65C54.2802 30.1167 54.5469 29.2167 54.5469 27.95V9.05C54.5469 7.78333 54.2802 6.9 53.7469 6.4C53.2469 5.86667 52.5635 5.6 51.6969 5.6C50.8302 5.6 50.1302 5.86667 49.5969 6.4C49.0969 6.9 48.8469 7.78333 48.8469 9.05V27.95ZM43.3469 9.4C43.3469 6.56667 44.0635 4.4 45.4969 2.9C46.9302 1.36667 48.9969 0.6 51.6969 0.6C54.3969 0.6 56.4635 1.36667 57.8969 2.9C59.3302 4.4 60.0469 6.56667 60.0469 9.4V27.6C60.0469 30.4333 59.3302 32.6167 57.8969 34.15C56.4635 35.65 54.3969 36.4 51.6969 36.4C48.9969 36.4 46.9302 35.65 45.4969 34.15C44.0635 32.6167 43.3469 30.4333 43.3469 27.6V9.4ZM72.4211 0.999998C75.2878 0.999998 77.3544 1.66666 78.6211 3C79.9211 4.33333 80.5711 6.35 80.5711 9.05V10.3C80.5711 12.1 80.2878 13.5833 79.7211 14.75C79.1544 15.9167 78.2544 16.7833 77.0211 17.35C78.5211 17.9167 79.5711 18.85 80.1711 20.15C80.8044 21.4167 81.1211 22.9833 81.1211 24.85V27.7C81.1211 30.4 80.4211 32.4667 79.0211 33.9C77.6211 35.3 75.5378 36 72.7711 36H64.1211V0.999998H72.4211ZM69.6211 20.25V31H72.7711C73.7044 31 74.4044 30.75 74.8711 30.25C75.3711 29.75 75.6211 28.85 75.6211 27.55V24.5C75.6211 22.8667 75.3378 21.75 74.7711 21.15C74.2378 20.55 73.3378 20.25 72.0711 20.25H69.6211ZM69.6211 6V15.25H71.7711C72.8044 15.25 73.6044 14.9833 74.1711 14.45C74.7711 13.9167 75.0711 12.95 75.0711 11.55V9.6C75.0711 8.33333 74.8378 7.41667 74.3711 6.85C73.9378 6.28333 73.2378 6 72.2711 6H69.6211ZM89.9836 27.95C89.9836 29.2167 90.2336 30.1167 90.7336 30.65C91.2669 31.15 91.9669 31.4 92.8336 31.4C93.7003 31.4 94.3836 31.15 94.8836 30.65C95.4169 30.1167 95.6836 29.2167 95.6836 27.95V9.05C95.6836 7.78333 95.4169 6.9 94.8836 6.4C94.3836 5.86667 93.7003 5.6 92.8336 5.6C91.9669 5.6 91.2669 5.86667 90.7336 6.4C90.2336 6.9 89.9836 7.78333 89.9836 9.05V27.95ZM84.4836 9.4C84.4836 6.56667 85.2003 4.4 86.6336 2.9C88.0669 1.36667 90.1336 0.6 92.8336 0.6C95.5336 0.6 97.6003 1.36667 99.0336 2.9C100.467 4.4 101.184 6.56667 101.184 9.4V27.6C101.184 30.4333 100.467 32.6167 99.0336 34.15C97.6003 35.65 95.5336 36.4 92.8336 36.4C90.1336 36.4 88.0669 35.65 86.6336 34.15C85.2003 32.6167 84.4836 30.4333 84.4836 27.6V9.4ZM121.621 0.999998C124.388 0.999998 126.438 1.73333 127.771 3.2C129.138 4.66666 129.821 6.81666 129.821 9.65V14.2C129.821 17.0333 129.138 19.1833 127.771 20.65C126.438 22.1167 124.388 22.85 121.621 22.85H119.021V36H113.521V0.999998H121.621ZM119.021 6V17.85H121.621C122.488 17.85 123.155 17.6167 123.621 17.15C124.088 16.6833 124.321 15.8167 124.321 14.55V9.3C124.321 8.03333 124.088 7.16667 123.621 6.7C123.155 6.23333 122.488 6 121.621 6H119.021ZM145.069 27.1C144.736 28.6667 144.319 30.05 143.819 31.25C143.352 32.4167 142.702 33.3833 141.869 34.15C141.069 34.8833 140.019 35.4167 138.719 35.75C137.452 36.0833 135.869 36.1833 133.969 36.05V31.15C135.369 31.25 136.469 31.1167 137.269 30.75C138.069 30.3833 138.586 29.5667 138.819 28.3L138.869 28L131.269 0.999998H136.719L139.719 12.95L141.419 21.15L142.719 13L145.219 0.999998H150.969L145.069 27.1ZM160.979 22.05L159.279 25.25V36H153.779V0.999998H159.279V16.25L166.479 0.999998H171.979L164.329 16.6L171.979 36H166.329L160.979 22.05ZM180.032 27.95C180.032 29.2167 180.282 30.1167 180.782 30.65C181.316 31.15 182.016 31.4 182.882 31.4C183.749 31.4 184.432 31.15 184.932 30.65C185.466 30.1167 185.732 29.2167 185.732 27.95V9.05C185.732 7.78333 185.466 6.9 184.932 6.4C184.432 5.86667 183.749 5.6 182.882 5.6C182.016 5.6 181.316 5.86667 180.782 6.4C180.282 6.9 180.032 7.78333 180.032 9.05V27.95ZM174.532 9.4C174.532 6.56667 175.249 4.4 176.682 2.9C178.116 1.36667 180.182 0.6 182.882 0.6C185.582 0.6 187.649 1.36667 189.082 2.9C190.516 4.4 191.232 6.56667 191.232 9.4V27.6C191.232 30.4333 190.516 32.6167 189.082 34.15C187.649 35.65 185.582 36.4 182.882 36.4C180.182 36.4 178.116 35.65 176.682 34.15C175.249 32.6167 174.532 30.4333 174.532 27.6V9.4ZM203.607 0.999998C206.473 0.999998 208.54 1.66666 209.807 3C211.107 4.33333 211.757 6.35 211.757 9.05V10.3C211.757 12.1 211.473 13.5833 210.907 14.75C210.34 15.9167 209.44 16.7833 208.207 17.35C209.707 17.9167 210.757 18.85 211.357 20.15C211.99 21.4167 212.307 22.9833 212.307 24.85V27.7C212.307 30.4 211.607 32.4667 210.207 33.9C208.807 35.3 206.723 36 203.957 36H195.307V0.999998H203.607ZM200.807 20.25V31H203.957C204.89 31 205.59 30.75 206.057 30.25C206.557 29.75 206.807 28.85 206.807 27.55V24.5C206.807 22.8667 206.523 21.75 205.957 21.15C205.423 20.55 204.523 20.25 203.257 20.25H200.807ZM200.807 6V15.25H202.957C203.99 15.25 204.79 14.9833 205.357 14.45C205.957 13.9167 206.257 12.95 206.257 11.55V9.6C206.257 8.33333 206.023 7.41667 205.557 6.85C205.123 6.28333 204.423 6 203.457 6H200.807ZM221.169 27.95C221.169 29.2167 221.419 30.1167 221.919 30.65C222.452 31.15 223.152 31.4 224.019 31.4C224.886 31.4 225.569 31.15 226.069 30.65C226.602 30.1167 226.869 29.2167 226.869 27.95V9.05C226.869 7.78333 226.602 6.9 226.069 6.4C225.569 5.86667 224.886 5.6 224.019 5.6C223.152 5.6 222.452 5.86667 221.919 6.4C221.419 6.9 221.169 7.78333 221.169 9.05V27.95ZM215.669 9.4C215.669 6.56667 216.386 4.4 217.819 2.9C219.252 1.36667 221.319 0.6 224.019 0.6C226.719 0.6 228.786 1.36667 230.219 2.9C231.652 4.4 232.369 6.56667 232.369 9.4V27.6C232.369 30.4333 231.652 32.6167 230.219 34.15C228.786 35.65 226.719 36.4 224.019 36.4C221.319 36.4 219.252 35.65 217.819 34.15C216.386 32.6167 215.669 30.4333 215.669 27.6V9.4ZM252.343 40.7V36H240.593V40.7H235.243V31.1H237.393C237.86 30.5 238.177 29.85 238.343 29.15C238.543 28.45 238.677 27.5833 238.743 26.55L239.993 0.999998H255.393V31.1H257.793V40.7H252.343ZM244.143 26.45C244.077 27.7833 243.91 28.7833 243.643 29.45C243.41 30.1167 243.06 30.6667 242.593 31.1H249.793V6H245.143L244.143 26.45ZM267.007 36H261.357V0.999998H266.257V23.15L268.257 15.45L272.757 0.999998H278.807V36H273.857V11.35L271.607 19.95L267.007 36ZM281.595 0.999998H298.595V6H292.845V36H287.345V6H281.595V0.999998ZM307.018 15.75H314.568V20.75H307.018V31H316.518V36H301.518V0.999998H316.518V6H307.018V15.75ZM318.876 31.05C319.509 31.05 320.026 31.0167 320.426 30.95C320.859 30.8833 321.209 30.7333 321.476 30.5C321.742 30.2333 321.926 29.8667 322.026 29.4C322.159 28.9 322.242 28.25 322.276 27.45L323.176 0.999998H338.726V36H333.126V6H328.326L327.726 27.15C327.626 30.35 326.942 32.6333 325.676 34C324.442 35.3667 322.459 36.05 319.726 36.05H318.876V31.05ZM342.436 36C342.702 35.3333 342.869 34.6833 342.936 34.05C343.002 33.3833 343.036 32.6167 343.036 31.75V26.35C343.036 24.5167 343.286 22.9667 343.786 21.7C344.319 20.4 345.286 19.4667 346.686 18.9C344.286 17.7667 343.086 15.4 343.086 11.8V9.05C343.086 6.35 343.719 4.33333 344.986 3C346.286 1.66666 348.369 0.999998 351.236 0.999998H359.536V36H354.036V21.75H352.136C350.869 21.75 349.952 22.0833 349.386 22.75C348.819 23.4167 348.536 24.5667 348.536 26.2V31.7C348.536 32.4 348.519 32.9833 348.486 33.45C348.486 33.9167 348.452 34.3 348.386 34.6C348.352 34.9 348.302 35.15 348.236 35.35C348.169 35.55 348.102 35.7667 348.036 36H342.436ZM351.386 6C350.419 6 349.702 6.28333 349.236 6.85C348.802 7.41667 348.586 8.33333 348.586 9.6V13.05C348.586 14.45 348.869 15.4167 349.436 15.95C350.036 16.4833 350.852 16.75 351.886 16.75H354.036V6H351.386Z" fill="#EFEFEF"/>
</svg>
