<svg width="166" height="37" viewBox="0 0 166 37" fill="none" xmlns="http://www.w3.org/2000/svg">
<path d="M16.95 22.95V27.6C16.95 30.4333 16.25 32.6167 14.85 34.15C13.4833 35.65 11.45 36.4 8.75 36.4C6.05 36.4 4 35.65 2.6 34.15C1.23333 32.6167 0.55 30.4333 0.55 27.6V9.4C0.55 6.56667 1.23333 4.4 2.6 2.9C4 1.36667 6.05 0.6 8.75 0.6C11.45 0.6 13.4833 1.36667 14.85 2.9C16.25 4.4 16.95 6.56667 16.95 9.4V12.8H11.75V9.05C11.75 7.78333 11.4833 6.9 10.95 6.4C10.45 5.86667 9.76667 5.6 8.9 5.6C8.03333 5.6 7.33333 5.86667 6.8 6.4C6.3 6.9 6.05 7.78333 6.05 9.05V27.95C6.05 29.2167 6.3 30.1 6.8 30.6C7.33333 31.1 8.03333 31.35 8.9 31.35C9.76667 31.35 10.45 31.1 10.95 30.6C11.4833 30.1 11.75 29.2167 11.75 27.95V22.95H16.95ZM32.4371 25.85L36.1871 0.999998H43.8371V36H38.6371V10.9L34.8371 36H29.6371L25.5371 11.25V36H20.7371V0.999998H28.3871L32.4371 25.85ZM53.9879 36H48.3379V0.999998H53.2379V23.15L55.2379 15.45L59.7379 0.999998H65.7879V36H60.8379V11.35L58.5879 19.95L53.9879 36ZM83.4895 27.95C83.4895 29.2167 83.7395 30.1167 84.2395 30.65C84.7728 31.15 85.4728 31.4 86.3395 31.4C87.2061 31.4 87.8895 31.15 88.3895 30.65C88.9228 30.1167 89.1895 29.2167 89.1895 27.95V9.05C89.1895 7.78333 88.9228 6.9 88.3895 6.4C87.8895 5.86667 87.2061 5.6 86.3395 5.6C85.4728 5.6 84.7728 5.86667 84.2395 6.4C83.7395 6.9 83.4895 7.78333 83.4895 9.05V27.95ZM77.9895 9.4C77.9895 6.56667 78.7061 4.4 80.1395 2.9C81.5728 1.36667 83.6395 0.6 86.3395 0.6C89.0395 0.6 91.1061 1.36667 92.5395 2.9C93.9728 4.4 94.6895 6.56667 94.6895 9.4V27.6C94.6895 30.4333 93.9728 32.6167 92.5395 34.15C91.1061 35.65 89.0395 36.4 86.3395 36.4C83.6395 36.4 81.5728 35.65 80.1395 34.15C78.7061 32.6167 77.9895 30.4333 77.9895 27.6V9.4ZM112.527 36H107.027V0.999998H112.527V16H118.777V0.999998H124.377V36H118.777V21H112.527V36ZM146.665 36H141.115L140.165 29.65H133.415L132.465 36H127.415L133.015 0.999998H141.065L146.665 36ZM134.115 24.9H139.415L136.765 7.2L134.115 24.9ZM165.677 22.95V27.6C165.677 30.4333 164.977 32.6167 163.577 34.15C162.21 35.65 160.177 36.4 157.477 36.4C154.777 36.4 152.727 35.65 151.327 34.15C149.96 32.6167 149.277 30.4333 149.277 27.6V9.4C149.277 6.56667 149.96 4.4 151.327 2.9C152.727 1.36667 154.777 0.6 157.477 0.6C160.177 0.6 162.21 1.36667 163.577 2.9C164.977 4.4 165.677 6.56667 165.677 9.4V12.8H160.477V9.05C160.477 7.78333 160.21 6.9 159.677 6.4C159.177 5.86667 158.493 5.6 157.627 5.6C156.76 5.6 156.06 5.86667 155.527 6.4C155.027 6.9 154.777 7.78333 154.777 9.05V27.95C154.777 29.2167 155.027 30.1 155.527 30.6C156.06 31.1 156.76 31.35 157.627 31.35C158.493 31.35 159.177 31.1 159.677 30.6C160.21 30.1 160.477 29.2167 160.477 27.95V22.95H165.677Z" fill="#EFEFEF"/>
</svg>
