<svg width="185" height="37" viewBox="0 0 185 37" fill="none" xmlns="http://www.w3.org/2000/svg">
<path fill-rule="evenodd" clip-rule="evenodd" d="M0 7.63813V0H38.3709V30.5525H11.5135V22.9144H30.6786V19.1043H11.5135V11.4662H30.6786V7.63813H0ZM7.66966 11.4617H0V30.5525H7.66966V11.4617Z" fill="#EA4C14"/>
<path fill-rule="evenodd" clip-rule="evenodd" d="M46.7617 30.3458V0H52.708V6.65416H73.5243V30.3458H46.7617ZM67.5781 24.424V12.5805H52.6899V24.424H67.5781Z" fill="#EFEFEF"/>
<path fill-rule="evenodd" clip-rule="evenodd" d="M76.4961 5.17146V0H82.4423V5.17146H76.4961ZM76.4961 30.3324V6.65416H82.4423V30.3458L76.4961 30.3324Z" fill="#EFEFEF"/>
<path fill-rule="evenodd" clip-rule="evenodd" d="M85.416 30.346V6.6543H112.183V30.346H106.232V12.5761H101.775V30.346H95.8242V12.5761H91.3668V30.346H85.416Z" fill="#EFEFEF"/>
<path fill-rule="evenodd" clip-rule="evenodd" d="M115.156 37.0001V6.6543H141.919V30.346H121.102V37.0001H115.156ZM135.968 24.4197V12.5806H121.102V24.4242L135.968 24.4197Z" fill="#EFEFEF"/>
<path fill-rule="evenodd" clip-rule="evenodd" d="M150.839 12.5761V30.346H144.893V6.6543H155.292V12.5761H150.839Z" fill="#EFEFEF"/>
<path fill-rule="evenodd" clip-rule="evenodd" d="M158.238 30.346V6.6543H185.001V30.346H158.238ZM179.073 24.4242V12.5806H164.185V24.4242H179.073Z" fill="#EFEFEF"/>
</svg>
